<svg xmlns="http://www.w3.org/2000/svg" width="192.9375" height="49" style="width:192.9375px;height:49px;font-family:Asana-Math, Asana;background:transparent;"><g><g><g style="transform:matrix(1,0,0,1,2,31);"><path d="M286 646L392 650C454 650 494 641 495 626L503 537L527 537C530 600 537 651 548 689C526 691 498 692 481 692L440 691L275 689L246 689C221 689 181 690 143 691L94 692L91 664L147 662C171 661 182 652 182 635C182 621 178 589 173 559L98 125C81 33 81 32 40 28L4 25L0 -3L34 -2C74 -1 106 0 127 0C145 0 174 -1 213 -2L265 -3L268 25L204 28C177 29 168 37 168 57C168 63 169 74 170 78L206 301L323 301C350 301 381 300 429 298L455 297L474 342L470 349C389 345 329 343 251 343L214 343L260 614C263 630 264 635 269 646ZM973 -3L973 27L921 30C866 33 856 44 856 96L856 700L615 598L622 548L772 614L772 96C772 44 761 33 707 30L651 27L651 -3C805 0 805 0 816 0C847 0 957 -3 973 -3Z" stroke="rgb(0, 0, 0)" stroke-width="8" fill="rgb(0, 0, 0)" style="transform:matrix(0.017,0,0,-0.017,0,0);"></path></g><g style="transform:matrix(1,0,0,1,25,31);"><path d="M604 347L604 406L65 406L65 347ZM604 134L604 193L65 193L65 134Z" stroke="rgb(0, 0, 0)" stroke-width="8" fill="rgb(0, 0, 0)" style="transform:matrix(0.017,0,0,-0.017,0,0);"></path></g><g><g><g><g style="transform:matrix(1,0,0,1,43.9375,19);"><path d="M16 23L16 -3C203 -3 203 0 239 0C275 0 275 -3 468 -3L468 82C353 77 307 81 122 77L304 270C401 373 431 428 431 503C431 618 353 689 226 689C154 689 105 669 56 619L39 483L68 483L81 529C97 587 133 612 200 612C286 612 341 558 341 473C341 398 299 324 186 204Z" stroke="rgb(0, 0, 0)" stroke-width="8" fill="rgb(0, 0, 0)" style="transform:matrix(0.017,0,0,-0.017,0,0);"></path></g><g style="transform:matrix(1,0,0,1,59.9375,19);"><path d="M124 329C94 329 67 301 67 271C67 241 94 213 123 213C155 213 183 240 183 270C183 301 155 329 124 329Z" stroke="rgb(0, 0, 0)" stroke-width="8" fill="rgb(0, 0, 0)" style="transform:matrix(0.017,0,0,-0.017,0,0);"></path></g><g style="transform:matrix(1,0,0,1,66.9375,19);"><path d="M425 -11C481 -11 596 62 639 125C680 186 714 296 714 371C714 438 691 482 655 482C613 482 560 456 508 409C467 374 447 348 411 289L435 408C438 425 440 440 440 452C440 471 432 482 418 482C397 482 359 461 285 408L257 388L264 368L296 389C324 407 335 412 344 412C354 412 361 403 361 389C361 381 359 361 357 351L299 8C289 -52 270 -143 250 -233L242 -270L249 -276C270 -269 290 -264 322 -259L364 3C385 -4 407 -11 425 -11ZM392 165C414 293 521 424 604 424C630 424 642 402 642 356C642 275 602 156 549 80C529 51 497 36 456 36C425 36 400 43 374 59ZM1116 365C1119 403 1124 435 1132 476C1121 481 1117 482 1112 482C1081 482 1050 458 1014 407C975 351 936 291 920 256L952 408C956 425 958 438 958 450C958 470 950 482 935 482C914 482 876 461 802 408L774 388L781 368L813 389C841 407 852 412 861 412C871 412 878 403 878 390C878 332 835 126 795 -2L805 -9C820 -4 836 -1 859 4L872 6L898 126C916 209 939 262 983 319C1017 363 1044 384 1066 384C1081 384 1091 379 1102 365ZM1464 111L1440 94C1387 56 1339 36 1303 36C1256 36 1227 73 1227 133C1227 158 1230 185 1235 214C1252 218 1361 248 1386 259C1471 296 1510 342 1510 404C1510 451 1476 482 1426 482C1358 496 1248 423 1211 349C1181 299 1151 180 1151 113C1151 35 1195 -11 1267 -11C1324 -11 1380 17 1472 92ZM1249 274C1266 343 1286 386 1315 412C1333 428 1364 440 1388 440C1417 440 1436 420 1436 388C1436 344 1401 297 1349 272C1321 258 1285 247 1240 237ZM1866 330L1889 330C1897 395 1904 432 1913 458C1889 473 1854 482 1817 482C1772 483 1699 463 1642 400C1588 352 1549 241 1549 136C1549 40 1591 -11 1671 -11C1725 -11 1773 9 1828 54L1878 95L1870 115L1855 105C1783 57 1745 40 1710 40C1654 40 1625 80 1625 159C1625 267 1660 371 1709 409C1730 425 1754 433 1785 433C1830 433 1866 414 1866 390ZM1964 388L1971 368L2003 389C2040 412 2043 414 2050 414C2060 414 2068 404 2068 391C2068 384 2064 361 2060 347L1994 107C1986 76 1981 49 1981 30C1981 6 1992 -9 2011 -9C2037 -9 2073 12 2171 85L2161 103L2135 86C2106 67 2083 56 2074 56C2067 56 2061 66 2061 76C2061 86 2063 95 2068 116L2145 420C2149 437 2151 448 2151 456C2151 473 2142 482 2126 482C2104 482 2067 461 1992 408ZM2158 712C2129 712 2100 679 2100 645C2100 620 2115 604 2139 604C2170 604 2194 633 2194 671C2194 695 2179 712 2158 712ZM2238 148C2233 97 2227 62 2216 16C2254 -2 2288 -11 2323 -11C2372 -11 2418 7 2469 47C2520 87 2541 124 2541 174C2541 228 2509 257 2435 271L2392 279C2332 290 2313 307 2313 348C2313 401 2358 442 2415 442C2456 442 2494 424 2510 397L2510 342L2533 342C2537 377 2541 404 2552 455C2513 474 2485 482 2452 482C2400 482 2339 452 2291 404C2265 377 2254 352 2254 316C2254 260 2285 228 2351 215L2414 203C2458 195 2474 177 2474 138C2474 73 2428 29 2357 29C2322 29 2291 40 2263 64L2263 148ZM2629 388L2636 368L2668 389C2705 412 2708 414 2715 414C2725 414 2733 404 2733 391C2733 384 2729 361 2725 347L2659 107C2651 76 2646 49 2646 30C2646 6 2657 -9 2676 -9C2702 -9 2738 12 2836 85L2826 103L2800 86C2771 67 2748 56 2739 56C2732 56 2726 66 2726 76C2726 86 2728 95 2733 116L2810 420C2814 437 2816 448 2816 456C2816 473 2807 482 2791 482C2769 482 2732 461 2657 408ZM2823 712C2794 712 2765 679 2765 645C2765 620 2780 604 2804 604C2835 604 2859 633 2859 671C2859 695 2844 712 2823 712ZM2889 152C2889 46 2934 -11 3017 -11C3072 -11 3132 15 3177 57C3239 116 3283 230 3283 331C3283 425 3233 482 3150 482C3046 482 2889 382 2889 152ZM3113 444C3174 444 3207 399 3207 315C3207 219 3176 113 3132 60C3114 39 3088 27 3057 27C2999 27 2965 72 2965 151C2965 264 3004 387 3053 427C3066 438 3089 444 3113 444ZM3339 388L3346 368L3378 389C3415 412 3418 414 3425 414C3436 414 3443 404 3443 389C3443 338 3402 145 3361 2L3368 -9C3393 -2 3416 4 3438 8C3457 134 3478 199 3524 268C3578 352 3653 414 3698 414C3709 414 3715 405 3715 390C3715 372 3712 351 3704 319L3652 107C3643 70 3639 47 3639 31C3639 6 3650 -9 3669 -9C3695 -9 3731 12 3829 85L3819 103L3793 86C3764 67 3742 56 3732 56C3725 56 3719 65 3719 76C3719 81 3720 92 3721 96L3787 372C3794 401 3798 429 3798 446C3798 469 3787 482 3767 482C3725 482 3656 444 3597 389C3559 354 3531 320 3479 247L3517 408C3521 426 3523 438 3523 449C3523 470 3515 482 3500 482C3479 482 3440 460 3367 408Z" stroke="rgb(0, 0, 0)" stroke-width="8" fill="rgb(0, 0, 0)" style="transform:matrix(0.017,0,0,-0.017,0,0);"></path></g><g style="transform:matrix(1,0,0,1,139.9375,19);"><path d="M124 329C94 329 67 301 67 271C67 241 94 213 123 213C155 213 183 240 183 270C183 301 155 329 124 329Z" stroke="rgb(0, 0, 0)" stroke-width="8" fill="rgb(0, 0, 0)" style="transform:matrix(0.017,0,0,-0.017,0,0);"></path></g><g style="transform:matrix(1,0,0,1,146.9375,19);"><path d="M617 365C620 403 625 435 633 476C622 481 618 482 613 482C582 482 551 458 515 407C476 351 437 291 421 256L453 408C457 425 459 438 459 450C459 470 451 482 436 482C415 482 377 461 303 408L275 388L282 368L314 389C342 407 353 412 362 412C372 412 379 403 379 390C379 332 336 126 296 -2L306 -9C321 -4 337 -1 360 4L373 6L399 126C417 209 440 262 484 319C518 363 545 384 567 384C582 384 592 379 603 365ZM965 111L941 94C888 56 840 36 804 36C757 36 728 73 728 133C728 158 731 185 736 214C753 218 862 248 887 259C972 296 1011 342 1011 404C1011 451 977 482 927 482C859 496 749 423 712 349C682 299 652 180 652 113C652 35 696 -11 768 -11C825 -11 881 17 973 92ZM750 274C767 343 787 386 816 412C834 428 865 440 889 440C918 440 937 420 937 388C937 344 902 297 850 272C822 258 786 247 741 237ZM1367 330L1390 330C1398 395 1405 432 1414 458C1390 473 1355 482 1318 482C1273 483 1200 463 1143 400C1089 352 1050 241 1050 136C1050 40 1092 -11 1172 -11C1226 -11 1274 9 1329 54L1379 95L1371 115L1356 105C1284 57 1246 40 1211 40C1155 40 1126 80 1126 159C1126 267 1161 371 1210 409C1231 425 1255 433 1286 433C1331 433 1367 414 1367 390ZM1702 204L1673 77C1669 60 1667 42 1667 26C1667 4 1676 -9 1691 -9C1714 -9 1755 17 1837 85L1830 106C1806 86 1777 59 1755 59C1746 59 1740 68 1740 82C1740 87 1740 90 1741 93L1833 472L1823 481L1790 463C1749 478 1732 482 1705 482C1677 482 1657 477 1630 464C1568 433 1535 403 1510 354C1466 265 1435 145 1435 67C1435 23 1450 -11 1469 -11C1506 -11 1586 41 1702 204ZM1750 414C1728 305 1709 253 1675 201C1618 117 1557 59 1525 59C1513 59 1507 72 1507 99C1507 163 1535 280 1570 360C1594 415 1617 433 1665 433C1688 433 1706 429 1750 414ZM2125 722L2113 733C2061 707 2025 698 1953 691L1949 670L1997 670C2021 670 2031 663 2031 648C2031 645 2031 640 2028 622C2017 567 1944 182 1929 132C1916 82 1910 52 1910 31C1910 6 1921 -9 1940 -9C1966 -9 2002 12 2100 85L2090 103L2064 86C2035 67 2013 56 2003 56C1996 56 1990 66 1990 76C1990 82 1991 89 1994 104ZM2402 722L2390 733C2338 707 2302 698 2230 691L2226 670L2274 670C2298 670 2308 663 2308 648C2308 645 2308 640 2305 622C2294 567 2221 182 2206 132C2193 82 2187 52 2187 31C2187 6 2198 -9 2217 -9C2243 -9 2279 12 2377 85L2367 103L2341 86C2312 67 2290 56 2280 56C2273 56 2267 66 2267 76C2267 82 2268 89 2271 104Z" stroke="rgb(0, 0, 0)" stroke-width="8" fill="rgb(0, 0, 0)" style="transform:matrix(0.017,0,0,-0.017,0,0);"></path></g></g></g><g><g><g style="transform:matrix(1,0,0,1,55.9375,44);"><path d="M176 -11C232 -11 347 62 390 125C431 186 465 296 465 371C465 438 442 482 406 482C364 482 311 456 259 409C218 374 198 348 162 289L186 408C189 425 191 440 191 452C191 471 183 482 169 482C148 482 110 461 36 408L8 388L15 368L47 389C75 407 86 412 95 412C105 412 112 403 112 389C112 381 110 361 108 351L50 8C40 -52 21 -143 1 -233L-7 -270L0 -276C21 -269 41 -264 73 -259L115 3C136 -4 158 -11 176 -11ZM143 165C165 293 272 424 355 424C381 424 393 402 393 356C393 275 353 156 300 80C280 51 248 36 207 36C176 36 151 43 125 59ZM867 365C870 403 875 435 883 476C872 481 868 482 863 482C832 482 801 458 765 407C726 351 687 291 671 256L703 408C707 425 709 438 709 450C709 470 701 482 686 482C665 482 627 461 553 408L525 388L532 368L564 389C592 407 603 412 612 412C622 412 629 403 629 390C629 332 586 126 546 -2L556 -9C571 -4 587 -1 610 4L623 6L649 126C667 209 690 262 734 319C768 363 795 384 817 384C832 384 842 379 853 365ZM1215 111L1191 94C1138 56 1090 36 1054 36C1007 36 978 73 978 133C978 158 981 185 986 214C1003 218 1112 248 1137 259C1222 296 1261 342 1261 404C1261 451 1227 482 1177 482C1109 496 999 423 962 349C932 299 902 180 902 113C902 35 946 -11 1018 -11C1075 -11 1131 17 1223 92ZM1000 274C1017 343 1037 386 1066 412C1084 428 1115 440 1139 440C1168 440 1187 420 1187 388C1187 344 1152 297 1100 272C1072 258 1036 247 991 237ZM1617 330L1640 330C1648 395 1655 432 1664 458C1640 473 1605 482 1568 482C1523 483 1450 463 1393 400C1339 352 1300 241 1300 136C1300 40 1342 -11 1422 -11C1476 -11 1524 9 1579 54L1629 95L1621 115L1606 105C1534 57 1496 40 1461 40C1405 40 1376 80 1376 159C1376 267 1411 371 1460 409C1481 425 1505 433 1536 433C1581 433 1617 414 1617 390ZM1715 388L1722 368L1754 389C1791 412 1794 414 1801 414C1811 414 1819 404 1819 391C1819 384 1815 361 1811 347L1745 107C1737 76 1732 49 1732 30C1732 6 1743 -9 1762 -9C1788 -9 1824 12 1922 85L1912 103L1886 86C1857 67 1834 56 1825 56C1818 56 1812 66 1812 76C1812 86 1814 95 1819 116L1896 420C1900 437 1902 448 1902 456C1902 473 1893 482 1877 482C1855 482 1818 461 1743 408ZM1909 712C1880 712 1851 679 1851 645C1851 620 1866 604 1890 604C1921 604 1945 633 1945 671C1945 695 1930 712 1909 712ZM1989 148C1984 97 1978 62 1967 16C2005 -2 2039 -11 2074 -11C2123 -11 2169 7 2220 47C2271 87 2292 124 2292 174C2292 228 2260 257 2186 271L2143 279C2083 290 2064 307 2064 348C2064 401 2109 442 2166 442C2207 442 2245 424 2261 397L2261 342L2284 342C2288 377 2292 404 2303 455C2264 474 2236 482 2203 482C2151 482 2090 452 2042 404C2016 377 2005 352 2005 316C2005 260 2036 228 2102 215L2165 203C2209 195 2225 177 2225 138C2225 73 2179 29 2108 29C2073 29 2042 40 2014 64L2014 148ZM2380 388L2387 368L2419 389C2456 412 2459 414 2466 414C2476 414 2484 404 2484 391C2484 384 2480 361 2476 347L2410 107C2402 76 2397 49 2397 30C2397 6 2408 -9 2427 -9C2453 -9 2489 12 2587 85L2577 103L2551 86C2522 67 2499 56 2490 56C2483 56 2477 66 2477 76C2477 86 2479 95 2484 116L2561 420C2565 437 2567 448 2567 456C2567 473 2558 482 2542 482C2520 482 2483 461 2408 408ZM2574 712C2545 712 2516 679 2516 645C2516 620 2531 604 2555 604C2586 604 2610 633 2610 671C2610 695 2595 712 2574 712ZM2640 152C2640 46 2685 -11 2768 -11C2823 -11 2883 15 2928 57C2990 116 3034 230 3034 331C3034 425 2984 482 2901 482C2797 482 2640 382 2640 152ZM2864 444C2925 444 2958 399 2958 315C2958 219 2927 113 2883 60C2865 39 2839 27 2808 27C2750 27 2716 72 2716 151C2716 264 2755 387 2804 427C2817 438 2840 444 2864 444ZM3090 388L3097 368L3129 389C3166 412 3169 414 3176 414C3187 414 3194 404 3194 389C3194 338 3153 145 3112 2L3119 -9C3144 -2 3167 4 3189 8C3208 134 3229 199 3275 268C3329 352 3404 414 3449 414C3460 414 3466 405 3466 390C3466 372 3463 351 3455 319L3403 107C3394 70 3390 47 3390 31C3390 6 3401 -9 3420 -9C3446 -9 3482 12 3580 85L3570 103L3544 86C3515 67 3493 56 3483 56C3476 56 3470 65 3470 76C3470 81 3471 92 3472 96L3538 372C3545 401 3549 429 3549 446C3549 469 3538 482 3518 482C3476 482 3407 444 3348 389C3310 354 3282 320 3230 247L3268 408C3272 426 3274 438 3274 449C3274 470 3266 482 3251 482C3230 482 3191 460 3118 408Z" stroke="rgb(0, 0, 0)" stroke-width="8" fill="rgb(0, 0, 0)" style="transform:matrix(0.017,0,0,-0.017,0,0);"></path></g><g style="transform:matrix(1,0,0,1,124.9375,44);"><path d="M604 241L604 300L364 300L364 538L305 538L305 300L65 300L65 241L305 241L305 0L364 0L364 241Z" stroke="rgb(0, 0, 0)" stroke-width="8" fill="rgb(0, 0, 0)" style="transform:matrix(0.017,0,0,-0.017,0,0);"></path></g><g style="transform:matrix(1,0,0,1,138.9375,44);"><path d="M368 365C371 403 376 435 384 476C373 481 369 482 364 482C333 482 302 458 266 407C227 351 188 291 172 256L204 408C208 425 210 438 210 450C210 470 202 482 187 482C166 482 128 461 54 408L26 388L33 368L65 389C93 407 104 412 113 412C123 412 130 403 130 390C130 332 87 126 47 -2L57 -9C72 -4 88 -1 111 4L124 6L150 126C168 209 191 262 235 319C269 363 296 384 318 384C333 384 343 379 354 365ZM716 111L692 94C639 56 591 36 555 36C508 36 479 73 479 133C479 158 482 185 487 214C504 218 613 248 638 259C723 296 762 342 762 404C762 451 728 482 678 482C610 496 500 423 463 349C433 299 403 180 403 113C403 35 447 -11 519 -11C576 -11 632 17 724 92ZM501 274C518 343 538 386 567 412C585 428 616 440 640 440C669 440 688 420 688 388C688 344 653 297 601 272C573 258 537 247 492 237ZM1118 330L1141 330C1149 395 1156 432 1165 458C1141 473 1106 482 1069 482C1024 483 951 463 894 400C840 352 801 241 801 136C801 40 843 -11 923 -11C977 -11 1025 9 1080 54L1130 95L1122 115L1107 105C1035 57 997 40 962 40C906 40 877 80 877 159C877 267 912 371 961 409C982 425 1006 433 1037 433C1082 433 1118 414 1118 390ZM1453 204L1424 77C1420 60 1418 42 1418 26C1418 4 1427 -9 1442 -9C1465 -9 1506 17 1588 85L1581 106C1557 86 1528 59 1506 59C1497 59 1491 68 1491 82C1491 87 1491 90 1492 93L1584 472L1574 481L1541 463C1500 478 1483 482 1456 482C1428 482 1408 477 1381 464C1319 433 1286 403 1261 354C1217 265 1186 145 1186 67C1186 23 1201 -11 1220 -11C1257 -11 1337 41 1453 204ZM1501 414C1479 305 1460 253 1426 201C1369 117 1308 59 1276 59C1264 59 1258 72 1258 99C1258 163 1286 280 1321 360C1345 415 1368 433 1416 433C1439 433 1457 429 1501 414ZM1876 722L1864 733C1812 707 1776 698 1704 691L1700 670L1748 670C1772 670 1782 663 1782 648C1782 645 1782 640 1779 622C1768 567 1695 182 1680 132C1667 82 1661 52 1661 31C1661 6 1672 -9 1691 -9C1717 -9 1753 12 1851 85L1841 103L1815 86C1786 67 1764 56 1754 56C1747 56 1741 66 1741 76C1741 82 1742 89 1745 104ZM2153 722L2141 733C2089 707 2053 698 1981 691L1977 670L2025 670C2049 670 2059 663 2059 648C2059 645 2059 640 2056 622C2045 567 1972 182 1957 132C1944 82 1938 52 1938 31C1938 6 1949 -9 1968 -9C1994 -9 2030 12 2128 85L2118 103L2092 86C2063 67 2041 56 2031 56C2024 56 2018 66 2018 76C2018 82 2019 89 2022 104Z" stroke="rgb(0, 0, 0)" stroke-width="8" fill="rgb(0, 0, 0)" style="transform:matrix(0.017,0,0,-0.017,0,0);"></path></g></g></g><line style="fill:none;stroke-width:1px;stroke:rgb(0, 0, 0);" x1="42.9375" y1="26.75" x2="189" y2="26.75"></line></g></g></g></svg>