<svg xmlns="http://www.w3.org/2000/svg" width="149.109375" height="45" style="width:149.109375px;height:45px;font-family:Asana-Math, Asana;background:transparent;"><g><g><g style="transform:matrix(1,0,0,1,2,27);"><path d="M176 -11C232 -11 347 62 390 125C431 186 465 296 465 371C465 438 442 482 406 482C364 482 311 456 259 409C218 374 198 348 162 289L186 408C189 425 191 440 191 452C191 471 183 482 169 482C148 482 110 461 36 408L8 388L15 368L47 389C75 407 86 412 95 412C105 412 112 403 112 389C112 381 110 361 108 351L50 8C40 -52 21 -143 1 -233L-7 -270L0 -276C21 -269 41 -264 73 -259L115 3C136 -4 158 -11 176 -11ZM143 165C165 293 272 424 355 424C381 424 393 402 393 356C393 275 353 156 300 80C280 51 248 36 207 36C176 36 151 43 125 59ZM867 365C870 403 875 435 883 476C872 481 868 482 863 482C832 482 801 458 765 407C726 351 687 291 671 256L703 408C707 425 709 438 709 450C709 470 701 482 686 482C665 482 627 461 553 408L525 388L532 368L564 389C592 407 603 412 612 412C622 412 629 403 629 390C629 332 586 126 546 -2L556 -9C571 -4 587 -1 610 4L623 6L649 126C667 209 690 262 734 319C768 363 795 384 817 384C832 384 842 379 853 365ZM1215 111L1191 94C1138 56 1090 36 1054 36C1007 36 978 73 978 133C978 158 981 185 986 214C1003 218 1112 248 1137 259C1222 296 1261 342 1261 404C1261 451 1227 482 1177 482C1109 496 999 423 962 349C932 299 902 180 902 113C902 35 946 -11 1018 -11C1075 -11 1131 17 1223 92ZM1000 274C1017 343 1037 386 1066 412C1084 428 1115 440 1139 440C1168 440 1187 420 1187 388C1187 344 1152 297 1100 272C1072 258 1036 247 991 237ZM1617 330L1640 330C1648 395 1655 432 1664 458C1640 473 1605 482 1568 482C1523 483 1450 463 1393 400C1339 352 1300 241 1300 136C1300 40 1342 -11 1422 -11C1476 -11 1524 9 1579 54L1629 95L1621 115L1606 105C1534 57 1496 40 1461 40C1405 40 1376 80 1376 159C1376 267 1411 371 1460 409C1481 425 1505 433 1536 433C1581 433 1617 414 1617 390ZM1715 388L1722 368L1754 389C1791 412 1794 414 1801 414C1811 414 1819 404 1819 391C1819 384 1815 361 1811 347L1745 107C1737 76 1732 49 1732 30C1732 6 1743 -9 1762 -9C1788 -9 1824 12 1922 85L1912 103L1886 86C1857 67 1834 56 1825 56C1818 56 1812 66 1812 76C1812 86 1814 95 1819 116L1896 420C1900 437 1902 448 1902 456C1902 473 1893 482 1877 482C1855 482 1818 461 1743 408ZM1909 712C1880 712 1851 679 1851 645C1851 620 1866 604 1890 604C1921 604 1945 633 1945 671C1945 695 1930 712 1909 712ZM1989 148C1984 97 1978 62 1967 16C2005 -2 2039 -11 2074 -11C2123 -11 2169 7 2220 47C2271 87 2292 124 2292 174C2292 228 2260 257 2186 271L2143 279C2083 290 2064 307 2064 348C2064 401 2109 442 2166 442C2207 442 2245 424 2261 397L2261 342L2284 342C2288 377 2292 404 2303 455C2264 474 2236 482 2203 482C2151 482 2090 452 2042 404C2016 377 2005 352 2005 316C2005 260 2036 228 2102 215L2165 203C2209 195 2225 177 2225 138C2225 73 2179 29 2108 29C2073 29 2042 40 2014 64L2014 148ZM2380 388L2387 368L2419 389C2456 412 2459 414 2466 414C2476 414 2484 404 2484 391C2484 384 2480 361 2476 347L2410 107C2402 76 2397 49 2397 30C2397 6 2408 -9 2427 -9C2453 -9 2489 12 2587 85L2577 103L2551 86C2522 67 2499 56 2490 56C2483 56 2477 66 2477 76C2477 86 2479 95 2484 116L2561 420C2565 437 2567 448 2567 456C2567 473 2558 482 2542 482C2520 482 2483 461 2408 408ZM2574 712C2545 712 2516 679 2516 645C2516 620 2531 604 2555 604C2586 604 2610 633 2610 671C2610 695 2595 712 2574 712ZM2640 152C2640 46 2685 -11 2768 -11C2823 -11 2883 15 2928 57C2990 116 3034 230 3034 331C3034 425 2984 482 2901 482C2797 482 2640 382 2640 152ZM2864 444C2925 444 2958 399 2958 315C2958 219 2927 113 2883 60C2865 39 2839 27 2808 27C2750 27 2716 72 2716 151C2716 264 2755 387 2804 427C2817 438 2840 444 2864 444ZM3090 388L3097 368L3129 389C3166 412 3169 414 3176 414C3187 414 3194 404 3194 389C3194 338 3153 145 3112 2L3119 -9C3144 -2 3167 4 3189 8C3208 134 3229 199 3275 268C3329 352 3404 414 3449 414C3460 414 3466 405 3466 390C3466 372 3463 351 3455 319L3403 107C3394 70 3390 47 3390 31C3390 6 3401 -9 3420 -9C3446 -9 3482 12 3580 85L3570 103L3544 86C3515 67 3493 56 3483 56C3476 56 3470 65 3470 76C3470 81 3471 92 3472 96L3538 372C3545 401 3549 429 3549 446C3549 469 3538 482 3518 482C3476 482 3407 444 3348 389C3310 354 3282 320 3230 247L3268 408C3272 426 3274 438 3274 449C3274 470 3266 482 3251 482C3230 482 3191 460 3118 408Z" stroke="rgb(0, 0, 0)" stroke-width="8" fill="rgb(0, 0, 0)" style="transform:matrix(0.017,0,0,-0.017,0,0);"></path></g><g style="transform:matrix(1,0,0,1,73,27);"><path d="M604 347L604 406L65 406L65 347ZM604 134L604 193L65 193L65 134Z" stroke="rgb(0, 0, 0)" stroke-width="8" fill="rgb(0, 0, 0)" style="transform:matrix(0.017,0,0,-0.017,0,0);"></path></g><g style="transform:matrix(1,0,0,1,89,27);"><path d="" stroke="rgb(0, 0, 0)" stroke-width="8" fill="rgb(0, 0, 0)" style="transform:matrix(0.017,0,0,-0.017,0,0);"></path></g><g><g><g><g style="transform:matrix(1,0,0,1,113.03125,15);"><path d="M125 390L69 107C68 99 56 61 56 31C56 6 67 -9 86 -9C121 -9 156 11 234 74L265 99L255 117L210 86C181 66 161 56 150 56C141 56 136 64 136 76C136 102 150 183 179 328L192 390L299 390L310 440C272 436 238 434 200 434C216 528 227 577 245 631L234 646C214 634 187 622 156 610L131 440C87 419 61 408 43 403L41 390ZM508 -11C564 -11 679 62 722 125C763 186 797 296 797 371C797 438 774 482 738 482C696 482 643 456 591 409C550 374 530 348 494 289L518 408C521 425 523 440 523 452C523 471 515 482 501 482C480 482 442 461 368 408L340 388L347 368L379 389C407 407 418 412 427 412C437 412 444 403 444 389C444 381 442 361 440 351L382 8C372 -52 353 -143 333 -233L325 -270L332 -276C353 -269 373 -264 405 -259L447 3C468 -4 490 -11 508 -11ZM475 165C497 293 604 424 687 424C713 424 725 402 725 356C725 275 685 156 632 80C612 51 580 36 539 36C508 36 483 43 457 59Z" stroke="rgb(0, 0, 0)" stroke-width="8" fill="rgb(0, 0, 0)" style="transform:matrix(0.017,0,0,-0.017,0,0);"></path></g></g></g><g><g><g style="transform:matrix(1,0,0,1,95.03125,40);"><path d="M125 390L69 107C68 99 56 61 56 31C56 6 67 -9 86 -9C121 -9 156 11 234 74L265 99L255 117L210 86C181 66 161 56 150 56C141 56 136 64 136 76C136 102 150 183 179 328L192 390L299 390L310 440C272 436 238 434 200 434C216 528 227 577 245 631L234 646C214 634 187 622 156 610L131 440C87 419 61 408 43 403L41 390ZM508 -11C564 -11 679 62 722 125C763 186 797 296 797 371C797 438 774 482 738 482C696 482 643 456 591 409C550 374 530 348 494 289L518 408C521 425 523 440 523 452C523 471 515 482 501 482C480 482 442 461 368 408L340 388L347 368L379 389C407 407 418 412 427 412C437 412 444 403 444 389C444 381 442 361 440 351L382 8C372 -52 353 -143 333 -233L325 -270L332 -276C353 -269 373 -264 405 -259L447 3C468 -4 490 -11 508 -11ZM475 165C497 293 604 424 687 424C713 424 725 402 725 356C725 275 685 156 632 80C612 51 580 36 539 36C508 36 483 43 457 59Z" stroke="rgb(0, 0, 0)" stroke-width="8" fill="rgb(0, 0, 0)" style="transform:matrix(0.017,0,0,-0.017,0,0);"></path></g><g style="transform:matrix(1,0,0,1,113.03125,40);"><path d="M604 241L604 300L364 300L364 538L305 538L305 300L65 300L65 241L305 241L305 0L364 0L364 241Z" stroke="rgb(0, 0, 0)" stroke-width="8" fill="rgb(0, 0, 0)" style="transform:matrix(0.017,0,0,-0.017,0,0);"></path></g><g style="transform:matrix(1,0,0,1,127.03125,40);"><path d="M345 437L329 437L350 549C366 635 394 673 440 673C470 673 497 658 512 634L522 638C527 654 537 685 545 705L550 720C534 727 503 733 480 733C469 733 453 730 445 726C421 715 339 654 316 630C294 608 282 578 271 521L256 442C215 422 195 414 170 405L165 383L246 383L237 327C207 132 170 -54 148 -123C130 -182 100 -213 64 -213C41 -213 30 -206 12 -184L-2 -188C-6 -211 -20 -259 -25 -268C-16 -273 -1 -276 10 -276C51 -276 105 -245 144 -198C215 -114 235 -18 319 383L423 383C427 402 434 425 440 439L436 446C407 439 408 437 345 437ZM726 -11C782 -11 897 62 940 125C981 186 1015 296 1015 371C1015 438 992 482 956 482C914 482 861 456 809 409C768 374 748 348 712 289L736 408C739 425 741 440 741 452C741 471 733 482 719 482C698 482 660 461 586 408L558 388L565 368L597 389C625 407 636 412 645 412C655 412 662 403 662 389C662 381 660 361 658 351L600 8C590 -52 571 -143 551 -233L543 -270L550 -276C571 -269 591 -264 623 -259L665 3C686 -4 708 -11 726 -11ZM693 165C715 293 822 424 905 424C931 424 943 402 943 356C943 275 903 156 850 80C830 51 798 36 757 36C726 36 701 43 675 59Z" stroke="rgb(0, 0, 0)" stroke-width="8" fill="rgb(0, 0, 0)" style="transform:matrix(0.017,0,0,-0.017,0,0);"></path></g></g></g><line style="fill:none;stroke-width:1px;stroke:rgb(0, 0, 0);" x1="95.03125" y1="22.75" x2="145.15625" y2="22.75"></line></g></g></g></svg>