<svg xmlns="http://www.w3.org/2000/svg" width="149.828125" height="57.5625" style="width:149.828125px;height:57.5625px;font-family:Asana-Math, Asana;background:transparent;"><g><g><g style="transform:matrix(1,0,0,1,2,35.5625);"><path d="M171 -15C331 -15 431 100 434 257C436 343 410 361 345 404L345 407C398 407 457 403 511 411C518 431 521 451 524 474C485 453 364 467 313 457C150 424 28 329 28 153C28 48 59 -15 171 -15ZM367 267C367 168 329 13 203 13C111 13 103 112 104 182C105 292 143 412 274 412C359 412 367 328 367 267Z" stroke="rgb(0, 0, 0)" stroke-width="8" fill="rgb(0, 0, 0)" style="transform:matrix(0.017,0,0,-0.017,0,0);"></path></g><g><g><g><g style="transform:matrix(1,0,0,1,11.375,28.478125);"><path d="M16 23L16 -3C203 -3 203 0 239 0C275 0 275 -3 468 -3L468 82C353 77 307 81 122 77L304 270C401 373 431 428 431 503C431 618 353 689 226 689C154 689 105 669 56 619L39 483L68 483L81 529C97 587 133 612 200 612C286 612 341 558 341 473C341 398 299 324 186 204Z" stroke="rgb(0, 0, 0)" stroke-width="8" fill="rgb(0, 0, 0)" style="transform:matrix(0.0119,0,0,-0.0119,0,0);"></path></g></g></g><g><g><g style="transform:matrix(1,0,0,1,11.375,40.946875);"><path d="M34 388L41 368L73 389C110 412 113 414 120 414C130 414 138 404 138 391C138 384 134 361 130 347L64 107C56 76 51 49 51 30C51 6 62 -9 81 -9C107 -9 143 12 241 85L231 103L205 86C176 67 153 56 144 56C137 56 131 66 131 76C131 86 133 95 138 116L215 420C219 437 221 448 221 456C221 473 212 482 196 482C174 482 137 461 62 408ZM228 712C199 712 170 679 170 645C170 620 185 604 209 604C240 604 264 633 264 671C264 695 249 712 228 712Z" stroke="rgb(0, 0, 0)" stroke-width="8" fill="rgb(0, 0, 0)" style="transform:matrix(0.0119,0,0,-0.0119,0,0);"></path></g></g></g></g><g style="transform:matrix(1,0,0,1,22,35.5625);"><path d="M604 347L604 406L65 406L65 347ZM604 134L604 193L65 193L65 134Z" stroke="rgb(0, 0, 0)" stroke-width="8" fill="rgb(0, 0, 0)" style="transform:matrix(0.017,0,0,-0.017,0,0);"></path></g><g><g><g><g style="transform:matrix(1,0,0,1,42.359375,23.5625);"><path d="M418 -3L418 27L366 30C311 33 301 44 301 96L301 700L60 598L67 548L217 614L217 96C217 44 206 33 152 30L96 27L96 -3C250 0 250 0 261 0C292 0 402 -3 418 -3Z" stroke="rgb(0, 0, 0)" stroke-width="8" fill="rgb(0, 0, 0)" style="transform:matrix(0.017,0,0,-0.017,0,0);"></path></g></g></g><g><g><g style="transform:matrix(1,0,0,1,40.359375,48.5625);"><path d="M730 103L704 86C675 67 653 56 643 56C636 56 630 65 630 76C630 86 632 95 637 116L712 413C716 430 719 446 719 454C719 471 709 482 693 482C664 482 626 464 565 421C502 376 467 341 418 272L448 409C452 429 455 444 455 451C455 470 445 482 429 482C399 482 353 460 298 418C254 384 234 363 169 275L202 408C206 424 208 439 208 451C208 470 199 482 185 482C164 482 126 461 52 408L24 388L31 368C68 391 103 414 110 414C121 414 128 404 128 389C128 338 87 145 46 2L49 -9L117 6L139 108C163 219 190 278 245 338C287 384 332 414 360 414C367 414 371 406 371 393C371 358 349 244 308 69L292 2L297 -9L366 6L387 113C403 194 437 269 481 318C536 379 586 414 618 414C626 414 631 405 631 389C631 365 628 351 606 264C566 105 550 84 550 31C550 6 561 -9 580 -9C606 -9 642 12 740 85Z" stroke="rgb(0, 0, 0)" stroke-width="8" fill="rgb(0, 0, 0)" style="transform:matrix(0.017,0,0,-0.017,0,0);"></path></g></g></g><line style="fill:none;stroke-width:1px;stroke:rgb(0, 0, 0);" x1="40.359375" y1="31.3125" x2="53.578125" y2="31.3125"></line></g><g><g><g><g style="transform:matrix(1,0,0,1,61.265625,13.9);"><path d="M730 103L704 86C675 67 653 56 643 56C636 56 630 65 630 76C630 86 632 95 637 116L712 413C716 430 719 446 719 454C719 471 709 482 693 482C664 482 626 464 565 421C502 376 467 341 418 272L448 409C452 429 455 444 455 451C455 470 445 482 429 482C399 482 353 460 298 418C254 384 234 363 169 275L202 408C206 424 208 439 208 451C208 470 199 482 185 482C164 482 126 461 52 408L24 388L31 368C68 391 103 414 110 414C121 414 128 404 128 389C128 338 87 145 46 2L49 -9L117 6L139 108C163 219 190 278 245 338C287 384 332 414 360 414C367 414 371 406 371 393C371 358 349 244 308 69L292 2L297 -9L366 6L387 113C403 194 437 269 481 318C536 379 586 414 618 414C626 414 631 405 631 389C631 365 628 351 606 264C566 105 550 84 550 31C550 6 561 -9 580 -9C606 -9 642 12 740 85Z" stroke="rgb(0, 0, 0)" stroke-width="8" fill="rgb(0, 0, 0)" style="transform:matrix(0.0119,0,0,-0.0119,0,0);"></path></g></g></g><g><g><g style="transform:matrix(1,0,0,1,57.265625,53.4625);"><path d="M194 351L94 -144C83 -196 65 -231 47 -231C33 -231 15 -225 -6 -212L-14 -269C-4 -274 9 -276 24 -276C64 -276 104 -233 140 -152C160 -107 174 -57 202 70L278 420C282 438 284 451 284 457C284 473 275 482 259 482C237 482 200 461 125 408L97 388L104 368L136 389C173 412 176 414 183 414C193 414 201 404 201 391C201 382 194 356 194 351ZM285 712C256 712 227 679 227 645C227 620 242 604 266 604C297 604 321 633 321 671C321 695 306 712 285 712ZM931 347L931 406L392 406L392 347ZM931 134L931 193L392 193L392 134ZM1413 -3L1413 27L1361 30C1306 33 1296 44 1296 96L1296 700L1055 598L1062 548L1212 614L1212 96C1212 44 1201 33 1147 30L1091 27L1091 -3C1245 0 1245 0 1256 0C1287 0 1397 -3 1413 -3Z" stroke="rgb(0, 0, 0)" stroke-width="8" fill="rgb(0, 0, 0)" style="transform:matrix(0.0119,0,0,-0.0119,0,0);"></path></g></g></g><g style="transform:matrix(1,0,0,1,55.265625,32.515625);"><path d="M788 13L772 -310L62 -310L420 133L66 620L754 620L768 346L732 346C718 428 694 486 662 522C626 559 572 578 498 578L246 578L524 194L214 -205L512 -205C592 -205 648 -190 680 -162C714 -132 734 -74 746 13Z" stroke="rgb(0, 0, 0)" stroke-width="8" fill="rgb(0, 0, 0)" style="transform:matrix(0.0255,0,0,-0.0255,0,0);"></path></g></g><g><svg x="76.953125" style="overflow:visible;" y="16.5625" height="30" width="8.5"><path d=" M 6.61 1.70 q 0.00 -0.11 -0.08 -0.11 q -0.03 0.00 -0.08 0.03 q -1.01 0.71 -1.75 1.68 t -1.37 2.42 t -0.95 3.59 t -0.33 4.89 v 0.80 h 1.68 v -0.80 q 0.00 -1.55 0.04 -2.68 t 0.22 -2.64 t 0.50 -2.62 t 0.91 -2.25 t 1.43 -1.92 q 0.12 -0.12 0.12 -0.38 z   M 0.90 15.00 v 0.00 h 1.68 v 0.00 z" style="fill:rgb(0, 0, 0);stroke-width:1px;stroke:none;"></path><path d=" M 6.61 28.30 q 0.00 0.11 -0.08 0.11 q -0.03 0.00 -0.08 -0.03 q -1.01 -0.71 -1.75 -1.68 t -1.37 -2.42 t -0.95 -3.59 t -0.33 -4.89 v -0.80 h 1.68 v 0.80 q 0.00 1.55 0.04 2.68 t 0.22 2.64 t 0.50 2.62 t 0.91 2.25 t 1.43 1.92 q 0.12 0.12 0.12 0.38 z" style="fill:rgb(0, 0, 0);stroke-width:1px;stroke:none;"></path></svg></g><g style="transform:matrix(1,0,0,1,84,35.5625);"><path d="M9 1C24 -7 40 -11 52 -11C85 -11 124 18 155 65L231 182L242 113C255 28 278 -11 314 -11C336 -11 368 6 400 35L449 79L440 98C404 68 379 53 363 53C348 53 335 63 325 83C316 102 305 139 300 168L282 269L317 318C364 383 391 406 422 406C438 406 450 398 455 383L469 387L484 472C472 479 463 482 454 482C414 482 374 446 312 354L275 299L269 347C257 446 230 482 171 482C145 482 123 474 114 461L56 378L73 368C103 402 123 416 142 416C175 416 197 375 214 277L225 215L185 153C142 86 108 54 80 54C65 54 54 58 52 63L41 91L21 88C21 53 13 27 9 1Z" stroke="rgb(0, 0, 0)" stroke-width="8" fill="rgb(0, 0, 0)" style="transform:matrix(0.017,0,0,-0.017,0,0);"></path></g><g><g><g><g style="transform:matrix(1,0,0,1,92.234375,26.478125);"><path d="M146 266C146 526 243 632 301 700L282 726C225 675 60 542 60 266C60 159 85 58 133 -32C168 -99 200 -138 282 -215L301 -194C255 -137 146 -15 146 266Z" stroke="rgb(0, 0, 0)" stroke-width="8" fill="rgb(0, 0, 0)" style="transform:matrix(0.0119,0,0,-0.0119,0,0);"></path></g><g style="transform:matrix(1,0,0,1,96.234375,26.478125);"><path d="M194 351L94 -144C83 -196 65 -231 47 -231C33 -231 15 -225 -6 -212L-14 -269C-4 -274 9 -276 24 -276C64 -276 104 -233 140 -152C160 -107 174 -57 202 70L278 420C282 438 284 451 284 457C284 473 275 482 259 482C237 482 200 461 125 408L97 388L104 368L136 389C173 412 176 414 183 414C193 414 201 404 201 391C201 382 194 356 194 351ZM285 712C256 712 227 679 227 645C227 620 242 604 266 604C297 604 321 633 321 671C321 695 306 712 285 712Z" stroke="rgb(0, 0, 0)" stroke-width="8" fill="rgb(0, 0, 0)" style="transform:matrix(0.0119,0,0,-0.0119,0,0);"></path></g><g style="transform:matrix(1,0,0,1,100.078125,26.478125);"><path d="M51 726L32 700C87 636 187 526 187 266C187 -10 83 -131 32 -194L51 -215C104 -165 273 -23 273 265C273 542 108 675 51 726Z" stroke="rgb(0, 0, 0)" stroke-width="8" fill="rgb(0, 0, 0)" style="transform:matrix(0.0119,0,0,-0.0119,0,0);"></path></g></g></g><g><g><g style="transform:matrix(1,0,0,1,92.234375,40.946875);"><path d="M34 388L41 368L73 389C110 412 113 414 120 414C130 414 138 404 138 391C138 384 134 361 130 347L64 107C56 76 51 49 51 30C51 6 62 -9 81 -9C107 -9 143 12 241 85L231 103L205 86C176 67 153 56 144 56C137 56 131 66 131 76C131 86 133 95 138 116L215 420C219 437 221 448 221 456C221 473 212 482 196 482C174 482 137 461 62 408ZM228 712C199 712 170 679 170 645C170 620 185 604 209 604C240 604 264 633 264 671C264 695 249 712 228 712Z" stroke="rgb(0, 0, 0)" stroke-width="8" fill="rgb(0, 0, 0)" style="transform:matrix(0.0119,0,0,-0.0119,0,0);"></path></g></g></g></g><g style="transform:matrix(1,0,0,1,107,35.5625);"><path d="M555 243L555 299L51 299L51 243Z" stroke="rgb(0, 0, 0)" stroke-width="8" fill="rgb(0, 0, 0)" style="transform:matrix(0.017,0,0,-0.017,0,0);"></path></g><g style="transform:matrix(1,0,0,1,120,35.5625);"><path d="M409 -15C458 -15 530 43 565 74L565 81C562 86 558 90 553 92C531 76 472 25 461 77C461 151 506 393 533 463L533 473C511 465 488 459 465 456L455 445C453 381 421 203 395 146C372 97 311 42 254 42C199 42 184 90 185 137C188 248 238 356 241 467C213 462 187 457 161 453C179 227 9 -91 53 -286C76 -285 109 -281 131 -273L131 -261C81 -173 121 -38 138 36L138 35C204 -77 344 37 395 104L395 101C387 65 354 -15 409 -15Z" stroke="rgb(0, 0, 0)" stroke-width="8" fill="rgb(0, 0, 0)" style="transform:matrix(0.017,0,0,-0.017,0,0);"></path></g><g><g><g><g style="transform:matrix(1,0,0,1,130.6875,40.946875);"><path d="M34 388L41 368L73 389C110 412 113 414 120 414C130 414 138 404 138 391C138 384 134 361 130 347L64 107C56 76 51 49 51 30C51 6 62 -9 81 -9C107 -9 143 12 241 85L231 103L205 86C176 67 153 56 144 56C137 56 131 66 131 76C131 86 133 95 138 116L215 420C219 437 221 448 221 456C221 473 212 482 196 482C174 482 137 461 62 408ZM228 712C199 712 170 679 170 645C170 620 185 604 209 604C240 604 264 633 264 671C264 695 249 712 228 712Z" stroke="rgb(0, 0, 0)" stroke-width="8" fill="rgb(0, 0, 0)" style="transform:matrix(0.0119,0,0,-0.0119,0,0);"></path></g></g></g></g><g><svg x="132.296875" style="overflow:visible;" y="16.5625" height="30" width="8.5"><path d=" M 1.69 1.70 q 0.00 -0.11 0.08 -0.11 q 0.03 0.00 0.08 0.03 q 1.01 0.71 1.75 1.68 t 1.37 2.42 t 0.95 3.59 t 0.33 4.89 v 0.80 h -1.68 v -0.80 q 0.00 -1.55 -0.04 -2.68 t -0.22 -2.64 t -0.50 -2.62 t -0.91 -2.25 t -1.43 -1.92 q -0.12 -0.12 -0.12 -0.38 z  M 7.40 15.00 v 0.00 h -1.68 v 0.00 z" style="fill:rgb(0, 0, 0);stroke-width:1px;stroke:none;"></path><path d=" M 1.69 28.30 q 0.00 0.11 0.08 0.11 q 0.03 0.00 0.08 -0.03 q 1.01 -0.71 1.75 -1.68 t 1.37 -2.42 t 0.95 -3.59 t 0.33 -4.89 v -0.80 h -1.68 v 0.80 q 0.00 1.55 -0.04 2.68 t -0.22 2.64 t -0.50 2.62 t -0.91 2.25 t -1.43 1.92 q -0.12 0.12 -0.12 0.38 z" style="fill:rgb(0, 0, 0);stroke-width:1px;stroke:none;"></path></svg></g><g><g><g><g style="transform:matrix(1,0,0,1,140.796875,20.99375);"><path d="M16 23L16 -3C203 -3 203 0 239 0C275 0 275 -3 468 -3L468 82C353 77 307 81 122 77L304 270C401 373 431 428 431 503C431 618 353 689 226 689C154 689 105 669 56 619L39 483L68 483L81 529C97 587 133 612 200 612C286 612 341 558 341 473C341 398 299 324 186 204Z" stroke="rgb(0, 0, 0)" stroke-width="8" fill="rgb(0, 0, 0)" style="transform:matrix(0.0119,0,0,-0.0119,0,0);"></path></g></g></g></g></g></g></svg>