<svg xmlns="http://www.w3.org/2000/svg" width="110.359375" height="36.375" style="width:110.359375px;height:36.375px;font-family:Asana-Math, Asana;background:transparent;"><g><g><g style="transform:matrix(1,0,0,1,2,21.6875);"><path d="M9 1C24 -7 40 -11 52 -11C85 -11 124 18 155 65L231 182L242 113C255 28 278 -11 314 -11C336 -11 368 6 400 35L449 79L440 98C404 68 379 53 363 53C348 53 335 63 325 83C316 102 305 139 300 168L282 269L317 318C364 383 391 406 422 406C438 406 450 398 455 383L469 387L484 472C472 479 463 482 454 482C414 482 374 446 312 354L275 299L269 347C257 446 230 482 171 482C145 482 123 474 114 461L56 378L73 368C103 402 123 416 142 416C175 416 197 375 214 277L225 215L185 153C142 86 108 54 80 54C65 54 54 58 52 63L41 91L21 88C21 53 13 27 9 1Z" stroke="rgb(0, 0, 0)" stroke-width="8" fill="rgb(0, 0, 0)" style="transform:matrix(0.017,0,0,-0.017,0,0);"></path></g><g><g><g><g style="transform:matrix(1,0,0,1,10.46875,27.071875);"><path d="M418 -3L418 27L366 30C311 33 301 44 301 96L301 700L60 598L67 548L217 614L217 96C217 44 206 33 152 30L96 27L96 -3C250 0 250 0 261 0C292 0 402 -3 418 -3Z" stroke="rgb(0, 0, 0)" stroke-width="8" fill="rgb(0, 0, 0)" style="transform:matrix(0.0119,0,0,-0.0119,0,0);"></path></g></g></g></g><g style="transform:matrix(1,0,0,1,21,21.6875);"><path d="M610 344L590 354C572 293 540 240 470 240C388 240 318 355 224 355C132 355 82 300 58 216L80 207C104 261 142 300 204 300C286 300 346 186 448 186C550 186 596 251 610 344Z" stroke="rgb(0, 0, 0)" stroke-width="8" fill="rgb(0, 0, 0)" style="transform:matrix(0.017,0,0,-0.017,0,0);"></path></g><g style="transform:matrix(1,0,0,1,38,21.6875);"><path d="M582 103L237 692L75 692L70 664L105 662C150 660 184 615 185 606L92 102C80 40 74 32 38 28L7 25L2 -3L113 0C125 0 126 0 223 -3L228 25L186 28C146 31 137 39 137 72C137 80 138 91 140 102L220 566L558 -11L608 -11L702 542C723 655 725 659 762 662L799 664L802 691L589 692L584 664L631 662C657 661 667 654 667 638C667 631 584 116 582 103Z" stroke="rgb(0, 0, 0)" stroke-width="8" fill="rgb(0, 0, 0)" style="transform:matrix(0.017,0,0,-0.017,0,0);"></path></g><g><svg x="50.96875" style="overflow:visible;" y="3.6875" height="29" width="8.5"><path d=" M 6.61 1.70 q 0.00 -0.10 -0.08 -0.10 q -0.03 0.00 -0.08 0.03 q -1.01 0.69 -1.75 1.61 t -1.37 2.33 t -0.95 3.45 t -0.33 4.71 v 0.77 h 1.68 v -0.77 q 0.00 -1.49 0.04 -2.58 t 0.22 -2.54 t 0.50 -2.52 t 0.91 -2.17 t 1.43 -1.85 q 0.12 -0.12 0.12 -0.36 z   M 0.90 14.50 v 0.00 h 1.68 v 0.00 z" style="fill:rgb(0, 0, 0);stroke-width:1px;stroke:none;"></path><path d=" M 6.61 27.30 q 0.00 0.10 -0.08 0.10 q -0.03 0.00 -0.08 -0.03 q -1.01 -0.69 -1.75 -1.61 t -1.37 -2.33 t -0.95 -3.45 t -0.33 -4.71 v -0.77 h 1.68 v 0.77 q 0.00 1.49 0.04 2.58 t 0.22 2.54 t 0.50 2.52 t 0.91 2.17 t 1.43 1.85 q 0.12 0.12 0.12 0.36 z" style="fill:rgb(0, 0, 0);stroke-width:1px;stroke:none;"></path></svg></g><g style="transform:matrix(1,0,0,1,58,21.6875);"><path d="M409 -15C458 -15 530 43 565 74L565 81C562 86 558 90 553 92C531 76 472 25 461 77C461 151 506 393 533 463L533 473C511 465 488 459 465 456L455 445C453 381 421 203 395 146C372 97 311 42 254 42C199 42 184 90 185 137C188 248 238 356 241 467C213 462 187 457 161 453C179 227 9 -91 53 -286C76 -285 109 -281 131 -273L131 -261C81 -173 121 -38 138 36L138 35C204 -77 344 37 395 104L395 101C387 65 354 -15 409 -15Z" stroke="rgb(0, 0, 0)" stroke-width="8" fill="rgb(0, 0, 0)" style="transform:matrix(0.017,0,0,-0.017,0,0);"></path></g><g><g><g><g style="transform:matrix(1,0,0,1,68.140625,27.071875);"><path d="M418 -3L418 27L366 30C311 33 301 44 301 96L301 700L60 598L67 548L217 614L217 96C217 44 206 33 152 30L96 27L96 -3C250 0 250 0 261 0C292 0 402 -3 418 -3Z" stroke="rgb(0, 0, 0)" stroke-width="8" fill="rgb(0, 0, 0)" style="transform:matrix(0.0119,0,0,-0.0119,0,0);"></path></g></g></g></g><g style="transform:matrix(1,0,0,1,74,21.6875);"><path d="M204 123C177 114 159 108 106 93C99 17 74 -48 16 -144L30 -155L71 -136C152 -31 190 32 218 109Z" stroke="rgb(0, 0, 0)" stroke-width="8" fill="rgb(0, 0, 0)" style="transform:matrix(0.017,0,0,-0.017,0,0);"></path></g><g style="transform:matrix(1,0,0,1,81,21.6875);"><path d="M420 -15C580 -15 680 100 683 257C685 343 659 361 594 404L594 407C647 407 706 403 760 411C767 431 770 451 773 474C734 453 613 467 562 457C399 424 277 329 277 153C277 48 308 -15 420 -15ZM616 267C616 168 578 13 452 13C360 13 352 112 353 182C354 292 392 412 523 412C608 412 616 328 616 267Z" stroke="rgb(0, 0, 0)" stroke-width="8" fill="rgb(0, 0, 0)" style="transform:matrix(0.017,0,0,-0.017,0,0);"></path></g><g><g><g><g style="transform:matrix(1,0,0,1,94.921875,14.603125);"><path d="M16 23L16 -3C203 -3 203 0 239 0C275 0 275 -3 468 -3L468 82C353 77 307 81 122 77L304 270C401 373 431 428 431 503C431 618 353 689 226 689C154 689 105 669 56 619L39 483L68 483L81 529C97 587 133 612 200 612C286 612 341 558 341 473C341 398 299 324 186 204Z" stroke="rgb(0, 0, 0)" stroke-width="8" fill="rgb(0, 0, 0)" style="transform:matrix(0.0119,0,0,-0.0119,0,0);"></path></g></g></g><g><g><g style="transform:matrix(1,0,0,1,94.921875,27.071875);"><path d="M418 -3L418 27L366 30C311 33 301 44 301 96L301 700L60 598L67 548L217 614L217 96C217 44 206 33 152 30L96 27L96 -3C250 0 250 0 261 0C292 0 402 -3 418 -3Z" stroke="rgb(0, 0, 0)" stroke-width="8" fill="rgb(0, 0, 0)" style="transform:matrix(0.0119,0,0,-0.0119,0,0);"></path></g></g></g></g><g><svg x="99.1875" style="overflow:visible;" y="3.6875" height="29" width="8.5"><path d=" M 1.69 1.70 q 0.00 -0.10 0.08 -0.10 q 0.03 0.00 0.08 0.03 q 1.01 0.69 1.75 1.61 t 1.37 2.33 t 0.95 3.45 t 0.33 4.71 v 0.77 h -1.68 v -0.77 q 0.00 -1.49 -0.04 -2.58 t -0.22 -2.54 t -0.50 -2.52 t -0.91 -2.17 t -1.43 -1.85 q -0.12 -0.12 -0.12 -0.36 z  M 7.40 14.50 v 0.00 h -1.68 v 0.00 z" style="fill:rgb(0, 0, 0);stroke-width:1px;stroke:none;"></path><path d=" M 1.69 27.30 q 0.00 0.10 0.08 0.10 q 0.03 0.00 0.08 -0.03 q 1.01 -0.69 1.75 -1.61 t 1.37 -2.33 t 0.95 -3.45 t 0.33 -4.71 v -0.77 h -1.68 v 0.77 q 0.00 1.49 -0.04 2.58 t -0.22 2.54 t -0.50 2.52 t -0.91 2.17 t -1.43 1.85 q -0.12 0.12 -0.12 0.36 z" style="fill:rgb(0, 0, 0);stroke-width:1px;stroke:none;"></path></svg></g></g></g></svg>