<svg xmlns="http://www.w3.org/2000/svg" width="446.28125" height="133.46875" style="width:446.28125px;height:133.46875px;font-family:Asana-Math, Asana;background:transparent;"><g><g><g style="transform:matrix(1,0,0,1,2,19);"><path d="M105 664L161 662C185 661 196 653 196 635C196 621 192 589 187 559L112 125C96 34 94 32 54 28L13 25L9 -3L51 -2C98 0 117 0 141 0L238 -3L264 -3L267 25L218 28C191 30 182 38 182 58C182 67 183 76 186 93L287 648C316 654 336 656 363 656C450 656 496 617 496 543C496 448 418 378 314 378L270 378L267 367C401 172 432 124 507 -3L592 0C593 0 607 -1 626 -3L639 -3L639 24C599 29 588 37 559 79L375 354C430 364 459 376 495 402C553 444 584 499 584 560C584 646 520 693 409 691L108 691ZM994 111L970 94C917 56 869 36 833 36C786 36 757 73 757 133C757 158 760 185 765 214C782 218 891 248 916 259C1001 296 1040 342 1040 404C1040 451 1006 482 956 482C888 496 778 423 741 349C711 299 681 180 681 113C681 35 725 -11 797 -11C854 -11 910 17 1002 92ZM779 274C796 343 816 386 845 412C863 428 894 440 918 440C947 440 966 420 966 388C966 344 931 297 879 272C851 258 815 247 770 237ZM1230 -11C1286 -11 1401 62 1444 125C1485 186 1519 296 1519 371C1519 438 1496 482 1460 482C1418 482 1365 456 1313 409C1272 374 1252 348 1216 289L1240 408C1243 425 1245 440 1245 452C1245 471 1237 482 1223 482C1202 482 1164 461 1090 408L1062 388L1069 368L1101 389C1129 407 1140 412 1149 412C1159 412 1166 403 1166 389C1166 381 1164 361 1162 351L1104 8C1094 -52 1075 -143 1055 -233L1047 -270L1054 -276C1075 -269 1095 -264 1127 -259L1169 3C1190 -4 1212 -11 1230 -11ZM1197 165C1219 293 1326 424 1409 424C1435 424 1447 402 1447 356C1447 275 1407 156 1354 80C1334 51 1302 36 1261 36C1230 36 1205 43 1179 59ZM1881 111L1857 94C1804 56 1756 36 1720 36C1673 36 1644 73 1644 133C1644 158 1647 185 1652 214C1669 218 1778 248 1803 259C1888 296 1927 342 1927 404C1927 451 1893 482 1843 482C1775 496 1665 423 1628 349C1598 299 1568 180 1568 113C1568 35 1612 -11 1684 -11C1741 -11 1797 17 1889 92ZM1666 274C1683 343 1703 386 1732 412C1750 428 1781 440 1805 440C1834 440 1853 420 1853 388C1853 344 1818 297 1766 272C1738 258 1702 247 1657 237ZM2212 204L2183 77C2179 60 2177 42 2177 26C2177 4 2186 -9 2201 -9C2224 -9 2265 17 2347 85L2340 106C2316 86 2287 59 2265 59C2256 59 2250 68 2250 82C2250 87 2250 90 2251 93L2343 472L2333 481L2300 463C2259 478 2242 482 2215 482C2187 482 2167 477 2140 464C2078 433 2045 403 2020 354C1976 265 1945 145 1945 67C1945 23 1960 -11 1979 -11C2016 -11 2096 41 2212 204ZM2260 414C2238 305 2219 253 2185 201C2128 117 2067 59 2035 59C2023 59 2017 72 2017 99C2017 163 2045 280 2080 360C2104 415 2127 433 2175 433C2198 433 2216 429 2260 414ZM2509 390L2453 107C2452 99 2440 61 2440 31C2440 6 2451 -9 2470 -9C2505 -9 2540 11 2618 74L2649 99L2639 117L2594 86C2565 66 2545 56 2534 56C2525 56 2520 64 2520 76C2520 102 2534 183 2563 328L2576 390L2683 390L2694 440C2656 436 2622 434 2584 434C2600 528 2611 577 2629 631L2618 646C2598 634 2571 622 2540 610L2515 440C2471 419 2445 408 2427 403L2425 390ZM3695 103L3669 86C3640 67 3618 56 3608 56C3601 56 3595 65 3595 76C3595 86 3597 95 3602 116L3677 413C3681 430 3684 446 3684 454C3684 471 3674 482 3658 482C3629 482 3591 464 3530 421C3467 376 3432 341 3383 272L3413 409C3417 429 3420 444 3420 451C3420 470 3410 482 3394 482C3364 482 3318 460 3263 418C3219 384 3199 363 3134 275L3167 408C3171 424 3173 439 3173 451C3173 470 3164 482 3150 482C3129 482 3091 461 3017 408L2989 388L2996 368C3033 391 3068 414 3075 414C3086 414 3093 404 3093 389C3093 338 3052 145 3011 2L3014 -9L3082 6L3104 108C3128 219 3155 278 3210 338C3252 384 3297 414 3325 414C3332 414 3336 406 3336 393C3336 358 3314 244 3273 69L3257 2L3262 -9L3331 6L3352 113C3368 194 3402 269 3446 318C3501 379 3551 414 3583 414C3591 414 3596 405 3596 389C3596 365 3593 351 3571 264C3531 105 3515 84 3515 31C3515 6 3526 -9 3545 -9C3571 -9 3607 12 3705 85ZM4013 204L3984 77C3980 60 3978 42 3978 26C3978 4 3987 -9 4002 -9C4025 -9 4066 17 4148 85L4141 106C4117 86 4088 59 4066 59C4057 59 4051 68 4051 82C4051 87 4051 90 4052 93L4144 472L4134 481L4101 463C4060 478 4043 482 4016 482C3988 482 3968 477 3941 464C3879 433 3846 403 3821 354C3777 265 3746 145 3746 67C3746 23 3761 -11 3780 -11C3817 -11 3897 41 4013 204ZM4061 414C4039 305 4020 253 3986 201C3929 117 3868 59 3836 59C3824 59 3818 72 3818 99C3818 163 3846 280 3881 360C3905 415 3928 433 3976 433C3999 433 4017 429 4061 414ZM4194 1C4209 -7 4225 -11 4237 -11C4270 -11 4309 18 4340 65L4416 182L4427 113C4440 28 4463 -11 4499 -11C4521 -11 4553 6 4585 35L4634 79L4625 98C4589 68 4564 53 4548 53C4533 53 4520 63 4510 83C4501 102 4490 139 4485 168L4467 269L4502 318C4549 383 4576 406 4607 406C4623 406 4635 398 4640 383L4654 387L4669 472C4657 479 4648 482 4639 482C4599 482 4559 446 4497 354L4460 299L4454 347C4442 446 4415 482 4356 482C4330 482 4308 474 4299 461L4241 378L4258 368C4288 402 4308 416 4327 416C4360 416 4382 375 4399 277L4410 215L4370 153C4327 86 4293 54 4265 54C4250 54 4239 58 4237 63L4226 91L4206 88C4206 53 4198 27 4194 1ZM5184 -125L5184 -75L4684 -75L4684 -125ZM5217 388L5224 368L5256 389C5293 412 5296 414 5303 414C5313 414 5321 404 5321 391C5321 384 5317 361 5313 347L5247 107C5239 76 5234 49 5234 30C5234 6 5245 -9 5264 -9C5290 -9 5326 12 5424 85L5414 103L5388 86C5359 67 5336 56 5327 56C5320 56 5314 66 5314 76C5314 86 5316 95 5321 116L5398 420C5402 437 5404 448 5404 456C5404 473 5395 482 5379 482C5357 482 5320 461 5245 408ZM5411 712C5382 712 5353 679 5353 645C5353 620 5368 604 5392 604C5423 604 5447 633 5447 671C5447 695 5432 712 5411 712ZM5585 390L5529 107C5528 99 5516 61 5516 31C5516 6 5527 -9 5546 -9C5581 -9 5616 11 5694 74L5725 99L5715 117L5670 86C5641 66 5621 56 5610 56C5601 56 5596 64 5596 76C5596 102 5610 183 5639 328L5652 390L5759 390L5770 440C5732 436 5698 434 5660 434C5676 528 5687 577 5705 631L5694 646C5674 634 5647 622 5616 610L5591 440C5547 419 5521 408 5503 403L5501 390ZM6120 111L6096 94C6043 56 5995 36 5959 36C5912 36 5883 73 5883 133C5883 158 5886 185 5891 214C5908 218 6017 248 6042 259C6127 296 6166 342 6166 404C6166 451 6132 482 6082 482C6014 496 5904 423 5867 349C5837 299 5807 180 5807 113C5807 35 5851 -11 5923 -11C5980 -11 6036 17 6128 92ZM5905 274C5922 343 5942 386 5971 412C5989 428 6020 440 6044 440C6073 440 6092 420 6092 388C6092 344 6057 297 6005 272C5977 258 5941 247 5896 237ZM6548 365C6551 403 6556 435 6564 476C6553 481 6549 482 6544 482C6513 482 6482 458 6446 407C6407 351 6368 291 6352 256L6384 408C6388 425 6390 438 6390 450C6390 470 6382 482 6367 482C6346 482 6308 461 6234 408L6206 388L6213 368L6245 389C6273 407 6284 412 6293 412C6303 412 6310 403 6310 390C6310 332 6267 126 6227 -2L6237 -9C6252 -4 6268 -1 6291 4L6304 6L6330 126C6348 209 6371 262 6415 319C6449 363 6476 384 6498 384C6513 384 6523 379 6534 365ZM6839 204L6810 77C6806 60 6804 42 6804 26C6804 4 6813 -9 6828 -9C6851 -9 6892 17 6974 85L6967 106C6943 86 6914 59 6892 59C6883 59 6877 68 6877 82C6877 87 6877 90 6878 93L6970 472L6960 481L6927 463C6886 478 6869 482 6842 482C6814 482 6794 477 6767 464C6705 433 6672 403 6647 354C6603 265 6572 145 6572 67C6572 23 6587 -11 6606 -11C6643 -11 6723 41 6839 204ZM6887 414C6865 305 6846 253 6812 201C6755 117 6694 59 6662 59C6650 59 6644 72 6644 99C6644 163 6672 280 6707 360C6731 415 6754 433 6802 433C6825 433 6843 429 6887 414ZM7136 390L7080 107C7079 99 7067 61 7067 31C7067 6 7078 -9 7097 -9C7132 -9 7167 11 7245 74L7276 99L7266 117L7221 86C7192 66 7172 56 7161 56C7152 56 7147 64 7147 76C7147 102 7161 183 7190 328L7203 390L7310 390L7321 440C7283 436 7249 434 7211 434C7227 528 7238 577 7256 631L7245 646C7225 634 7198 622 7167 610L7142 440C7098 419 7072 408 7054 403L7052 390ZM7377 388L7384 368L7416 389C7453 412 7456 414 7463 414C7473 414 7481 404 7481 391C7481 384 7477 361 7473 347L7407 107C7399 76 7394 49 7394 30C7394 6 7405 -9 7424 -9C7450 -9 7486 12 7584 85L7574 103L7548 86C7519 67 7496 56 7487 56C7480 56 7474 66 7474 76C7474 86 7476 95 7481 116L7558 420C7562 437 7564 448 7564 456C7564 473 7555 482 7539 482C7517 482 7480 461 7405 408ZM7571 712C7542 712 7513 679 7513 645C7513 620 7528 604 7552 604C7583 604 7607 633 7607 671C7607 695 7592 712 7571 712ZM7637 152C7637 46 7682 -11 7765 -11C7820 -11 7880 15 7925 57C7987 116 8031 230 8031 331C8031 425 7981 482 7898 482C7794 482 7637 382 7637 152ZM7861 444C7922 444 7955 399 7955 315C7955 219 7924 113 7880 60C7862 39 7836 27 7805 27C7747 27 7713 72 7713 151C7713 264 7752 387 7801 427C7814 438 7837 444 7861 444ZM8087 388L8094 368L8126 389C8163 412 8166 414 8173 414C8184 414 8191 404 8191 389C8191 338 8150 145 8109 2L8116 -9C8141 -2 8164 4 8186 8C8205 134 8226 199 8272 268C8326 352 8401 414 8446 414C8457 414 8463 405 8463 390C8463 372 8460 351 8452 319L8400 107C8391 70 8387 47 8387 31C8387 6 8398 -9 8417 -9C8443 -9 8479 12 8577 85L8567 103L8541 86C8512 67 8490 56 8480 56C8473 56 8467 65 8467 76C8467 81 8468 92 8469 96L8535 372C8542 401 8546 429 8546 446C8546 469 8535 482 8515 482C8473 482 8404 444 8345 389C8307 354 8279 320 8227 247L8265 408C8269 426 8271 438 8271 449C8271 470 8263 482 8248 482C8227 482 8188 460 8115 408ZM8649 148C8644 97 8638 62 8627 16C8665 -2 8699 -11 8734 -11C8783 -11 8829 7 8880 47C8931 87 8952 124 8952 174C8952 228 8920 257 8846 271L8803 279C8743 290 8724 307 8724 348C8724 401 8769 442 8826 442C8867 442 8905 424 8921 397L8921 342L8944 342C8948 377 8952 404 8963 455C8924 474 8896 482 8863 482C8811 482 8750 452 8702 404C8676 377 8665 352 8665 316C8665 260 8696 228 8762 215L8825 203C8869 195 8885 177 8885 138C8885 73 8839 29 8768 29C8733 29 8702 40 8674 64L8674 148ZM9380 390L9324 107C9323 99 9311 61 9311 31C9311 6 9322 -9 9341 -9C9376 -9 9411 11 9489 74L9520 99L9510 117L9465 86C9436 66 9416 56 9405 56C9396 56 9391 64 9391 76C9391 102 9405 183 9434 328L9447 390L9554 390L9565 440C9527 436 9493 434 9455 434C9471 528 9482 577 9500 631L9489 646C9469 634 9442 622 9411 610L9386 440C9342 419 9316 408 9298 403L9296 390ZM9621 388L9628 368L9660 389C9697 412 9700 414 9707 414C9717 414 9725 404 9725 391C9725 384 9721 361 9717 347L9651 107C9643 76 9638 49 9638 30C9638 6 9649 -9 9668 -9C9694 -9 9730 12 9828 85L9818 103L9792 86C9763 67 9740 56 9731 56C9724 56 9718 66 9718 76C9718 86 9720 95 9725 116L9802 420C9806 437 9808 448 9808 456C9808 473 9799 482 9783 482C9761 482 9724 461 9649 408ZM9815 712C9786 712 9757 679 9757 645C9757 620 9772 604 9796 604C9827 604 9851 633 9851 671C9851 695 9836 712 9815 712ZM10594 103L10568 86C10539 67 10517 56 10507 56C10500 56 10494 65 10494 76C10494 86 10496 95 10501 116L10576 413C10580 430 10583 446 10583 454C10583 471 10573 482 10557 482C10528 482 10490 464 10429 421C10366 376 10331 341 10282 272L10312 409C10316 429 10319 444 10319 451C10319 470 10309 482 10293 482C10263 482 10217 460 10162 418C10118 384 10098 363 10033 275L10066 408C10070 424 10072 439 10072 451C10072 470 10063 482 10049 482C10028 482 9990 461 9916 408L9888 388L9895 368C9932 391 9967 414 9974 414C9985 414 9992 404 9992 389C9992 338 9951 145 9910 2L9913 -9L9981 6L10003 108C10027 219 10054 278 10109 338C10151 384 10196 414 10224 414C10231 414 10235 406 10235 393C10235 358 10213 244 10172 69L10156 2L10161 -9L10230 6L10251 113C10267 194 10301 269 10345 318C10400 379 10450 414 10482 414C10490 414 10495 405 10495 389C10495 365 10492 351 10470 264C10430 105 10414 84 10414 31C10414 6 10425 -9 10444 -9C10470 -9 10506 12 10604 85ZM10969 111L10945 94C10892 56 10844 36 10808 36C10761 36 10732 73 10732 133C10732 158 10735 185 10740 214C10757 218 10866 248 10891 259C10976 296 11015 342 11015 404C11015 451 10981 482 10931 482C10863 496 10753 423 10716 349C10686 299 10656 180 10656 113C10656 35 10700 -11 10772 -11C10829 -11 10885 17 10977 92ZM10754 274C10771 343 10791 386 10820 412C10838 428 10869 440 10893 440C10922 440 10941 420 10941 388C10941 344 10906 297 10854 272C10826 258 10790 247 10745 237ZM11060 148C11055 97 11049 62 11038 16C11076 -2 11110 -11 11145 -11C11194 -11 11240 7 11291 47C11342 87 11363 124 11363 174C11363 228 11331 257 11257 271L11214 279C11154 290 11135 307 11135 348C11135 401 11180 442 11237 442C11278 442 11316 424 11332 397L11332 342L11355 342C11359 377 11363 404 11374 455C11335 474 11307 482 11274 482C11222 482 11161 452 11113 404C11087 377 11076 352 11076 316C11076 260 11107 228 11173 215L11236 203C11280 195 11296 177 11296 138C11296 73 11250 29 11179 29C11144 29 11113 40 11085 64L11085 148Z" stroke="rgb(0, 0, 0)" stroke-width="8" fill="rgb(0, 0, 0)" style="transform:matrix(0.017,0,0,-0.017,0,0);"></path></g><g style="transform:matrix(1,0,0,1,196,19);"><path d="" stroke="rgb(0, 0, 0)" stroke-width="8" fill="rgb(0, 0, 0)" style="transform:matrix(0.017,0,0,-0.017,0,0);"></path></g><g style="transform:matrix(1,0,0,1,201.140625,19);"><path d="M289 -175C226 -161 206 -117 206 -45L206 128C206 207 197 253 125 272L125 274C194 292 206 335 206 409L206 595C206 667 224 707 289 726C189 726 134 703 134 578L134 392C134 327 120 292 58 273C124 254 134 223 134 151L134 -17C134 -149 176 -175 289 -175Z" stroke="rgb(0, 0, 0)" stroke-width="8" fill="rgb(0, 0, 0)" style="transform:matrix(0.017,0,0,-0.017,0,0);"></path></g></g><g><g style="transform:matrix(1,0,0,1,2,40);"><path d="M1341 437L1325 437L1346 549C1362 635 1390 673 1436 673C1466 673 1493 658 1508 634L1518 638C1523 654 1533 685 1541 705L1546 720C1530 727 1499 733 1476 733C1465 733 1449 730 1441 726C1417 715 1335 654 1312 630C1290 608 1278 578 1267 521L1252 442C1211 422 1191 414 1166 405L1161 383L1242 383L1233 327C1203 132 1166 -54 1144 -123C1126 -182 1096 -213 1060 -213C1037 -213 1026 -206 1008 -184L994 -188C990 -211 976 -259 971 -268C980 -273 995 -276 1006 -276C1047 -276 1101 -245 1140 -198C1211 -114 1231 -18 1315 383L1419 383C1423 402 1430 425 1436 439L1432 446C1403 439 1404 437 1341 437ZM1563 152C1563 46 1608 -11 1691 -11C1746 -11 1806 15 1851 57C1913 116 1957 230 1957 331C1957 425 1907 482 1824 482C1720 482 1563 382 1563 152ZM1787 444C1848 444 1881 399 1881 315C1881 219 1850 113 1806 60C1788 39 1762 27 1731 27C1673 27 1639 72 1639 151C1639 264 1678 387 1727 427C1740 438 1763 444 1787 444ZM2357 365C2360 403 2365 435 2373 476C2362 481 2358 482 2353 482C2322 482 2291 458 2255 407C2216 351 2177 291 2161 256L2193 408C2197 425 2199 438 2199 450C2199 470 2191 482 2176 482C2155 482 2117 461 2043 408L2015 388L2022 368L2054 389C2082 407 2093 412 2102 412C2112 412 2119 403 2119 390C2119 332 2076 126 2036 -2L2046 -9C2061 -4 2077 -1 2100 4L2113 6L2139 126C2157 209 2180 262 2224 319C2258 363 2285 384 2307 384C2322 384 2332 379 2343 365ZM2660 388L2667 368L2699 389C2736 412 2739 414 2746 414C2756 414 2764 404 2764 391C2764 384 2760 361 2756 347L2690 107C2682 76 2677 49 2677 30C2677 6 2688 -9 2707 -9C2733 -9 2769 12 2867 85L2857 103L2831 86C2802 67 2779 56 2770 56C2763 56 2757 66 2757 76C2757 86 2759 95 2764 116L2841 420C2845 437 2847 448 2847 456C2847 473 2838 482 2822 482C2800 482 2763 461 2688 408ZM2854 712C2825 712 2796 679 2796 645C2796 620 2811 604 2835 604C2866 604 2890 633 2890 671C2890 695 2875 712 2854 712Z" stroke="rgb(0, 0, 0)" stroke-width="8" fill="rgb(0, 0, 0)" style="transform:matrix(0.017,0,0,-0.017,0,0);"></path></g><g style="transform:matrix(1,0,0,1,56,40);"><path d="M604 347L604 406L65 406L65 347ZM604 134L604 193L65 193L65 134Z" stroke="rgb(0, 0, 0)" stroke-width="8" fill="rgb(0, 0, 0)" style="transform:matrix(0.017,0,0,-0.017,0,0);"></path></g><g style="transform:matrix(1,0,0,1,73,40);"><path d="M418 -3L418 27L366 30C311 33 301 44 301 96L301 700L60 598L67 548L217 614L217 96C217 44 206 33 152 30L96 27L96 -3C250 0 250 0 261 0C292 0 402 -3 418 -3ZM873 390L817 107C816 99 804 61 804 31C804 6 815 -9 834 -9C869 -9 904 11 982 74L1013 99L1003 117L958 86C929 66 909 56 898 56C889 56 884 64 884 76C884 102 898 183 927 328L940 390L1047 390L1058 440C1020 436 986 434 948 434C964 528 975 577 993 631L982 646C962 634 935 622 904 610L879 440C835 419 809 408 791 403L789 390ZM1097 152C1097 46 1142 -11 1225 -11C1280 -11 1340 15 1385 57C1447 116 1491 230 1491 331C1491 425 1441 482 1358 482C1254 482 1097 382 1097 152ZM1321 444C1382 444 1415 399 1415 315C1415 219 1384 113 1340 60C1322 39 1296 27 1265 27C1207 27 1173 72 1173 151C1173 264 1212 387 1261 427C1274 438 1297 444 1321 444ZM2502 103L2476 86C2447 67 2425 56 2415 56C2408 56 2402 65 2402 76C2402 86 2404 95 2409 116L2484 413C2488 430 2491 446 2491 454C2491 471 2481 482 2465 482C2436 482 2398 464 2337 421C2274 376 2239 341 2190 272L2220 409C2224 429 2227 444 2227 451C2227 470 2217 482 2201 482C2171 482 2125 460 2070 418C2026 384 2006 363 1941 275L1974 408C1978 424 1980 439 1980 451C1980 470 1971 482 1957 482C1936 482 1898 461 1824 408L1796 388L1803 368C1840 391 1875 414 1882 414C1893 414 1900 404 1900 389C1900 338 1859 145 1818 2L1821 -9L1889 6L1911 108C1935 219 1962 278 2017 338C2059 384 2104 414 2132 414C2139 414 2143 406 2143 393C2143 358 2121 244 2080 69L2064 2L2069 -9L2138 6L2159 113C2175 194 2209 269 2253 318C2308 379 2358 414 2390 414C2398 414 2403 405 2403 389C2403 365 2400 351 2378 264C2338 105 2322 84 2322 31C2322 6 2333 -9 2352 -9C2378 -9 2414 12 2512 85Z" stroke="rgb(0, 0, 0)" stroke-width="8" fill="rgb(0, 0, 0)" style="transform:matrix(0.017,0,0,-0.017,0,0);"></path></g></g><g><g style="transform:matrix(1,0,0,1,2,61.984375);"><path d="M2334 330L2357 330C2365 395 2372 432 2381 458C2357 473 2322 482 2285 482C2240 483 2167 463 2110 400C2056 352 2017 241 2017 136C2017 40 2059 -11 2139 -11C2193 -11 2241 9 2296 54L2346 95L2338 115L2323 105C2251 57 2213 40 2178 40C2122 40 2093 80 2093 159C2093 267 2128 371 2177 409C2198 425 2222 433 2253 433C2298 433 2334 414 2334 390Z" stroke="rgb(0, 0, 0)" stroke-width="8" fill="rgb(0, 0, 0)" style="transform:matrix(0.017,0,0,-0.017,0,0);"></path></g><g><g><g><g style="transform:matrix(1,0,0,1,42.765625,54.9);"><path d="M146 266C146 526 243 632 301 700L282 726C225 675 60 542 60 266C60 159 85 58 133 -32C168 -99 200 -138 282 -215L301 -194C255 -137 146 -15 146 266Z" stroke="rgb(0, 0, 0)" stroke-width="8" fill="rgb(0, 0, 0)" style="transform:matrix(0.0119,0,0,-0.0119,0,0);"></path></g><g style="transform:matrix(1,0,0,1,46.765625,54.9);"><path d="M34 388L41 368L73 389C110 412 113 414 120 414C130 414 138 404 138 391C138 384 134 361 130 347L64 107C56 76 51 49 51 30C51 6 62 -9 81 -9C107 -9 143 12 241 85L231 103L205 86C176 67 153 56 144 56C137 56 131 66 131 76C131 86 133 95 138 116L215 420C219 437 221 448 221 456C221 473 212 482 196 482C174 482 137 461 62 408ZM228 712C199 712 170 679 170 645C170 620 185 604 209 604C240 604 264 633 264 671C264 695 249 712 228 712Z" stroke="rgb(0, 0, 0)" stroke-width="8" fill="rgb(0, 0, 0)" style="transform:matrix(0.0119,0,0,-0.0119,0,0);"></path></g><g style="transform:matrix(1,0,0,1,50,54.9);"><path d="M51 726L32 700C87 636 187 526 187 266C187 -10 83 -131 32 -194L51 -215C104 -165 273 -23 273 265C273 542 108 675 51 726Z" stroke="rgb(0, 0, 0)" stroke-width="8" fill="rgb(0, 0, 0)" style="transform:matrix(0.0119,0,0,-0.0119,0,0);"></path></g></g></g></g><g style="transform:matrix(1,0,0,1,57,61.984375);"><path d="M123 111C93 111 66 83 66 53C66 23 93 -5 122 -5C154 -5 182 22 182 53C182 83 154 111 123 111ZM123 456C93 456 66 428 66 398C66 368 93 340 122 340C154 340 182 367 182 397C182 428 154 456 123 456Z" stroke="rgb(0, 0, 0)" stroke-width="8" fill="rgb(0, 0, 0)" style="transform:matrix(0.017,0,0,-0.017,0,0);"></path></g><g style="transform:matrix(1,0,0,1,69,61.984375);"><path d="M604 347L604 406L65 406L65 347ZM604 134L604 193L65 193L65 134Z" stroke="rgb(0, 0, 0)" stroke-width="8" fill="rgb(0, 0, 0)" style="transform:matrix(0.017,0,0,-0.017,0,0);"></path></g><g style="transform:matrix(1,0,0,1,86,61.984375);"><path d="M34 388L41 368L73 389C110 412 113 414 120 414C130 414 138 404 138 391C138 384 134 361 130 347L64 107C56 76 51 49 51 30C51 6 62 -9 81 -9C107 -9 143 12 241 85L231 103L205 86C176 67 153 56 144 56C137 56 131 66 131 76C131 86 133 95 138 116L215 420C219 437 221 448 221 456C221 473 212 482 196 482C174 482 137 461 62 408ZM228 712C199 712 170 679 170 645C170 620 185 604 209 604C240 604 264 633 264 671C264 695 249 712 228 712ZM301 388L308 368L340 389C377 412 380 414 387 414C398 414 405 404 405 389C405 338 364 145 323 2L330 -9C355 -2 378 4 400 8C419 134 440 199 486 268C540 352 615 414 660 414C671 414 677 405 677 390C677 372 674 351 666 319L614 107C605 70 601 47 601 31C601 6 612 -9 631 -9C657 -9 693 12 791 85L781 103L755 86C726 67 704 56 694 56C687 56 681 65 681 76C681 81 682 92 683 96L749 372C756 401 760 429 760 446C760 469 749 482 729 482C687 482 618 444 559 389C521 354 493 320 441 247L479 408C483 426 485 438 485 449C485 470 477 482 462 482C441 482 402 460 329 408ZM1315 722L1303 733C1251 707 1215 698 1143 691L1139 670L1187 670C1211 670 1221 663 1221 646C1221 638 1220 629 1219 622L1191 468C1161 477 1134 482 1109 482C1040 482 946 410 900 323C869 265 849 170 849 86C849 21 864 -11 893 -11C920 -11 957 6 991 33C1045 77 1078 116 1145 217L1122 126C1111 82 1106 50 1106 24C1106 3 1115 -9 1132 -9C1149 -9 1173 3 1207 28L1288 88L1278 107L1234 76C1220 66 1204 59 1195 59C1187 59 1181 68 1181 82C1181 90 1182 99 1189 128ZM946 59C930 59 921 73 921 98C921 224 967 380 1016 418C1029 428 1048 433 1075 433C1119 433 1148 427 1181 410L1169 351C1132 171 991 59 946 59ZM1659 111L1635 94C1582 56 1534 36 1498 36C1451 36 1422 73 1422 133C1422 158 1425 185 1430 214C1447 218 1556 248 1581 259C1666 296 1705 342 1705 404C1705 451 1671 482 1621 482C1553 496 1443 423 1406 349C1376 299 1346 180 1346 113C1346 35 1390 -11 1462 -11C1519 -11 1575 17 1667 92ZM1444 274C1461 343 1481 386 1510 412C1528 428 1559 440 1583 440C1612 440 1631 420 1631 388C1631 344 1596 297 1544 272C1516 258 1480 247 1435 237ZM1728 1C1743 -7 1759 -11 1771 -11C1804 -11 1843 18 1874 65L1950 182L1961 113C1974 28 1997 -11 2033 -11C2055 -11 2087 6 2119 35L2168 79L2159 98C2123 68 2098 53 2082 53C2067 53 2054 63 2044 83C2035 102 2024 139 2019 168L2001 269L2036 318C2083 383 2110 406 2141 406C2157 406 2169 398 2174 383L2188 387L2203 472C2191 479 2182 482 2173 482C2133 482 2093 446 2031 354L1994 299L1988 347C1976 446 1949 482 1890 482C1864 482 1842 474 1833 461L1775 378L1792 368C1822 402 1842 416 1861 416C1894 416 1916 375 1933 277L1944 215L1904 153C1861 86 1827 54 1799 54C1784 54 1773 58 1771 63L1760 91L1740 88C1740 53 1732 27 1728 1Z" stroke="rgb(0, 0, 0)" stroke-width="8" fill="rgb(0, 0, 0)" style="transform:matrix(0.017,0,0,-0.017,0,0);"></path></g><g style="transform:matrix(1,0,0,1,127.46875,61.984375);"><path d="M146 266C146 526 243 632 301 700L282 726C225 675 60 542 60 266C60 159 85 58 133 -32C168 -99 200 -138 282 -215L301 -194C255 -137 146 -15 146 266Z" stroke="rgb(0, 0, 0)" stroke-width="8" fill="rgb(0, 0, 0)" style="transform:matrix(0.017,0,0,-0.017,0,0);"></path></g><g style="transform:matrix(1,0,0,1,133,61.984375);"><path d="M345 437L329 437L350 549C366 635 394 673 440 673C470 673 497 658 512 634L522 638C527 654 537 685 545 705L550 720C534 727 503 733 480 733C469 733 453 730 445 726C421 715 339 654 316 630C294 608 282 578 271 521L256 442C215 422 195 414 170 405L165 383L246 383L237 327C207 132 170 -54 148 -123C130 -182 100 -213 64 -213C41 -213 30 -206 12 -184L-2 -188C-6 -211 -20 -259 -25 -268C-16 -273 -1 -276 10 -276C51 -276 105 -245 144 -198C215 -114 235 -18 319 383L423 383C427 402 434 425 440 439L436 446C407 439 408 437 345 437ZM918 365C921 403 926 435 934 476C923 481 919 482 914 482C883 482 852 458 816 407C777 351 738 291 722 256L754 408C758 425 760 438 760 450C760 470 752 482 737 482C716 482 678 461 604 408L576 388L583 368L615 389C643 407 654 412 663 412C673 412 680 403 680 390C680 332 637 126 597 -2L607 -9C622 -4 638 -1 661 4L674 6L700 126C718 209 741 262 785 319C819 363 846 384 868 384C883 384 893 379 904 365ZM955 152C955 46 1000 -11 1083 -11C1138 -11 1198 15 1243 57C1305 116 1349 230 1349 331C1349 425 1299 482 1216 482C1112 482 955 382 955 152ZM1179 444C1240 444 1273 399 1273 315C1273 219 1242 113 1198 60C1180 39 1154 27 1123 27C1065 27 1031 72 1031 151C1031 264 1070 387 1119 427C1132 438 1155 444 1179 444ZM2111 103L2085 86C2056 67 2034 56 2024 56C2017 56 2011 65 2011 76C2011 86 2013 95 2018 116L2093 413C2097 430 2100 446 2100 454C2100 471 2090 482 2074 482C2045 482 2007 464 1946 421C1883 376 1848 341 1799 272L1829 409C1833 429 1836 444 1836 451C1836 470 1826 482 1810 482C1780 482 1734 460 1679 418C1635 384 1615 363 1550 275L1583 408C1587 424 1589 439 1589 451C1589 470 1580 482 1566 482C1545 482 1507 461 1433 408L1405 388L1412 368C1449 391 1484 414 1491 414C1502 414 1509 404 1509 389C1509 338 1468 145 1427 2L1430 -9L1498 6L1520 108C1544 219 1571 278 1626 338C1668 384 1713 414 1741 414C1748 414 1752 406 1752 393C1752 358 1730 244 1689 69L1673 2L1678 -9L1747 6L1768 113C1784 194 1818 269 1862 318C1917 379 1967 414 1999 414C2007 414 2012 405 2012 389C2012 365 2009 351 1987 264C1947 105 1931 84 1931 31C1931 6 1942 -9 1961 -9C1987 -9 2023 12 2121 85ZM2825 -3L2825 27L2773 30C2718 33 2708 44 2708 96L2708 700L2467 598L2474 548L2624 614L2624 96C2624 44 2613 33 2559 30L2503 27L2503 -3C2657 0 2657 0 2668 0C2699 0 2809 -3 2825 -3ZM3280 390L3224 107C3223 99 3211 61 3211 31C3211 6 3222 -9 3241 -9C3276 -9 3311 11 3389 74L3420 99L3410 117L3365 86C3336 66 3316 56 3305 56C3296 56 3291 64 3291 76C3291 102 3305 183 3334 328L3347 390L3454 390L3465 440C3427 436 3393 434 3355 434C3371 528 3382 577 3400 631L3389 646C3369 634 3342 622 3311 610L3286 440C3242 419 3216 408 3198 403L3196 390ZM3504 152C3504 46 3549 -11 3632 -11C3687 -11 3747 15 3792 57C3854 116 3898 230 3898 331C3898 425 3848 482 3765 482C3661 482 3504 382 3504 152ZM3728 444C3789 444 3822 399 3822 315C3822 219 3791 113 3747 60C3729 39 3703 27 3672 27C3614 27 3580 72 3580 151C3580 264 3619 387 3668 427C3681 438 3704 444 3728 444ZM4550 664L4553 692L4529 692L4439 689C4423 689 4405 689 4362 690L4298 692L4295 664L4342 662C4366 661 4377 653 4377 635C4377 621 4374 592 4368 559L4295 125C4278 33 4277 32 4237 28L4196 25L4192 -3L4234 -2C4282 -1 4305 0 4324 0L4421 -3L4447 -3L4450 25L4401 28C4374 30 4365 37 4365 57C4365 63 4366 74 4367 78L4410 340C4560 169 4583 140 4688 -3L4757 0C4793 -1 4799 -2 4825 -3L4825 27L4805 27C4782 27 4762 39 4741 65L4495 367L4787 640C4803 655 4824 665 4841 665L4862 665L4862 692L4839 691C4818 690 4802 689 4794 689C4784 689 4768 690 4747 691L4727 692L4727 663C4727 655 4717 642 4689 614C4645 569 4476 403 4412 353L4457 613C4464 651 4471 658 4508 661Z" stroke="rgb(0, 0, 0)" stroke-width="8" fill="rgb(0, 0, 0)" style="transform:matrix(0.017,0,0,-0.017,0,0);"></path></g><g style="transform:matrix(1,0,0,1,215.484375,61.984375);"><path d="M51 726L32 700C87 636 187 526 187 266C187 -10 83 -131 32 -194L51 -215C104 -165 273 -23 273 265C273 542 108 675 51 726Z" stroke="rgb(0, 0, 0)" stroke-width="8" fill="rgb(0, 0, 0)" style="transform:matrix(0.017,0,0,-0.017,0,0);"></path></g><g style="transform:matrix(1,0,0,1,221,61.984375);"><path d="M266 152C266 46 311 -11 394 -11C449 -11 509 15 554 57C616 116 660 230 660 331C660 425 610 482 527 482C423 482 266 382 266 152ZM490 444C551 444 584 399 584 315C584 219 553 113 509 60C491 39 465 27 434 27C376 27 342 72 342 151C342 264 381 387 430 427C443 438 466 444 490 444ZM1037 437L1021 437L1042 549C1058 635 1086 673 1132 673C1162 673 1189 658 1204 634L1214 638C1219 654 1229 685 1237 705L1242 720C1226 727 1195 733 1172 733C1161 733 1145 730 1137 726C1113 715 1031 654 1008 630C986 608 974 578 963 521L948 442C907 422 887 414 862 405L857 383L938 383L929 327C899 132 862 -54 840 -123C822 -182 792 -213 756 -213C733 -213 722 -206 704 -184L690 -188C686 -211 672 -259 667 -268C676 -273 691 -276 702 -276C743 -276 797 -245 836 -198C907 -114 927 -18 1011 383L1115 383C1119 402 1126 425 1132 439L1128 446C1099 439 1100 437 1037 437ZM1833 330L1856 330C1864 395 1871 432 1880 458C1856 473 1821 482 1784 482C1739 483 1666 463 1609 400C1555 352 1516 241 1516 136C1516 40 1558 -11 1638 -11C1692 -11 1740 9 1795 54L1845 95L1837 115L1822 105C1750 57 1712 40 1677 40C1621 40 1592 80 1592 159C1592 267 1627 371 1676 409C1697 425 1721 433 1752 433C1797 433 1833 414 1833 390ZM2148 722L2136 733C2084 707 2048 698 1976 691L1972 670L2020 670C2044 670 2054 663 2054 648C2054 645 2054 640 2051 622C2040 567 1967 182 1952 132C1939 82 1933 52 1933 31C1933 6 1944 -9 1963 -9C1989 -9 2025 12 2123 85L2113 103L2087 86C2058 67 2036 56 2026 56C2019 56 2013 66 2013 76C2013 82 2014 89 2017 104ZM2666 473L2659 482L2591 465L2581 414C2566 336 2541 268 2510 221C2451 130 2373 59 2333 59C2325 59 2320 68 2320 85C2320 99 2322 112 2327 137L2384 408C2387 424 2389 438 2389 451C2389 470 2380 482 2366 482C2346 482 2308 461 2234 408L2206 388L2213 368L2245 389C2273 407 2284 412 2293 412C2302 412 2310 403 2310 392C2310 388 2309 378 2308 374L2245 77C2243 68 2241 44 2241 30C2241 7 2256 -11 2276 -11C2339 -11 2460 101 2544 239L2507 97C2500 73 2496 46 2496 31C2496 6 2507 -9 2526 -9C2552 -9 2588 12 2686 85L2676 103L2650 86C2626 70 2600 59 2589 59C2581 59 2576 66 2576 76C2576 112 2651 416 2666 473ZM2760 148C2755 97 2749 62 2738 16C2776 -2 2810 -11 2845 -11C2894 -11 2940 7 2991 47C3042 87 3063 124 3063 174C3063 228 3031 257 2957 271L2914 279C2854 290 2835 307 2835 348C2835 401 2880 442 2937 442C2978 442 3016 424 3032 397L3032 342L3055 342C3059 377 3063 404 3074 455C3035 474 3007 482 2974 482C2922 482 2861 452 2813 404C2787 377 2776 352 2776 316C2776 260 2807 228 2873 215L2936 203C2980 195 2996 177 2996 138C2996 73 2950 29 2879 29C2844 29 2813 40 2785 64L2785 148ZM3242 390L3186 107C3185 99 3173 61 3173 31C3173 6 3184 -9 3203 -9C3238 -9 3273 11 3351 74L3382 99L3372 117L3327 86C3298 66 3278 56 3267 56C3258 56 3253 64 3253 76C3253 102 3267 183 3296 328L3309 390L3416 390L3427 440C3389 436 3355 434 3317 434C3333 528 3344 577 3362 631L3351 646C3331 634 3304 622 3273 610L3248 440C3204 419 3178 408 3160 403L3158 390ZM3777 111L3753 94C3700 56 3652 36 3616 36C3569 36 3540 73 3540 133C3540 158 3543 185 3548 214C3565 218 3674 248 3699 259C3784 296 3823 342 3823 404C3823 451 3789 482 3739 482C3671 496 3561 423 3524 349C3494 299 3464 180 3464 113C3464 35 3508 -11 3580 -11C3637 -11 3693 17 3785 92ZM3562 274C3579 343 3599 386 3628 412C3646 428 3677 440 3701 440C3730 440 3749 420 3749 388C3749 344 3714 297 3662 272C3634 258 3598 247 3553 237ZM4205 365C4208 403 4213 435 4221 476C4210 481 4206 482 4201 482C4170 482 4139 458 4103 407C4064 351 4025 291 4009 256L4041 408C4045 425 4047 438 4047 450C4047 470 4039 482 4024 482C4003 482 3965 461 3891 408L3863 388L3870 368L3902 389C3930 407 3941 412 3950 412C3960 412 3967 403 3967 390C3967 332 3924 126 3884 -2L3894 -9C3909 -4 3925 -1 3948 4L3961 6L3987 126C4005 209 4028 262 4072 319C4106 363 4133 384 4155 384C4170 384 4180 379 4191 365ZM4816 330L4839 330C4847 395 4854 432 4863 458C4839 473 4804 482 4767 482C4722 483 4649 463 4592 400C4538 352 4499 241 4499 136C4499 40 4541 -11 4621 -11C4675 -11 4723 9 4778 54L4828 95L4820 115L4805 105C4733 57 4695 40 4660 40C4604 40 4575 80 4575 159C4575 267 4610 371 4659 409C4680 425 4704 433 4735 433C4780 433 4816 414 4816 390ZM5208 111L5184 94C5131 56 5083 36 5047 36C5000 36 4971 73 4971 133C4971 158 4974 185 4979 214C4996 218 5105 248 5130 259C5215 296 5254 342 5254 404C5254 451 5220 482 5170 482C5102 496 4992 423 4955 349C4925 299 4895 180 4895 113C4895 35 4939 -11 5011 -11C5068 -11 5124 17 5216 92ZM4993 274C5010 343 5030 386 5059 412C5077 428 5108 440 5132 440C5161 440 5180 420 5180 388C5180 344 5145 297 5093 272C5065 258 5029 247 4984 237ZM5292 388L5299 368L5331 389C5368 412 5371 414 5378 414C5389 414 5396 404 5396 389C5396 338 5355 145 5314 2L5321 -9C5346 -2 5369 4 5391 8C5410 134 5431 199 5477 268C5531 352 5606 414 5651 414C5662 414 5668 405 5668 390C5668 372 5665 351 5657 319L5605 107C5596 70 5592 47 5592 31C5592 6 5603 -9 5622 -9C5648 -9 5684 12 5782 85L5772 103L5746 86C5717 67 5695 56 5685 56C5678 56 5672 65 5672 76C5672 81 5673 92 5674 96L5740 372C5747 401 5751 429 5751 446C5751 469 5740 482 5720 482C5678 482 5609 444 5550 389C5512 354 5484 320 5432 247L5470 408C5474 426 5476 438 5476 449C5476 470 5468 482 5453 482C5432 482 5393 460 5320 408ZM5948 390L5892 107C5891 99 5879 61 5879 31C5879 6 5890 -9 5909 -9C5944 -9 5979 11 6057 74L6088 99L6078 117L6033 86C6004 66 5984 56 5973 56C5964 56 5959 64 5959 76C5959 102 5973 183 6002 328L6015 390L6122 390L6133 440C6095 436 6061 434 6023 434C6039 528 6050 577 6068 631L6057 646C6037 634 6010 622 5979 610L5954 440C5910 419 5884 408 5866 403L5864 390ZM6523 365C6526 403 6531 435 6539 476C6528 481 6524 482 6519 482C6488 482 6457 458 6421 407C6382 351 6343 291 6327 256L6359 408C6363 425 6365 438 6365 450C6365 470 6357 482 6342 482C6321 482 6283 461 6209 408L6181 388L6188 368L6220 389C6248 407 6259 412 6268 412C6278 412 6285 403 6285 390C6285 332 6242 126 6202 -2L6212 -9C6227 -4 6243 -1 6266 4L6279 6L6305 126C6323 209 6346 262 6390 319C6424 363 6451 384 6473 384C6488 384 6498 379 6509 365ZM6560 152C6560 46 6605 -11 6688 -11C6743 -11 6803 15 6848 57C6910 116 6954 230 6954 331C6954 425 6904 482 6821 482C6717 482 6560 382 6560 152ZM6784 444C6845 444 6878 399 6878 315C6878 219 6847 113 6803 60C6785 39 6759 27 6728 27C6670 27 6636 72 6636 151C6636 264 6675 387 6724 427C6737 438 6760 444 6784 444ZM7020 388L7027 368L7059 389C7096 412 7099 414 7106 414C7116 414 7124 404 7124 391C7124 384 7120 361 7116 347L7050 107C7042 76 7037 49 7037 30C7037 6 7048 -9 7067 -9C7093 -9 7129 12 7227 85L7217 103L7191 86C7162 67 7139 56 7130 56C7123 56 7117 66 7117 76C7117 86 7119 95 7124 116L7201 420C7205 437 7207 448 7207 456C7207 473 7198 482 7182 482C7160 482 7123 461 7048 408ZM7214 712C7185 712 7156 679 7156 645C7156 620 7171 604 7195 604C7226 604 7250 633 7250 671C7250 695 7235 712 7214 712ZM7746 722L7734 733C7682 707 7646 698 7574 691L7570 670L7618 670C7642 670 7652 663 7652 646C7652 638 7651 629 7650 622L7622 468C7592 477 7565 482 7540 482C7471 482 7377 410 7331 323C7300 265 7280 170 7280 86C7280 21 7295 -11 7324 -11C7351 -11 7388 6 7422 33C7476 77 7509 116 7576 217L7553 126C7542 82 7537 50 7537 24C7537 3 7546 -9 7563 -9C7580 -9 7604 3 7638 28L7719 88L7709 107L7665 76C7651 66 7635 59 7626 59C7618 59 7612 68 7612 82C7612 90 7613 99 7620 128ZM7377 59C7361 59 7352 73 7352 98C7352 224 7398 380 7447 418C7460 428 7479 433 7506 433C7550 433 7579 427 7612 410L7600 351C7563 171 7422 59 7377 59ZM8353 330L8376 330C8384 395 8391 432 8400 458C8376 473 8341 482 8304 482C8259 483 8186 463 8129 400C8075 352 8036 241 8036 136C8036 40 8078 -11 8158 -11C8212 -11 8260 9 8315 54L8365 95L8357 115L8342 105C8270 57 8232 40 8197 40C8141 40 8112 80 8112 159C8112 267 8147 371 8196 409C8217 425 8241 433 8272 433C8317 433 8353 414 8353 390ZM8668 722L8656 733C8604 707 8568 698 8496 691L8492 670L8540 670C8564 670 8574 663 8574 648C8574 645 8574 640 8571 622C8560 567 8487 182 8472 132C8459 82 8453 52 8453 31C8453 6 8464 -9 8483 -9C8509 -9 8545 12 8643 85L8633 103L8607 86C8578 67 8556 56 8546 56C8539 56 8533 66 8533 76C8533 82 8534 89 8537 104ZM8711 152C8711 46 8756 -11 8839 -11C8894 -11 8954 15 8999 57C9061 116 9105 230 9105 331C9105 425 9055 482 8972 482C8868 482 8711 382 8711 152ZM8935 444C8996 444 9029 399 9029 315C9029 219 8998 113 8954 60C8936 39 8910 27 8879 27C8821 27 8787 72 8787 151C8787 264 8826 387 8875 427C8888 438 8911 444 8935 444ZM9168 148C9163 97 9157 62 9146 16C9184 -2 9218 -11 9253 -11C9302 -11 9348 7 9399 47C9450 87 9471 124 9471 174C9471 228 9439 257 9365 271L9322 279C9262 290 9243 307 9243 348C9243 401 9288 442 9345 442C9386 442 9424 424 9440 397L9440 342L9463 342C9467 377 9471 404 9482 455C9443 474 9415 482 9382 482C9330 482 9269 452 9221 404C9195 377 9184 352 9184 316C9184 260 9215 228 9281 215L9344 203C9388 195 9404 177 9404 138C9404 73 9358 29 9287 29C9252 29 9221 40 9193 64L9193 148ZM9853 111L9829 94C9776 56 9728 36 9692 36C9645 36 9616 73 9616 133C9616 158 9619 185 9624 214C9641 218 9750 248 9775 259C9860 296 9899 342 9899 404C9899 451 9865 482 9815 482C9747 496 9637 423 9600 349C9570 299 9540 180 9540 113C9540 35 9584 -11 9656 -11C9713 -11 9769 17 9861 92ZM9638 274C9655 343 9675 386 9704 412C9722 428 9753 440 9777 440C9806 440 9825 420 9825 388C9825 344 9790 297 9738 272C9710 258 9674 247 9629 237ZM9944 148C9939 97 9933 62 9922 16C9960 -2 9994 -11 10029 -11C10078 -11 10124 7 10175 47C10226 87 10247 124 10247 174C10247 228 10215 257 10141 271L10098 279C10038 290 10019 307 10019 348C10019 401 10064 442 10121 442C10162 442 10200 424 10216 397L10216 342L10239 342C10243 377 10247 404 10258 455C10219 474 10191 482 10158 482C10106 482 10045 452 9997 404C9971 377 9960 352 9960 316C9960 260 9991 228 10057 215L10120 203C10164 195 10180 177 10180 138C10180 73 10134 29 10063 29C10028 29 9997 40 9969 64L9969 148ZM10426 390L10370 107C10369 99 10357 61 10357 31C10357 6 10368 -9 10387 -9C10422 -9 10457 11 10535 74L10566 99L10556 117L10511 86C10482 66 10462 56 10451 56C10442 56 10437 64 10437 76C10437 102 10451 183 10480 328L10493 390L10600 390L10611 440C10573 436 10539 434 10501 434C10517 528 10528 577 10546 631L10535 646C10515 634 10488 622 10457 610L10432 440C10388 419 10362 408 10344 403L10342 390ZM11007 390L10951 107C10950 99 10938 61 10938 31C10938 6 10949 -9 10968 -9C11003 -9 11038 11 11116 74L11147 99L11137 117L11092 86C11063 66 11043 56 11032 56C11023 56 11018 64 11018 76C11018 102 11032 183 11061 328L11074 390L11181 390L11192 440C11154 436 11120 434 11082 434C11098 528 11109 577 11127 631L11116 646C11096 634 11069 622 11038 610L11013 440C10969 419 10943 408 10925 403L10923 390ZM11231 152C11231 46 11276 -11 11359 -11C11414 -11 11474 15 11519 57C11581 116 11625 230 11625 331C11625 425 11575 482 11492 482C11388 482 11231 382 11231 152ZM11455 444C11516 444 11549 399 11549 315C11549 219 11518 113 11474 60C11456 39 11430 27 11399 27C11341 27 11307 72 11307 151C11307 264 11346 387 11395 427C11408 438 11431 444 11455 444ZM11915 1C11930 -7 11946 -11 11958 -11C11991 -11 12030 18 12061 65L12137 182L12148 113C12161 28 12184 -11 12220 -11C12242 -11 12274 6 12306 35L12355 79L12346 98C12310 68 12285 53 12269 53C12254 53 12241 63 12231 83C12222 102 12211 139 12206 168L12188 269L12223 318C12270 383 12297 406 12328 406C12344 406 12356 398 12361 383L12375 387L12390 472C12378 479 12369 482 12360 482C12320 482 12280 446 12218 354L12181 299L12175 347C12163 446 12136 482 12077 482C12051 482 12029 474 12020 461L11962 378L11979 368C12009 402 12029 416 12048 416C12081 416 12103 375 12120 277L12131 215L12091 153C12048 86 12014 54 11986 54C11971 54 11960 58 11958 63L11947 91L11927 88C11927 53 11919 27 11915 1Z" stroke="rgb(0, 0, 0)" stroke-width="8" fill="rgb(0, 0, 0)" style="transform:matrix(0.017,0,0,-0.017,0,0);"></path></g><g><g><g><g style="transform:matrix(1,0,0,1,432.015625,54.9);"><path d="M146 266C146 526 243 632 301 700L282 726C225 675 60 542 60 266C60 159 85 58 133 -32C168 -99 200 -138 282 -215L301 -194C255 -137 146 -15 146 266Z" stroke="rgb(0, 0, 0)" stroke-width="8" fill="rgb(0, 0, 0)" style="transform:matrix(0.0119,0,0,-0.0119,0,0);"></path></g><g style="transform:matrix(1,0,0,1,436.015625,54.9);"><path d="M34 388L41 368L73 389C110 412 113 414 120 414C130 414 138 404 138 391C138 384 134 361 130 347L64 107C56 76 51 49 51 30C51 6 62 -9 81 -9C107 -9 143 12 241 85L231 103L205 86C176 67 153 56 144 56C137 56 131 66 131 76C131 86 133 95 138 116L215 420C219 437 221 448 221 456C221 473 212 482 196 482C174 482 137 461 62 408ZM228 712C199 712 170 679 170 645C170 620 185 604 209 604C240 604 264 633 264 671C264 695 249 712 228 712Z" stroke="rgb(0, 0, 0)" stroke-width="8" fill="rgb(0, 0, 0)" style="transform:matrix(0.0119,0,0,-0.0119,0,0);"></path></g><g style="transform:matrix(1,0,0,1,439.25,54.9);"><path d="M51 726L32 700C87 636 187 526 187 266C187 -10 83 -131 32 -194L51 -215C104 -165 273 -23 273 265C273 542 108 675 51 726Z" stroke="rgb(0, 0, 0)" stroke-width="8" fill="rgb(0, 0, 0)" style="transform:matrix(0.0119,0,0,-0.0119,0,0);"></path></g></g></g></g></g><g><g style="transform:matrix(1,0,0,1,2,82.984375);"><path d="M1341 437L1325 437L1346 549C1362 635 1390 673 1436 673C1466 673 1493 658 1508 634L1518 638C1523 654 1533 685 1541 705L1546 720C1530 727 1499 733 1476 733C1465 733 1449 730 1441 726C1417 715 1335 654 1312 630C1290 608 1278 578 1267 521L1252 442C1211 422 1191 414 1166 405L1161 383L1242 383L1233 327C1203 132 1166 -54 1144 -123C1126 -182 1096 -213 1060 -213C1037 -213 1026 -206 1008 -184L994 -188C990 -211 976 -259 971 -268C980 -273 995 -276 1006 -276C1047 -276 1101 -245 1140 -198C1211 -114 1231 -18 1315 383L1419 383C1423 402 1430 425 1436 439L1432 446C1403 439 1404 437 1341 437ZM1563 152C1563 46 1608 -11 1691 -11C1746 -11 1806 15 1851 57C1913 116 1957 230 1957 331C1957 425 1907 482 1824 482C1720 482 1563 382 1563 152ZM1787 444C1848 444 1881 399 1881 315C1881 219 1850 113 1806 60C1788 39 1762 27 1731 27C1673 27 1639 72 1639 151C1639 264 1678 387 1727 427C1740 438 1763 444 1787 444ZM2357 365C2360 403 2365 435 2373 476C2362 481 2358 482 2353 482C2322 482 2291 458 2255 407C2216 351 2177 291 2161 256L2193 408C2197 425 2199 438 2199 450C2199 470 2191 482 2176 482C2155 482 2117 461 2043 408L2015 388L2022 368L2054 389C2082 407 2093 412 2102 412C2112 412 2119 403 2119 390C2119 332 2076 126 2036 -2L2046 -9C2061 -4 2077 -1 2100 4L2113 6L2139 126C2157 209 2180 262 2224 319C2258 363 2285 384 2307 384C2322 384 2332 379 2343 365ZM2866 722L2854 733C2802 707 2766 698 2694 691L2690 670L2738 670C2762 670 2772 663 2772 646C2772 638 2771 629 2770 622L2722 354C2708 279 2692 210 2640 1L2649 -9L2716 8L2739 132C2748 180 2772 225 2806 259C2875 59 2907 -9 2932 -9C2945 -9 2969 4 3013 35L3059 67L3051 86L3008 62C2994 54 2987 52 2979 52C2969 52 2962 58 2953 75C2918 139 2896 193 2857 316L2871 330C2932 391 2978 416 3028 416C3036 416 3047 414 3064 410L3081 473C3063 479 3045 482 3033 482C2967 482 2884 405 2759 230Z" stroke="rgb(0, 0, 0)" stroke-width="8" fill="rgb(0, 0, 0)" style="transform:matrix(0.017,0,0,-0.017,0,0);"></path></g><g style="transform:matrix(1,0,0,1,60,82.984375);"><path d="M604 347L604 406L65 406L65 347ZM604 134L604 193L65 193L65 134Z" stroke="rgb(0, 0, 0)" stroke-width="8" fill="rgb(0, 0, 0)" style="transform:matrix(0.017,0,0,-0.017,0,0);"></path></g><g style="transform:matrix(1,0,0,1,76,82.984375);"><path d="M418 -3L418 27L366 30C311 33 301 44 301 96L301 700L60 598L67 548L217 614L217 96C217 44 206 33 152 30L96 27L96 -3C250 0 250 0 261 0C292 0 402 -3 418 -3ZM873 390L817 107C816 99 804 61 804 31C804 6 815 -9 834 -9C869 -9 904 11 982 74L1013 99L1003 117L958 86C929 66 909 56 898 56C889 56 884 64 884 76C884 102 898 183 927 328L940 390L1047 390L1058 440C1020 436 986 434 948 434C964 528 975 577 993 631L982 646C962 634 935 622 904 610L879 440C835 419 809 408 791 403L789 390ZM1097 152C1097 46 1142 -11 1225 -11C1280 -11 1340 15 1385 57C1447 116 1491 230 1491 331C1491 425 1441 482 1358 482C1254 482 1097 382 1097 152ZM1321 444C1382 444 1415 399 1415 315C1415 219 1384 113 1340 60C1322 39 1296 27 1265 27C1207 27 1173 72 1173 151C1173 264 1212 387 1261 427C1274 438 1297 444 1321 444ZM2143 664L2146 692L2122 692L2032 689C2016 689 1998 689 1955 690L1891 692L1888 664L1935 662C1959 661 1970 653 1970 635C1970 621 1967 592 1961 559L1888 125C1871 33 1870 32 1830 28L1789 25L1785 -3L1827 -2C1875 -1 1898 0 1917 0L2014 -3L2040 -3L2043 25L1994 28C1967 30 1958 37 1958 57C1958 63 1959 74 1960 78L2003 340C2153 169 2176 140 2281 -3L2350 0C2386 -1 2392 -2 2418 -3L2418 27L2398 27C2375 27 2355 39 2334 65L2088 367L2380 640C2396 655 2417 665 2434 665L2455 665L2455 692L2432 691C2411 690 2395 689 2387 689C2377 689 2361 690 2340 691L2320 692L2320 663C2320 655 2310 642 2282 614C2238 569 2069 403 2005 353L2050 613C2057 651 2064 658 2101 661Z" stroke="rgb(0, 0, 0)" stroke-width="8" fill="rgb(0, 0, 0)" style="transform:matrix(0.017,0,0,-0.017,0,0);"></path></g></g><g><g style="transform:matrix(1,0,0,1,2,102.984375);"><path d="M2401 -15C2450 -15 2522 43 2557 74L2557 81C2554 86 2550 90 2545 92C2523 76 2464 25 2453 77C2453 151 2498 393 2525 463L2525 473C2503 465 2480 459 2457 456L2447 445C2445 381 2413 203 2387 146C2364 97 2303 42 2246 42C2191 42 2176 90 2177 137C2180 248 2230 356 2233 467C2205 462 2179 457 2153 453C2171 227 2001 -91 2045 -286C2068 -285 2101 -281 2123 -273L2123 -261C2073 -173 2113 -38 2130 36L2130 35C2196 -77 2336 37 2387 104L2387 101C2379 65 2346 -15 2401 -15Z" stroke="rgb(0, 0, 0)" stroke-width="8" fill="rgb(0, 0, 0)" style="transform:matrix(0.017,0,0,-0.017,0,0);"></path></g><g><g><g><g style="transform:matrix(1,0,0,1,46.21875,108.36875);"><path d="M240 722L228 733C176 707 140 698 68 691L64 670L112 670C136 670 146 663 146 646C146 638 145 629 144 622L96 354C82 279 66 210 14 1L23 -9L90 8L113 132C122 180 146 225 180 259C249 59 281 -9 306 -9C319 -9 343 4 387 35L433 67L425 86L382 62C368 54 361 52 353 52C343 52 336 58 327 75C292 139 270 193 231 316L245 330C306 391 352 416 402 416C410 416 421 414 438 410L455 473C437 479 419 482 407 482C341 482 258 405 133 230Z" stroke="rgb(0, 0, 0)" stroke-width="8" fill="rgb(0, 0, 0)" style="transform:matrix(0.0119,0,0,-0.0119,0,0);"></path></g></g></g></g><g style="transform:matrix(1,0,0,1,55,102.984375);"><path d="M123 111C93 111 66 83 66 53C66 23 93 -5 122 -5C154 -5 182 22 182 53C182 83 154 111 123 111ZM123 456C93 456 66 428 66 398C66 368 93 340 122 340C154 340 182 367 182 397C182 428 154 456 123 456Z" stroke="rgb(0, 0, 0)" stroke-width="8" fill="rgb(0, 0, 0)" style="transform:matrix(0.017,0,0,-0.017,0,0);"></path></g><g style="transform:matrix(1,0,0,1,67,102.984375);"><path d="M604 347L604 406L65 406L65 347ZM604 134L604 193L65 193L65 134Z" stroke="rgb(0, 0, 0)" stroke-width="8" fill="rgb(0, 0, 0)" style="transform:matrix(0.017,0,0,-0.017,0,0);"></path></g><g style="transform:matrix(1,0,0,1,83,102.984375);"><path d="M271 204L242 77C238 60 236 42 236 26C236 4 245 -9 260 -9C283 -9 324 17 406 85L399 106C375 86 346 59 324 59C315 59 309 68 309 82C309 87 309 90 310 93L402 472L392 481L359 463C318 478 301 482 274 482C246 482 226 477 199 464C137 433 104 403 79 354C35 265 4 145 4 67C4 23 19 -11 38 -11C75 -11 155 41 271 204ZM319 414C297 305 278 253 244 201C187 117 126 59 94 59C82 59 76 72 76 99C76 163 104 280 139 360C163 415 186 433 234 433C257 433 275 429 319 414ZM609 420C630 420 646 421 672 424C561 304 519 221 519 121C519 44 565 -11 629 -11C767 -11 920 236 920 384C920 441 894 482 858 482C845 482 833 478 825 470L775 423L786 404C795 410 804 413 813 413C840 413 856 390 856 350C856 202 759 39 671 39C622 39 591 81 591 146C591 251 630 342 728 464L718 482C698 473 685 470 657 470C629 470 587 472 558 475L546 476C540 477 535 477 534 477C522 477 513 475 502 470C488 443 477 407 464 352L486 352L503 394C510 411 530 422 554 422C587 422 571 420 609 420ZM1270 111L1246 94C1193 56 1145 36 1109 36C1062 36 1033 73 1033 133C1033 158 1036 185 1041 214C1058 218 1167 248 1192 259C1277 296 1316 342 1316 404C1316 451 1282 482 1232 482C1164 496 1054 423 1017 349C987 299 957 180 957 113C957 35 1001 -11 1073 -11C1130 -11 1186 17 1278 92ZM1055 274C1072 343 1092 386 1121 412C1139 428 1170 440 1194 440C1223 440 1242 420 1242 388C1242 344 1207 297 1155 272C1127 258 1091 247 1046 237ZM1698 365C1701 403 1706 435 1714 476C1703 481 1699 482 1694 482C1663 482 1632 458 1596 407C1557 351 1518 291 1502 256L1534 408C1538 425 1540 438 1540 450C1540 470 1532 482 1517 482C1496 482 1458 461 1384 408L1356 388L1363 368L1395 389C1423 407 1434 412 1443 412C1453 412 1460 403 1460 390C1460 332 1417 126 1377 -2L1387 -9C1402 -4 1418 -1 1441 4L1454 6L1480 126C1498 209 1521 262 1565 319C1599 363 1626 384 1648 384C1663 384 1673 379 1684 365ZM1989 204L1960 77C1956 60 1954 42 1954 26C1954 4 1963 -9 1978 -9C2001 -9 2042 17 2124 85L2117 106C2093 86 2064 59 2042 59C2033 59 2027 68 2027 82C2027 87 2027 90 2028 93L2120 472L2110 481L2077 463C2036 478 2019 482 1992 482C1964 482 1944 477 1917 464C1855 433 1822 403 1797 354C1753 265 1722 145 1722 67C1722 23 1737 -11 1756 -11C1793 -11 1873 41 1989 204ZM2037 414C2015 305 1996 253 1962 201C1905 117 1844 59 1812 59C1800 59 1794 72 1794 99C1794 163 1822 280 1857 360C1881 415 1904 433 1952 433C1975 433 1993 429 2037 414ZM2436 482C2369 482 2216 419 2216 259C2216 182 2261 136 2338 136C2346 136 2357 136 2368 137L2327 99C2311 84 2300 66 2300 52C2300 42 2307 31 2321 19C2252 -4 2124 -48 2124 -159C2124 -230 2194 -276 2303 -276C2432 -276 2545 -204 2545 -121C2545 -85 2524 -49 2481 -14L2421 35C2387 62 2374 81 2374 100C2374 114 2389 128 2401 146C2499 170 2570 253 2570 342C2570 357 2567 376 2566 380C2583 378 2591 378 2600 378C2617 378 2627 379 2650 382L2659 427L2656 433C2628 426 2608 424 2554 424C2554 425 2530 482 2436 482ZM2337 1L2414 -58C2460 -94 2479 -121 2479 -154C2479 -206 2410 -248 2327 -248C2245 -248 2188 -206 2188 -145C2188 -43 2298 -11 2337 1ZM2411 448C2469 448 2498 412 2498 341C2498 238 2450 168 2380 168C2319 168 2287 209 2287 288C2287 383 2338 448 2411 448ZM2988 111L2964 94C2911 56 2863 36 2827 36C2780 36 2751 73 2751 133C2751 158 2754 185 2759 214C2776 218 2885 248 2910 259C2995 296 3034 342 3034 404C3034 451 3000 482 2950 482C2882 496 2772 423 2735 349C2705 299 2675 180 2675 113C2675 35 2719 -11 2791 -11C2848 -11 2904 17 2996 92ZM2773 274C2790 343 2810 386 2839 412C2857 428 2888 440 2912 440C2941 440 2960 420 2960 388C2960 344 2925 297 2873 272C2845 258 2809 247 2764 237Z" stroke="rgb(0, 0, 0)" stroke-width="8" fill="rgb(0, 0, 0)" style="transform:matrix(0.017,0,0,-0.017,0,0);"></path></g><g style="transform:matrix(1,0,0,1,139.40625,102.984375);"><path d="M146 266C146 526 243 632 301 700L282 726C225 675 60 542 60 266C60 159 85 58 133 -32C168 -99 200 -138 282 -215L301 -194C255 -137 146 -15 146 266Z" stroke="rgb(0, 0, 0)" stroke-width="8" fill="rgb(0, 0, 0)" style="transform:matrix(0.017,0,0,-0.017,0,0);"></path></g><g style="transform:matrix(1,0,0,1,145,102.984375);"><path d="M730 103L704 86C675 67 653 56 643 56C636 56 630 65 630 76C630 86 632 95 637 116L712 413C716 430 719 446 719 454C719 471 709 482 693 482C664 482 626 464 565 421C502 376 467 341 418 272L448 409C452 429 455 444 455 451C455 470 445 482 429 482C399 482 353 460 298 418C254 384 234 363 169 275L202 408C206 424 208 439 208 451C208 470 199 482 185 482C164 482 126 461 52 408L24 388L31 368C68 391 103 414 110 414C121 414 128 404 128 389C128 338 87 145 46 2L49 -9L117 6L139 108C163 219 190 278 245 338C287 384 332 414 360 414C367 414 371 406 371 393C371 358 349 244 308 69L292 2L297 -9L366 6L387 113C403 194 437 269 481 318C536 379 586 414 618 414C626 414 631 405 631 389C631 365 628 351 606 264C566 105 550 84 550 31C550 6 561 -9 580 -9C606 -9 642 12 740 85ZM1105 111L1081 94C1028 56 980 36 944 36C897 36 868 73 868 133C868 158 871 185 876 214C893 218 1002 248 1027 259C1112 296 1151 342 1151 404C1151 451 1117 482 1067 482C999 496 889 423 852 349C822 299 792 180 792 113C792 35 836 -11 908 -11C965 -11 1021 17 1113 92ZM890 274C907 343 927 386 956 412C974 428 1005 440 1029 440C1058 440 1077 420 1077 388C1077 344 1042 297 990 272C962 258 926 247 881 237ZM1436 204L1407 77C1403 60 1401 42 1401 26C1401 4 1410 -9 1425 -9C1448 -9 1489 17 1571 85L1564 106C1540 86 1511 59 1489 59C1480 59 1474 68 1474 82C1474 87 1474 90 1475 93L1567 472L1557 481L1524 463C1483 478 1466 482 1439 482C1411 482 1391 477 1364 464C1302 433 1269 403 1244 354C1200 265 1169 145 1169 67C1169 23 1184 -11 1203 -11C1240 -11 1320 41 1436 204ZM1484 414C1462 305 1443 253 1409 201C1352 117 1291 59 1259 59C1247 59 1241 72 1241 99C1241 163 1269 280 1304 360C1328 415 1351 433 1399 433C1422 433 1440 429 1484 414ZM1632 388L1639 368L1671 389C1708 412 1711 414 1718 414C1729 414 1736 404 1736 389C1736 338 1695 145 1654 2L1661 -9C1686 -2 1709 4 1731 8C1750 134 1771 199 1817 268C1871 352 1946 414 1991 414C2002 414 2008 405 2008 390C2008 372 2005 351 1997 319L1945 107C1936 70 1932 47 1932 31C1932 6 1943 -9 1962 -9C1988 -9 2024 12 2122 85L2112 103L2086 86C2057 67 2035 56 2025 56C2018 56 2012 65 2012 76C2012 81 2013 92 2014 96L2080 372C2087 401 2091 429 2091 446C2091 469 2080 482 2060 482C2018 482 1949 444 1890 389C1852 354 1824 320 1772 247L1810 408C1814 426 1816 438 1816 449C1816 470 1808 482 1793 482C1772 482 1733 460 1660 408Z" stroke="rgb(0, 0, 0)" stroke-width="8" fill="rgb(0, 0, 0)" style="transform:matrix(0.017,0,0,-0.017,0,0);"></path></g><g style="transform:matrix(1,0,0,1,181.828125,102.984375);"><path d="M51 726L32 700C87 636 187 526 187 266C187 -10 83 -131 32 -194L51 -215C104 -165 273 -23 273 265C273 542 108 675 51 726Z" stroke="rgb(0, 0, 0)" stroke-width="8" fill="rgb(0, 0, 0)" style="transform:matrix(0.017,0,0,-0.017,0,0);"></path></g><g style="transform:matrix(1,0,0,1,187,102.984375);"><path d="M266 152C266 46 311 -11 394 -11C449 -11 509 15 554 57C616 116 660 230 660 331C660 425 610 482 527 482C423 482 266 382 266 152ZM490 444C551 444 584 399 584 315C584 219 553 113 509 60C491 39 465 27 434 27C376 27 342 72 342 151C342 264 381 387 430 427C443 438 466 444 490 444ZM1037 437L1021 437L1042 549C1058 635 1086 673 1132 673C1162 673 1189 658 1204 634L1214 638C1219 654 1229 685 1237 705L1242 720C1226 727 1195 733 1172 733C1161 733 1145 730 1137 726C1113 715 1031 654 1008 630C986 608 974 578 963 521L948 442C907 422 887 414 862 405L857 383L938 383L929 327C899 132 862 -54 840 -123C822 -182 792 -213 756 -213C733 -213 722 -206 704 -184L690 -188C686 -211 672 -259 667 -268C676 -273 691 -276 702 -276C743 -276 797 -245 836 -198C907 -114 927 -18 1011 383L1115 383C1119 402 1126 425 1132 439L1128 446C1099 439 1100 437 1037 437ZM1667 -11C1723 -11 1838 62 1881 125C1922 186 1956 296 1956 371C1956 438 1933 482 1897 482C1855 482 1802 456 1750 409C1709 374 1689 348 1653 289L1677 408C1680 425 1682 440 1682 452C1682 471 1674 482 1660 482C1639 482 1601 461 1527 408L1499 388L1506 368L1538 389C1566 407 1577 412 1586 412C1596 412 1603 403 1603 389C1603 381 1601 361 1599 351L1541 8C1531 -52 1512 -143 1492 -233L1484 -270L1491 -276C1512 -269 1532 -264 1564 -259L1606 3C1627 -4 1649 -11 1667 -11ZM1634 165C1656 293 1763 424 1846 424C1872 424 1884 402 1884 356C1884 275 1844 156 1791 80C1771 51 1739 36 1698 36C1667 36 1642 43 1616 59ZM2007 152C2007 46 2052 -11 2135 -11C2190 -11 2250 15 2295 57C2357 116 2401 230 2401 331C2401 425 2351 482 2268 482C2164 482 2007 382 2007 152ZM2231 444C2292 444 2325 399 2325 315C2325 219 2294 113 2250 60C2232 39 2206 27 2175 27C2117 27 2083 72 2083 151C2083 264 2122 387 2171 427C2184 438 2207 444 2231 444ZM2467 388L2474 368L2506 389C2543 412 2546 414 2553 414C2563 414 2571 404 2571 391C2571 384 2567 361 2563 347L2497 107C2489 76 2484 49 2484 30C2484 6 2495 -9 2514 -9C2540 -9 2576 12 2674 85L2664 103L2638 86C2609 67 2586 56 2577 56C2570 56 2564 66 2564 76C2564 86 2566 95 2571 116L2648 420C2652 437 2654 448 2654 456C2654 473 2645 482 2629 482C2607 482 2570 461 2495 408ZM2661 712C2632 712 2603 679 2603 645C2603 620 2618 604 2642 604C2673 604 2697 633 2697 671C2697 695 2682 712 2661 712ZM2734 388L2741 368L2773 389C2810 412 2813 414 2820 414C2831 414 2838 404 2838 389C2838 338 2797 145 2756 2L2763 -9C2788 -2 2811 4 2833 8C2852 134 2873 199 2919 268C2973 352 3048 414 3093 414C3104 414 3110 405 3110 390C3110 372 3107 351 3099 319L3047 107C3038 70 3034 47 3034 31C3034 6 3045 -9 3064 -9C3090 -9 3126 12 3224 85L3214 103L3188 86C3159 67 3137 56 3127 56C3120 56 3114 65 3114 76C3114 81 3115 92 3116 96L3182 372C3189 401 3193 429 3193 446C3193 469 3182 482 3162 482C3120 482 3051 444 2992 389C2954 354 2926 320 2874 247L2912 408C2916 426 2918 438 2918 449C2918 470 2910 482 2895 482C2874 482 2835 460 2762 408ZM3390 390L3334 107C3333 99 3321 61 3321 31C3321 6 3332 -9 3351 -9C3386 -9 3421 11 3499 74L3530 99L3520 117L3475 86C3446 66 3426 56 3415 56C3406 56 3401 64 3401 76C3401 102 3415 183 3444 328L3457 390L3564 390L3575 440C3537 436 3503 434 3465 434C3481 528 3492 577 3510 631L3499 646C3479 634 3452 622 3421 610L3396 440C3352 419 3326 408 3308 403L3306 390ZM3628 148C3623 97 3617 62 3606 16C3644 -2 3678 -11 3713 -11C3762 -11 3808 7 3859 47C3910 87 3931 124 3931 174C3931 228 3899 257 3825 271L3782 279C3722 290 3703 307 3703 348C3703 401 3748 442 3805 442C3846 442 3884 424 3900 397L3900 342L3923 342C3927 377 3931 404 3942 455C3903 474 3875 482 3842 482C3790 482 3729 452 3681 404C3655 377 3644 352 3644 316C3644 260 3675 228 3741 215L3804 203C3848 195 3864 177 3864 138C3864 73 3818 29 3747 29C3712 29 3681 40 3653 64L3653 148ZM4505 204L4476 77C4472 60 4470 42 4470 26C4470 4 4479 -9 4494 -9C4517 -9 4558 17 4640 85L4633 106C4609 86 4580 59 4558 59C4549 59 4543 68 4543 82C4543 87 4543 90 4544 93L4636 472L4626 481L4593 463C4552 478 4535 482 4508 482C4480 482 4460 477 4433 464C4371 433 4338 403 4313 354C4269 265 4238 145 4238 67C4238 23 4253 -11 4272 -11C4309 -11 4389 41 4505 204ZM4553 414C4531 305 4512 253 4478 201C4421 117 4360 59 4328 59C4316 59 4310 72 4310 99C4310 163 4338 280 4373 360C4397 415 4420 433 4468 433C4491 433 4509 429 4553 414ZM4708 148C4703 97 4697 62 4686 16C4724 -2 4758 -11 4793 -11C4842 -11 4888 7 4939 47C4990 87 5011 124 5011 174C5011 228 4979 257 4905 271L4862 279C4802 290 4783 307 4783 348C4783 401 4828 442 4885 442C4926 442 4964 424 4980 397L4980 342L5003 342C5007 377 5011 404 5022 455C4983 474 4955 482 4922 482C4870 482 4809 452 4761 404C4735 377 4724 352 4724 316C4724 260 4755 228 4821 215L4884 203C4928 195 4944 177 4944 138C4944 73 4898 29 4827 29C4792 29 4761 40 4733 64L4733 148ZM5096 148C5091 97 5085 62 5074 16C5112 -2 5146 -11 5181 -11C5230 -11 5276 7 5327 47C5378 87 5399 124 5399 174C5399 228 5367 257 5293 271L5250 279C5190 290 5171 307 5171 348C5171 401 5216 442 5273 442C5314 442 5352 424 5368 397L5368 342L5391 342C5395 377 5399 404 5410 455C5371 474 5343 482 5310 482C5258 482 5197 452 5149 404C5123 377 5112 352 5112 316C5112 260 5143 228 5209 215L5272 203C5316 195 5332 177 5332 138C5332 73 5286 29 5215 29C5180 29 5149 40 5121 64L5121 148ZM5487 388L5494 368L5526 389C5563 412 5566 414 5573 414C5583 414 5591 404 5591 391C5591 384 5587 361 5583 347L5517 107C5509 76 5504 49 5504 30C5504 6 5515 -9 5534 -9C5560 -9 5596 12 5694 85L5684 103L5658 86C5629 67 5606 56 5597 56C5590 56 5584 66 5584 76C5584 86 5586 95 5591 116L5668 420C5672 437 5674 448 5674 456C5674 473 5665 482 5649 482C5627 482 5590 461 5515 408ZM5681 712C5652 712 5623 679 5623 645C5623 620 5638 604 5662 604C5693 604 5717 633 5717 671C5717 695 5702 712 5681 712ZM6005 482C5938 482 5785 419 5785 259C5785 182 5830 136 5907 136C5915 136 5926 136 5937 137L5896 99C5880 84 5869 66 5869 52C5869 42 5876 31 5890 19C5821 -4 5693 -48 5693 -159C5693 -230 5763 -276 5872 -276C6001 -276 6114 -204 6114 -121C6114 -85 6093 -49 6050 -14L5990 35C5956 62 5943 81 5943 100C5943 114 5958 128 5970 146C6068 170 6139 253 6139 342C6139 357 6136 376 6135 380C6152 378 6160 378 6169 378C6186 378 6196 379 6219 382L6228 427L6225 433C6197 426 6177 424 6123 424C6123 425 6099 482 6005 482ZM5906 1L5983 -58C6029 -94 6048 -121 6048 -154C6048 -206 5979 -248 5896 -248C5814 -248 5757 -206 5757 -145C5757 -43 5867 -11 5906 1ZM5980 448C6038 448 6067 412 6067 341C6067 238 6019 168 5949 168C5888 168 5856 209 5856 288C5856 383 5907 448 5980 448ZM6253 388L6260 368L6292 389C6329 412 6332 414 6339 414C6350 414 6357 404 6357 389C6357 338 6316 145 6275 2L6282 -9C6307 -2 6330 4 6352 8C6371 134 6392 199 6438 268C6492 352 6567 414 6612 414C6623 414 6629 405 6629 390C6629 372 6626 351 6618 319L6566 107C6557 70 6553 47 6553 31C6553 6 6564 -9 6583 -9C6609 -9 6645 12 6743 85L6733 103L6707 86C6678 67 6656 56 6646 56C6639 56 6633 65 6633 76C6633 81 6634 92 6635 96L6701 372C6708 401 6712 429 6712 446C6712 469 6701 482 6681 482C6639 482 6570 444 6511 389C6473 354 6445 320 6393 247L6431 408C6435 426 6437 438 6437 449C6437 470 6429 482 6414 482C6393 482 6354 460 6281 408ZM7112 111L7088 94C7035 56 6987 36 6951 36C6904 36 6875 73 6875 133C6875 158 6878 185 6883 214C6900 218 7009 248 7034 259C7119 296 7158 342 7158 404C7158 451 7124 482 7074 482C7006 496 6896 423 6859 349C6829 299 6799 180 6799 113C6799 35 6843 -11 6915 -11C6972 -11 7028 17 7120 92ZM6897 274C6914 343 6934 386 6963 412C6981 428 7012 440 7036 440C7065 440 7084 420 7084 388C7084 344 7049 297 6997 272C6969 258 6933 247 6888 237ZM7655 722L7643 733C7591 707 7555 698 7483 691L7479 670L7527 670C7551 670 7561 663 7561 646C7561 638 7560 629 7559 622L7531 468C7501 477 7474 482 7449 482C7380 482 7286 410 7240 323C7209 265 7189 170 7189 86C7189 21 7204 -11 7233 -11C7260 -11 7297 6 7331 33C7385 77 7418 116 7485 217L7462 126C7451 82 7446 50 7446 24C7446 3 7455 -9 7472 -9C7489 -9 7513 3 7547 28L7628 88L7618 107L7574 76C7560 66 7544 59 7535 59C7527 59 7521 68 7521 82C7521 90 7522 99 7529 128ZM7286 59C7270 59 7261 73 7261 98C7261 224 7307 380 7356 418C7369 428 7388 433 7415 433C7459 433 7488 427 7521 410L7509 351C7472 171 7331 59 7286 59ZM8045 390L7989 107C7988 99 7976 61 7976 31C7976 6 7987 -9 8006 -9C8041 -9 8076 11 8154 74L8185 99L8175 117L8130 86C8101 66 8081 56 8070 56C8061 56 8056 64 8056 76C8056 102 8070 183 8099 328L8112 390L8219 390L8230 440C8192 436 8158 434 8120 434C8136 528 8147 577 8165 631L8154 646C8134 634 8107 622 8076 610L8051 440C8007 419 7981 408 7963 403L7961 390ZM8269 152C8269 46 8314 -11 8397 -11C8452 -11 8512 15 8557 57C8619 116 8663 230 8663 331C8663 425 8613 482 8530 482C8426 482 8269 382 8269 152ZM8493 444C8554 444 8587 399 8587 315C8587 219 8556 113 8512 60C8494 39 8468 27 8437 27C8379 27 8345 72 8345 151C8345 264 8384 387 8433 427C8446 438 8469 444 8493 444ZM9286 330L9309 330C9317 395 9324 432 9333 458C9309 473 9274 482 9237 482C9192 483 9119 463 9062 400C9008 352 8969 241 8969 136C8969 40 9011 -11 9091 -11C9145 -11 9193 9 9248 54L9298 95L9290 115L9275 105C9203 57 9165 40 9130 40C9074 40 9045 80 9045 159C9045 267 9080 371 9129 409C9150 425 9174 433 9205 433C9250 433 9286 414 9286 390ZM9601 722L9589 733C9537 707 9501 698 9429 691L9425 670L9473 670C9497 670 9507 663 9507 648C9507 645 9507 640 9504 622C9493 567 9420 182 9405 132C9392 82 9386 52 9386 31C9386 6 9397 -9 9416 -9C9442 -9 9478 12 9576 85L9566 103L9540 86C9511 67 9489 56 9479 56C9472 56 9466 66 9466 76C9466 82 9467 89 9470 104ZM10119 473L10112 482L10044 465L10034 414C10019 336 9994 268 9963 221C9904 130 9826 59 9786 59C9778 59 9773 68 9773 85C9773 99 9775 112 9780 137L9837 408C9840 424 9842 438 9842 451C9842 470 9833 482 9819 482C9799 482 9761 461 9687 408L9659 388L9666 368L9698 389C9726 407 9737 412 9746 412C9755 412 9763 403 9763 392C9763 388 9762 378 9761 374L9698 77C9696 68 9694 44 9694 30C9694 7 9709 -11 9729 -11C9792 -11 9913 101 9997 239L9960 97C9953 73 9949 46 9949 31C9949 6 9960 -9 9979 -9C10005 -9 10041 12 10139 85L10129 103L10103 86C10079 70 10053 59 10042 59C10034 59 10029 66 10029 76C10029 112 10104 416 10119 473ZM10213 148C10208 97 10202 62 10191 16C10229 -2 10263 -11 10298 -11C10347 -11 10393 7 10444 47C10495 87 10516 124 10516 174C10516 228 10484 257 10410 271L10367 279C10307 290 10288 307 10288 348C10288 401 10333 442 10390 442C10431 442 10469 424 10485 397L10485 342L10508 342C10512 377 10516 404 10527 455C10488 474 10460 482 10427 482C10375 482 10314 452 10266 404C10240 377 10229 352 10229 316C10229 260 10260 228 10326 215L10389 203C10433 195 10449 177 10449 138C10449 73 10403 29 10332 29C10297 29 10266 40 10238 64L10238 148ZM10695 390L10639 107C10638 99 10626 61 10626 31C10626 6 10637 -9 10656 -9C10691 -9 10726 11 10804 74L10835 99L10825 117L10780 86C10751 66 10731 56 10720 56C10711 56 10706 64 10706 76C10706 102 10720 183 10749 328L10762 390L10869 390L10880 440C10842 436 10808 434 10770 434C10786 528 10797 577 10815 631L10804 646C10784 634 10757 622 10726 610L10701 440C10657 419 10631 408 10613 403L10611 390ZM11230 111L11206 94C11153 56 11105 36 11069 36C11022 36 10993 73 10993 133C10993 158 10996 185 11001 214C11018 218 11127 248 11152 259C11237 296 11276 342 11276 404C11276 451 11242 482 11192 482C11124 496 11014 423 10977 349C10947 299 10917 180 10917 113C10917 35 10961 -11 11033 -11C11090 -11 11146 17 11238 92ZM11015 274C11032 343 11052 386 11081 412C11099 428 11130 440 11154 440C11183 440 11202 420 11202 388C11202 344 11167 297 11115 272C11087 258 11051 247 11006 237ZM11658 365C11661 403 11666 435 11674 476C11663 481 11659 482 11654 482C11623 482 11592 458 11556 407C11517 351 11478 291 11462 256L11494 408C11498 425 11500 438 11500 450C11500 470 11492 482 11477 482C11456 482 11418 461 11344 408L11316 388L11323 368L11355 389C11383 407 11394 412 11403 412C11413 412 11420 403 11420 390C11420 332 11377 126 11337 -2L11347 -9C11362 -4 11378 -1 11401 4L11414 6L11440 126C11458 209 11481 262 11525 319C11559 363 11586 384 11608 384C11623 384 11633 379 11644 365ZM12167 722L12155 733C12103 707 12067 698 11995 691L11991 670L12039 670C12063 670 12073 663 12073 646C12073 638 12072 629 12071 622L12023 354C12009 279 11993 210 11941 1L11950 -9L12017 8L12040 132C12049 180 12073 225 12107 259C12176 59 12208 -9 12233 -9C12246 -9 12270 4 12314 35L12360 67L12352 86L12309 62C12295 54 12288 52 12280 52C12270 52 12263 58 12254 75C12219 139 12197 193 12158 316L12172 330C12233 391 12279 416 12329 416C12337 416 12348 414 12365 410L12382 473C12364 479 12346 482 12334 482C12268 482 12185 405 12060 230Z" stroke="rgb(0, 0, 0)" stroke-width="8" fill="rgb(0, 0, 0)" style="transform:matrix(0.017,0,0,-0.017,0,0);"></path></g></g><g><g style="transform:matrix(1,0,0,1,2.84375,127.46875);"><path d="M275 273C213 292 199 327 199 392L199 578C199 703 144 726 44 726C109 707 127 667 127 595L127 409C127 335 139 292 208 274L208 272C136 253 127 207 127 128L127 -45C127 -117 107 -161 44 -175C157 -175 199 -149 199 -17L199 151C199 223 209 254 275 273Z" stroke="rgb(0, 0, 0)" stroke-width="8" fill="rgb(0, 0, 0)" style="transform:matrix(0.017,0,0,-0.017,0,0);"></path></g></g></g></svg>