<svg xmlns="http://www.w3.org/2000/svg" width="122.546875" height="35.59375" style="width:122.546875px;height:35.59375px;font-family:Asana-Math, Asana;background:transparent;"><g><g><g style="transform:matrix(1,0,0,1,2,25.90625);"><path d="M237 -16C473 -16 572 316 576 504C578 618 546 702 419 702C159 702 72 412 69 199C67 80 101 -16 237 -16ZM401 676C536 676 506 491 485 381L169 381C194 485 272 676 401 676ZM253 13C102 13 147 261 163 349L479 349C454 237 396 13 253 13Z" stroke="rgb(0, 0, 0)" stroke-width="8" fill="rgb(0, 0, 0)" style="transform:matrix(0.017,0,0,-0.017,0,0);"></path></g><g style="transform:matrix(1,0,0,1,17,25.90625);"><path d="M604 347L604 406L65 406L65 347ZM604 134L604 193L65 193L65 134Z" stroke="rgb(0, 0, 0)" stroke-width="8" fill="rgb(0, 0, 0)" style="transform:matrix(0.017,0,0,-0.017,0,0);"></path></g><g><svg x="33.75" style="overflow:visible;" y="7.90625" height="24" width="8.5"><path d=" M 6.61 1.70 q 0.00 -0.08 -0.08 -0.08 q -0.03 0.00 -0.08 0.02 q -1.01 0.55 -1.75 1.30 t -1.37 1.87 t -0.95 2.78 t -0.33 3.79 v 0.62 h 1.68 v -0.62 q 0.00 -1.20 0.04 -2.08 t 0.22 -2.04 t 0.50 -2.03 t 0.91 -1.74 t 1.43 -1.49 q 0.12 -0.09 0.12 -0.29 z   M 0.90 12.00 v 0.00 h 1.68 v 0.00 z" style="fill:rgb(0, 0, 0);stroke-width:1px;stroke:none;"></path><path d=" M 6.61 22.30 q 0.00 0.08 -0.08 0.08 q -0.03 0.00 -0.08 -0.02 q -1.01 -0.55 -1.75 -1.30 t -1.37 -1.87 t -0.95 -2.78 t -0.33 -3.79 v -0.62 h 1.68 v 0.62 q 0.00 1.20 0.04 2.08 t 0.22 2.04 t 0.50 2.03 t 0.91 1.74 t 1.43 1.49 q 0.12 0.09 0.12 0.29 z" style="fill:rgb(0, 0, 0);stroke-width:1px;stroke:none;"></path></svg></g><g style="transform:matrix(1,0,0,1,41,25.90625);"><path d="M416 25L416 -3C464 -1 509 0 551 0C591 0 636 -1 684 -3L684 25L659 27C618 30 605 37 591 61L420 368L641 620C671 653 680 659 706 662L734 664L734 692L620 689C608 689 594 689 505 692L505 664L538 662C570 660 583 655 583 643C583 632 578 623 560 601L399 405L295 604C286 622 281 634 281 642C281 654 294 660 324 662L361 664L361 692L315 691C274 690 244 689 228 689C211 689 181 690 140 691L95 692L95 664L121 662C170 657 182 650 202 613L348 343L110 61C95 43 72 31 48 28L20 25L20 -3C69 -1 110 0 145 0C181 0 221 -1 264 -3L264 25L232 28C194 32 177 38 177 50C177 58 181 67 187 75L369 306L488 80C497 62 502 49 502 40C502 32 495 29 470 29L454 28Z" stroke="rgb(0, 0, 0)" stroke-width="8" fill="rgb(0, 0, 0)" style="transform:matrix(0.017,0,0,-0.017,0,0);"></path></g><g><g><g><g style="transform:matrix(1,0,0,1,52.8125,19.821875);"><path d="M390 646L463 646C541 646 577 641 580 629C583 621 585 602 584 592L580 528L608 528L635 692L544 691C456 690 388 689 353 689C316 689 252 690 166 691L71 692L53 528L82 528L97 588C102 610 109 626 115 633C121 640 159 646 196 646L308 646L222 125C206 34 204 31 164 28L113 25L109 -3L166 -2C206 -1 235 0 251 0C270 0 301 -1 340 -2L384 -3L387 25L328 28C302 29 292 37 292 58C292 67 293 74 296 93Z" stroke="rgb(0, 0, 0)" stroke-width="8" fill="rgb(0, 0, 0)" style="transform:matrix(0.0119,0,0,-0.0119,0,0);"></path></g></g></g></g><g style="transform:matrix(1,0,0,1,60,25.90625);"><path d="M416 25L416 -3C464 -1 509 0 551 0C591 0 636 -1 684 -3L684 25L659 27C618 30 605 37 591 61L420 368L641 620C671 653 680 659 706 662L734 664L734 692L620 689C608 689 594 689 505 692L505 664L538 662C570 660 583 655 583 643C583 632 578 623 560 601L399 405L295 604C286 622 281 634 281 642C281 654 294 660 324 662L361 664L361 692L315 691C274 690 244 689 228 689C211 689 181 690 140 691L95 692L95 664L121 662C170 657 182 650 202 613L348 343L110 61C95 43 72 31 48 28L20 25L20 -3C69 -1 110 0 145 0C181 0 221 -1 264 -3L264 25L232 28C194 32 177 38 177 50C177 58 181 67 187 75L369 306L488 80C497 62 502 49 502 40C502 32 495 29 470 29L454 28Z" stroke="rgb(0, 0, 0)" stroke-width="8" fill="rgb(0, 0, 0)" style="transform:matrix(0.017,0,0,-0.017,0,0);"></path></g><g><svg x="70.640625" style="overflow:visible;" y="7.90625" height="24" width="8.5"><path d=" M 1.69 1.70 q 0.00 -0.08 0.08 -0.08 q 0.03 0.00 0.08 0.02 q 1.01 0.55 1.75 1.30 t 1.37 1.87 t 0.95 2.78 t 0.33 3.79 v 0.62 h -1.68 v -0.62 q 0.00 -1.20 -0.04 -2.08 t -0.22 -2.04 t -0.50 -2.03 t -0.91 -1.74 t -1.43 -1.49 q -0.12 -0.09 -0.12 -0.29 z  M 7.40 12.00 v 0.00 h -1.68 v 0.00 z" style="fill:rgb(0, 0, 0);stroke-width:1px;stroke:none;"></path><path d=" M 1.69 22.30 q 0.00 0.08 0.08 0.08 q 0.03 0.00 0.08 -0.02 q 1.01 -0.55 1.75 -1.30 t 1.37 -1.87 t 0.95 -2.78 t 0.33 -3.79 v -0.62 h -1.68 v 0.62 q 0.00 1.20 -0.04 2.08 t -0.22 2.04 t -0.50 2.03 t -0.91 1.74 t -1.43 1.49 q -0.12 0.09 -0.12 0.29 z" style="fill:rgb(0, 0, 0);stroke-width:1px;stroke:none;"></path></svg></g><g><g><g><g style="transform:matrix(1,0,0,1,79.140625,13.9);"><path d="M555 243L555 299L51 299L51 243ZM1023 -3L1023 27L971 30C916 33 906 44 906 96L906 700L665 598L672 548L822 614L822 96C822 44 811 33 757 30L701 27L701 -3C855 0 855 0 866 0C897 0 1007 -3 1023 -3Z" stroke="rgb(0, 0, 0)" stroke-width="8" fill="rgb(0, 0, 0)" style="transform:matrix(0.0119,0,0,-0.0119,0,0);"></path></g></g></g></g><g style="transform:matrix(1,0,0,1,92,25.90625);"><path d="M416 25L416 -3C464 -1 509 0 551 0C591 0 636 -1 684 -3L684 25L659 27C618 30 605 37 591 61L420 368L641 620C671 653 680 659 706 662L734 664L734 692L620 689C608 689 594 689 505 692L505 664L538 662C570 660 583 655 583 643C583 632 578 623 560 601L399 405L295 604C286 622 281 634 281 642C281 654 294 660 324 662L361 664L361 692L315 691C274 690 244 689 228 689C211 689 181 690 140 691L95 692L95 664L121 662C170 657 182 650 202 613L348 343L110 61C95 43 72 31 48 28L20 25L20 -3C69 -1 110 0 145 0C181 0 221 -1 264 -3L264 25L232 28C194 32 177 38 177 50C177 58 181 67 187 75L369 306L488 80C497 62 502 49 502 40C502 32 495 29 470 29L454 28Z" stroke="rgb(0, 0, 0)" stroke-width="8" fill="rgb(0, 0, 0)" style="transform:matrix(0.017,0,0,-0.017,0,0);"></path></g><g><g><g><g style="transform:matrix(1,0,0,1,104.53125,19.821875);"><path d="M390 646L463 646C541 646 577 641 580 629C583 621 585 602 584 592L580 528L608 528L635 692L544 691C456 690 388 689 353 689C316 689 252 690 166 691L71 692L53 528L82 528L97 588C102 610 109 626 115 633C121 640 159 646 196 646L308 646L222 125C206 34 204 31 164 28L113 25L109 -3L166 -2C206 -1 235 0 251 0C270 0 301 -1 340 -2L384 -3L387 25L328 28C302 29 292 37 292 58C292 67 293 74 296 93Z" stroke="rgb(0, 0, 0)" stroke-width="8" fill="rgb(0, 0, 0)" style="transform:matrix(0.0119,0,0,-0.0119,0,0);"></path></g></g></g></g><g style="transform:matrix(1,0,0,1,112,25.90625);"><path d="M-7 -180C-8 -187 -8 -193 -8 -198C-8 -241 29 -276 74 -276C180 -276 290 -152 349 33L490 473L479 482C450 471 427 465 405 463L370 331C358 284 323 211 290 162C255 111 206 67 184 67C172 67 163 90 164 115L180 322C182 353 184 391 184 419C184 464 177 482 160 482C147 482 133 475 85 442L3 386L14 368L64 398C69 401 80 410 89 410C103 410 111 391 111 358C111 357 111 351 110 343L93 100L92 60C92 18 110 -11 135 -11C172 -11 256 74 331 187L282 16C231 -161 181 -234 111 -234C76 -234 49 -207 49 -172C49 -167 50 -159 51 -150L41 -146Z" stroke="rgb(0, 0, 0)" stroke-width="8" fill="rgb(0, 0, 0)" style="transform:matrix(0.017,0,0,-0.017,0,0);"></path></g></g></g></svg>