<svg xmlns="http://www.w3.org/2000/svg" width="487.984375" height="31.46875" style="width:487.984375px;height:31.46875px;font-family:Asana-Math, Asana;background:transparent;"><g><g><g style="transform:matrix(1,0,0,1,2,20.984375);"><path d="M236 722L224 733C179 711 138 697 64 691L60 670L108 670C126 670 142 667 142 647C142 641 142 632 140 622L98 388C78 272 36 80 10 2L17 -9L86 7C94 64 108 164 148 236C193 317 296 414 338 414C349 414 360 407 360 393C360 375 355 342 345 303L294 107C288 85 281 55 281 31C281 6 291 -9 312 -9C344 -9 412 41 471 85L461 103L435 86C412 71 386 56 374 56C367 56 361 65 361 76C361 88 364 101 368 116L432 372C438 398 443 423 443 447C443 464 437 482 411 482C376 482 299 437 231 374C198 343 172 308 144 273L140 275Z" stroke="rgb(0, 0, 0)" stroke-width="8" fill="rgb(0, 0, 0)" style="transform:matrix(0.017,0,0,-0.017,0,0);"></path></g><g><g><g><g style="transform:matrix(1,0,0,1,10.46875,26.36875);"><path d="M237 -16C473 -16 572 316 576 504C578 618 546 702 419 702C159 702 72 412 69 199C67 80 101 -16 237 -16ZM401 676C536 676 506 491 485 381L169 381C194 485 272 676 401 676ZM253 13C102 13 147 261 163 349L479 349C454 237 396 13 253 13Z" stroke="rgb(0, 0, 0)" stroke-width="8" fill="rgb(0, 0, 0)" style="transform:matrix(0.0119,0,0,-0.0119,0,0);"></path></g></g></g></g><g style="transform:matrix(1,0,0,1,17.765625,20.984375);"><path d="M146 266C146 526 243 632 301 700L282 726C225 675 60 542 60 266C60 159 85 58 133 -32C168 -99 200 -138 282 -215L301 -194C255 -137 146 -15 146 266Z" stroke="rgb(0, 0, 0)" stroke-width="8" fill="rgb(0, 0, 0)" style="transform:matrix(0.017,0,0,-0.017,0,0);"></path></g><g style="transform:matrix(1,0,0,1,23,20.984375);"><path d="M9 1C24 -7 40 -11 52 -11C85 -11 124 18 155 65L231 182L242 113C255 28 278 -11 314 -11C336 -11 368 6 400 35L449 79L440 98C404 68 379 53 363 53C348 53 335 63 325 83C316 102 305 139 300 168L282 269L317 318C364 383 391 406 422 406C438 406 450 398 455 383L469 387L484 472C472 479 463 482 454 482C414 482 374 446 312 354L275 299L269 347C257 446 230 482 171 482C145 482 123 474 114 461L56 378L73 368C103 402 123 416 142 416C175 416 197 375 214 277L225 215L185 153C142 86 108 54 80 54C65 54 54 58 52 63L41 91L21 88C21 53 13 27 9 1Z" stroke="rgb(0, 0, 0)" stroke-width="8" fill="rgb(0, 0, 0)" style="transform:matrix(0.017,0,0,-0.017,0,0);"></path></g><g style="transform:matrix(1,0,0,1,31.890625,20.984375);"><path d="M51 726L32 700C87 636 187 526 187 266C187 -10 83 -131 32 -194L51 -215C104 -165 273 -23 273 265C273 542 108 675 51 726Z" stroke="rgb(0, 0, 0)" stroke-width="8" fill="rgb(0, 0, 0)" style="transform:matrix(0.017,0,0,-0.017,0,0);"></path></g><g style="transform:matrix(1,0,0,1,43,20.984375);"><path d="M604 347L604 406L65 406L65 347ZM604 134L604 193L65 193L65 134Z" stroke="rgb(0, 0, 0)" stroke-width="8" fill="rgb(0, 0, 0)" style="transform:matrix(0.017,0,0,-0.017,0,0);"></path></g><g style="transform:matrix(1,0,0,1,59,20.984375);"><path d="M237 -16C473 -16 572 316 576 504C578 618 546 702 419 702C159 702 72 412 69 199C67 80 101 -16 237 -16ZM401 676C536 676 506 491 485 381L169 381C194 485 272 676 401 676ZM253 13C102 13 147 261 163 349L479 349C454 237 396 13 253 13Z" stroke="rgb(0, 0, 0)" stroke-width="8" fill="rgb(0, 0, 0)" style="transform:matrix(0.017,0,0,-0.017,0,0);"></path></g><g><g><g><g style="transform:matrix(1,0,0,1,69.296875,26.36875);"><path d="M263 689C108 689 29 566 29 324C29 207 50 106 85 57C120 8 176 -20 238 -20C389 -20 465 110 465 366C465 585 400 689 263 689ZM245 654C342 654 381 556 381 316C381 103 343 15 251 15C154 15 113 116 113 360C113 571 150 654 245 654Z" stroke="rgb(0, 0, 0)" stroke-width="8" fill="rgb(0, 0, 0)" style="transform:matrix(0.0119,0,0,-0.0119,0,0);"></path></g></g></g></g><g style="transform:matrix(1,0,0,1,78,20.984375);"><path d="M604 241L604 300L364 300L364 538L305 538L305 300L65 300L65 241L305 241L305 0L364 0L364 241Z" stroke="rgb(0, 0, 0)" stroke-width="8" fill="rgb(0, 0, 0)" style="transform:matrix(0.017,0,0,-0.017,0,0);"></path></g><g style="transform:matrix(1,0,0,1,93,20.984375);"><path d="M237 -16C473 -16 572 316 576 504C578 618 546 702 419 702C159 702 72 412 69 199C67 80 101 -16 237 -16ZM401 676C536 676 506 491 485 381L169 381C194 485 272 676 401 676ZM253 13C102 13 147 261 163 349L479 349C454 237 396 13 253 13Z" stroke="rgb(0, 0, 0)" stroke-width="8" fill="rgb(0, 0, 0)" style="transform:matrix(0.017,0,0,-0.017,0,0);"></path></g><g><g><g><g style="transform:matrix(1,0,0,1,103,26.36875);"><path d="M418 -3L418 27L366 30C311 33 301 44 301 96L301 700L60 598L67 548L217 614L217 96C217 44 206 33 152 30L96 27L96 -3C250 0 250 0 261 0C292 0 402 -3 418 -3Z" stroke="rgb(0, 0, 0)" stroke-width="8" fill="rgb(0, 0, 0)" style="transform:matrix(0.0119,0,0,-0.0119,0,0);"></path></g></g></g></g><g style="transform:matrix(1,0,0,1,109,20.984375);"><path d="M9 1C24 -7 40 -11 52 -11C85 -11 124 18 155 65L231 182L242 113C255 28 278 -11 314 -11C336 -11 368 6 400 35L449 79L440 98C404 68 379 53 363 53C348 53 335 63 325 83C316 102 305 139 300 168L282 269L317 318C364 383 391 406 422 406C438 406 450 398 455 383L469 387L484 472C472 479 463 482 454 482C414 482 374 446 312 354L275 299L269 347C257 446 230 482 171 482C145 482 123 474 114 461L56 378L73 368C103 402 123 416 142 416C175 416 197 375 214 277L225 215L185 153C142 86 108 54 80 54C65 54 54 58 52 63L41 91L21 88C21 53 13 27 9 1Z" stroke="rgb(0, 0, 0)" stroke-width="8" fill="rgb(0, 0, 0)" style="transform:matrix(0.017,0,0,-0.017,0,0);"></path></g><g><g><g><g style="transform:matrix(1,0,0,1,117.421875,26.36875);"><path d="M418 -3L418 27L366 30C311 33 301 44 301 96L301 700L60 598L67 548L217 614L217 96C217 44 206 33 152 30L96 27L96 -3C250 0 250 0 261 0C292 0 402 -3 418 -3Z" stroke="rgb(0, 0, 0)" stroke-width="8" fill="rgb(0, 0, 0)" style="transform:matrix(0.0119,0,0,-0.0119,0,0);"></path></g></g></g></g><g style="transform:matrix(1,0,0,1,126,20.984375);"><path d="M604 241L604 300L364 300L364 538L305 538L305 300L65 300L65 241L305 241L305 0L364 0L364 241Z" stroke="rgb(0, 0, 0)" stroke-width="8" fill="rgb(0, 0, 0)" style="transform:matrix(0.017,0,0,-0.017,0,0);"></path></g><g style="transform:matrix(1,0,0,1,141,20.984375);"><path d="M237 -16C473 -16 572 316 576 504C578 618 546 702 419 702C159 702 72 412 69 199C67 80 101 -16 237 -16ZM401 676C536 676 506 491 485 381L169 381C194 485 272 676 401 676ZM253 13C102 13 147 261 163 349L479 349C454 237 396 13 253 13Z" stroke="rgb(0, 0, 0)" stroke-width="8" fill="rgb(0, 0, 0)" style="transform:matrix(0.017,0,0,-0.017,0,0);"></path></g><g><g><g><g style="transform:matrix(1,0,0,1,151.125,26.36875);"><path d="M16 23L16 -3C203 -3 203 0 239 0C275 0 275 -3 468 -3L468 82C353 77 307 81 122 77L304 270C401 373 431 428 431 503C431 618 353 689 226 689C154 689 105 669 56 619L39 483L68 483L81 529C97 587 133 612 200 612C286 612 341 558 341 473C341 398 299 324 186 204Z" stroke="rgb(0, 0, 0)" stroke-width="8" fill="rgb(0, 0, 0)" style="transform:matrix(0.0119,0,0,-0.0119,0,0);"></path></g></g></g></g><g style="transform:matrix(1,0,0,1,157,20.984375);"><path d="M9 1C24 -7 40 -11 52 -11C85 -11 124 18 155 65L231 182L242 113C255 28 278 -11 314 -11C336 -11 368 6 400 35L449 79L440 98C404 68 379 53 363 53C348 53 335 63 325 83C316 102 305 139 300 168L282 269L317 318C364 383 391 406 422 406C438 406 450 398 455 383L469 387L484 472C472 479 463 482 454 482C414 482 374 446 312 354L275 299L269 347C257 446 230 482 171 482C145 482 123 474 114 461L56 378L73 368C103 402 123 416 142 416C175 416 197 375 214 277L225 215L185 153C142 86 108 54 80 54C65 54 54 58 52 63L41 91L21 88C21 53 13 27 9 1Z" stroke="rgb(0, 0, 0)" stroke-width="8" fill="rgb(0, 0, 0)" style="transform:matrix(0.017,0,0,-0.017,0,0);"></path></g><g><g><g><g style="transform:matrix(1,0,0,1,165.546875,26.36875);"><path d="M16 23L16 -3C203 -3 203 0 239 0C275 0 275 -3 468 -3L468 82C353 77 307 81 122 77L304 270C401 373 431 428 431 503C431 618 353 689 226 689C154 689 105 669 56 619L39 483L68 483L81 529C97 587 133 612 200 612C286 612 341 558 341 473C341 398 299 324 186 204Z" stroke="rgb(0, 0, 0)" stroke-width="8" fill="rgb(0, 0, 0)" style="transform:matrix(0.0119,0,0,-0.0119,0,0);"></path></g></g></g></g><g style="transform:matrix(1,0,0,1,174,20.984375);"><path d="M604 241L604 300L364 300L364 538L305 538L305 300L65 300L65 241L305 241L305 0L364 0L364 241Z" stroke="rgb(0, 0, 0)" stroke-width="8" fill="rgb(0, 0, 0)" style="transform:matrix(0.017,0,0,-0.017,0,0);"></path></g><g style="transform:matrix(1,0,0,1,189,20.984375);"><path d="M237 -16C473 -16 572 316 576 504C578 618 546 702 419 702C159 702 72 412 69 199C67 80 101 -16 237 -16ZM401 676C536 676 506 491 485 381L169 381C194 485 272 676 401 676ZM253 13C102 13 147 261 163 349L479 349C454 237 396 13 253 13Z" stroke="rgb(0, 0, 0)" stroke-width="8" fill="rgb(0, 0, 0)" style="transform:matrix(0.017,0,0,-0.017,0,0);"></path></g><g><g><g><g style="transform:matrix(1,0,0,1,199.25,26.36875);"><path d="M462 224C462 345 355 366 308 374C388 436 418 482 418 541C418 630 344 689 233 689C165 689 120 670 72 622L43 498L74 498L92 554C103 588 166 622 218 622C283 622 336 569 336 506C336 431 277 368 206 368C198 368 187 369 174 370L159 371L147 318L154 312C192 329 211 334 238 334C321 334 369 281 369 190C369 88 308 21 215 21C169 21 128 36 98 64C74 86 61 109 42 163L15 153C36 92 44 56 50 6C103 -12 147 -20 184 -20C307 -20 462 87 462 224Z" stroke="rgb(0, 0, 0)" stroke-width="8" fill="rgb(0, 0, 0)" style="transform:matrix(0.0119,0,0,-0.0119,0,0);"></path></g></g></g></g><g style="transform:matrix(1,0,0,1,205,20.984375);"><path d="M9 1C24 -7 40 -11 52 -11C85 -11 124 18 155 65L231 182L242 113C255 28 278 -11 314 -11C336 -11 368 6 400 35L449 79L440 98C404 68 379 53 363 53C348 53 335 63 325 83C316 102 305 139 300 168L282 269L317 318C364 383 391 406 422 406C438 406 450 398 455 383L469 387L484 472C472 479 463 482 454 482C414 482 374 446 312 354L275 299L269 347C257 446 230 482 171 482C145 482 123 474 114 461L56 378L73 368C103 402 123 416 142 416C175 416 197 375 214 277L225 215L185 153C142 86 108 54 80 54C65 54 54 58 52 63L41 91L21 88C21 53 13 27 9 1Z" stroke="rgb(0, 0, 0)" stroke-width="8" fill="rgb(0, 0, 0)" style="transform:matrix(0.017,0,0,-0.017,0,0);"></path></g><g><g><g><g style="transform:matrix(1,0,0,1,213.671875,26.36875);"><path d="M462 224C462 345 355 366 308 374C388 436 418 482 418 541C418 630 344 689 233 689C165 689 120 670 72 622L43 498L74 498L92 554C103 588 166 622 218 622C283 622 336 569 336 506C336 431 277 368 206 368C198 368 187 369 174 370L159 371L147 318L154 312C192 329 211 334 238 334C321 334 369 281 369 190C369 88 308 21 215 21C169 21 128 36 98 64C74 86 61 109 42 163L15 153C36 92 44 56 50 6C103 -12 147 -20 184 -20C307 -20 462 87 462 224Z" stroke="rgb(0, 0, 0)" stroke-width="8" fill="rgb(0, 0, 0)" style="transform:matrix(0.0119,0,0,-0.0119,0,0);"></path></g></g></g></g><g style="transform:matrix(1,0,0,1,225,20.984375);"><path d="M604 347L604 406L65 406L65 347ZM604 134L604 193L65 193L65 134Z" stroke="rgb(0, 0, 0)" stroke-width="8" fill="rgb(0, 0, 0)" style="transform:matrix(0.017,0,0,-0.017,0,0);"></path></g><g style="transform:matrix(1,0,0,1,241,20.984375);"><path d="M237 -16C473 -16 572 316 576 504C578 618 546 702 419 702C159 702 72 412 69 199C67 80 101 -16 237 -16ZM401 676C536 676 506 491 485 381L169 381C194 485 272 676 401 676ZM253 13C102 13 147 261 163 349L479 349C454 237 396 13 253 13Z" stroke="rgb(0, 0, 0)" stroke-width="8" fill="rgb(0, 0, 0)" style="transform:matrix(0.017,0,0,-0.017,0,0);"></path></g><g><g><g><g style="transform:matrix(1,0,0,1,251.375,26.36875);"><path d="M263 689C108 689 29 566 29 324C29 207 50 106 85 57C120 8 176 -20 238 -20C389 -20 465 110 465 366C465 585 400 689 263 689ZM245 654C342 654 381 556 381 316C381 103 343 15 251 15C154 15 113 116 113 360C113 571 150 654 245 654Z" stroke="rgb(0, 0, 0)" stroke-width="8" fill="rgb(0, 0, 0)" style="transform:matrix(0.0119,0,0,-0.0119,0,0);"></path></g></g></g></g><g style="transform:matrix(1,0,0,1,260,20.984375);"><path d="M604 241L604 300L364 300L364 538L305 538L305 300L65 300L65 241L305 241L305 0L364 0L364 241Z" stroke="rgb(0, 0, 0)" stroke-width="8" fill="rgb(0, 0, 0)" style="transform:matrix(0.017,0,0,-0.017,0,0);"></path></g><g style="transform:matrix(1,0,0,1,275,20.984375);"><path d="M237 -16C473 -16 572 316 576 504C578 618 546 702 419 702C159 702 72 412 69 199C67 80 101 -16 237 -16ZM401 676C536 676 506 491 485 381L169 381C194 485 272 676 401 676ZM253 13C102 13 147 261 163 349L479 349C454 237 396 13 253 13Z" stroke="rgb(0, 0, 0)" stroke-width="8" fill="rgb(0, 0, 0)" style="transform:matrix(0.017,0,0,-0.017,0,0);"></path></g><g><g><g><g style="transform:matrix(1,0,0,1,285.078125,26.36875);"><path d="M418 -3L418 27L366 30C311 33 301 44 301 96L301 700L60 598L67 548L217 614L217 96C217 44 206 33 152 30L96 27L96 -3C250 0 250 0 261 0C292 0 402 -3 418 -3Z" stroke="rgb(0, 0, 0)" stroke-width="8" fill="rgb(0, 0, 0)" style="transform:matrix(0.0119,0,0,-0.0119,0,0);"></path></g></g></g></g><g style="transform:matrix(1,0,0,1,291.03125,20.984375);"><path d="M146 266C146 526 243 632 301 700L282 726C225 675 60 542 60 266C60 159 85 58 133 -32C168 -99 200 -138 282 -215L301 -194C255 -137 146 -15 146 266Z" stroke="rgb(0, 0, 0)" stroke-width="8" fill="rgb(0, 0, 0)" style="transform:matrix(0.017,0,0,-0.017,0,0);"></path></g><g style="transform:matrix(1,0,0,1,297,20.984375);"><path d="M31 148C26 97 20 62 9 16C47 -2 81 -11 116 -11C165 -11 211 7 262 47C313 87 334 124 334 174C334 228 302 257 228 271L185 279C125 290 106 307 106 348C106 401 151 442 208 442C249 442 287 424 303 397L303 342L326 342C330 377 334 404 345 455C306 474 278 482 245 482C193 482 132 452 84 404C58 377 47 352 47 316C47 260 78 228 144 215L207 203C251 195 267 177 267 138C267 73 221 29 150 29C115 29 84 40 56 64L56 148ZM422 388L429 368L461 389C498 412 501 414 508 414C518 414 526 404 526 391C526 384 522 361 518 347L452 107C444 76 439 49 439 30C439 6 450 -9 469 -9C495 -9 531 12 629 85L619 103L593 86C564 67 541 56 532 56C525 56 519 66 519 76C519 86 521 95 526 116L603 420C607 437 609 448 609 456C609 473 600 482 584 482C562 482 525 461 450 408ZM616 712C587 712 558 679 558 645C558 620 573 604 597 604C628 604 652 633 652 671C652 695 637 712 616 712ZM987 -11C999 -11 1008 -9 1037 -1C1048 61 1056 95 1067 142L1045 142L1023 82C1017 64 1005 57 984 57C972 57 956 59 935 64L917 68C884 75 850 80 831 80C799 80 772 74 736 59L1075 441L1081 473L1072 482L1049 459C1039 449 1029 445 1015 445C981 445 929 453 881 466L863 471C835 478 815 482 801 482C784 482 764 479 740 472L708 350L729 350L759 408C776 412 785 413 798 413C839 413 871 398 924 398C960 398 984 404 1017 421L664 21L673 -6C702 17 729 26 764 26C827 26 918 -11 987 -11ZM1436 111L1412 94C1359 56 1311 36 1275 36C1228 36 1199 73 1199 133C1199 158 1202 185 1207 214C1224 218 1333 248 1358 259C1443 296 1482 342 1482 404C1482 451 1448 482 1398 482C1330 496 1220 423 1183 349C1153 299 1123 180 1123 113C1123 35 1167 -11 1239 -11C1296 -11 1352 17 1444 92ZM1221 274C1238 343 1258 386 1287 412C1305 428 1336 440 1360 440C1389 440 1408 420 1408 388C1408 344 1373 297 1321 272C1293 258 1257 247 1212 237Z" stroke="rgb(0, 0, 0)" stroke-width="8" fill="rgb(0, 0, 0)" style="transform:matrix(0.017,0,0,-0.017,0,0);"></path></g><g style="transform:matrix(1,0,0,1,322.109375,20.984375);"><path d="M51 726L32 700C87 636 187 526 187 266C187 -10 83 -131 32 -194L51 -215C104 -165 273 -23 273 265C273 542 108 675 51 726Z" stroke="rgb(0, 0, 0)" stroke-width="8" fill="rgb(0, 0, 0)" style="transform:matrix(0.017,0,0,-0.017,0,0);"></path></g><g style="transform:matrix(1,0,0,1,331,20.984375);"><path d="M604 241L604 300L364 300L364 538L305 538L305 300L65 300L65 241L305 241L305 0L364 0L364 241Z" stroke="rgb(0, 0, 0)" stroke-width="8" fill="rgb(0, 0, 0)" style="transform:matrix(0.017,0,0,-0.017,0,0);"></path></g><g style="transform:matrix(1,0,0,1,345,20.984375);"><path d="M237 -16C473 -16 572 316 576 504C578 618 546 702 419 702C159 702 72 412 69 199C67 80 101 -16 237 -16ZM401 676C536 676 506 491 485 381L169 381C194 485 272 676 401 676ZM253 13C102 13 147 261 163 349L479 349C454 237 396 13 253 13Z" stroke="rgb(0, 0, 0)" stroke-width="8" fill="rgb(0, 0, 0)" style="transform:matrix(0.017,0,0,-0.017,0,0);"></path></g><g><g><g><g style="transform:matrix(1,0,0,1,355.515625,26.36875);"><path d="M16 23L16 -3C203 -3 203 0 239 0C275 0 275 -3 468 -3L468 82C353 77 307 81 122 77L304 270C401 373 431 428 431 503C431 618 353 689 226 689C154 689 105 669 56 619L39 483L68 483L81 529C97 587 133 612 200 612C286 612 341 558 341 473C341 398 299 324 186 204Z" stroke="rgb(0, 0, 0)" stroke-width="8" fill="rgb(0, 0, 0)" style="transform:matrix(0.0119,0,0,-0.0119,0,0);"></path></g></g></g></g><g style="transform:matrix(1,0,0,1,361.46875,20.984375);"><path d="M146 266C146 526 243 632 301 700L282 726C225 675 60 542 60 266C60 159 85 58 133 -32C168 -99 200 -138 282 -215L301 -194C255 -137 146 -15 146 266Z" stroke="rgb(0, 0, 0)" stroke-width="8" fill="rgb(0, 0, 0)" style="transform:matrix(0.017,0,0,-0.017,0,0);"></path></g><g style="transform:matrix(1,0,0,1,367,20.984375);"><path d="M31 148C26 97 20 62 9 16C47 -2 81 -11 116 -11C165 -11 211 7 262 47C313 87 334 124 334 174C334 228 302 257 228 271L185 279C125 290 106 307 106 348C106 401 151 442 208 442C249 442 287 424 303 397L303 342L326 342C330 377 334 404 345 455C306 474 278 482 245 482C193 482 132 452 84 404C58 377 47 352 47 316C47 260 78 228 144 215L207 203C251 195 267 177 267 138C267 73 221 29 150 29C115 29 84 40 56 64L56 148ZM422 388L429 368L461 389C498 412 501 414 508 414C518 414 526 404 526 391C526 384 522 361 518 347L452 107C444 76 439 49 439 30C439 6 450 -9 469 -9C495 -9 531 12 629 85L619 103L593 86C564 67 541 56 532 56C525 56 519 66 519 76C519 86 521 95 526 116L603 420C607 437 609 448 609 456C609 473 600 482 584 482C562 482 525 461 450 408ZM616 712C587 712 558 679 558 645C558 620 573 604 597 604C628 604 652 633 652 671C652 695 637 712 616 712ZM987 -11C999 -11 1008 -9 1037 -1C1048 61 1056 95 1067 142L1045 142L1023 82C1017 64 1005 57 984 57C972 57 956 59 935 64L917 68C884 75 850 80 831 80C799 80 772 74 736 59L1075 441L1081 473L1072 482L1049 459C1039 449 1029 445 1015 445C981 445 929 453 881 466L863 471C835 478 815 482 801 482C784 482 764 479 740 472L708 350L729 350L759 408C776 412 785 413 798 413C839 413 871 398 924 398C960 398 984 404 1017 421L664 21L673 -6C702 17 729 26 764 26C827 26 918 -11 987 -11ZM1436 111L1412 94C1359 56 1311 36 1275 36C1228 36 1199 73 1199 133C1199 158 1202 185 1207 214C1224 218 1333 248 1358 259C1443 296 1482 342 1482 404C1482 451 1448 482 1398 482C1330 496 1220 423 1183 349C1153 299 1123 180 1123 113C1123 35 1167 -11 1239 -11C1296 -11 1352 17 1444 92ZM1221 274C1238 343 1258 386 1287 412C1305 428 1336 440 1360 440C1389 440 1408 420 1408 388C1408 344 1373 297 1321 272C1293 258 1257 247 1212 237Z" stroke="rgb(0, 0, 0)" stroke-width="8" fill="rgb(0, 0, 0)" style="transform:matrix(0.017,0,0,-0.017,0,0);"></path></g><g style="transform:matrix(1,0,0,1,392.546875,20.984375);"><path d="M51 726L32 700C87 636 187 526 187 266C187 -10 83 -131 32 -194L51 -215C104 -165 273 -23 273 265C273 542 108 675 51 726Z" stroke="rgb(0, 0, 0)" stroke-width="8" fill="rgb(0, 0, 0)" style="transform:matrix(0.017,0,0,-0.017,0,0);"></path></g><g><g><g><g style="transform:matrix(1,0,0,1,398.203125,13.9);"><path d="M16 23L16 -3C203 -3 203 0 239 0C275 0 275 -3 468 -3L468 82C353 77 307 81 122 77L304 270C401 373 431 428 431 503C431 618 353 689 226 689C154 689 105 669 56 619L39 483L68 483L81 529C97 587 133 612 200 612C286 612 341 558 341 473C341 398 299 324 186 204Z" stroke="rgb(0, 0, 0)" stroke-width="8" fill="rgb(0, 0, 0)" style="transform:matrix(0.0119,0,0,-0.0119,0,0);"></path></g></g></g></g><g style="transform:matrix(1,0,0,1,407,20.984375);"><path d="M604 241L604 300L364 300L364 538L305 538L305 300L65 300L65 241L305 241L305 0L364 0L364 241Z" stroke="rgb(0, 0, 0)" stroke-width="8" fill="rgb(0, 0, 0)" style="transform:matrix(0.017,0,0,-0.017,0,0);"></path></g><g style="transform:matrix(1,0,0,1,421,20.984375);"><path d="M237 -16C473 -16 572 316 576 504C578 618 546 702 419 702C159 702 72 412 69 199C67 80 101 -16 237 -16ZM401 676C536 676 506 491 485 381L169 381C194 485 272 676 401 676ZM253 13C102 13 147 261 163 349L479 349C454 237 396 13 253 13Z" stroke="rgb(0, 0, 0)" stroke-width="8" fill="rgb(0, 0, 0)" style="transform:matrix(0.017,0,0,-0.017,0,0);"></path></g><g><g><g><g style="transform:matrix(1,0,0,1,431.90625,26.36875);"><path d="M462 224C462 345 355 366 308 374C388 436 418 482 418 541C418 630 344 689 233 689C165 689 120 670 72 622L43 498L74 498L92 554C103 588 166 622 218 622C283 622 336 569 336 506C336 431 277 368 206 368C198 368 187 369 174 370L159 371L147 318L154 312C192 329 211 334 238 334C321 334 369 281 369 190C369 88 308 21 215 21C169 21 128 36 98 64C74 86 61 109 42 163L15 153C36 92 44 56 50 6C103 -12 147 -20 184 -20C307 -20 462 87 462 224Z" stroke="rgb(0, 0, 0)" stroke-width="8" fill="rgb(0, 0, 0)" style="transform:matrix(0.0119,0,0,-0.0119,0,0);"></path></g></g></g></g><g style="transform:matrix(1,0,0,1,437.859375,20.984375);"><path d="M146 266C146 526 243 632 301 700L282 726C225 675 60 542 60 266C60 159 85 58 133 -32C168 -99 200 -138 282 -215L301 -194C255 -137 146 -15 146 266Z" stroke="rgb(0, 0, 0)" stroke-width="8" fill="rgb(0, 0, 0)" style="transform:matrix(0.017,0,0,-0.017,0,0);"></path></g><g style="transform:matrix(1,0,0,1,444,20.984375);"><path d="M31 148C26 97 20 62 9 16C47 -2 81 -11 116 -11C165 -11 211 7 262 47C313 87 334 124 334 174C334 228 302 257 228 271L185 279C125 290 106 307 106 348C106 401 151 442 208 442C249 442 287 424 303 397L303 342L326 342C330 377 334 404 345 455C306 474 278 482 245 482C193 482 132 452 84 404C58 377 47 352 47 316C47 260 78 228 144 215L207 203C251 195 267 177 267 138C267 73 221 29 150 29C115 29 84 40 56 64L56 148ZM422 388L429 368L461 389C498 412 501 414 508 414C518 414 526 404 526 391C526 384 522 361 518 347L452 107C444 76 439 49 439 30C439 6 450 -9 469 -9C495 -9 531 12 629 85L619 103L593 86C564 67 541 56 532 56C525 56 519 66 519 76C519 86 521 95 526 116L603 420C607 437 609 448 609 456C609 473 600 482 584 482C562 482 525 461 450 408ZM616 712C587 712 558 679 558 645C558 620 573 604 597 604C628 604 652 633 652 671C652 695 637 712 616 712ZM987 -11C999 -11 1008 -9 1037 -1C1048 61 1056 95 1067 142L1045 142L1023 82C1017 64 1005 57 984 57C972 57 956 59 935 64L917 68C884 75 850 80 831 80C799 80 772 74 736 59L1075 441L1081 473L1072 482L1049 459C1039 449 1029 445 1015 445C981 445 929 453 881 466L863 471C835 478 815 482 801 482C784 482 764 479 740 472L708 350L729 350L759 408C776 412 785 413 798 413C839 413 871 398 924 398C960 398 984 404 1017 421L664 21L673 -6C702 17 729 26 764 26C827 26 918 -11 987 -11ZM1436 111L1412 94C1359 56 1311 36 1275 36C1228 36 1199 73 1199 133C1199 158 1202 185 1207 214C1224 218 1333 248 1358 259C1443 296 1482 342 1482 404C1482 451 1448 482 1398 482C1330 496 1220 423 1183 349C1153 299 1123 180 1123 113C1123 35 1167 -11 1239 -11C1296 -11 1352 17 1444 92ZM1221 274C1238 343 1258 386 1287 412C1305 428 1336 440 1360 440C1389 440 1408 420 1408 388C1408 344 1373 297 1321 272C1293 258 1257 247 1212 237Z" stroke="rgb(0, 0, 0)" stroke-width="8" fill="rgb(0, 0, 0)" style="transform:matrix(0.017,0,0,-0.017,0,0);"></path></g><g style="transform:matrix(1,0,0,1,468.9375,20.984375);"><path d="M51 726L32 700C87 636 187 526 187 266C187 -10 83 -131 32 -194L51 -215C104 -165 273 -23 273 265C273 542 108 675 51 726Z" stroke="rgb(0, 0, 0)" stroke-width="8" fill="rgb(0, 0, 0)" style="transform:matrix(0.017,0,0,-0.017,0,0);"></path></g><g><g><g><g style="transform:matrix(1,0,0,1,474.59375,13.9);"><path d="M462 224C462 345 355 366 308 374C388 436 418 482 418 541C418 630 344 689 233 689C165 689 120 670 72 622L43 498L74 498L92 554C103 588 166 622 218 622C283 622 336 569 336 506C336 431 277 368 206 368C198 368 187 369 174 370L159 371L147 318L154 312C192 329 211 334 238 334C321 334 369 281 369 190C369 88 308 21 215 21C169 21 128 36 98 64C74 86 61 109 42 163L15 153C36 92 44 56 50 6C103 -12 147 -20 184 -20C307 -20 462 87 462 224Z" stroke="rgb(0, 0, 0)" stroke-width="8" fill="rgb(0, 0, 0)" style="transform:matrix(0.0119,0,0,-0.0119,0,0);"></path></g></g></g></g></g></g></svg>