<svg xmlns="http://www.w3.org/2000/svg" width="662" height="272.625" style="
        width:662px;
        height:272.625px;
        background: transparent;
        fill: none;
">
        
        <svg xmlns="http://www.w3.org/2000/svg"><g class="shapes-region" style="stroke: black; fill: none;"><g class="composite-shape" data-amt="diagram/shapes/plot" style="transform: matrix(1, 0, 0, 1, 46, 32);"><defs><clipPath id="dp490140330498003"><rect x="1" y="1" width="209.5" height="198"/></clipPath></defs><g clip-path="url(#dp490140330498003)"><g><line x1="8.860937500000004" y1="0" x2="8.860937500000004" y2="200" fill="none" stroke="lightgray" stroke-width="0.5"/><line x1="58.64843750000001" y1="0" x2="58.64843750000001" y2="200" fill="none" stroke="lightgray" stroke-width="0.5"/><line x1="108.43593750000002" y1="0" x2="108.43593750000002" y2="200" fill="none" stroke="lightgray" stroke-width="0.5"/><line x1="158.22343750000002" y1="0" x2="158.22343750000002" y2="200" fill="none" stroke="lightgray" stroke-width="0.5"/><line x1="208.01093750000004" y1="0" x2="208.01093750000004" y2="200" fill="none" stroke="lightgray" stroke-width="0.5"/></g><g><line x1="0" y1="161" x2="211.5" y2="161" fill="none" stroke="lightgray" stroke-width="0.5"/><line x1="0" y1="111.21249999999999" x2="211.5" y2="111.21249999999999" fill="none" stroke="lightgray" stroke-width="0.5"/><line x1="0" y1="61.42499999999998" x2="211.5" y2="61.42499999999998" fill="none" stroke="lightgray" stroke-width="0.5"/><line x1="0" y1="11.637499999999989" x2="211.5" y2="11.637499999999989" fill="none" stroke="lightgray" stroke-width="0.5"/></g><g style="font-family: Asana-Math, Asana;"><line x1="0" y1="161" x2="211.5" y2="161" fill="none" stroke="black" stroke-width="0.5"/><line x1="8.860937500000004" y1="157" x2="8.860937500000004" y2="165" fill="none" stroke="black" stroke-width="0.5"/><line x1="108.43593750000002" y1="157" x2="108.43593750000002" y2="165" fill="none" stroke="black" stroke-width="0.5"/><line x1="158.22343750000002" y1="157" x2="158.22343750000002" y2="165" fill="none" stroke="black" stroke-width="0.5"/><line x1="208.01093750000004" y1="157" x2="208.01093750000004" y2="165" fill="none" stroke="black" stroke-width="0.5"/><path d="M206,157 L210,161 L206,165" stroke-width="0.5"/><text text-anchor="middle" font-size="11" stroke="none" fill="gray" x="8.860937500000004" y="177">-1</text><text text-anchor="middle" font-size="11" stroke="none" fill="gray" x="108.43593750000002" y="177">1</text><text text-anchor="middle" font-size="11" stroke="none" fill="gray" x="158.22343750000002" y="177">2</text><text text-anchor="middle" font-size="11" stroke="none" fill="gray" x="208.01093750000004" y="177">3</text><text text-anchor="middle" font-size="11" stroke="none" fill="gray" x="52.64843750000001" y="173">0</text></g><g style="font-family: Asana-Math, Asana;"><line x1="58.6484375" y1="0" x2="58.6484375" y2="200" fill="none" stroke="black" stroke-width="0.5"/><line x1="54.6484375" y1="111.21249999999999" x2="62.6484375" y2="111.21249999999999" fill="none" stroke="black" stroke-width="0.5"/><line x1="54.6484375" y1="61.42499999999998" x2="62.6484375" y2="61.42499999999998" fill="none" stroke="black" stroke-width="0.5"/><line x1="54.6484375" y1="11.637499999999989" x2="62.6484375" y2="11.637499999999989" fill="none" stroke="black" stroke-width="0.5"/><path d="M54.6484375,5.5 L58.6484375,1.5 L62.6484375,5.5" stroke-width="0.5"/><text text-anchor="end" font-size="11" stroke="none" fill="gray" x="48.6484375" y="115.21249999999999">1</text><text text-anchor="end" font-size="11" stroke="none" fill="gray" x="48.6484375" y="65.42499999999998">2</text><text text-anchor="end" font-size="11" stroke="none" fill="gray" x="48.6484375" y="15.637499999999989">3</text><text text-anchor="end" font-size="11" stroke="none" fill="gray" x="55.6484375" y="173">0</text></g><g><path d=" M59.14,-68.93 L59.27,-57.63 L59.64,-33.93 L59.64,-33.93 L60.14,-13.58 L60.64,0.83 L61.14,11.98 L61.65,21.09 L62.15,28.79 L62.65,35.46 L63.15,41.34 L63.65,46.59 L64.15,51.35 L64.65,55.69 L65.15,59.68 L65.66,63.37 L66.16,66.81 L66.66,70.03 L67.16,73.05 L67.66,75.90 L68.16,78.59 L68.66,81.15 L69.16,83.58 L69.66,85.90 L70.17,88.12 L70.67,90.24 L71.17,92.27 L71.67,94.22 L72.17,96.11 L72.67,97.92 L73.17,99.67 L73.67,101.35 L74.18,102.99 L74.68,104.57 L75.18,106.10 L75.68,107.59 L76.18,109.03 L76.68,110.44 L77.18,111.80 L77.68,113.13 L78.18,114.42 L78.69,115.69 L79.19,116.92 L79.69,118.12 L80.19,119.29 L80.69,120.43 L81.19,121.55 L81.69,122.65 L82.19,123.72 L82.70,124.77 L83.20,125.79 L83.70,126.80 L84.20,127.79 L84.70,128.75 L85.20,129.70 L85.70,130.63 L86.20,131.55 L86.70,132.44 L87.21,133.33 L87.71,134.19 L88.21,135.04 L88.71,135.88 L89.21,136.70 L89.71,137.51 L90.21,138.31 L90.71,139.10 L91.22,139.87 L91.72,140.63 L92.22,141.38 L92.72,142.11 L93.22,142.84 L93.72,143.56 L94.22,144.26 L94.72,144.96 L95.23,145.65 L95.73,146.33 L96.23,146.99 L96.73,147.65 L97.23,148.30 L97.73,148.95 L98.23,149.58 L98.73,150.21 L99.23,150.83 L99.74,151.44 L100.24,152.04 L100.74,152.64 L101.24,153.23 L101.74,153.81 L102.24,154.39 L102.74,154.95 L103.24,155.52 L103.75,156.07 L104.25,156.62 L104.75,157.17 L105.25,157.71 L105.75,158.24 L106.25,158.77 L106.75,159.29 L107.25,159.80 L107.75,160.31 L108.26,160.82 L108.76,161.32 L109.26,161.82 L109.76,162.31 L110.26,162.79 L110.76,163.27 L111.26,163.75 L111.76,164.22 L112.27,164.69 L112.77,165.15 L113.27,165.61 L113.77,166.07 L114.27,166.52 L114.77,166.96 L115.27,167.41 L115.77,167.84 L116.27,168.28 L116.78,168.71 L117.28,169.14 L117.78,169.56 L118.28,169.98 L118.78,170.40 L119.28,170.81 L119.78,171.22 L120.28,171.63 L120.79,172.03 L121.29,172.43 L121.79,172.83 L122.29,173.22 L122.79,173.61 L123.29,174.00 L123.79,174.38 L124.29,174.77 L124.80,175.15 L125.30,175.52 L125.80,175.89 L126.30,176.26 L126.80,176.63 L127.30,177.00 L127.80,177.36 L128.30,177.72 L128.80,178.08 L129.31,178.43 L129.81,178.78 L130.31,179.13 L130.81,179.48 L131.31,179.82 L131.81,180.16 L132.31,180.50 L132.81,180.84 L133.32,181.18 L133.82,181.51 L134.32,181.84 L134.82,182.17 L135.32,182.50 L135.82,182.82 L136.32,183.14 L136.82,183.46 L137.32,183.78 L137.83,184.10 L138.33,184.41 L138.83,184.72 L139.33,185.03 L139.83,185.34 L140.33,185.65 L140.83,185.95 L141.33,186.26 L141.84,186.56 L142.34,186.86 L142.84,187.15 L143.34,187.45 L143.84,187.74 L144.34,188.03 L144.84,188.33 L145.34,188.61 L145.84,188.90 L146.35,189.19 L146.85,189.47 L147.35,189.75 L147.85,190.03 L148.35,190.31 L148.85,190.59 L149.35,190.86 L149.85,191.14 L150.36,191.41 L150.86,191.68 L151.36,191.95 L151.86,192.22 L152.36,192.49 L152.86,192.75 L153.36,193.02 L153.86,193.28 L154.36,193.54 L154.87,193.80 L155.37,194.06 L155.87,194.32 L156.37,194.57 L156.87,194.83 L157.37,195.08 L157.87,195.33 L158.37,195.59 L158.88,195.84 L159.38,196.08 L159.88,196.33 L160.38,196.58 L160.88,196.82 L161.38,197.06 L161.88,197.31 L162.38,197.55 L162.89,197.79 L163.39,198.03 L163.89,198.26 L164.39,198.50 L164.89,198.74 L165.39,198.97 L165.89,199.20 L166.39,199.44 L166.89,199.67 L167.40,199.90 L167.90,200.13 L168.40,200.35 L168.90,200.58 L169.40,200.81 L169.90,201.03 L170.40,201.26 L170.90,201.48 L171.41,201.70 L171.91,201.92 L172.41,202.14 L172.91,202.36 L173.41,202.58 L173.91,202.79 L174.41,203.01 L174.91,203.23 L175.41,203.44 L175.92,203.65 L176.42,203.86 L176.92,204.08 L177.42,204.29 L177.92,204.50 L178.42,204.71 L178.92,204.91 L179.42,205.12 L179.93,205.33 L180.43,205.53 L180.93,205.74 L181.43,205.94 L181.93,206.14 L182.43,206.34 L182.93,206.55 L183.43,206.75 L183.93,206.95 L184.44,207.14 L184.94,207.34 L185.44,207.54 L185.94,207.74 L186.44,207.93 L186.94,208.13 L187.44,208.32 L187.94,208.51 L188.45,208.71 L188.95,208.90 L189.45,209.09 L189.95,209.28 L190.45,209.47 L190.95,209.66 L191.45,209.85 L191.95,210.03 L192.45,210.22 L192.96,210.41 L193.46,210.59 L193.96,210.78 L194.46,210.96 L194.96,211.15 L195.46,211.33 L195.96,211.51 L196.46,211.69 L196.97,211.87 L197.47,212.05 L197.97,212.23 L198.47,212.41 L198.97,212.59 L199.47,212.77 L199.97,212.94 L200.47,213.12 L200.98,213.29 L201.48,213.47 L201.98,213.64 L202.48,213.82 L202.98,213.99 L203.48,214.16 L203.98,214.34 L204.48,214.51 L204.98,214.68 L205.49,214.85 L205.99,215.02 L206.49,215.19 L206.99,215.36 L207.49,215.52 L207.99,215.69 L208.49,215.86 L208.99,216.02 L209.50,216.19 L210.00,216.35 L210.50,216.52 L211.00,216.68 L211.50,216.85" style="stroke-width: 2; stroke: rgb(74, 144, 226);"/></g><rect class="real" x="1" y="1" width="209.5" height="198" style="stroke: none; fill: transparent;"/></g></g><g class="composite-shape" data-amt="diagram/shapes/plot" style="transform: matrix(1, 0, 0, 1, 395, 31);"><defs><clipPath id="dp6635641905777601"><rect x="1" y="1" width="209.5" height="198"/></clipPath></defs><g clip-path="url(#dp6635641905777601)"><g><line x1="8.860937500000004" y1="0" x2="8.860937500000004" y2="200" fill="none" stroke="lightgray" stroke-width="0.5"/><line x1="58.64843750000001" y1="0" x2="58.64843750000001" y2="200" fill="none" stroke="lightgray" stroke-width="0.5"/><line x1="108.43593750000002" y1="0" x2="108.43593750000002" y2="200" fill="none" stroke="lightgray" stroke-width="0.5"/><line x1="158.22343750000002" y1="0" x2="158.22343750000002" y2="200" fill="none" stroke="lightgray" stroke-width="0.5"/><line x1="208.01093750000004" y1="0" x2="208.01093750000004" y2="200" fill="none" stroke="lightgray" stroke-width="0.5"/></g><g><line x1="0" y1="161" x2="211.5" y2="161" fill="none" stroke="lightgray" stroke-width="0.5"/><line x1="0" y1="111.21249999999999" x2="211.5" y2="111.21249999999999" fill="none" stroke="lightgray" stroke-width="0.5"/><line x1="0" y1="61.42499999999998" x2="211.5" y2="61.42499999999998" fill="none" stroke="lightgray" stroke-width="0.5"/><line x1="0" y1="11.637499999999989" x2="211.5" y2="11.637499999999989" fill="none" stroke="lightgray" stroke-width="0.5"/></g><g style="font-family: Asana-Math, Asana;"><line x1="0" y1="161" x2="211.5" y2="161" fill="none" stroke="black" stroke-width="0.5"/><line x1="8.860937500000004" y1="157" x2="8.860937500000004" y2="165" fill="none" stroke="black" stroke-width="0.5"/><line x1="108.43593750000002" y1="157" x2="108.43593750000002" y2="165" fill="none" stroke="black" stroke-width="0.5"/><line x1="158.22343750000002" y1="157" x2="158.22343750000002" y2="165" fill="none" stroke="black" stroke-width="0.5"/><line x1="208.01093750000004" y1="157" x2="208.01093750000004" y2="165" fill="none" stroke="black" stroke-width="0.5"/><path d="M206,157 L210,161 L206,165" stroke-width="0.5"/><text text-anchor="middle" font-size="11" stroke="none" fill="gray" x="8.860937500000004" y="177">-1</text><text text-anchor="middle" font-size="11" stroke="none" fill="gray" x="108.43593750000002" y="177">1</text><text text-anchor="middle" font-size="11" stroke="none" fill="gray" x="158.22343750000002" y="177">2</text><text text-anchor="middle" font-size="11" stroke="none" fill="gray" x="208.01093750000004" y="177">3</text><text text-anchor="middle" font-size="11" stroke="none" fill="gray" x="52.64843750000001" y="173">0</text></g><g style="font-family: Asana-Math, Asana;"><line x1="58.6484375" y1="0" x2="58.6484375" y2="200" fill="none" stroke="black" stroke-width="0.5"/><line x1="54.6484375" y1="111.21249999999999" x2="62.6484375" y2="111.21249999999999" fill="none" stroke="black" stroke-width="0.5"/><line x1="54.6484375" y1="61.42499999999998" x2="62.6484375" y2="61.42499999999998" fill="none" stroke="black" stroke-width="0.5"/><line x1="54.6484375" y1="11.637499999999989" x2="62.6484375" y2="11.637499999999989" fill="none" stroke="black" stroke-width="0.5"/><path d="M54.6484375,5.5 L58.6484375,1.5 L62.6484375,5.5" stroke-width="0.5"/><text text-anchor="end" font-size="11" stroke="none" fill="gray" x="48.6484375" y="115.21249999999999">1</text><text text-anchor="end" font-size="11" stroke="none" fill="gray" x="48.6484375" y="65.42499999999998">2</text><text text-anchor="end" font-size="11" stroke="none" fill="gray" x="48.6484375" y="15.637499999999989">3</text><text text-anchor="end" font-size="11" stroke="none" fill="gray" x="55.6484375" y="173">0</text></g><g><path d=" M0.00,199.75 L0.50,199.52 L1.00,199.29 L1.50,199.06 L2.00,198.83 L2.51,198.59 L3.01,198.35 L3.51,198.12 L4.01,197.88 L4.51,197.64 L5.01,197.40 L5.51,197.16 L6.01,196.91 L6.52,196.67 L7.02,196.42 L7.52,196.18 L8.02,195.93 L8.52,195.68 L9.02,195.43 L9.52,195.18 L10.02,194.93 L10.52,194.67 L11.03,194.42 L11.53,194.16 L12.03,193.90 L12.53,193.64 L13.03,193.38 L13.53,193.12 L14.03,192.85 L14.53,192.59 L15.04,192.32 L15.54,192.06 L16.04,191.79 L16.54,191.51 L17.04,191.24 L17.54,190.97 L18.04,190.69 L18.54,190.42 L19.05,190.14 L19.55,189.86 L20.05,189.58 L20.55,189.29 L21.05,189.01 L21.55,188.72 L22.05,188.43 L22.55,188.15 L23.05,187.85 L23.56,187.56 L24.06,187.27 L24.56,186.97 L25.06,186.67 L25.56,186.37 L26.06,186.07 L26.56,185.76 L27.06,185.46 L27.57,185.15 L28.07,184.84 L28.57,184.53 L29.07,184.22 L29.57,183.90 L30.07,183.58 L30.57,183.26 L31.07,182.94 L31.57,182.62 L32.08,182.29 L32.58,181.97 L33.08,181.64 L33.58,181.30 L34.08,180.97 L34.58,180.63 L35.08,180.29 L35.58,179.95 L36.09,179.61 L36.59,179.26 L37.09,178.91 L37.59,178.56 L38.09,178.21 L38.59,177.85 L39.09,177.50 L39.59,177.13 L40.09,176.77 L40.60,176.40 L41.10,176.03 L41.60,175.66 L42.10,175.29 L42.60,174.91 L43.10,174.53 L43.60,174.15 L44.10,173.76 L44.61,173.37 L45.11,172.98 L45.61,172.58 L46.11,172.18 L46.61,171.78 L47.11,171.38 L47.61,170.97 L48.11,170.56 L48.61,170.14 L49.12,169.72 L49.62,169.30 L50.12,168.87 L50.62,168.44 L51.12,168.01 L51.62,167.57 L52.12,167.13 L52.62,166.69 L53.13,166.24 L53.63,165.78 L54.13,165.33 L54.63,164.87 L55.13,164.40 L55.63,163.93 L56.13,163.45 L56.63,162.97 L57.14,162.49 L57.64,162.00 L58.14,161.51 L58.64,161.01 L59.14,160.51 L59.64,160.00 L60.14,159.48 L60.64,158.96 L61.14,158.44 L61.65,157.91 L62.15,157.37 L62.65,156.83 L63.15,156.28 L63.65,155.73 L64.15,155.17 L64.65,154.60 L65.15,154.03 L65.66,153.45 L66.16,152.86 L66.66,152.27 L67.16,151.67 L67.66,151.06 L68.16,150.44 L68.66,149.82 L69.16,149.19 L69.66,148.55 L70.17,147.90 L70.67,147.24 L71.17,146.58 L71.67,145.91 L72.17,145.22 L72.67,144.53 L73.17,143.83 L73.67,143.11 L74.18,142.39 L74.68,141.66 L75.18,140.91 L75.68,140.16 L76.18,139.39 L76.68,138.61 L77.18,137.82 L77.68,137.01 L78.18,136.19 L78.69,135.36 L79.19,134.52 L79.69,133.66 L80.19,132.78 L80.69,131.89 L81.19,130.98 L81.69,130.06 L82.19,129.12 L82.70,128.16 L83.20,127.18 L83.70,126.18 L84.20,125.16 L84.70,124.12 L85.20,123.06 L85.70,121.97 L86.20,120.86 L86.70,119.72 L87.21,118.56 L87.71,117.37 L88.21,116.16 L88.71,114.91 L89.21,113.62 L89.71,112.31 L90.21,110.96 L90.71,109.57 L91.22,108.14 L91.72,106.67 L92.22,105.16 L92.72,103.59 L93.22,101.98 L93.72,100.31 L94.22,98.59 L94.72,96.80 L95.23,94.95 L95.73,93.02 L96.23,91.02 L96.73,88.93 L97.23,86.75 L97.73,84.47 L98.23,82.09 L98.73,79.58 L99.23,76.94 L99.74,74.15 L100.24,71.20 L100.74,68.06 L101.24,64.70 L101.74,61.11 L102.24,57.24 L102.74,53.03 L103.24,48.45 L103.75,43.39 L104.25,37.77 L104.75,31.42 L105.25,24.15 L105.75,15.63 L106.25,5.35 L106.75,-7.62 L107.25,-25.22 L107.75,-52.67 L107.88,-62.79 L108.26,-118.93 L108.26,-118.93" style="stroke-width: 2; stroke: rgb(74, 144, 226);"/></g><rect class="real" x="1" y="1" width="209.5" height="198" style="stroke: none; fill: transparent;"/></g></g><g class="intersections-group"><g style="stroke: rgb(0, 0, 0); stroke-width: 1; fill: none;"/></g></g><g/><g/><!-- react-empty: 45031 --></svg>
        <svg xmlns="http://www.w3.org/2000/svg" width="660" height="270.625" style="width:660px;height:270.625px;font-family:Asana-Math, Asana;background:transparent;"><g><g><g><g><g><g style="transform:matrix(1,0,0,1,229.2109375,225.7578125);"><path d="M236 722L224 733C179 711 138 697 64 691L60 670L108 670C126 670 142 667 142 647C142 641 142 632 140 622L98 388C78 272 36 80 10 2L17 -9L86 7C94 64 108 164 148 236C193 317 296 414 338 414C349 414 360 407 360 393C360 375 355 342 345 303L294 107C288 85 281 55 281 31C281 6 291 -9 312 -9C344 -9 412 41 471 85L461 103L435 86C412 71 386 56 374 56C367 56 361 65 361 76C361 88 364 101 368 116L432 372C438 398 443 423 443 447C443 464 437 482 411 482C376 482 299 437 231 374C198 343 172 308 144 273L140 275Z" stroke="rgb(0, 0, 0)" stroke-width="8" fill="rgb(0, 0, 0)" style="transform:matrix(0.017,0,0,-0.017,0,0);"></path></g><g><g><g><g style="transform:matrix(1,0,0,1,237.6796875,231.1421875);"><path d="M237 -16C473 -16 572 316 576 504C578 618 546 702 419 702C159 702 72 412 69 199C67 80 101 -16 237 -16ZM401 676C536 676 506 491 485 381L169 381C194 485 272 676 401 676ZM253 13C102 13 147 261 163 349L479 349C454 237 396 13 253 13Z" stroke="rgb(0, 0, 0)" stroke-width="8" fill="rgb(0, 0, 0)" style="transform:matrix(0.0119,0,0,-0.0119,0,0);"></path></g></g></g></g><g style="transform:matrix(1,0,0,1,244.9765625,225.7578125);"><path d="M146 266C146 526 243 632 301 700L282 726C225 675 60 542 60 266C60 159 85 58 133 -32C168 -99 200 -138 282 -215L301 -194C255 -137 146 -15 146 266Z" stroke="rgb(0, 0, 0)" stroke-width="8" fill="rgb(0, 0, 0)" style="transform:matrix(0.017,0,0,-0.017,0,0);"></path></g><g style="transform:matrix(1,0,0,1,250.2109375,225.7578125);"><path d="M9 1C24 -7 40 -11 52 -11C85 -11 124 18 155 65L231 182L242 113C255 28 278 -11 314 -11C336 -11 368 6 400 35L449 79L440 98C404 68 379 53 363 53C348 53 335 63 325 83C316 102 305 139 300 168L282 269L317 318C364 383 391 406 422 406C438 406 450 398 455 383L469 387L484 472C472 479 463 482 454 482C414 482 374 446 312 354L275 299L269 347C257 446 230 482 171 482C145 482 123 474 114 461L56 378L73 368C103 402 123 416 142 416C175 416 197 375 214 277L225 215L185 153C142 86 108 54 80 54C65 54 54 58 52 63L41 91L21 88C21 53 13 27 9 1Z" stroke="rgb(0, 0, 0)" stroke-width="8" fill="rgb(0, 0, 0)" style="transform:matrix(0.017,0,0,-0.017,0,0);"></path></g><g style="transform:matrix(1,0,0,1,259.1015625,225.7578125);"><path d="M51 726L32 700C87 636 187 526 187 266C187 -10 83 -131 32 -194L51 -215C104 -165 273 -23 273 265C273 542 108 675 51 726Z" stroke="rgb(0, 0, 0)" stroke-width="8" fill="rgb(0, 0, 0)" style="transform:matrix(0.017,0,0,-0.017,0,0);"></path></g></g></g></g></g></g><g><g><g><g><g><g style="transform:matrix(1,0,0,1,566.2109375,224.7578125);"><path d="M236 722L224 733C179 711 138 697 64 691L60 670L108 670C126 670 142 667 142 647C142 641 142 632 140 622L98 388C78 272 36 80 10 2L17 -9L86 7C94 64 108 164 148 236C193 317 296 414 338 414C349 414 360 407 360 393C360 375 355 342 345 303L294 107C288 85 281 55 281 31C281 6 291 -9 312 -9C344 -9 412 41 471 85L461 103L435 86C412 71 386 56 374 56C367 56 361 65 361 76C361 88 364 101 368 116L432 372C438 398 443 423 443 447C443 464 437 482 411 482C376 482 299 437 231 374C198 343 172 308 144 273L140 275Z" stroke="rgb(0, 0, 0)" stroke-width="8" fill="rgb(0, 0, 0)" style="transform:matrix(0.017,0,0,-0.017,0,0);"></path></g><g><g><g><g style="transform:matrix(1,0,0,1,574.6796875,230.1421875);"><path d="M237 -16C473 -16 572 316 576 504C578 618 546 702 419 702C159 702 72 412 69 199C67 80 101 -16 237 -16ZM401 676C536 676 506 491 485 381L169 381C194 485 272 676 401 676ZM253 13C102 13 147 261 163 349L479 349C454 237 396 13 253 13Z" stroke="rgb(0, 0, 0)" stroke-width="8" fill="rgb(0, 0, 0)" style="transform:matrix(0.0119,0,0,-0.0119,0,0);"></path></g></g></g></g><g style="transform:matrix(1,0,0,1,581.9765625,224.7578125);"><path d="M146 266C146 526 243 632 301 700L282 726C225 675 60 542 60 266C60 159 85 58 133 -32C168 -99 200 -138 282 -215L301 -194C255 -137 146 -15 146 266Z" stroke="rgb(0, 0, 0)" stroke-width="8" fill="rgb(0, 0, 0)" style="transform:matrix(0.017,0,0,-0.017,0,0);"></path></g><g style="transform:matrix(1,0,0,1,587.2109375,224.7578125);"><path d="M9 1C24 -7 40 -11 52 -11C85 -11 124 18 155 65L231 182L242 113C255 28 278 -11 314 -11C336 -11 368 6 400 35L449 79L440 98C404 68 379 53 363 53C348 53 335 63 325 83C316 102 305 139 300 168L282 269L317 318C364 383 391 406 422 406C438 406 450 398 455 383L469 387L484 472C472 479 463 482 454 482C414 482 374 446 312 354L275 299L269 347C257 446 230 482 171 482C145 482 123 474 114 461L56 378L73 368C103 402 123 416 142 416C175 416 197 375 214 277L225 215L185 153C142 86 108 54 80 54C65 54 54 58 52 63L41 91L21 88C21 53 13 27 9 1Z" stroke="rgb(0, 0, 0)" stroke-width="8" fill="rgb(0, 0, 0)" style="transform:matrix(0.017,0,0,-0.017,0,0);"></path></g><g style="transform:matrix(1,0,0,1,596.1015625,224.7578125);"><path d="M51 726L32 700C87 636 187 526 187 266C187 -10 83 -131 32 -194L51 -215C104 -165 273 -23 273 265C273 542 108 675 51 726Z" stroke="rgb(0, 0, 0)" stroke-width="8" fill="rgb(0, 0, 0)" style="transform:matrix(0.017,0,0,-0.017,0,0);"></path></g></g></g></g></g></g><g><g><text x="164.484375" y="77.5" style="white-space:pre;stroke:none;fill:rgb(0, 0, 0);font-size:15px;font-family:Arial, Helvetica, sans-serif;font-weight:400;dominant-baseline:text-before-edge;text-decoration:none solid rgb(0, 0, 0);">If </text><g><g><g><g style="transform:matrix(1,0,0,1,176.984375,91.5);"><path d="M-7 -180C-8 -187 -8 -193 -8 -198C-8 -241 29 -276 74 -276C180 -276 290 -152 349 33L490 473L479 482C450 471 427 465 405 463L370 331C358 284 323 211 290 162C255 111 206 67 184 67C172 67 163 90 164 115L180 322C182 353 184 391 184 419C184 464 177 482 160 482C147 482 133 475 85 442L3 386L14 368L64 398C69 401 80 410 89 410C103 410 111 391 111 358C111 357 111 351 110 343L93 100L92 60C92 18 110 -11 135 -11C172 -11 256 74 331 187L282 16C231 -161 181 -234 111 -234C76 -234 49 -207 49 -172C49 -167 50 -159 51 -150L41 -146Z" stroke="rgb(0, 0, 0)" stroke-width="8" fill="rgb(0, 0, 0)" style="transform:matrix(0.017,0,0,-0.017,0,0);"></path></g><g style="transform:matrix(1,0,0,1,189.984375,91.5);"><path d="M604 347L604 406L65 406L65 347ZM604 134L604 193L65 193L65 134Z" stroke="rgb(0, 0, 0)" stroke-width="8" fill="rgb(0, 0, 0)" style="transform:matrix(0.017,0,0,-0.017,0,0);"></path></g><g style="transform:matrix(1,0,0,1,206.984375,91.5);"><path d="M418 -3L418 27L366 30C311 33 301 44 301 96L301 700L60 598L67 548L217 614L217 96C217 44 206 33 152 30L96 27L96 -3C250 0 250 0 261 0C292 0 402 -3 418 -3Z" stroke="rgb(0, 0, 0)" stroke-width="8" fill="rgb(0, 0, 0)" style="transform:matrix(0.017,0,0,-0.017,0,0);"></path></g></g></g></g></g></g><g><g><text x="534.484375" y="75.5" style="white-space:pre;stroke:none;fill:rgb(0, 0, 0);font-size:15px;font-family:Arial, Helvetica, sans-serif;font-weight:400;dominant-baseline:text-before-edge;text-decoration:none solid rgb(0, 0, 0);">If </text><g><g><g><g style="transform:matrix(1,0,0,1,546.984375,89.5);"><path d="M-7 -180C-8 -187 -8 -193 -8 -198C-8 -241 29 -276 74 -276C180 -276 290 -152 349 33L490 473L479 482C450 471 427 465 405 463L370 331C358 284 323 211 290 162C255 111 206 67 184 67C172 67 163 90 164 115L180 322C182 353 184 391 184 419C184 464 177 482 160 482C147 482 133 475 85 442L3 386L14 368L64 398C69 401 80 410 89 410C103 410 111 391 111 358C111 357 111 351 110 343L93 100L92 60C92 18 110 -11 135 -11C172 -11 256 74 331 187L282 16C231 -161 181 -234 111 -234C76 -234 49 -207 49 -172C49 -167 50 -159 51 -150L41 -146Z" stroke="rgb(0, 0, 0)" stroke-width="8" fill="rgb(0, 0, 0)" style="transform:matrix(0.017,0,0,-0.017,0,0);"></path></g><g style="transform:matrix(1,0,0,1,559.984375,89.5);"><path d="M604 347L604 406L65 406L65 347ZM604 134L604 193L65 193L65 134Z" stroke="rgb(0, 0, 0)" stroke-width="8" fill="rgb(0, 0, 0)" style="transform:matrix(0.017,0,0,-0.017,0,0);"></path></g><g style="transform:matrix(1,0,0,1,576.984375,89.5);"><path d="M263 689C108 689 29 566 29 324C29 207 50 106 85 57C120 8 176 -20 238 -20C389 -20 465 110 465 366C465 585 400 689 263 689ZM245 654C342 654 381 556 381 316C381 103 343 15 251 15C154 15 113 116 113 360C113 571 150 654 245 654Z" stroke="rgb(0, 0, 0)" stroke-width="8" fill="rgb(0, 0, 0)" style="transform:matrix(0.017,0,0,-0.017,0,0);"></path></g></g></g></g></g></g><g><g><text x="394.578125" y="25" style="white-space:pre;stroke:none;fill:rgb(0, 0, 0);font-size:15px;font-family:Arial, Helvetica, sans-serif;font-weight:400;dominant-baseline:text-before-edge;text-decoration:none solid rgb(0, 0, 0);">Cost</text></g></g><g><g><text x="50.578125" y="28" style="white-space:pre;stroke:none;fill:rgb(0, 0, 0);font-size:15px;font-family:Arial, Helvetica, sans-serif;font-weight:400;dominant-baseline:text-before-edge;text-decoration:none solid rgb(0, 0, 0);">Cost</text></g></g></svg>
</svg>
