<svg xmlns="http://www.w3.org/2000/svg" width="302.15625" height="89.171875" style="width:302.15625px;height:89.171875px;font-family:Asana-Math, Asana;background:transparent;"><g><g><g style="transform:matrix(1,0,0,1,2,25.90625);"><path d="M183 -16C340 -16 453 139 455 287C458 470 216 507 227 622C234 698 356 689 413 655L423 655C420 667 417 681 411 694C316 715 167 698 156 597C149 540 224 493 266 464L266 458C123 426 31 304 29 160C27 53 70 -16 183 -16ZM209 12C125 12 105 99 106 167C108 295 153 411 287 448C349 399 381 350 380 269C378 174 327 12 209 12Z" stroke="rgb(0, 0, 0)" stroke-width="8" fill="rgb(0, 0, 0)" style="transform:matrix(0.017,0,0,-0.017,0,0);"></path></g><g><g><g><g style="transform:matrix(1,0,0,1,10.4375,18.821875);"><path d="M146 266C146 526 243 632 301 700L282 726C225 675 60 542 60 266C60 159 85 58 133 -32C168 -99 200 -138 282 -215L301 -194C255 -137 146 -15 146 266Z" stroke="rgb(0, 0, 0)" stroke-width="8" fill="rgb(0, 0, 0)" style="transform:matrix(0.0119,0,0,-0.0119,0,0);"></path></g><g style="transform:matrix(1,0,0,1,14.4375,18.821875);"><path d="M462 224C462 345 355 366 308 374C388 436 418 482 418 541C418 630 344 689 233 689C165 689 120 670 72 622L43 498L74 498L92 554C103 588 166 622 218 622C283 622 336 569 336 506C336 431 277 368 206 368C198 368 187 369 174 370L159 371L147 318L154 312C192 329 211 334 238 334C321 334 369 281 369 190C369 88 308 21 215 21C169 21 128 36 98 64C74 86 61 109 42 163L15 153C36 92 44 56 50 6C103 -12 147 -20 184 -20C307 -20 462 87 462 224Z" stroke="rgb(0, 0, 0)" stroke-width="8" fill="rgb(0, 0, 0)" style="transform:matrix(0.0119,0,0,-0.0119,0,0);"></path></g><g style="transform:matrix(1,0,0,1,20.328125,18.821875);"><path d="M51 726L32 700C87 636 187 526 187 266C187 -10 83 -131 32 -194L51 -215C104 -165 273 -23 273 265C273 542 108 675 51 726Z" stroke="rgb(0, 0, 0)" stroke-width="8" fill="rgb(0, 0, 0)" style="transform:matrix(0.0119,0,0,-0.0119,0,0);"></path></g></g></g></g><g style="transform:matrix(1,0,0,1,29,25.90625);"><path d="M604 347L604 406L65 406L65 347ZM604 134L604 193L65 193L65 134Z" stroke="rgb(0, 0, 0)" stroke-width="8" fill="rgb(0, 0, 0)" style="transform:matrix(0.017,0,0,-0.017,0,0);"></path></g><g><svg x="45.640625" style="overflow:visible;" y="7.90625" height="24" width="8.5"><path d=" M 6.61 1.70 q 0.00 -0.08 -0.08 -0.08 q -0.03 0.00 -0.08 0.02 q -1.01 0.55 -1.75 1.30 t -1.37 1.87 t -0.95 2.78 t -0.33 3.79 v 0.62 h 1.68 v -0.62 q 0.00 -1.20 0.04 -2.08 t 0.22 -2.04 t 0.50 -2.03 t 0.91 -1.74 t 1.43 -1.49 q 0.12 -0.09 0.12 -0.29 z   M 0.90 12.00 v 0.00 h 1.68 v 0.00 z" style="fill:rgb(0, 0, 0);stroke-width:1px;stroke:none;"></path><path d=" M 6.61 22.30 q 0.00 0.08 -0.08 0.08 q -0.03 0.00 -0.08 -0.02 q -1.01 -0.55 -1.75 -1.30 t -1.37 -1.87 t -0.95 -2.78 t -0.33 -3.79 v -0.62 h 1.68 v 0.62 q 0.00 1.20 0.04 2.08 t 0.22 2.04 t 0.50 2.03 t 0.91 1.74 t 1.43 1.49 q 0.12 0.09 0.12 0.29 z" style="fill:rgb(0, 0, 0);stroke-width:1px;stroke:none;"></path></svg></g><g style="transform:matrix(1,0,0,1,52,25.90625);"><path d="M478 327C534 327 529 289 530 243L549 243C561 325 574 402 588 484L569 484L569 480C552 436 547 400 491 400L325 400C267 400 274 438 274 484L254 484C243 402 231 325 216 243L235 243L235 246C251 291 257 327 312 327ZM748 425C748 603 644 706 464 706C227 706 53 523 53 272C53 83 147 -18 323 -18C595 -18 748 207 748 425ZM660 409C660 221 571 24 360 24C216 24 141 110 141 277C141 425 199 664 433 664C549 664 660 610 660 409Z" stroke="rgb(0, 0, 0)" stroke-width="8" fill="rgb(0, 0, 0)" style="transform:matrix(0.017,0,0,-0.017,0,0);"></path></g><g><g><g><g style="transform:matrix(1,0,0,1,65.65625,18.821875);"><path d="M146 266C146 526 243 632 301 700L282 726C225 675 60 542 60 266C60 159 85 58 133 -32C168 -99 200 -138 282 -215L301 -194C255 -137 146 -15 146 266Z" stroke="rgb(0, 0, 0)" stroke-width="8" fill="rgb(0, 0, 0)" style="transform:matrix(0.0119,0,0,-0.0119,0,0);"></path></g><g style="transform:matrix(1,0,0,1,69.65625,18.821875);"><path d="M462 224C462 345 355 366 308 374C388 436 418 482 418 541C418 630 344 689 233 689C165 689 120 670 72 622L43 498L74 498L92 554C103 588 166 622 218 622C283 622 336 569 336 506C336 431 277 368 206 368C198 368 187 369 174 370L159 371L147 318L154 312C192 329 211 334 238 334C321 334 369 281 369 190C369 88 308 21 215 21C169 21 128 36 98 64C74 86 61 109 42 163L15 153C36 92 44 56 50 6C103 -12 147 -20 184 -20C307 -20 462 87 462 224Z" stroke="rgb(0, 0, 0)" stroke-width="8" fill="rgb(0, 0, 0)" style="transform:matrix(0.0119,0,0,-0.0119,0,0);"></path></g><g style="transform:matrix(1,0,0,1,75.546875,18.821875);"><path d="M51 726L32 700C87 636 187 526 187 266C187 -10 83 -131 32 -194L51 -215C104 -165 273 -23 273 265C273 542 108 675 51 726Z" stroke="rgb(0, 0, 0)" stroke-width="8" fill="rgb(0, 0, 0)" style="transform:matrix(0.0119,0,0,-0.0119,0,0);"></path></g></g></g></g><g><svg x="77.828125" style="overflow:visible;" y="7.90625" height="24" width="8.5"><path d=" M 1.69 1.70 q 0.00 -0.08 0.08 -0.08 q 0.03 0.00 0.08 0.02 q 1.01 0.55 1.75 1.30 t 1.37 1.87 t 0.95 2.78 t 0.33 3.79 v 0.62 h -1.68 v -0.62 q 0.00 -1.20 -0.04 -2.08 t -0.22 -2.04 t -0.50 -2.03 t -0.91 -1.74 t -1.43 -1.49 q -0.12 -0.09 -0.12 -0.29 z  M 7.40 12.00 v 0.00 h -1.68 v 0.00 z" style="fill:rgb(0, 0, 0);stroke-width:1px;stroke:none;"></path><path d=" M 1.69 22.30 q 0.00 0.08 0.08 0.08 q 0.03 0.00 0.08 -0.02 q 1.01 -0.55 1.75 -1.30 t 1.37 -1.87 t 0.95 -2.78 t 0.33 -3.79 v -0.62 h -1.68 v 0.62 q 0.00 1.20 -0.04 2.08 t -0.22 2.04 t -0.50 2.03 t -0.91 1.74 t -1.43 1.49 q -0.12 0.09 -0.12 0.29 z" style="fill:rgb(0, 0, 0);stroke-width:1px;stroke:none;"></path></svg></g><g><g><g><g style="transform:matrix(1,0,0,1,86.328125,13.9);"><path d="M390 646L463 646C541 646 577 641 580 629C583 621 585 602 584 592L580 528L608 528L635 692L544 691C456 690 388 689 353 689C316 689 252 690 166 691L71 692L53 528L82 528L97 588C102 610 109 626 115 633C121 640 159 646 196 646L308 646L222 125C206 34 204 31 164 28L113 25L109 -3L166 -2C206 -1 235 0 251 0C270 0 301 -1 340 -2L384 -3L387 25L328 28C302 29 292 37 292 58C292 67 293 74 296 93Z" stroke="rgb(0, 0, 0)" stroke-width="8" fill="rgb(0, 0, 0)" style="transform:matrix(0.0119,0,0,-0.0119,0,0);"></path></g></g></g></g><g style="transform:matrix(1,0,0,1,94,25.90625);"><path d="M183 -16C340 -16 453 139 455 287C458 470 216 507 227 622C234 698 356 689 413 655L423 655C420 667 417 681 411 694C316 715 167 698 156 597C149 540 224 493 266 464L266 458C123 426 31 304 29 160C27 53 70 -16 183 -16ZM209 12C125 12 105 99 106 167C108 295 153 411 287 448C349 399 381 350 380 269C378 174 327 12 209 12Z" stroke="rgb(0, 0, 0)" stroke-width="8" fill="rgb(0, 0, 0)" style="transform:matrix(0.017,0,0,-0.017,0,0);"></path></g><g><g><g><g style="transform:matrix(1,0,0,1,102.03125,18.821875);"><path d="M146 266C146 526 243 632 301 700L282 726C225 675 60 542 60 266C60 159 85 58 133 -32C168 -99 200 -138 282 -215L301 -194C255 -137 146 -15 146 266Z" stroke="rgb(0, 0, 0)" stroke-width="8" fill="rgb(0, 0, 0)" style="transform:matrix(0.0119,0,0,-0.0119,0,0);"></path></g><g style="transform:matrix(1,0,0,1,106.03125,18.821875);"><path d="M280 181L280 106C280 46 269 32 220 30L158 27L158 -3C291 0 291 0 315 0C339 0 339 0 472 -3L472 27L424 30C375 33 364 46 364 106L364 181C423 181 444 180 472 177L472 248L364 245L365 697L285 667L2 204L2 181ZM280 245L65 245L280 597Z" stroke="rgb(0, 0, 0)" stroke-width="8" fill="rgb(0, 0, 0)" style="transform:matrix(0.0119,0,0,-0.0119,0,0);"></path></g><g style="transform:matrix(1,0,0,1,111.921875,18.821875);"><path d="M51 726L32 700C87 636 187 526 187 266C187 -10 83 -131 32 -194L51 -215C104 -165 273 -23 273 265C273 542 108 675 51 726Z" stroke="rgb(0, 0, 0)" stroke-width="8" fill="rgb(0, 0, 0)" style="transform:matrix(0.0119,0,0,-0.0119,0,0);"></path></g></g></g></g><g style="transform:matrix(1,0,0,1,116,25.90625);"><path d="M124 111C94 111 67 83 67 53C67 23 94 -5 123 -5C155 -5 183 22 183 53C183 83 155 111 124 111Z" stroke="rgb(0, 0, 0)" stroke-width="8" fill="rgb(0, 0, 0)" style="transform:matrix(0.017,0,0,-0.017,0,0);"></path></g><g style="transform:matrix(1,0,0,1,123,25.90625);"><path d="M168 267L37 213L32 204L68 153L78 153L184 241L202 99L212 95L280 121L280 131L212 253L350 233L359 241L359 303L353 307L214 283L283 408L280 423L218 442L209 438L183 295L88 393L78 393L34 341L37 331ZM663 482C596 482 443 419 443 259C443 182 488 136 565 136C573 136 584 136 595 137L554 99C538 84 527 66 527 52C527 42 534 31 548 19C479 -4 351 -48 351 -159C351 -230 421 -276 530 -276C659 -276 772 -204 772 -121C772 -85 751 -49 708 -14L648 35C614 62 601 81 601 100C601 114 616 128 628 146C726 170 797 253 797 342C797 357 794 376 793 380C810 378 818 378 827 378C844 378 854 379 877 382L886 427L883 433C855 426 835 424 781 424C781 425 757 482 663 482ZM564 1L641 -58C687 -94 706 -121 706 -154C706 -206 637 -248 554 -248C472 -248 415 -206 415 -145C415 -43 525 -11 564 1ZM638 448C696 448 725 412 725 341C725 238 677 168 607 168C546 168 514 209 514 288C514 383 565 448 638 448ZM991 470C1048 543 1086 610 1120 696L1107 709C1071 697 1061 694 1010 679C1004 599 980 533 932 456L947 446Z" stroke="rgb(0, 0, 0)" stroke-width="8" fill="rgb(0, 0, 0)" style="transform:matrix(0.017,0,0,-0.017,0,0);"></path></g><g><svg x="142.890625" style="overflow:visible;" y="7.90625" height="24" width="8.5"><path d=" M 6.61 1.70 q 0.00 -0.08 -0.08 -0.08 q -0.03 0.00 -0.08 0.02 q -1.01 0.55 -1.75 1.30 t -1.37 1.87 t -0.95 2.78 t -0.33 3.79 v 0.62 h 1.68 v -0.62 q 0.00 -1.20 0.04 -2.08 t 0.22 -2.04 t 0.50 -2.03 t 0.91 -1.74 t 1.43 -1.49 q 0.12 -0.09 0.12 -0.29 z   M 0.90 12.00 v 0.00 h 1.68 v 0.00 z" style="fill:rgb(0, 0, 0);stroke-width:1px;stroke:none;"></path><path d=" M 6.61 22.30 q 0.00 0.08 -0.08 0.08 q -0.03 0.00 -0.08 -0.02 q -1.01 -0.55 -1.75 -1.30 t -1.37 -1.87 t -0.95 -2.78 t -0.33 -3.79 v -0.62 h 1.68 v 0.62 q 0.00 1.20 0.04 2.08 t 0.22 2.04 t 0.50 2.03 t 0.91 1.74 t 1.43 1.49 q 0.12 0.09 0.12 0.29 z" style="fill:rgb(0, 0, 0);stroke-width:1px;stroke:none;"></path></svg></g><g style="transform:matrix(1,0,0,1,150,25.90625);"><path d="M322 -11C334 -11 343 -9 372 -1C383 61 391 95 402 142L380 142L358 82C352 64 340 57 319 57C307 57 291 59 270 64L252 68C219 75 185 80 166 80C134 80 107 74 71 59L410 441L416 473L407 482L384 459C374 449 364 445 350 445C316 445 264 453 216 466L198 471C170 478 150 482 136 482C119 482 99 479 75 472L43 350L64 350L94 408C111 412 120 413 133 413C174 413 206 398 259 398C295 398 319 404 352 421L-1 21L8 -6C37 17 64 26 99 26C162 26 253 -11 322 -11Z" stroke="rgb(0, 0, 0)" stroke-width="8" fill="rgb(0, 0, 0)" style="transform:matrix(0.017,0,0,-0.017,0,0);"></path></g><g><g><g><g style="transform:matrix(1,0,0,1,157.21875,18.821875);"><path d="M146 266C146 526 243 632 301 700L282 726C225 675 60 542 60 266C60 159 85 58 133 -32C168 -99 200 -138 282 -215L301 -194C255 -137 146 -15 146 266Z" stroke="rgb(0, 0, 0)" stroke-width="8" fill="rgb(0, 0, 0)" style="transform:matrix(0.0119,0,0,-0.0119,0,0);"></path></g><g style="transform:matrix(1,0,0,1,161.21875,18.821875);"><path d="M462 224C462 345 355 366 308 374C388 436 418 482 418 541C418 630 344 689 233 689C165 689 120 670 72 622L43 498L74 498L92 554C103 588 166 622 218 622C283 622 336 569 336 506C336 431 277 368 206 368C198 368 187 369 174 370L159 371L147 318L154 312C192 329 211 334 238 334C321 334 369 281 369 190C369 88 308 21 215 21C169 21 128 36 98 64C74 86 61 109 42 163L15 153C36 92 44 56 50 6C103 -12 147 -20 184 -20C307 -20 462 87 462 224Z" stroke="rgb(0, 0, 0)" stroke-width="8" fill="rgb(0, 0, 0)" style="transform:matrix(0.0119,0,0,-0.0119,0,0);"></path></g><g style="transform:matrix(1,0,0,1,167.109375,18.821875);"><path d="M51 726L32 700C87 636 187 526 187 266C187 -10 83 -131 32 -194L51 -215C104 -165 273 -23 273 265C273 542 108 675 51 726Z" stroke="rgb(0, 0, 0)" stroke-width="8" fill="rgb(0, 0, 0)" style="transform:matrix(0.0119,0,0,-0.0119,0,0);"></path></g></g></g></g><g><svg x="169.390625" style="overflow:visible;" y="7.90625" height="24" width="8.5"><path d=" M 1.69 1.70 q 0.00 -0.08 0.08 -0.08 q 0.03 0.00 0.08 0.02 q 1.01 0.55 1.75 1.30 t 1.37 1.87 t 0.95 2.78 t 0.33 3.79 v 0.62 h -1.68 v -0.62 q 0.00 -1.20 -0.04 -2.08 t -0.22 -2.04 t -0.50 -2.03 t -0.91 -1.74 t -1.43 -1.49 q -0.12 -0.09 -0.12 -0.29 z  M 7.40 12.00 v 0.00 h -1.68 v 0.00 z" style="fill:rgb(0, 0, 0);stroke-width:1px;stroke:none;"></path><path d=" M 1.69 22.30 q 0.00 0.08 0.08 0.08 q 0.03 0.00 0.08 -0.02 q 1.01 -0.55 1.75 -1.30 t 1.37 -1.87 t 0.95 -2.78 t 0.33 -3.79 v -0.62 h -1.68 v 0.62 q 0.00 1.20 -0.04 2.08 t -0.22 2.04 t -0.50 2.03 t -0.91 1.74 t -1.43 1.49 q -0.12 0.09 -0.12 0.29 z" style="fill:rgb(0, 0, 0);stroke-width:1px;stroke:none;"></path></svg></g></g><g><g style="transform:matrix(1,0,0,1,2,57.5);"><path d="M183 -16C340 -16 453 139 455 287C458 470 216 507 227 622C234 698 356 689 413 655L423 655C420 667 417 681 411 694C316 715 167 698 156 597C149 540 224 493 266 464L266 458C123 426 31 304 29 160C27 53 70 -16 183 -16ZM209 12C125 12 105 99 106 167C108 295 153 411 287 448C349 399 381 350 380 269C378 174 327 12 209 12Z" stroke="rgb(0, 0, 0)" stroke-width="8" fill="rgb(0, 0, 0)" style="transform:matrix(0.017,0,0,-0.017,0,0);"></path></g><g><g><g><g style="transform:matrix(1,0,0,1,10.4375,50.415625);"><path d="M146 266C146 526 243 632 301 700L282 726C225 675 60 542 60 266C60 159 85 58 133 -32C168 -99 200 -138 282 -215L301 -194C255 -137 146 -15 146 266Z" stroke="rgb(0, 0, 0)" stroke-width="8" fill="rgb(0, 0, 0)" style="transform:matrix(0.0119,0,0,-0.0119,0,0);"></path></g><g style="transform:matrix(1,0,0,1,14.4375,50.415625);"><path d="M16 23L16 -3C203 -3 203 0 239 0C275 0 275 -3 468 -3L468 82C353 77 307 81 122 77L304 270C401 373 431 428 431 503C431 618 353 689 226 689C154 689 105 669 56 619L39 483L68 483L81 529C97 587 133 612 200 612C286 612 341 558 341 473C341 398 299 324 186 204Z" stroke="rgb(0, 0, 0)" stroke-width="8" fill="rgb(0, 0, 0)" style="transform:matrix(0.0119,0,0,-0.0119,0,0);"></path></g><g style="transform:matrix(1,0,0,1,20.328125,50.415625);"><path d="M51 726L32 700C87 636 187 526 187 266C187 -10 83 -131 32 -194L51 -215C104 -165 273 -23 273 265C273 542 108 675 51 726Z" stroke="rgb(0, 0, 0)" stroke-width="8" fill="rgb(0, 0, 0)" style="transform:matrix(0.0119,0,0,-0.0119,0,0);"></path></g></g></g></g><g style="transform:matrix(1,0,0,1,29,57.5);"><path d="M604 347L604 406L65 406L65 347ZM604 134L604 193L65 193L65 134Z" stroke="rgb(0, 0, 0)" stroke-width="8" fill="rgb(0, 0, 0)" style="transform:matrix(0.017,0,0,-0.017,0,0);"></path></g><g><svg x="45.640625" style="overflow:visible;" y="39.5" height="24" width="8.5"><path d=" M 6.61 1.70 q 0.00 -0.08 -0.08 -0.08 q -0.03 0.00 -0.08 0.02 q -1.01 0.55 -1.75 1.30 t -1.37 1.87 t -0.95 2.78 t -0.33 3.79 v 0.62 h 1.68 v -0.62 q 0.00 -1.20 0.04 -2.08 t 0.22 -2.04 t 0.50 -2.03 t 0.91 -1.74 t 1.43 -1.49 q 0.12 -0.09 0.12 -0.29 z   M 0.90 12.00 v 0.00 h 1.68 v 0.00 z" style="fill:rgb(0, 0, 0);stroke-width:1px;stroke:none;"></path><path d=" M 6.61 22.30 q 0.00 0.08 -0.08 0.08 q -0.03 0.00 -0.08 -0.02 q -1.01 -0.55 -1.75 -1.30 t -1.37 -1.87 t -0.95 -2.78 t -0.33 -3.79 v -0.62 h 1.68 v 0.62 q 0.00 1.20 0.04 2.08 t 0.22 2.04 t 0.50 2.03 t 0.91 1.74 t 1.43 1.49 q 0.12 0.09 0.12 0.29 z" style="fill:rgb(0, 0, 0);stroke-width:1px;stroke:none;"></path></svg></g><g style="transform:matrix(1,0,0,1,52,57.5);"><path d="M478 327C534 327 529 289 530 243L549 243C561 325 574 402 588 484L569 484L569 480C552 436 547 400 491 400L325 400C267 400 274 438 274 484L254 484C243 402 231 325 216 243L235 243L235 246C251 291 257 327 312 327ZM748 425C748 603 644 706 464 706C227 706 53 523 53 272C53 83 147 -18 323 -18C595 -18 748 207 748 425ZM660 409C660 221 571 24 360 24C216 24 141 110 141 277C141 425 199 664 433 664C549 664 660 610 660 409Z" stroke="rgb(0, 0, 0)" stroke-width="8" fill="rgb(0, 0, 0)" style="transform:matrix(0.017,0,0,-0.017,0,0);"></path></g><g><g><g><g style="transform:matrix(1,0,0,1,65.65625,50.415625);"><path d="M146 266C146 526 243 632 301 700L282 726C225 675 60 542 60 266C60 159 85 58 133 -32C168 -99 200 -138 282 -215L301 -194C255 -137 146 -15 146 266Z" stroke="rgb(0, 0, 0)" stroke-width="8" fill="rgb(0, 0, 0)" style="transform:matrix(0.0119,0,0,-0.0119,0,0);"></path></g><g style="transform:matrix(1,0,0,1,69.65625,50.415625);"><path d="M16 23L16 -3C203 -3 203 0 239 0C275 0 275 -3 468 -3L468 82C353 77 307 81 122 77L304 270C401 373 431 428 431 503C431 618 353 689 226 689C154 689 105 669 56 619L39 483L68 483L81 529C97 587 133 612 200 612C286 612 341 558 341 473C341 398 299 324 186 204Z" stroke="rgb(0, 0, 0)" stroke-width="8" fill="rgb(0, 0, 0)" style="transform:matrix(0.0119,0,0,-0.0119,0,0);"></path></g><g style="transform:matrix(1,0,0,1,75.546875,50.415625);"><path d="M51 726L32 700C87 636 187 526 187 266C187 -10 83 -131 32 -194L51 -215C104 -165 273 -23 273 265C273 542 108 675 51 726Z" stroke="rgb(0, 0, 0)" stroke-width="8" fill="rgb(0, 0, 0)" style="transform:matrix(0.0119,0,0,-0.0119,0,0);"></path></g></g></g></g><g><svg x="77.828125" style="overflow:visible;" y="39.5" height="24" width="8.5"><path d=" M 1.69 1.70 q 0.00 -0.08 0.08 -0.08 q 0.03 0.00 0.08 0.02 q 1.01 0.55 1.75 1.30 t 1.37 1.87 t 0.95 2.78 t 0.33 3.79 v 0.62 h -1.68 v -0.62 q 0.00 -1.20 -0.04 -2.08 t -0.22 -2.04 t -0.50 -2.03 t -0.91 -1.74 t -1.43 -1.49 q -0.12 -0.09 -0.12 -0.29 z  M 7.40 12.00 v 0.00 h -1.68 v 0.00 z" style="fill:rgb(0, 0, 0);stroke-width:1px;stroke:none;"></path><path d=" M 1.69 22.30 q 0.00 0.08 0.08 0.08 q 0.03 0.00 0.08 -0.02 q 1.01 -0.55 1.75 -1.30 t 1.37 -1.87 t 0.95 -2.78 t 0.33 -3.79 v -0.62 h -1.68 v 0.62 q 0.00 1.20 -0.04 2.08 t -0.22 2.04 t -0.50 2.03 t -0.91 1.74 t -1.43 1.49 q -0.12 0.09 -0.12 0.29 z" style="fill:rgb(0, 0, 0);stroke-width:1px;stroke:none;"></path></svg></g><g><g><g><g style="transform:matrix(1,0,0,1,86.328125,45.49375);"><path d="M390 646L463 646C541 646 577 641 580 629C583 621 585 602 584 592L580 528L608 528L635 692L544 691C456 690 388 689 353 689C316 689 252 690 166 691L71 692L53 528L82 528L97 588C102 610 109 626 115 633C121 640 159 646 196 646L308 646L222 125C206 34 204 31 164 28L113 25L109 -3L166 -2C206 -1 235 0 251 0C270 0 301 -1 340 -2L384 -3L387 25L328 28C302 29 292 37 292 58C292 67 293 74 296 93Z" stroke="rgb(0, 0, 0)" stroke-width="8" fill="rgb(0, 0, 0)" style="transform:matrix(0.0119,0,0,-0.0119,0,0);"></path></g></g></g></g><g style="transform:matrix(1,0,0,1,94,57.5);"><path d="M183 -16C340 -16 453 139 455 287C458 470 216 507 227 622C234 698 356 689 413 655L423 655C420 667 417 681 411 694C316 715 167 698 156 597C149 540 224 493 266 464L266 458C123 426 31 304 29 160C27 53 70 -16 183 -16ZM209 12C125 12 105 99 106 167C108 295 153 411 287 448C349 399 381 350 380 269C378 174 327 12 209 12Z" stroke="rgb(0, 0, 0)" stroke-width="8" fill="rgb(0, 0, 0)" style="transform:matrix(0.017,0,0,-0.017,0,0);"></path></g><g><g><g><g style="transform:matrix(1,0,0,1,102.03125,50.415625);"><path d="M146 266C146 526 243 632 301 700L282 726C225 675 60 542 60 266C60 159 85 58 133 -32C168 -99 200 -138 282 -215L301 -194C255 -137 146 -15 146 266Z" stroke="rgb(0, 0, 0)" stroke-width="8" fill="rgb(0, 0, 0)" style="transform:matrix(0.0119,0,0,-0.0119,0,0);"></path></g><g style="transform:matrix(1,0,0,1,106.03125,50.415625);"><path d="M462 224C462 345 355 366 308 374C388 436 418 482 418 541C418 630 344 689 233 689C165 689 120 670 72 622L43 498L74 498L92 554C103 588 166 622 218 622C283 622 336 569 336 506C336 431 277 368 206 368C198 368 187 369 174 370L159 371L147 318L154 312C192 329 211 334 238 334C321 334 369 281 369 190C369 88 308 21 215 21C169 21 128 36 98 64C74 86 61 109 42 163L15 153C36 92 44 56 50 6C103 -12 147 -20 184 -20C307 -20 462 87 462 224Z" stroke="rgb(0, 0, 0)" stroke-width="8" fill="rgb(0, 0, 0)" style="transform:matrix(0.0119,0,0,-0.0119,0,0);"></path></g><g style="transform:matrix(1,0,0,1,111.921875,50.415625);"><path d="M51 726L32 700C87 636 187 526 187 266C187 -10 83 -131 32 -194L51 -215C104 -165 273 -23 273 265C273 542 108 675 51 726Z" stroke="rgb(0, 0, 0)" stroke-width="8" fill="rgb(0, 0, 0)" style="transform:matrix(0.0119,0,0,-0.0119,0,0);"></path></g></g></g></g><g style="transform:matrix(1,0,0,1,116,57.5);"><path d="M124 111C94 111 67 83 67 53C67 23 94 -5 123 -5C155 -5 183 22 183 53C183 83 155 111 124 111Z" stroke="rgb(0, 0, 0)" stroke-width="8" fill="rgb(0, 0, 0)" style="transform:matrix(0.017,0,0,-0.017,0,0);"></path></g><g style="transform:matrix(1,0,0,1,123,57.5);"><path d="M168 267L37 213L32 204L68 153L78 153L184 241L202 99L212 95L280 121L280 131L212 253L350 233L359 241L359 303L353 307L214 283L283 408L280 423L218 442L209 438L183 295L88 393L78 393L34 341L37 331ZM663 482C596 482 443 419 443 259C443 182 488 136 565 136C573 136 584 136 595 137L554 99C538 84 527 66 527 52C527 42 534 31 548 19C479 -4 351 -48 351 -159C351 -230 421 -276 530 -276C659 -276 772 -204 772 -121C772 -85 751 -49 708 -14L648 35C614 62 601 81 601 100C601 114 616 128 628 146C726 170 797 253 797 342C797 357 794 376 793 380C810 378 818 378 827 378C844 378 854 379 877 382L886 427L883 433C855 426 835 424 781 424C781 425 757 482 663 482ZM564 1L641 -58C687 -94 706 -121 706 -154C706 -206 637 -248 554 -248C472 -248 415 -206 415 -145C415 -43 525 -11 564 1ZM638 448C696 448 725 412 725 341C725 238 677 168 607 168C546 168 514 209 514 288C514 383 565 448 638 448ZM991 470C1048 543 1086 610 1120 696L1107 709C1071 697 1061 694 1010 679C1004 599 980 533 932 456L947 446Z" stroke="rgb(0, 0, 0)" stroke-width="8" fill="rgb(0, 0, 0)" style="transform:matrix(0.017,0,0,-0.017,0,0);"></path></g><g><svg x="142.890625" style="overflow:visible;" y="39.5" height="24" width="8.5"><path d=" M 6.61 1.70 q 0.00 -0.08 -0.08 -0.08 q -0.03 0.00 -0.08 0.02 q -1.01 0.55 -1.75 1.30 t -1.37 1.87 t -0.95 2.78 t -0.33 3.79 v 0.62 h 1.68 v -0.62 q 0.00 -1.20 0.04 -2.08 t 0.22 -2.04 t 0.50 -2.03 t 0.91 -1.74 t 1.43 -1.49 q 0.12 -0.09 0.12 -0.29 z   M 0.90 12.00 v 0.00 h 1.68 v 0.00 z" style="fill:rgb(0, 0, 0);stroke-width:1px;stroke:none;"></path><path d=" M 6.61 22.30 q 0.00 0.08 -0.08 0.08 q -0.03 0.00 -0.08 -0.02 q -1.01 -0.55 -1.75 -1.30 t -1.37 -1.87 t -0.95 -2.78 t -0.33 -3.79 v -0.62 h 1.68 v 0.62 q 0.00 1.20 0.04 2.08 t 0.22 2.04 t 0.50 2.03 t 0.91 1.74 t 1.43 1.49 q 0.12 0.09 0.12 0.29 z" style="fill:rgb(0, 0, 0);stroke-width:1px;stroke:none;"></path></svg></g><g style="transform:matrix(1,0,0,1,150,57.5);"><path d="M322 -11C334 -11 343 -9 372 -1C383 61 391 95 402 142L380 142L358 82C352 64 340 57 319 57C307 57 291 59 270 64L252 68C219 75 185 80 166 80C134 80 107 74 71 59L410 441L416 473L407 482L384 459C374 449 364 445 350 445C316 445 264 453 216 466L198 471C170 478 150 482 136 482C119 482 99 479 75 472L43 350L64 350L94 408C111 412 120 413 133 413C174 413 206 398 259 398C295 398 319 404 352 421L-1 21L8 -6C37 17 64 26 99 26C162 26 253 -11 322 -11Z" stroke="rgb(0, 0, 0)" stroke-width="8" fill="rgb(0, 0, 0)" style="transform:matrix(0.017,0,0,-0.017,0,0);"></path></g><g><g><g><g style="transform:matrix(1,0,0,1,157.21875,50.415625);"><path d="M146 266C146 526 243 632 301 700L282 726C225 675 60 542 60 266C60 159 85 58 133 -32C168 -99 200 -138 282 -215L301 -194C255 -137 146 -15 146 266Z" stroke="rgb(0, 0, 0)" stroke-width="8" fill="rgb(0, 0, 0)" style="transform:matrix(0.0119,0,0,-0.0119,0,0);"></path></g><g style="transform:matrix(1,0,0,1,161.21875,50.415625);"><path d="M16 23L16 -3C203 -3 203 0 239 0C275 0 275 -3 468 -3L468 82C353 77 307 81 122 77L304 270C401 373 431 428 431 503C431 618 353 689 226 689C154 689 105 669 56 619L39 483L68 483L81 529C97 587 133 612 200 612C286 612 341 558 341 473C341 398 299 324 186 204Z" stroke="rgb(0, 0, 0)" stroke-width="8" fill="rgb(0, 0, 0)" style="transform:matrix(0.0119,0,0,-0.0119,0,0);"></path></g><g style="transform:matrix(1,0,0,1,167.109375,50.415625);"><path d="M51 726L32 700C87 636 187 526 187 266C187 -10 83 -131 32 -194L51 -215C104 -165 273 -23 273 265C273 542 108 675 51 726Z" stroke="rgb(0, 0, 0)" stroke-width="8" fill="rgb(0, 0, 0)" style="transform:matrix(0.0119,0,0,-0.0119,0,0);"></path></g></g></g></g><g><svg x="169.390625" style="overflow:visible;" y="39.5" height="24" width="8.5"><path d=" M 1.69 1.70 q 0.00 -0.08 0.08 -0.08 q 0.03 0.00 0.08 0.02 q 1.01 0.55 1.75 1.30 t 1.37 1.87 t 0.95 2.78 t 0.33 3.79 v 0.62 h -1.68 v -0.62 q 0.00 -1.20 -0.04 -2.08 t -0.22 -2.04 t -0.50 -2.03 t -0.91 -1.74 t -1.43 -1.49 q -0.12 -0.09 -0.12 -0.29 z  M 7.40 12.00 v 0.00 h -1.68 v 0.00 z" style="fill:rgb(0, 0, 0);stroke-width:1px;stroke:none;"></path><path d=" M 1.69 22.30 q 0.00 0.08 0.08 0.08 q 0.03 0.00 0.08 -0.02 q 1.01 -0.55 1.75 -1.30 t 1.37 -1.87 t 0.95 -2.78 t 0.33 -3.79 v -0.62 h -1.68 v 0.62 q 0.00 1.20 -0.04 2.08 t -0.22 2.04 t -0.50 2.03 t -0.91 1.74 t -1.43 1.49 q -0.12 0.09 -0.12 0.29 z" style="fill:rgb(0, 0, 0);stroke-width:1px;stroke:none;"></path></svg></g></g><g><g style="transform:matrix(1,0,0,1,2,84.171875);"><path d="M183 -16C340 -16 453 139 455 287C458 470 216 507 227 622C234 698 356 689 413 655L423 655C420 667 417 681 411 694C316 715 167 698 156 597C149 540 224 493 266 464L266 458C123 426 31 304 29 160C27 53 70 -16 183 -16ZM209 12C125 12 105 99 106 167C108 295 153 411 287 448C349 399 381 350 380 269C378 174 327 12 209 12Z" stroke="rgb(0, 0, 0)" stroke-width="8" fill="rgb(0, 0, 0)" style="transform:matrix(0.017,0,0,-0.017,0,0);"></path></g><g><g><g><g style="transform:matrix(1,0,0,1,10.4375,77.0875);"><path d="M146 266C146 526 243 632 301 700L282 726C225 675 60 542 60 266C60 159 85 58 133 -32C168 -99 200 -138 282 -215L301 -194C255 -137 146 -15 146 266Z" stroke="rgb(0, 0, 0)" stroke-width="8" fill="rgb(0, 0, 0)" style="transform:matrix(0.0119,0,0,-0.0119,0,0);"></path></g><g style="transform:matrix(1,0,0,1,14.4375,77.0875);"><path d="M418 -3L418 27L366 30C311 33 301 44 301 96L301 700L60 598L67 548L217 614L217 96C217 44 206 33 152 30L96 27L96 -3C250 0 250 0 261 0C292 0 402 -3 418 -3Z" stroke="rgb(0, 0, 0)" stroke-width="8" fill="rgb(0, 0, 0)" style="transform:matrix(0.0119,0,0,-0.0119,0,0);"></path></g><g style="transform:matrix(1,0,0,1,20.328125,77.0875);"><path d="M51 726L32 700C87 636 187 526 187 266C187 -10 83 -131 32 -194L51 -215C104 -165 273 -23 273 265C273 542 108 675 51 726Z" stroke="rgb(0, 0, 0)" stroke-width="8" fill="rgb(0, 0, 0)" style="transform:matrix(0.0119,0,0,-0.0119,0,0);"></path></g></g></g></g><g style="transform:matrix(1,0,0,1,24,84.171875);"><path d="" stroke="rgb(0, 0, 0)" stroke-width="8" fill="rgb(0, 0, 0)" style="transform:matrix(0.017,0,0,-0.017,0,0);"></path></g><g style="transform:matrix(1,0,0,1,32,84.171875);"><path d="M555 243L555 299L51 299L51 243Z" stroke="rgb(0, 0, 0)" stroke-width="8" fill="rgb(0, 0, 0)" style="transform:matrix(0.017,0,0,-0.017,0,0);"></path></g><g style="transform:matrix(1,0,0,1,45,84.171875);"><path d="M34 388L41 368L73 389C110 412 113 414 120 414C130 414 138 404 138 391C138 384 134 361 130 347L64 107C56 76 51 49 51 30C51 6 62 -9 81 -9C107 -9 143 12 241 85L231 103L205 86C176 67 153 56 144 56C137 56 131 66 131 76C131 86 133 95 138 116L215 420C219 437 221 448 221 456C221 473 212 482 196 482C174 482 137 461 62 408ZM228 712C199 712 170 679 170 645C170 620 185 604 209 604C240 604 264 633 264 671C264 695 249 712 228 712ZM308 148C303 97 297 62 286 16C324 -2 358 -11 393 -11C442 -11 488 7 539 47C590 87 611 124 611 174C611 228 579 257 505 271L462 279C402 290 383 307 383 348C383 401 428 442 485 442C526 442 564 424 580 397L580 342L603 342C607 377 611 404 622 455C583 474 555 482 522 482C470 482 409 452 361 404C335 377 324 352 324 316C324 260 355 228 421 215L484 203C528 195 544 177 544 138C544 73 498 29 427 29C392 29 361 40 333 64L333 148ZM1259 437L1243 437L1264 549C1280 635 1308 673 1354 673C1384 673 1411 658 1426 634L1436 638C1441 654 1451 685 1459 705L1464 720C1448 727 1417 733 1394 733C1383 733 1367 730 1359 726C1335 715 1253 654 1230 630C1208 608 1196 578 1185 521L1170 442C1129 422 1109 414 1084 405L1079 383L1160 383L1151 327C1121 132 1084 -54 1062 -123C1044 -182 1014 -213 978 -213C955 -213 944 -206 926 -184L912 -188C908 -211 894 -259 889 -268C898 -273 913 -276 924 -276C965 -276 1019 -245 1058 -198C1129 -114 1149 -18 1233 383L1337 383C1341 402 1348 425 1354 439L1350 446C1321 439 1322 437 1259 437ZM1481 152C1481 46 1526 -11 1609 -11C1664 -11 1724 15 1769 57C1831 116 1875 230 1875 331C1875 425 1825 482 1742 482C1638 482 1481 382 1481 152ZM1705 444C1766 444 1799 399 1799 315C1799 219 1768 113 1724 60C1706 39 1680 27 1649 27C1591 27 1557 72 1557 151C1557 264 1596 387 1645 427C1658 438 1681 444 1705 444ZM2275 365C2278 403 2283 435 2291 476C2280 481 2276 482 2271 482C2240 482 2209 458 2173 407C2134 351 2095 291 2079 256L2111 408C2115 425 2117 438 2117 450C2117 470 2109 482 2094 482C2073 482 2035 461 1961 408L1933 388L1940 368L1972 389C2000 407 2011 412 2020 412C2030 412 2037 403 2037 390C2037 332 1994 126 1954 -2L1964 -9C1979 -4 1995 -1 2018 4L2031 6L2057 126C2075 209 2098 262 2142 319C2176 363 2203 384 2225 384C2240 384 2250 379 2261 365ZM2578 388L2585 368L2617 389C2654 412 2657 414 2664 414C2674 414 2682 404 2682 391C2682 384 2678 361 2674 347L2608 107C2600 76 2595 49 2595 30C2595 6 2606 -9 2625 -9C2651 -9 2687 12 2785 85L2775 103L2749 86C2720 67 2697 56 2688 56C2681 56 2675 66 2675 76C2675 86 2677 95 2682 116L2759 420C2763 437 2765 448 2765 456C2765 473 2756 482 2740 482C2718 482 2681 461 2606 408ZM2772 712C2743 712 2714 679 2714 645C2714 620 2729 604 2753 604C2784 604 2808 633 2808 671C2808 695 2793 712 2772 712ZM2845 388L2852 368L2884 389C2921 412 2924 414 2931 414C2942 414 2949 404 2949 389C2949 338 2908 145 2867 2L2874 -9C2899 -2 2922 4 2944 8C2963 134 2984 199 3030 268C3084 352 3159 414 3204 414C3215 414 3221 405 3221 390C3221 372 3218 351 3210 319L3158 107C3149 70 3145 47 3145 31C3145 6 3156 -9 3175 -9C3201 -9 3237 12 3335 85L3325 103L3299 86C3270 67 3248 56 3238 56C3231 56 3225 65 3225 76C3225 81 3226 92 3227 96L3293 372C3300 401 3304 429 3304 446C3304 469 3293 482 3273 482C3231 482 3162 444 3103 389C3065 354 3037 320 2985 247L3023 408C3027 426 3029 438 3029 449C3029 470 3021 482 3006 482C2985 482 2946 460 2873 408ZM3552 -11C3608 -11 3723 62 3766 125C3807 186 3841 296 3841 371C3841 438 3818 482 3782 482C3740 482 3687 456 3635 409C3594 374 3574 348 3538 289L3562 408C3565 425 3567 440 3567 452C3567 471 3559 482 3545 482C3524 482 3486 461 3412 408L3384 388L3391 368L3423 389C3451 407 3462 412 3471 412C3481 412 3488 403 3488 389C3488 381 3486 361 3484 351L3426 8C3416 -52 3397 -143 3377 -233L3369 -270L3376 -276C3397 -269 3417 -264 3449 -259L3491 3C3512 -4 3534 -11 3552 -11ZM3519 165C3541 293 3648 424 3731 424C3757 424 3769 402 3769 356C3769 275 3729 156 3676 80C3656 51 3624 36 3583 36C3552 36 3527 43 3501 59ZM4367 473L4360 482L4292 465L4282 414C4267 336 4242 268 4211 221C4152 130 4074 59 4034 59C4026 59 4021 68 4021 85C4021 99 4023 112 4028 137L4085 408C4088 424 4090 438 4090 451C4090 470 4081 482 4067 482C4047 482 4009 461 3935 408L3907 388L3914 368L3946 389C3974 407 3985 412 3994 412C4003 412 4011 403 4011 392C4011 388 4010 378 4009 374L3946 77C3944 68 3942 44 3942 30C3942 7 3957 -11 3977 -11C4040 -11 4161 101 4245 239L4208 97C4201 73 4197 46 4197 31C4197 6 4208 -9 4227 -9C4253 -9 4289 12 4387 85L4377 103L4351 86C4327 70 4301 59 4290 59C4282 59 4277 66 4277 76C4277 112 4352 416 4367 473ZM4555 390L4499 107C4498 99 4486 61 4486 31C4486 6 4497 -9 4516 -9C4551 -9 4586 11 4664 74L4695 99L4685 117L4640 86C4611 66 4591 56 4580 56C4571 56 4566 64 4566 76C4566 102 4580 183 4609 328L4622 390L4729 390L4740 440C4702 436 4668 434 4630 434C4646 528 4657 577 4675 631L4664 646C4644 634 4617 622 4586 610L4561 440C4517 419 4491 408 4473 403L4471 390ZM5262 722L5250 733C5198 707 5162 698 5090 691L5086 670L5134 670C5158 670 5168 663 5168 648C5168 645 5168 640 5165 622C5154 567 5081 182 5066 132C5053 82 5047 52 5047 31C5047 6 5058 -9 5077 -9C5103 -9 5139 12 5237 85L5227 103L5201 86C5172 67 5150 56 5140 56C5133 56 5127 66 5127 76C5127 82 5128 89 5131 104ZM5559 204L5530 77C5526 60 5524 42 5524 26C5524 4 5533 -9 5548 -9C5571 -9 5612 17 5694 85L5687 106C5663 86 5634 59 5612 59C5603 59 5597 68 5597 82C5597 87 5597 90 5598 93L5690 472L5680 481L5647 463C5606 478 5589 482 5562 482C5534 482 5514 477 5487 464C5425 433 5392 403 5367 354C5323 265 5292 145 5292 67C5292 23 5307 -11 5326 -11C5363 -11 5443 41 5559 204ZM5607 414C5585 305 5566 253 5532 201C5475 117 5414 59 5382 59C5370 59 5364 72 5364 99C5364 163 5392 280 5427 360C5451 415 5474 433 5522 433C5545 433 5563 429 5607 414ZM5724 -180C5723 -187 5723 -193 5723 -198C5723 -241 5760 -276 5805 -276C5911 -276 6021 -152 6080 33L6221 473L6210 482C6181 471 6158 465 6136 463L6101 331C6089 284 6054 211 6021 162C5986 111 5937 67 5915 67C5903 67 5894 90 5895 115L5911 322C5913 353 5915 391 5915 419C5915 464 5908 482 5891 482C5878 482 5864 475 5816 442L5734 386L5745 368L5795 398C5800 401 5811 410 5820 410C5834 410 5842 391 5842 358C5842 357 5842 351 5841 343L5824 100L5823 60C5823 18 5841 -11 5866 -11C5903 -11 5987 74 6062 187L6013 16C5962 -161 5912 -234 5842 -234C5807 -234 5780 -207 5780 -172C5780 -167 5781 -159 5782 -150L5772 -146ZM6558 111L6534 94C6481 56 6433 36 6397 36C6350 36 6321 73 6321 133C6321 158 6324 185 6329 214C6346 218 6455 248 6480 259C6565 296 6604 342 6604 404C6604 451 6570 482 6520 482C6452 496 6342 423 6305 349C6275 299 6245 180 6245 113C6245 35 6289 -11 6361 -11C6418 -11 6474 17 6566 92ZM6343 274C6360 343 6380 386 6409 412C6427 428 6458 440 6482 440C6511 440 6530 420 6530 388C6530 344 6495 297 6443 272C6415 258 6379 247 6334 237ZM6986 365C6989 403 6994 435 7002 476C6991 481 6987 482 6982 482C6951 482 6920 458 6884 407C6845 351 6806 291 6790 256L6822 408C6826 425 6828 438 6828 450C6828 470 6820 482 6805 482C6784 482 6746 461 6672 408L6644 388L6651 368L6683 389C6711 407 6722 412 6731 412C6741 412 6748 403 6748 390C6748 332 6705 126 6665 -2L6675 -9C6690 -4 6706 -1 6729 4L6742 6L6768 126C6786 209 6809 262 6853 319C6887 363 6914 384 6936 384C6951 384 6961 379 6972 365Z" stroke="rgb(0, 0, 0)" stroke-width="8" fill="rgb(0, 0, 0)" style="transform:matrix(0.017,0,0,-0.017,0,0);"></path></g><g style="transform:matrix(1,0,0,1,164,84.171875);"><path d="M204 123C177 114 159 108 106 93C99 17 74 -48 16 -144L30 -155L71 -136C152 -31 190 32 218 109Z" stroke="rgb(0, 0, 0)" stroke-width="8" fill="rgb(0, 0, 0)" style="transform:matrix(0.017,0,0,-0.017,0,0);"></path></g><g style="transform:matrix(1,0,0,1,171,84.171875);"><path d="M416 420C437 420 450 421 475 424C420 350 321 266 321 126C321 44 356 -11 409 -11C473 -11 525 44 599 187C590 143 587 118 587 95C587 32 616 -11 661 -11C795 -11 948 238 948 384C948 441 922 482 886 482C873 482 861 478 853 470L803 423L814 404C823 410 832 413 841 413C868 413 884 390 884 350C884 205 787 39 702 39C673 39 652 79 652 134C652 181 661 247 673 290L725 474L718 482L644 460L615 311C603 249 589 209 560 155C520 80 482 39 452 39C417 39 394 78 394 136C394 255 435 352 534 464L524 482C504 473 491 470 463 470C435 470 393 472 364 475L352 476C346 477 341 477 340 477C328 477 319 475 308 470C294 443 283 407 270 352L292 352L309 394C316 411 336 422 360 422C394 422 377 420 416 420ZM1298 111L1274 94C1221 56 1173 36 1137 36C1090 36 1061 73 1061 133C1061 158 1064 185 1069 214C1086 218 1195 248 1220 259C1305 296 1344 342 1344 404C1344 451 1310 482 1260 482C1192 496 1082 423 1045 349C1015 299 985 180 985 113C985 35 1029 -11 1101 -11C1158 -11 1214 17 1306 92ZM1083 274C1100 343 1120 386 1149 412C1167 428 1198 440 1222 440C1251 440 1270 420 1270 388C1270 344 1235 297 1183 272C1155 258 1119 247 1074 237ZM1949 330L1972 330C1980 395 1987 432 1996 458C1972 473 1937 482 1900 482C1855 483 1782 463 1725 400C1671 352 1632 241 1632 136C1632 40 1674 -11 1754 -11C1808 -11 1856 9 1911 54L1961 95L1953 115L1938 105C1866 57 1828 40 1793 40C1737 40 1708 80 1708 159C1708 267 1743 371 1792 409C1813 425 1837 433 1868 433C1913 433 1949 414 1949 390ZM2284 204L2255 77C2251 60 2249 42 2249 26C2249 4 2258 -9 2273 -9C2296 -9 2337 17 2419 85L2412 106C2388 86 2359 59 2337 59C2328 59 2322 68 2322 82C2322 87 2322 90 2323 93L2415 472L2405 481L2372 463C2331 478 2314 482 2287 482C2259 482 2239 477 2212 464C2150 433 2117 403 2092 354C2048 265 2017 145 2017 67C2017 23 2032 -11 2051 -11C2088 -11 2168 41 2284 204ZM2332 414C2310 305 2291 253 2257 201C2200 117 2139 59 2107 59C2095 59 2089 72 2089 99C2089 163 2117 280 2152 360C2176 415 2199 433 2247 433C2270 433 2288 429 2332 414ZM2480 388L2487 368L2519 389C2556 412 2559 414 2566 414C2577 414 2584 404 2584 389C2584 338 2543 145 2502 2L2509 -9C2534 -2 2557 4 2579 8C2598 134 2619 199 2665 268C2719 352 2794 414 2839 414C2850 414 2856 405 2856 390C2856 372 2853 351 2845 319L2793 107C2784 70 2780 47 2780 31C2780 6 2791 -9 2810 -9C2836 -9 2872 12 2970 85L2960 103L2934 86C2905 67 2883 56 2873 56C2866 56 2860 65 2860 76C2860 81 2861 92 2862 96L2928 372C2935 401 2939 429 2939 446C2939 469 2928 482 2908 482C2866 482 2797 444 2738 389C2700 354 2672 320 2620 247L2658 408C2662 426 2664 438 2664 449C2664 470 2656 482 2641 482C2620 482 2581 460 2508 408ZM3115 470C3172 543 3210 610 3244 696L3231 709C3195 697 3185 694 3134 679C3128 599 3104 533 3056 456L3071 446ZM3413 390L3357 107C3356 99 3344 61 3344 31C3344 6 3355 -9 3374 -9C3409 -9 3444 11 3522 74L3553 99L3543 117L3498 86C3469 66 3449 56 3438 56C3429 56 3424 64 3424 76C3424 102 3438 183 3467 328L3480 390L3587 390L3598 440C3560 436 3526 434 3488 434C3504 528 3515 577 3533 631L3522 646C3502 634 3475 622 3444 610L3419 440C3375 419 3349 408 3331 403L3329 390ZM4211 330L4234 330C4242 395 4249 432 4258 458C4234 473 4199 482 4162 482C4117 483 4044 463 3987 400C3933 352 3894 241 3894 136C3894 40 3936 -11 4016 -11C4070 -11 4118 9 4173 54L4223 95L4215 115L4200 105C4128 57 4090 40 4055 40C3999 40 3970 80 3970 159C3970 267 4005 371 4054 409C4075 425 4099 433 4130 433C4175 433 4211 414 4211 390ZM4511 722L4499 733C4454 711 4413 697 4339 691L4335 670L4383 670C4401 670 4417 667 4417 647C4417 641 4417 632 4415 622L4373 388C4353 272 4311 80 4285 2L4292 -9L4361 7C4369 64 4383 164 4423 236C4468 317 4571 414 4613 414C4624 414 4635 407 4635 393C4635 375 4630 342 4620 303L4569 107C4563 85 4556 55 4556 31C4556 6 4566 -9 4587 -9C4619 -9 4687 41 4746 85L4736 103L4710 86C4687 71 4661 56 4649 56C4642 56 4636 65 4636 76C4636 88 4639 101 4643 116L4707 372C4713 398 4718 423 4718 447C4718 464 4712 482 4686 482C4651 482 4574 437 4506 374C4473 343 4447 308 4419 273L4415 275ZM5045 204L5016 77C5012 60 5010 42 5010 26C5010 4 5019 -9 5034 -9C5057 -9 5098 17 5180 85L5173 106C5149 86 5120 59 5098 59C5089 59 5083 68 5083 82C5083 87 5083 90 5084 93L5176 472L5166 481L5133 463C5092 478 5075 482 5048 482C5020 482 5000 477 4973 464C4911 433 4878 403 4853 354C4809 265 4778 145 4778 67C4778 23 4793 -11 4812 -11C4849 -11 4929 41 5045 204ZM5093 414C5071 305 5052 253 5018 201C4961 117 4900 59 4868 59C4856 59 4850 72 4850 99C4850 163 4878 280 4913 360C4937 415 4960 433 5008 433C5031 433 5049 429 5093 414ZM5241 388L5248 368L5280 389C5317 412 5320 414 5327 414C5338 414 5345 404 5345 389C5345 338 5304 145 5263 2L5270 -9C5295 -2 5318 4 5340 8C5359 134 5380 199 5426 268C5480 352 5555 414 5600 414C5611 414 5617 405 5617 390C5617 372 5614 351 5606 319L5554 107C5545 70 5541 47 5541 31C5541 6 5552 -9 5571 -9C5597 -9 5633 12 5731 85L5721 103L5695 86C5666 67 5644 56 5634 56C5627 56 5621 65 5621 76C5621 81 5622 92 5623 96L5689 372C5696 401 5700 429 5700 446C5700 469 5689 482 5669 482C5627 482 5558 444 5499 389C5461 354 5433 320 5381 247L5419 408C5423 426 5425 438 5425 449C5425 470 5417 482 5402 482C5381 482 5342 460 5269 408ZM6047 482C5980 482 5827 419 5827 259C5827 182 5872 136 5949 136C5957 136 5968 136 5979 137L5938 99C5922 84 5911 66 5911 52C5911 42 5918 31 5932 19C5863 -4 5735 -48 5735 -159C5735 -230 5805 -276 5914 -276C6043 -276 6156 -204 6156 -121C6156 -85 6135 -49 6092 -14L6032 35C5998 62 5985 81 5985 100C5985 114 6000 128 6012 146C6110 170 6181 253 6181 342C6181 357 6178 376 6177 380C6194 378 6202 378 6211 378C6228 378 6238 379 6261 382L6270 427L6267 433C6239 426 6219 424 6165 424C6165 425 6141 482 6047 482ZM5948 1L6025 -58C6071 -94 6090 -121 6090 -154C6090 -206 6021 -248 5938 -248C5856 -248 5799 -206 5799 -145C5799 -43 5909 -11 5948 1ZM6022 448C6080 448 6109 412 6109 341C6109 238 6061 168 5991 168C5930 168 5898 209 5898 288C5898 383 5949 448 6022 448ZM6599 111L6575 94C6522 56 6474 36 6438 36C6391 36 6362 73 6362 133C6362 158 6365 185 6370 214C6387 218 6496 248 6521 259C6606 296 6645 342 6645 404C6645 451 6611 482 6561 482C6493 496 6383 423 6346 349C6316 299 6286 180 6286 113C6286 35 6330 -11 6402 -11C6459 -11 6515 17 6607 92ZM6384 274C6401 343 6421 386 6450 412C6468 428 6499 440 6523 440C6552 440 6571 420 6571 388C6571 344 6536 297 6484 272C6456 258 6420 247 6375 237ZM6942 388L6949 368L6981 389C7018 412 7021 414 7028 414C7038 414 7046 404 7046 391C7046 384 7042 361 7038 347L6972 107C6964 76 6959 49 6959 30C6959 6 6970 -9 6989 -9C7015 -9 7051 12 7149 85L7139 103L7113 86C7084 67 7061 56 7052 56C7045 56 7039 66 7039 76C7039 86 7041 95 7046 116L7123 420C7127 437 7129 448 7129 456C7129 473 7120 482 7104 482C7082 482 7045 461 6970 408ZM7136 712C7107 712 7078 679 7078 645C7078 620 7093 604 7117 604C7148 604 7172 633 7172 671C7172 695 7157 712 7136 712ZM7310 390L7254 107C7253 99 7241 61 7241 31C7241 6 7252 -9 7271 -9C7306 -9 7341 11 7419 74L7450 99L7440 117L7395 86C7366 66 7346 56 7335 56C7326 56 7321 64 7321 76C7321 102 7335 183 7364 328L7377 390L7484 390L7495 440C7457 436 7423 434 7385 434C7401 528 7412 577 7430 631L7419 646C7399 634 7372 622 7341 610L7316 440C7272 419 7246 408 7228 403L7226 390Z" stroke="rgb(0, 0, 0)" stroke-width="8" fill="rgb(0, 0, 0)" style="transform:matrix(0.017,0,0,-0.017,0,0);"></path></g></g></g></svg>