<svg xmlns="http://www.w3.org/2000/svg" width="218.84375" height="89" style="width:218.84375px;height:89px;font-family:Asana-Math, Asana;background:transparent;"><g><g><g style="transform:matrix(1,0,0,1,2,49.96875);"><path d="M236 722L224 733C179 711 138 697 64 691L60 670L108 670C126 670 142 667 142 647C142 641 142 632 140 622L98 388C78 272 36 80 10 2L17 -9L86 7C94 64 108 164 148 236C193 317 296 414 338 414C349 414 360 407 360 393C360 375 355 342 345 303L294 107C288 85 281 55 281 31C281 6 291 -9 312 -9C344 -9 412 41 471 85L461 103L435 86C412 71 386 56 374 56C367 56 361 65 361 76C361 88 364 101 368 116L432 372C438 398 443 423 443 447C443 464 437 482 411 482C376 482 299 437 231 374C198 343 172 308 144 273L140 275Z" stroke="rgb(0, 0, 0)" stroke-width="8" fill="rgb(0, 0, 0)" style="transform:matrix(0.017,0,0,-0.017,0,0);"></path></g><g><g><g><g style="transform:matrix(1,0,0,1,10.46875,55.353125);"><path d="M478 327C534 327 529 289 530 243L549 243C561 325 574 402 588 484L569 484L569 480C552 436 547 400 491 400L325 400C267 400 274 438 274 484L254 484C243 402 231 325 216 243L235 243L235 246C251 291 257 327 312 327ZM748 425C748 603 644 706 464 706C227 706 53 523 53 272C53 83 147 -18 323 -18C595 -18 748 207 748 425ZM660 409C660 221 571 24 360 24C216 24 141 110 141 277C141 425 199 664 433 664C549 664 660 610 660 409Z" stroke="rgb(0, 0, 0)" stroke-width="8" fill="rgb(0, 0, 0)" style="transform:matrix(0.0119,0,0,-0.0119,0,0);"></path></g></g></g></g><g style="transform:matrix(1,0,0,1,19.71875,49.96875);"><path d="M146 266C146 526 243 632 301 700L282 726C225 675 60 542 60 266C60 159 85 58 133 -32C168 -99 200 -138 282 -215L301 -194C255 -137 146 -15 146 266Z" stroke="rgb(0, 0, 0)" stroke-width="8" fill="rgb(0, 0, 0)" style="transform:matrix(0.017,0,0,-0.017,0,0);"></path></g><g style="transform:matrix(1,0,0,1,25,49.96875);"><path d="M9 1C24 -7 40 -11 52 -11C85 -11 124 18 155 65L231 182L242 113C255 28 278 -11 314 -11C336 -11 368 6 400 35L449 79L440 98C404 68 379 53 363 53C348 53 335 63 325 83C316 102 305 139 300 168L282 269L317 318C364 383 391 406 422 406C438 406 450 398 455 383L469 387L484 472C472 479 463 482 454 482C414 482 374 446 312 354L275 299L269 347C257 446 230 482 171 482C145 482 123 474 114 461L56 378L73 368C103 402 123 416 142 416C175 416 197 375 214 277L225 215L185 153C142 86 108 54 80 54C65 54 54 58 52 63L41 91L21 88C21 53 13 27 9 1Z" stroke="rgb(0, 0, 0)" stroke-width="8" fill="rgb(0, 0, 0)" style="transform:matrix(0.017,0,0,-0.017,0,0);"></path></g><g style="transform:matrix(1,0,0,1,33.84375,49.96875);"><path d="M51 726L32 700C87 636 187 526 187 266C187 -10 83 -131 32 -194L51 -215C104 -165 273 -23 273 265C273 542 108 675 51 726Z" stroke="rgb(0, 0, 0)" stroke-width="8" fill="rgb(0, 0, 0)" style="transform:matrix(0.017,0,0,-0.017,0,0);"></path></g><g style="transform:matrix(1,0,0,1,44,49.96875);"><path d="M604 347L604 406L65 406L65 347ZM604 134L604 193L65 193L65 134Z" stroke="rgb(0, 0, 0)" stroke-width="8" fill="rgb(0, 0, 0)" style="transform:matrix(0.017,0,0,-0.017,0,0);"></path></g><g><g><g><g style="transform:matrix(1,0,0,1,71.1875,20);"><path d="M263 689C108 689 29 566 29 324C29 207 50 106 85 57C120 8 176 -20 238 -20C389 -20 465 110 465 366C465 585 400 689 263 689ZM245 654C342 654 381 556 381 316C381 103 343 15 251 15C154 15 113 116 113 360C113 571 150 654 245 654Z" stroke="rgb(0, 0, 0)" stroke-width="8" fill="rgb(0, 0, 0)" style="transform:matrix(0.017,0,0,-0.017,0,0);"></path></g></g></g><g><g><g style="transform:matrix(1,0,0,1,71.1875,41);"><path d="M263 689C108 689 29 566 29 324C29 207 50 106 85 57C120 8 176 -20 238 -20C389 -20 465 110 465 366C465 585 400 689 263 689ZM245 654C342 654 381 556 381 316C381 103 343 15 251 15C154 15 113 116 113 360C113 571 150 654 245 654Z" stroke="rgb(0, 0, 0)" stroke-width="8" fill="rgb(0, 0, 0)" style="transform:matrix(0.017,0,0,-0.017,0,0);"></path></g></g></g><g><g><g style="transform:matrix(1,0,0,1,71.1875,62);"><path d="M418 -3L418 27L366 30C311 33 301 44 301 96L301 700L60 598L67 548L217 614L217 96C217 44 206 33 152 30L96 27L96 -3C250 0 250 0 261 0C292 0 402 -3 418 -3Z" stroke="rgb(0, 0, 0)" stroke-width="8" fill="rgb(0, 0, 0)" style="transform:matrix(0.017,0,0,-0.017,0,0);"></path></g></g></g><g><g><g style="transform:matrix(1,0,0,1,71.1875,83);"><path d="M263 689C108 689 29 566 29 324C29 207 50 106 85 57C120 8 176 -20 238 -20C389 -20 465 110 465 366C465 585 400 689 263 689ZM245 654C342 654 381 556 381 316C381 103 343 15 251 15C154 15 113 116 113 360C113 571 150 654 245 654Z" stroke="rgb(0, 0, 0)" stroke-width="8" fill="rgb(0, 0, 0)" style="transform:matrix(0.017,0,0,-0.017,0,0);"></path></g></g></g><svg x="60.84375" style="overflow:visible;" y="2" height="85" width="7.640625"><path d=" M 5.98 1.70 l -0.10 -0.10 q -1.09 0.03 -2.16 0.03 q -1.02 0.00 -2.14 -0.03 l -0.15 0.22 q 0.15 0.58 0.15 3.15 v 0.85 h 1.43 v -0.85 q 0.00 -1.31 0.07 -2.14 q 0.05 -0.60 1.19 -0.60 h 1.65 l 0.07 -0.09 v -0.44 z  M 1.58 5.63 v 73.75 h 1.43 v -73.75 z " style="fill:rgb(0, 0, 0);stroke-width:1px;stroke:none;"></path><path d=" M 5.98 83.30 l -0.10 0.10 q -1.09 -0.03 -2.16 -0.03 q -1.02 0.00 -2.14 0.03 l -0.15 -0.22 q 0.15 -0.58 0.15 -3.15 v -0.85 h 1.43 v 0.85 q 0.00 1.31 0.07 2.14 q 0.05 0.60 1.19 0.60 h 1.65 l 0.07 0.09 v 0.44 z" style="fill:rgb(0, 0, 0);stroke-width:1px;stroke:none;"></path></svg><svg x="82.703125" style="overflow:visible;" y="2" height="85" width="7.640625"><path d=" M 1.57 1.70 l 0.10 -0.10 q 1.09 0.03 2.16 0.03 q 1.02 0.00 2.14 -0.03 l 0.15 0.22 q -0.15 0.58 -0.15 3.15 v 0.85 h -1.43 v -0.85 q 0.00 -1.31 -0.07 -2.14 q -0.05 -0.60 -1.19 -0.60 h -1.65 l -0.07 -0.09 v -0.44 z  M 5.97 5.63 v 73.75 h -1.43 v -73.75 z" style="fill:rgb(0, 0, 0);stroke-width:1px;stroke:none;"></path><path d=" M 1.57 83.30 l 0.10 0.10 q 1.09 -0.03 2.16 -0.03 q 1.02 0.00 2.14 0.03 l 0.15 -0.22 q -0.15 -0.58 -0.15 -3.15 v -0.85 h -1.43 v 0.85 q 0.00 1.31 -0.07 2.14 q -0.05 0.60 -1.19 0.60 h -1.65 l -0.07 0.09 v 0.44 z" style="fill:rgb(0, 0, 0);stroke-width:1px;stroke:none;"></path></svg></g><g style="transform:matrix(1,0,0,1,90,49.96875);"><path d="M204 123C177 114 159 108 106 93C99 17 74 -48 16 -144L30 -155L71 -136C152 -31 190 32 218 109Z" stroke="rgb(0, 0, 0)" stroke-width="8" fill="rgb(0, 0, 0)" style="transform:matrix(0.017,0,0,-0.017,0,0);"></path></g><g style="transform:matrix(1,0,0,1,98,49.96875);"><path d="M594 437L578 437L599 549C615 635 643 673 689 673C719 673 746 658 761 634L771 638C776 654 786 685 794 705L799 720C783 727 752 733 729 733C718 733 702 730 694 726C670 715 588 654 565 630C543 608 531 578 520 521L505 442C464 422 444 414 419 405L414 383L495 383L486 327C456 132 419 -54 397 -123C379 -182 349 -213 313 -213C290 -213 279 -206 261 -184L247 -188C243 -211 229 -259 224 -268C233 -273 248 -276 259 -276C300 -276 354 -245 393 -198C464 -114 484 -18 568 383L672 383C676 402 683 425 689 439L685 446C656 439 657 437 594 437ZM816 152C816 46 861 -11 944 -11C999 -11 1059 15 1104 57C1166 116 1210 230 1210 331C1210 425 1160 482 1077 482C973 482 816 382 816 152ZM1040 444C1101 444 1134 399 1134 315C1134 219 1103 113 1059 60C1041 39 1015 27 984 27C926 27 892 72 892 151C892 264 931 387 980 427C993 438 1016 444 1040 444ZM1610 365C1613 403 1618 435 1626 476C1615 481 1611 482 1606 482C1575 482 1544 458 1508 407C1469 351 1430 291 1414 256L1446 408C1450 425 1452 438 1452 450C1452 470 1444 482 1429 482C1408 482 1370 461 1296 408L1268 388L1275 368L1307 389C1335 407 1346 412 1355 412C1365 412 1372 403 1372 390C1372 332 1329 126 1289 -2L1299 -9C1314 -4 1330 -1 1353 4L1366 6L1392 126C1410 209 1433 262 1477 319C1511 363 1538 384 1560 384C1575 384 1585 379 1596 365ZM1984 469L2016 665C2017 667 2017 669 2017 671C2017 689 1995 709 1974 709C1953 709 1931 689 1931 670L1931 665L1964 469ZM2165 469L2197 665C2198 667 2198 669 2198 670C2198 689 2176 709 2155 709C2133 709 2112 690 2112 670L2112 665L2145 469ZM2979 103L2953 86C2924 67 2902 56 2892 56C2885 56 2879 65 2879 76C2879 86 2881 95 2886 116L2961 413C2965 430 2968 446 2968 454C2968 471 2958 482 2942 482C2913 482 2875 464 2814 421C2751 376 2716 341 2667 272L2697 409C2701 429 2704 444 2704 451C2704 470 2694 482 2678 482C2648 482 2602 460 2547 418C2503 384 2483 363 2418 275L2451 408C2455 424 2457 439 2457 451C2457 470 2448 482 2434 482C2413 482 2375 461 2301 408L2273 388L2280 368C2317 391 2352 414 2359 414C2370 414 2377 404 2377 389C2377 338 2336 145 2295 2L2298 -9L2366 6L2388 108C2412 219 2439 278 2494 338C2536 384 2581 414 2609 414C2616 414 2620 406 2620 393C2620 358 2598 244 2557 69L2541 2L2546 -9L2615 6L2636 113C2652 194 2686 269 2730 318C2785 379 2835 414 2867 414C2875 414 2880 405 2880 389C2880 365 2877 351 2855 264C2815 105 2799 84 2799 31C2799 6 2810 -9 2829 -9C2855 -9 2891 12 2989 85ZM3043 152C3043 46 3088 -11 3171 -11C3226 -11 3286 15 3331 57C3393 116 3437 230 3437 331C3437 425 3387 482 3304 482C3200 482 3043 382 3043 152ZM3267 444C3328 444 3361 399 3361 315C3361 219 3330 113 3286 60C3268 39 3242 27 3211 27C3153 27 3119 72 3119 151C3119 264 3158 387 3207 427C3220 438 3243 444 3267 444ZM3594 390L3538 107C3537 99 3525 61 3525 31C3525 6 3536 -9 3555 -9C3590 -9 3625 11 3703 74L3734 99L3724 117L3679 86C3650 66 3630 56 3619 56C3610 56 3605 64 3605 76C3605 102 3619 183 3648 328L3661 390L3768 390L3779 440C3741 436 3707 434 3669 434C3685 528 3696 577 3714 631L3703 646C3683 634 3656 622 3625 610L3600 440C3556 419 3530 408 3512 403L3510 390ZM3818 152C3818 46 3863 -11 3946 -11C4001 -11 4061 15 4106 57C4168 116 4212 230 4212 331C4212 425 4162 482 4079 482C3975 482 3818 382 3818 152ZM4042 444C4103 444 4136 399 4136 315C4136 219 4105 113 4061 60C4043 39 4017 27 3986 27C3928 27 3894 72 3894 151C3894 264 3933 387 3982 427C3995 438 4018 444 4042 444ZM4612 365C4615 403 4620 435 4628 476C4617 481 4613 482 4608 482C4577 482 4546 458 4510 407C4471 351 4432 291 4416 256L4448 408C4452 425 4454 438 4454 450C4454 470 4446 482 4431 482C4410 482 4372 461 4298 408L4270 388L4277 368L4309 389C4337 407 4348 412 4357 412C4367 412 4374 403 4374 390C4374 332 4331 126 4291 -2L4301 -9C4316 -4 4332 -1 4355 4L4368 6L4394 126C4412 209 4435 262 4479 319C4513 363 4540 384 4562 384C4577 384 4587 379 4598 365ZM4974 330L4997 330C5005 395 5012 432 5021 458C4997 473 4962 482 4925 482C4880 483 4807 463 4750 400C4696 352 4657 241 4657 136C4657 40 4699 -11 4779 -11C4833 -11 4881 9 4936 54L4986 95L4978 115L4963 105C4891 57 4853 40 4818 40C4762 40 4733 80 4733 159C4733 267 4768 371 4817 409C4838 425 4862 433 4893 433C4938 433 4974 414 4974 390ZM5031 -180C5030 -187 5030 -193 5030 -198C5030 -241 5067 -276 5112 -276C5218 -276 5328 -152 5387 33L5528 473L5517 482C5488 471 5465 465 5443 463L5408 331C5396 284 5361 211 5328 162C5293 111 5244 67 5222 67C5210 67 5201 90 5202 115L5218 322C5220 353 5222 391 5222 419C5222 464 5215 482 5198 482C5185 482 5171 475 5123 442L5041 386L5052 368L5102 398C5107 401 5118 410 5127 410C5141 410 5149 391 5149 358C5149 357 5149 351 5148 343L5131 100L5130 60C5130 18 5148 -11 5173 -11C5210 -11 5294 74 5369 187L5320 16C5269 -161 5219 -234 5149 -234C5114 -234 5087 -207 5087 -172C5087 -167 5088 -159 5089 -150L5079 -146ZM5879 330L5902 330C5910 395 5917 432 5926 458C5902 473 5867 482 5830 482C5785 483 5712 463 5655 400C5601 352 5562 241 5562 136C5562 40 5604 -11 5684 -11C5738 -11 5786 9 5841 54L5891 95L5883 115L5868 105C5796 57 5758 40 5723 40C5667 40 5638 80 5638 159C5638 267 5673 371 5722 409C5743 425 5767 433 5798 433C5843 433 5879 414 5879 390ZM6194 722L6182 733C6130 707 6094 698 6022 691L6018 670L6066 670C6090 670 6100 663 6100 648C6100 645 6100 640 6097 622C6086 567 6013 182 5998 132C5985 82 5979 52 5979 31C5979 6 5990 -9 6009 -9C6035 -9 6071 12 6169 85L6159 103L6133 86C6104 67 6082 56 6072 56C6065 56 6059 66 6059 76C6059 82 6060 89 6063 104ZM6548 111L6524 94C6471 56 6423 36 6387 36C6340 36 6311 73 6311 133C6311 158 6314 185 6319 214C6336 218 6445 248 6470 259C6555 296 6594 342 6594 404C6594 451 6560 482 6510 482C6442 496 6332 423 6295 349C6265 299 6235 180 6235 113C6235 35 6279 -11 6351 -11C6408 -11 6464 17 6556 92ZM6333 274C6350 343 6370 386 6399 412C6417 428 6448 440 6472 440C6501 440 6520 420 6520 388C6520 344 6485 297 6433 272C6405 258 6369 247 6324 237ZM6713 469L6745 665C6746 667 6746 669 6746 671C6746 689 6724 709 6703 709C6682 709 6660 689 6660 670L6660 665L6693 469ZM6894 469L6926 665C6927 667 6927 669 6927 670C6927 689 6905 709 6884 709C6862 709 6841 690 6841 670L6841 665L6874 469Z" stroke="rgb(0, 0, 0)" stroke-width="8" fill="rgb(0, 0, 0)" style="transform:matrix(0.017,0,0,-0.017,0,0);"></path></g></g></g></svg>