<svg xmlns="http://www.w3.org/2000/svg" width="215.40625" height="89" style="width:215.40625px;height:89px;font-family:Asana-Math, Asana;background:transparent;"><g><g><g style="transform:matrix(1,0,0,1,2,49.96875);"><path d="M236 722L224 733C179 711 138 697 64 691L60 670L108 670C126 670 142 667 142 647C142 641 142 632 140 622L98 388C78 272 36 80 10 2L17 -9L86 7C94 64 108 164 148 236C193 317 296 414 338 414C349 414 360 407 360 393C360 375 355 342 345 303L294 107C288 85 281 55 281 31C281 6 291 -9 312 -9C344 -9 412 41 471 85L461 103L435 86C412 71 386 56 374 56C367 56 361 65 361 76C361 88 364 101 368 116L432 372C438 398 443 423 443 447C443 464 437 482 411 482C376 482 299 437 231 374C198 343 172 308 144 273L140 275Z" stroke="rgb(0, 0, 0)" stroke-width="8" fill="rgb(0, 0, 0)" style="transform:matrix(0.017,0,0,-0.017,0,0);"></path></g><g><g><g><g style="transform:matrix(1,0,0,1,10.46875,55.353125);"><path d="M478 327C534 327 529 289 530 243L549 243C561 325 574 402 588 484L569 484L569 480C552 436 547 400 491 400L325 400C267 400 274 438 274 484L254 484C243 402 231 325 216 243L235 243L235 246C251 291 257 327 312 327ZM748 425C748 603 644 706 464 706C227 706 53 523 53 272C53 83 147 -18 323 -18C595 -18 748 207 748 425ZM660 409C660 221 571 24 360 24C216 24 141 110 141 277C141 425 199 664 433 664C549 664 660 610 660 409Z" stroke="rgb(0, 0, 0)" stroke-width="8" fill="rgb(0, 0, 0)" style="transform:matrix(0.0119,0,0,-0.0119,0,0);"></path></g></g></g></g><g style="transform:matrix(1,0,0,1,19.71875,49.96875);"><path d="M146 266C146 526 243 632 301 700L282 726C225 675 60 542 60 266C60 159 85 58 133 -32C168 -99 200 -138 282 -215L301 -194C255 -137 146 -15 146 266Z" stroke="rgb(0, 0, 0)" stroke-width="8" fill="rgb(0, 0, 0)" style="transform:matrix(0.017,0,0,-0.017,0,0);"></path></g><g style="transform:matrix(1,0,0,1,25,49.96875);"><path d="M9 1C24 -7 40 -11 52 -11C85 -11 124 18 155 65L231 182L242 113C255 28 278 -11 314 -11C336 -11 368 6 400 35L449 79L440 98C404 68 379 53 363 53C348 53 335 63 325 83C316 102 305 139 300 168L282 269L317 318C364 383 391 406 422 406C438 406 450 398 455 383L469 387L484 472C472 479 463 482 454 482C414 482 374 446 312 354L275 299L269 347C257 446 230 482 171 482C145 482 123 474 114 461L56 378L73 368C103 402 123 416 142 416C175 416 197 375 214 277L225 215L185 153C142 86 108 54 80 54C65 54 54 58 52 63L41 91L21 88C21 53 13 27 9 1Z" stroke="rgb(0, 0, 0)" stroke-width="8" fill="rgb(0, 0, 0)" style="transform:matrix(0.017,0,0,-0.017,0,0);"></path></g><g style="transform:matrix(1,0,0,1,33.84375,49.96875);"><path d="M51 726L32 700C87 636 187 526 187 266C187 -10 83 -131 32 -194L51 -215C104 -165 273 -23 273 265C273 542 108 675 51 726Z" stroke="rgb(0, 0, 0)" stroke-width="8" fill="rgb(0, 0, 0)" style="transform:matrix(0.017,0,0,-0.017,0,0);"></path></g><g style="transform:matrix(1,0,0,1,44,49.96875);"><path d="M604 347L604 406L65 406L65 347ZM604 134L604 193L65 193L65 134Z" stroke="rgb(0, 0, 0)" stroke-width="8" fill="rgb(0, 0, 0)" style="transform:matrix(0.017,0,0,-0.017,0,0);"></path></g><g><g><g><g style="transform:matrix(1,0,0,1,71.1875,20);"><path d="M418 -3L418 27L366 30C311 33 301 44 301 96L301 700L60 598L67 548L217 614L217 96C217 44 206 33 152 30L96 27L96 -3C250 0 250 0 261 0C292 0 402 -3 418 -3Z" stroke="rgb(0, 0, 0)" stroke-width="8" fill="rgb(0, 0, 0)" style="transform:matrix(0.017,0,0,-0.017,0,0);"></path></g></g></g><g><g><g style="transform:matrix(1,0,0,1,71.1875,41);"><path d="M263 689C108 689 29 566 29 324C29 207 50 106 85 57C120 8 176 -20 238 -20C389 -20 465 110 465 366C465 585 400 689 263 689ZM245 654C342 654 381 556 381 316C381 103 343 15 251 15C154 15 113 116 113 360C113 571 150 654 245 654Z" stroke="rgb(0, 0, 0)" stroke-width="8" fill="rgb(0, 0, 0)" style="transform:matrix(0.017,0,0,-0.017,0,0);"></path></g></g></g><g><g><g style="transform:matrix(1,0,0,1,71.1875,62);"><path d="M263 689C108 689 29 566 29 324C29 207 50 106 85 57C120 8 176 -20 238 -20C389 -20 465 110 465 366C465 585 400 689 263 689ZM245 654C342 654 381 556 381 316C381 103 343 15 251 15C154 15 113 116 113 360C113 571 150 654 245 654Z" stroke="rgb(0, 0, 0)" stroke-width="8" fill="rgb(0, 0, 0)" style="transform:matrix(0.017,0,0,-0.017,0,0);"></path></g></g></g><g><g><g style="transform:matrix(1,0,0,1,71.1875,83);"><path d="M263 689C108 689 29 566 29 324C29 207 50 106 85 57C120 8 176 -20 238 -20C389 -20 465 110 465 366C465 585 400 689 263 689ZM245 654C342 654 381 556 381 316C381 103 343 15 251 15C154 15 113 116 113 360C113 571 150 654 245 654Z" stroke="rgb(0, 0, 0)" stroke-width="8" fill="rgb(0, 0, 0)" style="transform:matrix(0.017,0,0,-0.017,0,0);"></path></g></g></g><svg x="60.84375" style="overflow:visible;" y="2" height="85" width="7.640625"><path d=" M 5.98 1.70 l -0.10 -0.10 q -1.09 0.03 -2.16 0.03 q -1.02 0.00 -2.14 -0.03 l -0.15 0.22 q 0.15 0.58 0.15 3.15 v 0.85 h 1.43 v -0.85 q 0.00 -1.31 0.07 -2.14 q 0.05 -0.60 1.19 -0.60 h 1.65 l 0.07 -0.09 v -0.44 z  M 1.58 5.63 v 73.75 h 1.43 v -73.75 z " style="fill:rgb(0, 0, 0);stroke-width:1px;stroke:none;"></path><path d=" M 5.98 83.30 l -0.10 0.10 q -1.09 -0.03 -2.16 -0.03 q -1.02 0.00 -2.14 0.03 l -0.15 -0.22 q 0.15 -0.58 0.15 -3.15 v -0.85 h 1.43 v 0.85 q 0.00 1.31 0.07 2.14 q 0.05 0.60 1.19 0.60 h 1.65 l 0.07 0.09 v 0.44 z" style="fill:rgb(0, 0, 0);stroke-width:1px;stroke:none;"></path></svg><svg x="82.703125" style="overflow:visible;" y="2" height="85" width="7.640625"><path d=" M 1.57 1.70 l 0.10 -0.10 q 1.09 0.03 2.16 0.03 q 1.02 0.00 2.14 -0.03 l 0.15 0.22 q -0.15 0.58 -0.15 3.15 v 0.85 h -1.43 v -0.85 q 0.00 -1.31 -0.07 -2.14 q -0.05 -0.60 -1.19 -0.60 h -1.65 l -0.07 -0.09 v -0.44 z  M 5.97 5.63 v 73.75 h -1.43 v -73.75 z" style="fill:rgb(0, 0, 0);stroke-width:1px;stroke:none;"></path><path d=" M 1.57 83.30 l 0.10 0.10 q 1.09 -0.03 2.16 -0.03 q 1.02 0.00 2.14 0.03 l 0.15 -0.22 q -0.15 -0.58 -0.15 -3.15 v -0.85 h -1.43 v 0.85 q 0.00 1.31 -0.07 2.14 q -0.05 0.60 -1.19 0.60 h -1.65 l -0.07 0.09 v 0.44 z" style="fill:rgb(0, 0, 0);stroke-width:1px;stroke:none;"></path></svg></g><g style="transform:matrix(1,0,0,1,90,49.96875);"><path d="M204 123C177 114 159 108 106 93C99 17 74 -48 16 -144L30 -155L71 -136C152 -31 190 32 218 109Z" stroke="rgb(0, 0, 0)" stroke-width="8" fill="rgb(0, 0, 0)" style="transform:matrix(0.017,0,0,-0.017,0,0);"></path></g><g style="transform:matrix(1,0,0,1,98,49.96875);"><path d="M594 437L578 437L599 549C615 635 643 673 689 673C719 673 746 658 761 634L771 638C776 654 786 685 794 705L799 720C783 727 752 733 729 733C718 733 702 730 694 726C670 715 588 654 565 630C543 608 531 578 520 521L505 442C464 422 444 414 419 405L414 383L495 383L486 327C456 132 419 -54 397 -123C379 -182 349 -213 313 -213C290 -213 279 -206 261 -184L247 -188C243 -211 229 -259 224 -268C233 -273 248 -276 259 -276C300 -276 354 -245 393 -198C464 -114 484 -18 568 383L672 383C676 402 683 425 689 439L685 446C656 439 657 437 594 437ZM816 152C816 46 861 -11 944 -11C999 -11 1059 15 1104 57C1166 116 1210 230 1210 331C1210 425 1160 482 1077 482C973 482 816 382 816 152ZM1040 444C1101 444 1134 399 1134 315C1134 219 1103 113 1059 60C1041 39 1015 27 984 27C926 27 892 72 892 151C892 264 931 387 980 427C993 438 1016 444 1040 444ZM1610 365C1613 403 1618 435 1626 476C1615 481 1611 482 1606 482C1575 482 1544 458 1508 407C1469 351 1430 291 1414 256L1446 408C1450 425 1452 438 1452 450C1452 470 1444 482 1429 482C1408 482 1370 461 1296 408L1268 388L1275 368L1307 389C1335 407 1346 412 1355 412C1365 412 1372 403 1372 390C1372 332 1329 126 1289 -2L1299 -9C1314 -4 1330 -1 1353 4L1366 6L1392 126C1410 209 1433 262 1477 319C1511 363 1538 384 1560 384C1575 384 1585 379 1596 365ZM1984 469L2016 665C2017 667 2017 669 2017 671C2017 689 1995 709 1974 709C1953 709 1931 689 1931 670L1931 665L1964 469ZM2165 469L2197 665C2198 667 2198 669 2198 670C2198 689 2176 709 2155 709C2133 709 2112 690 2112 670L2112 665L2145 469ZM2425 -11C2481 -11 2596 62 2639 125C2680 186 2714 296 2714 371C2714 438 2691 482 2655 482C2613 482 2560 456 2508 409C2467 374 2447 348 2411 289L2435 408C2438 425 2440 440 2440 452C2440 471 2432 482 2418 482C2397 482 2359 461 2285 408L2257 388L2264 368L2296 389C2324 407 2335 412 2344 412C2354 412 2361 403 2361 389C2361 381 2359 361 2357 351L2299 8C2289 -52 2270 -143 2250 -233L2242 -270L2249 -276C2270 -269 2290 -264 2322 -259L2364 3C2385 -4 2407 -11 2425 -11ZM2392 165C2414 293 2521 424 2604 424C2630 424 2642 402 2642 356C2642 275 2602 156 2549 80C2529 51 2497 36 2456 36C2425 36 2400 43 2374 59ZM3076 111L3052 94C2999 56 2951 36 2915 36C2868 36 2839 73 2839 133C2839 158 2842 185 2847 214C2864 218 2973 248 2998 259C3083 296 3122 342 3122 404C3122 451 3088 482 3038 482C2970 496 2860 423 2823 349C2793 299 2763 180 2763 113C2763 35 2807 -11 2879 -11C2936 -11 2992 17 3084 92ZM2861 274C2878 343 2898 386 2927 412C2945 428 2976 440 3000 440C3029 440 3048 420 3048 388C3048 344 3013 297 2961 272C2933 258 2897 247 2852 237ZM3619 722L3607 733C3555 707 3519 698 3447 691L3443 670L3491 670C3515 670 3525 663 3525 646C3525 638 3524 629 3523 622L3495 468C3465 477 3438 482 3413 482C3344 482 3250 410 3204 323C3173 265 3153 170 3153 86C3153 21 3168 -11 3197 -11C3224 -11 3261 6 3295 33C3349 77 3382 116 3449 217L3426 126C3415 82 3410 50 3410 24C3410 3 3419 -9 3436 -9C3453 -9 3477 3 3511 28L3592 88L3582 107L3538 76C3524 66 3508 59 3499 59C3491 59 3485 68 3485 82C3485 90 3486 99 3493 128ZM3250 59C3234 59 3225 73 3225 98C3225 224 3271 380 3320 418C3333 428 3352 433 3379 433C3423 433 3452 427 3485 410L3473 351C3436 171 3295 59 3250 59ZM3963 111L3939 94C3886 56 3838 36 3802 36C3755 36 3726 73 3726 133C3726 158 3729 185 3734 214C3751 218 3860 248 3885 259C3970 296 4009 342 4009 404C4009 451 3975 482 3925 482C3857 496 3747 423 3710 349C3680 299 3650 180 3650 113C3650 35 3694 -11 3766 -11C3823 -11 3879 17 3971 92ZM3748 274C3765 343 3785 386 3814 412C3832 428 3863 440 3887 440C3916 440 3935 420 3935 388C3935 344 3900 297 3848 272C3820 258 3784 247 3739 237ZM4054 148C4049 97 4043 62 4032 16C4070 -2 4104 -11 4139 -11C4188 -11 4234 7 4285 47C4336 87 4357 124 4357 174C4357 228 4325 257 4251 271L4208 279C4148 290 4129 307 4129 348C4129 401 4174 442 4231 442C4272 442 4310 424 4326 397L4326 342L4349 342C4353 377 4357 404 4368 455C4329 474 4301 482 4268 482C4216 482 4155 452 4107 404C4081 377 4070 352 4070 316C4070 260 4101 228 4167 215L4230 203C4274 195 4290 177 4290 138C4290 73 4244 29 4173 29C4138 29 4107 40 4079 64L4079 148ZM4536 390L4480 107C4479 99 4467 61 4467 31C4467 6 4478 -9 4497 -9C4532 -9 4567 11 4645 74L4676 99L4666 117L4621 86C4592 66 4572 56 4561 56C4552 56 4547 64 4547 76C4547 102 4561 183 4590 328L4603 390L4710 390L4721 440C4683 436 4649 434 4611 434C4627 528 4638 577 4656 631L4645 646C4625 634 4598 622 4567 610L4542 440C4498 419 4472 408 4454 403L4452 390ZM5111 365C5114 403 5119 435 5127 476C5116 481 5112 482 5107 482C5076 482 5045 458 5009 407C4970 351 4931 291 4915 256L4947 408C4951 425 4953 438 4953 450C4953 470 4945 482 4930 482C4909 482 4871 461 4797 408L4769 388L4776 368L4808 389C4836 407 4847 412 4856 412C4866 412 4873 403 4873 390C4873 332 4830 126 4790 -2L4800 -9C4815 -4 4831 -1 4854 4L4867 6L4893 126C4911 209 4934 262 4978 319C5012 363 5039 384 5061 384C5076 384 5086 379 5097 365ZM5165 388L5172 368L5204 389C5241 412 5244 414 5251 414C5261 414 5269 404 5269 391C5269 384 5265 361 5261 347L5195 107C5187 76 5182 49 5182 30C5182 6 5193 -9 5212 -9C5238 -9 5274 12 5372 85L5362 103L5336 86C5307 67 5284 56 5275 56C5268 56 5262 66 5262 76C5262 86 5264 95 5269 116L5346 420C5350 437 5352 448 5352 456C5352 473 5343 482 5327 482C5305 482 5268 461 5193 408ZM5359 712C5330 712 5301 679 5301 645C5301 620 5316 604 5340 604C5371 604 5395 633 5395 671C5395 695 5380 712 5359 712ZM5679 204L5650 77C5646 60 5644 42 5644 26C5644 4 5653 -9 5668 -9C5691 -9 5732 17 5814 85L5807 106C5783 86 5754 59 5732 59C5723 59 5717 68 5717 82C5717 87 5717 90 5718 93L5810 472L5800 481L5767 463C5726 478 5709 482 5682 482C5654 482 5634 477 5607 464C5545 433 5512 403 5487 354C5443 265 5412 145 5412 67C5412 23 5427 -11 5446 -11C5483 -11 5563 41 5679 204ZM5727 414C5705 305 5686 253 5652 201C5595 117 5534 59 5502 59C5490 59 5484 72 5484 99C5484 163 5512 280 5547 360C5571 415 5594 433 5642 433C5665 433 5683 429 5727 414ZM5875 388L5882 368L5914 389C5951 412 5954 414 5961 414C5972 414 5979 404 5979 389C5979 338 5938 145 5897 2L5904 -9C5929 -2 5952 4 5974 8C5993 134 6014 199 6060 268C6114 352 6189 414 6234 414C6245 414 6251 405 6251 390C6251 372 6248 351 6240 319L6188 107C6179 70 6175 47 6175 31C6175 6 6186 -9 6205 -9C6231 -9 6267 12 6365 85L6355 103L6329 86C6300 67 6278 56 6268 56C6261 56 6255 65 6255 76C6255 81 6256 92 6257 96L6323 372C6330 401 6334 429 6334 446C6334 469 6323 482 6303 482C6261 482 6192 444 6133 389C6095 354 6067 320 6015 247L6053 408C6057 426 6059 438 6059 449C6059 470 6051 482 6036 482C6015 482 5976 460 5903 408ZM6511 469L6543 665C6544 667 6544 669 6544 671C6544 689 6522 709 6501 709C6480 709 6458 689 6458 670L6458 665L6491 469ZM6692 469L6724 665C6725 667 6725 669 6725 670C6725 689 6703 709 6682 709C6660 709 6639 690 6639 670L6639 665L6672 469Z" stroke="rgb(0, 0, 0)" stroke-width="8" fill="rgb(0, 0, 0)" style="transform:matrix(0.017,0,0,-0.017,0,0);"></path></g></g></g></svg>