<svg xmlns="http://www.w3.org/2000/svg" width="389.828125" height="29.46875" style="width:389.828125px;height:29.46875px;font-family:Asana-Math, Asana;background:transparent;"><g><g><g style="transform:matrix(1,0,0,1,2,19.984375);"><path d="M105 664L160 662C184 661 195 653 195 635L112 125C95 34 94 31 54 28L13 25L9 -3L51 -2C92 -1 123 0 141 0C158 0 187 -1 227 -2L280 -3L283 25L218 28C192 29 182 37 182 58C182 67 183 74 186 93L284 648C320 654 336 656 355 656C457 656 506 612 506 519C506 411 434 323 346 323C324 323 304 328 267 342L269 311C306 293 326 288 355 288C484 288 594 405 594 541C594 642 531 695 412 692L108 692ZM978 365C981 403 986 435 994 476C983 481 979 482 974 482C943 482 912 458 876 407C837 351 798 291 782 256L814 408C818 425 820 438 820 450C820 470 812 482 797 482C776 482 738 461 664 408L636 388L643 368L675 389C703 407 714 412 723 412C733 412 740 403 740 390C740 332 697 126 657 -2L667 -9C682 -4 698 -1 721 4L734 6L760 126C778 209 801 262 845 319C879 363 906 384 928 384C943 384 953 379 964 365ZM1326 111L1302 94C1249 56 1201 36 1165 36C1118 36 1089 73 1089 133C1089 158 1092 185 1097 214C1114 218 1223 248 1248 259C1333 296 1372 342 1372 404C1372 451 1338 482 1288 482C1220 496 1110 423 1073 349C1043 299 1013 180 1013 113C1013 35 1057 -11 1129 -11C1186 -11 1242 17 1334 92ZM1111 274C1128 343 1148 386 1177 412C1195 428 1226 440 1250 440C1279 440 1298 420 1298 388C1298 344 1263 297 1211 272C1183 258 1147 247 1102 237ZM1869 722L1857 733C1805 707 1769 698 1697 691L1693 670L1741 670C1765 670 1775 663 1775 646C1775 638 1774 629 1773 622L1745 468C1715 477 1688 482 1663 482C1594 482 1500 410 1454 323C1423 265 1403 170 1403 86C1403 21 1418 -11 1447 -11C1474 -11 1511 6 1545 33C1599 77 1632 116 1699 217L1676 126C1665 82 1660 50 1660 24C1660 3 1669 -9 1686 -9C1703 -9 1727 3 1761 28L1842 88L1832 107L1788 76C1774 66 1758 59 1749 59C1741 59 1735 68 1735 82C1735 90 1736 99 1743 128ZM1500 59C1484 59 1475 73 1475 98C1475 224 1521 380 1570 418C1583 428 1602 433 1629 433C1673 433 1702 427 1735 410L1723 351C1686 171 1545 59 1500 59ZM1919 388L1926 368L1958 389C1995 412 1998 414 2005 414C2015 414 2023 404 2023 391C2023 384 2019 361 2015 347L1949 107C1941 76 1936 49 1936 30C1936 6 1947 -9 1966 -9C1992 -9 2028 12 2126 85L2116 103L2090 86C2061 67 2038 56 2029 56C2022 56 2016 66 2016 76C2016 86 2018 95 2023 116L2100 420C2104 437 2106 448 2106 456C2106 473 2097 482 2081 482C2059 482 2022 461 1947 408ZM2113 712C2084 712 2055 679 2055 645C2055 620 2070 604 2094 604C2125 604 2149 633 2149 671C2149 695 2134 712 2113 712ZM2504 330L2527 330C2535 395 2542 432 2551 458C2527 473 2492 482 2455 482C2410 483 2337 463 2280 400C2226 352 2187 241 2187 136C2187 40 2229 -11 2309 -11C2363 -11 2411 9 2466 54L2516 95L2508 115L2493 105C2421 57 2383 40 2348 40C2292 40 2263 80 2263 159C2263 267 2298 371 2347 409C2368 425 2392 433 2423 433C2468 433 2504 414 2504 390ZM2693 390L2637 107C2636 99 2624 61 2624 31C2624 6 2635 -9 2654 -9C2689 -9 2724 11 2802 74L2833 99L2823 117L2778 86C2749 66 2729 56 2718 56C2709 56 2704 64 2704 76C2704 102 2718 183 2747 328L2760 390L2867 390L2878 440C2840 436 2806 434 2768 434C2784 528 2795 577 2813 631L2802 646C2782 634 2755 622 2724 610L2699 440C2655 419 2629 408 2611 403L2609 390ZM3142 -180C3141 -187 3141 -193 3141 -198C3141 -241 3178 -276 3223 -276C3329 -276 3439 -152 3498 33L3639 473L3628 482C3599 471 3576 465 3554 463L3519 331C3507 284 3472 211 3439 162C3404 111 3355 67 3333 67C3321 67 3312 90 3313 115L3329 322C3331 353 3333 391 3333 419C3333 464 3326 482 3309 482C3296 482 3282 475 3234 442L3152 386L3163 368L3213 398C3218 401 3229 410 3238 410C3252 410 3260 391 3260 358C3260 357 3260 351 3259 343L3242 100L3241 60C3241 18 3259 -11 3284 -11C3321 -11 3405 74 3480 187L3431 16C3380 -161 3330 -234 3260 -234C3225 -234 3198 -207 3198 -172C3198 -167 3199 -159 3200 -150L3190 -146Z" stroke="rgb(0, 0, 0)" stroke-width="8" fill="rgb(0, 0, 0)" style="transform:matrix(0.017,0,0,-0.017,0,0);"></path></g><g style="transform:matrix(1,0,0,1,69,19.984375);"><path d="M604 347L604 406L65 406L65 347ZM604 134L604 193L65 193L65 134Z" stroke="rgb(0, 0, 0)" stroke-width="8" fill="rgb(0, 0, 0)" style="transform:matrix(0.017,0,0,-0.017,0,0);"></path></g><g style="transform:matrix(1,0,0,1,85,19.984375);"><path d="M418 -3L418 27L366 30C311 33 301 44 301 96L301 700L60 598L67 548L217 614L217 96C217 44 206 33 152 30L96 27L96 -3C250 0 250 0 261 0C292 0 402 -3 418 -3ZM782 388L789 368L821 389C858 412 861 414 868 414C878 414 886 404 886 391C886 384 882 361 878 347L812 107C804 76 799 49 799 30C799 6 810 -9 829 -9C855 -9 891 12 989 85L979 103L953 86C924 67 901 56 892 56C885 56 879 66 879 76C879 86 881 95 886 116L963 420C967 437 969 448 969 456C969 473 960 482 944 482C922 482 885 461 810 408ZM976 712C947 712 918 679 918 645C918 620 933 604 957 604C988 604 1012 633 1012 671C1012 695 997 712 976 712ZM1370 437L1354 437L1375 549C1391 635 1419 673 1465 673C1495 673 1522 658 1537 634L1547 638C1552 654 1562 685 1570 705L1575 720C1559 727 1528 733 1505 733C1494 733 1478 730 1470 726C1446 715 1364 654 1341 630C1319 608 1307 578 1296 521L1281 442C1240 422 1220 414 1195 405L1190 383L1271 383L1262 327C1232 132 1195 -54 1173 -123C1155 -182 1125 -213 1089 -213C1066 -213 1055 -206 1037 -184L1023 -188C1019 -211 1005 -259 1000 -268C1009 -273 1024 -276 1035 -276C1076 -276 1130 -245 1169 -198C1240 -114 1260 -18 1344 383L1448 383C1452 402 1459 425 1465 439L1461 446C1432 439 1433 437 1370 437ZM2060 722L2048 733C2003 711 1962 697 1888 691L1884 670L1932 670C1950 670 1966 667 1966 647C1966 641 1966 632 1964 622L1922 388C1902 272 1860 80 1834 2L1841 -9L1910 7C1918 64 1932 164 1972 236C2017 317 2120 414 2162 414C2173 414 2184 407 2184 393C2184 375 2179 342 2169 303L2118 107C2112 85 2105 55 2105 31C2105 6 2115 -9 2136 -9C2168 -9 2236 41 2295 85L2285 103L2259 86C2236 71 2210 56 2198 56C2191 56 2185 65 2185 76C2185 88 2188 101 2192 116L2256 372C2262 398 2267 423 2267 447C2267 464 2261 482 2235 482C2200 482 2123 437 2055 374C2022 343 1996 308 1968 273L1964 275Z" stroke="rgb(0, 0, 0)" stroke-width="8" fill="rgb(0, 0, 0)" style="transform:matrix(0.017,0,0,-0.017,0,0);"></path></g><g><g><g><g style="transform:matrix(1,0,0,1,124.84375,25.36875);"><path d="M237 -16C473 -16 572 316 576 504C578 618 546 702 419 702C159 702 72 412 69 199C67 80 101 -16 237 -16ZM401 676C536 676 506 491 485 381L169 381C194 485 272 676 401 676ZM253 13C102 13 147 261 163 349L479 349C454 237 396 13 253 13Z" stroke="rgb(0, 0, 0)" stroke-width="8" fill="rgb(0, 0, 0)" style="transform:matrix(0.0119,0,0,-0.0119,0,0);"></path></g></g></g></g><g style="transform:matrix(1,0,0,1,132.140625,19.984375);"><path d="M146 266C146 526 243 632 301 700L282 726C225 675 60 542 60 266C60 159 85 58 133 -32C168 -99 200 -138 282 -215L301 -194C255 -137 146 -15 146 266Z" stroke="rgb(0, 0, 0)" stroke-width="8" fill="rgb(0, 0, 0)" style="transform:matrix(0.017,0,0,-0.017,0,0);"></path></g><g style="transform:matrix(1,0,0,1,138,19.984375);"><path d="M9 1C24 -7 40 -11 52 -11C85 -11 124 18 155 65L231 182L242 113C255 28 278 -11 314 -11C336 -11 368 6 400 35L449 79L440 98C404 68 379 53 363 53C348 53 335 63 325 83C316 102 305 139 300 168L282 269L317 318C364 383 391 406 422 406C438 406 450 398 455 383L469 387L484 472C472 479 463 482 454 482C414 482 374 446 312 354L275 299L269 347C257 446 230 482 171 482C145 482 123 474 114 461L56 378L73 368C103 402 123 416 142 416C175 416 197 375 214 277L225 215L185 153C142 86 108 54 80 54C65 54 54 58 52 63L41 91L21 88C21 53 13 27 9 1Z" stroke="rgb(0, 0, 0)" stroke-width="8" fill="rgb(0, 0, 0)" style="transform:matrix(0.017,0,0,-0.017,0,0);"></path></g><g style="transform:matrix(1,0,0,1,146.265625,19.984375);"><path d="M51 726L32 700C87 636 187 526 187 266C187 -10 83 -131 32 -194L51 -215C104 -165 273 -23 273 265C273 542 108 675 51 726Z" stroke="rgb(0, 0, 0)" stroke-width="8" fill="rgb(0, 0, 0)" style="transform:matrix(0.017,0,0,-0.017,0,0);"></path></g><g style="transform:matrix(1,0,0,1,157,19.984375);"><path d="M65 0L604 252L604 273L65 528L65 469L503 264L65 59Z" stroke="rgb(0, 0, 0)" stroke-width="8" fill="rgb(0, 0, 0)" style="transform:matrix(0.017,0,0,-0.017,0,0);"></path></g><g style="transform:matrix(1,0,0,1,173,19.984375);"><path d="M263 689C108 689 29 566 29 324C29 207 50 106 85 57C120 8 176 -20 238 -20C389 -20 465 110 465 366C465 585 400 689 263 689ZM245 654C342 654 381 556 381 316C381 103 343 15 251 15C154 15 113 116 113 360C113 571 150 654 245 654Z" stroke="rgb(0, 0, 0)" stroke-width="8" fill="rgb(0, 0, 0)" style="transform:matrix(0.017,0,0,-0.017,0,0);"></path></g><g style="transform:matrix(1,0,0,1,182,19.984375);"><path d="M124 111C94 111 67 83 67 53C67 23 94 -5 123 -5C155 -5 183 22 183 53C183 83 155 111 124 111Z" stroke="rgb(0, 0, 0)" stroke-width="8" fill="rgb(0, 0, 0)" style="transform:matrix(0.017,0,0,-0.017,0,0);"></path></g><g style="transform:matrix(1,0,0,1,189,19.984375);"><path d="M459 253C459 366 378 446 264 446C216 446 180 443 127 396L127 605L432 604L432 689L75 690L75 322L95 316C142 363 169 377 218 377C314 377 374 309 374 201C374 90 310 25 201 25C147 25 97 43 83 69L37 151L13 137C36 80 48 48 62 4C90 -11 130 -20 173 -20C301 -20 459 89 459 253Z" stroke="rgb(0, 0, 0)" stroke-width="8" fill="rgb(0, 0, 0)" style="transform:matrix(0.017,0,0,-0.017,0,0);"></path></g><g style="transform:matrix(1,0,0,1,197,19.984375);"><path d="M204 123C177 114 159 108 106 93C99 17 74 -48 16 -144L30 -155L71 -136C152 -31 190 32 218 109Z" stroke="rgb(0, 0, 0)" stroke-width="8" fill="rgb(0, 0, 0)" style="transform:matrix(0.017,0,0,-0.017,0,0);"></path></g><g style="transform:matrix(1,0,0,1,205,19.984375);"><path d="M283 388L290 368L322 389C359 412 362 414 369 414C379 414 387 404 387 391C387 384 383 361 379 347L313 107C305 76 300 49 300 30C300 6 311 -9 330 -9C356 -9 392 12 490 85L480 103L454 86C425 67 402 56 393 56C386 56 380 66 380 76C380 86 382 95 387 116L464 420C468 437 470 448 470 456C470 473 461 482 445 482C423 482 386 461 311 408ZM477 712C448 712 419 679 419 645C419 620 434 604 458 604C489 604 513 633 513 671C513 695 498 712 477 712ZM550 388L557 368L589 389C626 412 629 414 636 414C647 414 654 404 654 389C654 338 613 145 572 2L579 -9C604 -2 627 4 649 8C668 134 689 199 735 268C789 352 864 414 909 414C920 414 926 405 926 390C926 372 923 351 915 319L863 107C854 70 850 47 850 31C850 6 861 -9 880 -9C906 -9 942 12 1040 85L1030 103L1004 86C975 67 953 56 943 56C936 56 930 65 930 76C930 81 931 92 932 96L998 372C1005 401 1009 429 1009 446C1009 469 998 482 978 482C936 482 867 444 808 389C770 354 742 320 690 247L728 408C732 426 734 438 734 449C734 470 726 482 711 482C690 482 651 460 578 408ZM1347 152C1347 46 1392 -11 1475 -11C1530 -11 1590 15 1635 57C1697 116 1741 230 1741 331C1741 425 1691 482 1608 482C1504 482 1347 382 1347 152ZM1571 444C1632 444 1665 399 1665 315C1665 219 1634 113 1590 60C1572 39 1546 27 1515 27C1457 27 1423 72 1423 151C1423 264 1462 387 1511 427C1524 438 1547 444 1571 444ZM1898 390L1842 107C1841 99 1829 61 1829 31C1829 6 1840 -9 1859 -9C1894 -9 1929 11 2007 74L2038 99L2028 117L1983 86C1954 66 1934 56 1923 56C1914 56 1909 64 1909 76C1909 102 1923 183 1952 328L1965 390L2072 390L2083 440C2045 436 2011 434 1973 434C1989 528 2000 577 2018 631L2007 646C1987 634 1960 622 1929 610L1904 440C1860 419 1834 408 1816 403L1814 390ZM2341 722L2329 733C2284 711 2243 697 2169 691L2165 670L2213 670C2231 670 2247 667 2247 647C2247 641 2247 632 2245 622L2203 388C2183 272 2141 80 2115 2L2122 -9L2191 7C2199 64 2213 164 2253 236C2298 317 2401 414 2443 414C2454 414 2465 407 2465 393C2465 375 2460 342 2450 303L2399 107C2393 85 2386 55 2386 31C2386 6 2396 -9 2417 -9C2449 -9 2517 41 2576 85L2566 103L2540 86C2517 71 2491 56 2479 56C2472 56 2466 65 2466 76C2466 88 2469 101 2473 116L2537 372C2543 398 2548 423 2548 447C2548 464 2542 482 2516 482C2481 482 2404 437 2336 374C2303 343 2277 308 2249 273L2245 275ZM2932 111L2908 94C2855 56 2807 36 2771 36C2724 36 2695 73 2695 133C2695 158 2698 185 2703 214C2720 218 2829 248 2854 259C2939 296 2978 342 2978 404C2978 451 2944 482 2894 482C2826 496 2716 423 2679 349C2649 299 2619 180 2619 113C2619 35 2663 -11 2735 -11C2792 -11 2848 17 2940 92ZM2717 274C2734 343 2754 386 2783 412C2801 428 2832 440 2856 440C2885 440 2904 420 2904 388C2904 344 2869 297 2817 272C2789 258 2753 247 2708 237ZM3360 365C3363 403 3368 435 3376 476C3365 481 3361 482 3356 482C3325 482 3294 458 3258 407C3219 351 3180 291 3164 256L3196 408C3200 425 3202 438 3202 450C3202 470 3194 482 3179 482C3158 482 3120 461 3046 408L3018 388L3025 368L3057 389C3085 407 3096 412 3105 412C3115 412 3122 403 3122 390C3122 332 3079 126 3039 -2L3049 -9C3064 -4 3080 -1 3103 4L3116 6L3142 126C3160 209 3183 262 3227 319C3261 363 3288 384 3310 384C3325 384 3335 379 3346 365ZM3796 420C3817 420 3830 421 3855 424C3800 350 3701 266 3701 126C3701 44 3736 -11 3789 -11C3853 -11 3905 44 3979 187C3970 143 3967 118 3967 95C3967 32 3996 -11 4041 -11C4175 -11 4328 238 4328 384C4328 441 4302 482 4266 482C4253 482 4241 478 4233 470L4183 423L4194 404C4203 410 4212 413 4221 413C4248 413 4264 390 4264 350C4264 205 4167 39 4082 39C4053 39 4032 79 4032 134C4032 181 4041 247 4053 290L4105 474L4098 482L4024 460L3995 311C3983 249 3969 209 3940 155C3900 80 3862 39 3832 39C3797 39 3774 78 3774 136C3774 255 3815 352 3914 464L3904 482C3884 473 3871 470 3843 470C3815 470 3773 472 3744 475L3732 476C3726 477 3721 477 3720 477C3708 477 3699 475 3688 470C3674 443 3663 407 3650 352L3672 352L3689 394C3696 411 3716 422 3740 422C3774 422 3757 420 3796 420ZM4367 152C4367 46 4412 -11 4495 -11C4550 -11 4610 15 4655 57C4717 116 4761 230 4761 331C4761 425 4711 482 4628 482C4524 482 4367 382 4367 152ZM4591 444C4652 444 4685 399 4685 315C4685 219 4654 113 4610 60C4592 39 4566 27 4535 27C4477 27 4443 72 4443 151C4443 264 4482 387 4531 427C4544 438 4567 444 4591 444ZM5161 365C5164 403 5169 435 5177 476C5166 481 5162 482 5157 482C5126 482 5095 458 5059 407C5020 351 4981 291 4965 256L4997 408C5001 425 5003 438 5003 450C5003 470 4995 482 4980 482C4959 482 4921 461 4847 408L4819 388L4826 368L4858 389C4886 407 4897 412 4906 412C4916 412 4923 403 4923 390C4923 332 4880 126 4840 -2L4850 -9C4865 -4 4881 -1 4904 4L4917 6L4943 126C4961 209 4984 262 5028 319C5062 363 5089 384 5111 384C5126 384 5136 379 5147 365ZM5664 722L5652 733C5600 707 5564 698 5492 691L5488 670L5536 670C5560 670 5570 663 5570 646C5570 638 5569 629 5568 622L5540 468C5510 477 5483 482 5458 482C5389 482 5295 410 5249 323C5218 265 5198 170 5198 86C5198 21 5213 -11 5242 -11C5269 -11 5306 6 5340 33C5394 77 5427 116 5494 217L5471 126C5460 82 5455 50 5455 24C5455 3 5464 -9 5481 -9C5498 -9 5522 3 5556 28L5637 88L5627 107L5583 76C5569 66 5553 59 5544 59C5536 59 5530 68 5530 82C5530 90 5531 99 5538 128ZM5295 59C5279 59 5270 73 5270 98C5270 224 5316 380 5365 418C5378 428 5397 433 5424 433C5468 433 5497 427 5530 410L5518 351C5481 171 5340 59 5295 59ZM5711 148C5706 97 5700 62 5689 16C5727 -2 5761 -11 5796 -11C5845 -11 5891 7 5942 47C5993 87 6014 124 6014 174C6014 228 5982 257 5908 271L5865 279C5805 290 5786 307 5786 348C5786 401 5831 442 5888 442C5929 442 5967 424 5983 397L5983 342L6006 342C6010 377 6014 404 6025 455C5986 474 5958 482 5925 482C5873 482 5812 452 5764 404C5738 377 5727 352 5727 316C5727 260 5758 228 5824 215L5887 203C5931 195 5947 177 5947 138C5947 73 5901 29 5830 29C5795 29 5764 40 5736 64L5736 148ZM6351 388L6358 368L6390 389C6427 412 6430 414 6437 414C6447 414 6455 404 6455 391C6455 384 6451 361 6447 347L6381 107C6373 76 6368 49 6368 30C6368 6 6379 -9 6398 -9C6424 -9 6460 12 6558 85L6548 103L6522 86C6493 67 6470 56 6461 56C6454 56 6448 66 6448 76C6448 86 6450 95 6455 116L6532 420C6536 437 6538 448 6538 456C6538 473 6529 482 6513 482C6491 482 6454 461 6379 408ZM6545 712C6516 712 6487 679 6487 645C6487 620 6502 604 6526 604C6557 604 6581 633 6581 671C6581 695 6566 712 6545 712ZM6939 437L6923 437L6944 549C6960 635 6988 673 7034 673C7064 673 7091 658 7106 634L7116 638C7121 654 7131 685 7139 705L7144 720C7128 727 7097 733 7074 733C7063 733 7047 730 7039 726C7015 715 6933 654 6910 630C6888 608 6876 578 6865 521L6850 442C6809 422 6789 414 6764 405L6759 383L6840 383L6831 327C6801 132 6764 -54 6742 -123C6724 -182 6694 -213 6658 -213C6635 -213 6624 -206 6606 -184L6592 -188C6588 -211 6574 -259 6569 -268C6578 -273 6593 -276 6604 -276C6645 -276 6699 -245 6738 -198C6809 -114 6829 -18 6913 383L7017 383C7021 402 7028 425 7034 439L7030 446C7001 439 7002 437 6939 437ZM7630 -16C7866 -16 7965 316 7969 504C7971 618 7939 702 7812 702C7552 702 7465 412 7462 199C7460 80 7494 -16 7630 -16ZM7794 676C7929 676 7899 491 7878 381L7562 381C7587 485 7665 676 7794 676ZM7646 13C7495 13 7540 261 7556 349L7872 349C7847 237 7789 13 7646 13Z" stroke="rgb(0, 0, 0)" stroke-width="8" fill="rgb(0, 0, 0)" style="transform:matrix(0.017,0,0,-0.017,0,0);"></path></g><g><g><g><g style="transform:matrix(1,0,0,1,340.734375,13.9);"><path d="M390 646L463 646C541 646 577 641 580 629C583 621 585 602 584 592L580 528L608 528L635 692L544 691C456 690 388 689 353 689C316 689 252 690 166 691L71 692L53 528L82 528L97 588C102 610 109 626 115 633C121 640 159 646 196 646L308 646L222 125C206 34 204 31 164 28L113 25L109 -3L166 -2C206 -1 235 0 251 0C270 0 301 -1 340 -2L384 -3L387 25L328 28C302 29 292 37 292 58C292 67 293 74 296 93Z" stroke="rgb(0, 0, 0)" stroke-width="8" fill="rgb(0, 0, 0)" style="transform:matrix(0.0119,0,0,-0.0119,0,0);"></path></g></g></g></g><g style="transform:matrix(1,0,0,1,348,19.984375);"><path d="M9 1C24 -7 40 -11 52 -11C85 -11 124 18 155 65L231 182L242 113C255 28 278 -11 314 -11C336 -11 368 6 400 35L449 79L440 98C404 68 379 53 363 53C348 53 335 63 325 83C316 102 305 139 300 168L282 269L317 318C364 383 391 406 422 406C438 406 450 398 455 383L469 387L484 472C472 479 463 482 454 482C414 482 374 446 312 354L275 299L269 347C257 446 230 482 171 482C145 482 123 474 114 461L56 378L73 368C103 402 123 416 142 416C175 416 197 375 214 277L225 215L185 153C142 86 108 54 80 54C65 54 54 58 52 63L41 91L21 88C21 53 13 27 9 1Z" stroke="rgb(0, 0, 0)" stroke-width="8" fill="rgb(0, 0, 0)" style="transform:matrix(0.017,0,0,-0.017,0,0);"></path></g><g style="transform:matrix(1,0,0,1,361,19.984375);"><path d="M604 0L604 59L166 264L604 469L604 528L65 273L65 252Z" stroke="rgb(0, 0, 0)" stroke-width="8" fill="rgb(0, 0, 0)" style="transform:matrix(0.017,0,0,-0.017,0,0);"></path></g><g style="transform:matrix(1,0,0,1,378,19.984375);"><path d="M263 689C108 689 29 566 29 324C29 207 50 106 85 57C120 8 176 -20 238 -20C389 -20 465 110 465 366C465 585 400 689 263 689ZM245 654C342 654 381 556 381 316C381 103 343 15 251 15C154 15 113 116 113 360C113 571 150 654 245 654Z" stroke="rgb(0, 0, 0)" stroke-width="8" fill="rgb(0, 0, 0)" style="transform:matrix(0.017,0,0,-0.017,0,0);"></path></g></g></g></svg>