<svg xmlns="http://www.w3.org/2000/svg" width="214.375" height="68.5625" style="width:214.375px;height:68.5625px;font-family:Asana-Math, Asana;background:transparent;"><g><g><g style="transform:matrix(1,0,0,1,2,42.578125);"><path d="M176 -11C232 -11 347 62 390 125C431 186 465 296 465 371C465 438 442 482 406 482C364 482 311 456 259 409C218 374 198 348 162 289L186 408C189 425 191 440 191 452C191 471 183 482 169 482C148 482 110 461 36 408L8 388L15 368L47 389C75 407 86 412 95 412C105 412 112 403 112 389C112 381 110 361 108 351L50 8C40 -52 21 -143 1 -233L-7 -270L0 -276C21 -269 41 -264 73 -259L115 3C136 -4 158 -11 176 -11ZM143 165C165 293 272 424 355 424C381 424 393 402 393 356C393 275 353 156 300 80C280 51 248 36 207 36C176 36 151 43 125 59Z" stroke="rgb(0, 0, 0)" stroke-width="8" fill="rgb(0, 0, 0)" style="transform:matrix(0.017,0,0,-0.017,0,0);"></path></g><g><svg x="10.46875" style="overflow:visible;" y="24.578125" height="24" width="8.5"><path d=" M 6.61 1.70 q 0.00 -0.08 -0.08 -0.08 q -0.03 0.00 -0.08 0.02 q -1.01 0.55 -1.75 1.30 t -1.37 1.87 t -0.95 2.78 t -0.33 3.79 v 0.62 h 1.68 v -0.62 q 0.00 -1.20 0.04 -2.08 t 0.22 -2.04 t 0.50 -2.03 t 0.91 -1.74 t 1.43 -1.49 q 0.12 -0.09 0.12 -0.29 z   M 0.90 12.00 v 0.00 h 1.68 v 0.00 z" style="fill:rgb(0, 0, 0);stroke-width:1px;stroke:none;"></path><path d=" M 6.61 22.30 q 0.00 0.08 -0.08 0.08 q -0.03 0.00 -0.08 -0.02 q -1.01 -0.55 -1.75 -1.30 t -1.37 -1.87 t -0.95 -2.78 t -0.33 -3.79 v -0.62 h 1.68 v 0.62 q 0.00 1.20 0.04 2.08 t 0.22 2.04 t 0.50 2.03 t 0.91 1.74 t 1.43 1.49 q 0.12 0.09 0.12 0.29 z" style="fill:rgb(0, 0, 0);stroke-width:1px;stroke:none;"></path></svg></g><g style="transform:matrix(1,0,0,1,17,42.578125);"><path d="M9 1C24 -7 40 -11 52 -11C85 -11 124 18 155 65L231 182L242 113C255 28 278 -11 314 -11C336 -11 368 6 400 35L449 79L440 98C404 68 379 53 363 53C348 53 335 63 325 83C316 102 305 139 300 168L282 269L317 318C364 383 391 406 422 406C438 406 450 398 455 383L469 387L484 472C472 479 463 482 454 482C414 482 374 446 312 354L275 299L269 347C257 446 230 482 171 482C145 482 123 474 114 461L56 378L73 368C103 402 123 416 142 416C175 416 197 375 214 277L225 215L185 153C142 86 108 54 80 54C65 54 54 58 52 63L41 91L21 88C21 53 13 27 9 1Z" stroke="rgb(0, 0, 0)" stroke-width="8" fill="rgb(0, 0, 0)" style="transform:matrix(0.017,0,0,-0.017,0,0);"></path></g><g style="transform:matrix(1,0,0,1,26,42.578125);"><path d="M204 125C177 116 159 110 106 95C99 19 74 -46 16 -142L30 -153L71 -134C152 -29 190 34 218 111ZM150 456C120 456 93 428 93 398C93 368 120 340 149 340C181 340 209 367 209 397C209 428 181 456 150 456Z" stroke="rgb(0, 0, 0)" stroke-width="8" fill="rgb(0, 0, 0)" style="transform:matrix(0.017,0,0,-0.017,0,0);"></path></g><g style="transform:matrix(1,0,0,1,33,42.578125);"><path d="M658 -15C707 -15 779 43 814 74L814 81C811 86 807 90 802 92C780 76 721 25 710 77C710 151 755 393 782 463L782 473C760 465 737 459 714 456L704 445C702 381 670 203 644 146C621 97 560 42 503 42C448 42 433 90 434 137C437 248 487 356 490 467C462 462 436 457 410 453C428 227 258 -91 302 -286C325 -285 358 -281 380 -273L380 -261C330 -173 370 -38 387 36L387 35C453 -77 593 37 644 104L644 101C636 65 603 -15 658 -15Z" stroke="rgb(0, 0, 0)" stroke-width="8" fill="rgb(0, 0, 0)" style="transform:matrix(0.017,0,0,-0.017,0,0);"></path></g><g style="transform:matrix(1,0,0,1,48,42.578125);"><path d="M204 123C177 114 159 108 106 93C99 17 74 -48 16 -144L30 -155L71 -136C152 -31 190 32 218 109Z" stroke="rgb(0, 0, 0)" stroke-width="8" fill="rgb(0, 0, 0)" style="transform:matrix(0.017,0,0,-0.017,0,0);"></path></g><g style="transform:matrix(1,0,0,1,55,42.578125);"><path d="M420 -15C580 -15 680 100 683 257C685 343 659 361 594 404L594 407C647 407 706 403 760 411C767 431 770 451 773 474C734 453 613 467 562 457C399 424 277 329 277 153C277 48 308 -15 420 -15ZM616 267C616 168 578 13 452 13C360 13 352 112 353 182C354 292 392 412 523 412C608 412 616 328 616 267Z" stroke="rgb(0, 0, 0)" stroke-width="8" fill="rgb(0, 0, 0)" style="transform:matrix(0.017,0,0,-0.017,0,0);"></path></g><g><g><g><g style="transform:matrix(1,0,0,1,68.390625,35.49375);"><path d="M16 23L16 -3C203 -3 203 0 239 0C275 0 275 -3 468 -3L468 82C353 77 307 81 122 77L304 270C401 373 431 428 431 503C431 618 353 689 226 689C154 689 105 669 56 619L39 483L68 483L81 529C97 587 133 612 200 612C286 612 341 558 341 473C341 398 299 324 186 204Z" stroke="rgb(0, 0, 0)" stroke-width="8" fill="rgb(0, 0, 0)" style="transform:matrix(0.0119,0,0,-0.0119,0,0);"></path></g></g></g></g><g><svg x="72.65625" style="overflow:visible;" y="24.578125" height="24" width="8.5"><path d=" M 1.69 1.70 q 0.00 -0.08 0.08 -0.08 q 0.03 0.00 0.08 0.02 q 1.01 0.55 1.75 1.30 t 1.37 1.87 t 0.95 2.78 t 0.33 3.79 v 0.62 h -1.68 v -0.62 q 0.00 -1.20 -0.04 -2.08 t -0.22 -2.04 t -0.50 -2.03 t -0.91 -1.74 t -1.43 -1.49 q -0.12 -0.09 -0.12 -0.29 z  M 7.40 12.00 v 0.00 h -1.68 v 0.00 z" style="fill:rgb(0, 0, 0);stroke-width:1px;stroke:none;"></path><path d=" M 1.69 22.30 q 0.00 0.08 0.08 0.08 q 0.03 0.00 0.08 -0.02 q 1.01 -0.55 1.75 -1.30 t 1.37 -1.87 t 0.95 -2.78 t 0.33 -3.79 v -0.62 h -1.68 v 0.62 q 0.00 1.20 -0.04 2.08 t -0.22 2.04 t -0.50 2.03 t -0.91 1.74 t -1.43 1.49 q -0.12 0.09 -0.12 0.29 z" style="fill:rgb(0, 0, 0);stroke-width:1px;stroke:none;"></path></svg></g><g style="transform:matrix(1,0,0,1,86,42.578125);"><path d="M604 347L604 406L65 406L65 347ZM604 134L604 193L65 193L65 134Z" stroke="rgb(0, 0, 0)" stroke-width="8" fill="rgb(0, 0, 0)" style="transform:matrix(0.017,0,0,-0.017,0,0);"></path></g><g><g><g><g style="transform:matrix(1,0,0,1,126.1875,30.578125);"><path d="M418 -3L418 27L366 30C311 33 301 44 301 96L301 700L60 598L67 548L217 614L217 96C217 44 206 33 152 30L96 27L96 -3C250 0 250 0 261 0C292 0 402 -3 418 -3Z" stroke="rgb(0, 0, 0)" stroke-width="8" fill="rgb(0, 0, 0)" style="transform:matrix(0.017,0,0,-0.017,0,0);"></path></g></g></g><g><g><g><g><g><g style="transform:matrix(1,0,0,1,121.1875,63.5625);"><path d="M16 23L16 -3C203 -3 203 0 239 0C275 0 275 -3 468 -3L468 82C353 77 307 81 122 77L304 270C401 373 431 428 431 503C431 618 353 689 226 689C154 689 105 669 56 619L39 483L68 483L81 529C97 587 133 612 200 612C286 612 341 558 341 473C341 398 299 324 186 204ZM1024 42C968 42 963 125 964 166C965 251 993 333 1036 405L1098 418C1101 435 1107 452 1112 467C958 461 799 463 644 466C579 467 565 389 546 340C545 332 558 331 562 328L562 332C605 395 629 405 704 405L727 405C687 266 660 129 597 -2L597 -12C617 -6 652 1 669 13C710 141 739 274 767 405L994 405C937 318 896 213 894 108C894 59 909 -15 970 -15C1011 -15 1067 25 1097 51L1097 66L1085 66L1085 67C1067 56 1047 42 1024 42ZM1323 -15C1483 -15 1583 100 1586 257C1588 343 1562 361 1497 404L1497 407C1550 407 1609 403 1663 411C1670 431 1673 451 1676 474C1637 453 1516 467 1465 457C1302 424 1180 329 1180 153C1180 48 1211 -15 1323 -15ZM1519 267C1519 168 1481 13 1355 13C1263 13 1255 112 1256 182C1257 292 1295 412 1426 412C1511 412 1519 328 1519 267Z" stroke="rgb(0, 0, 0)" stroke-width="8" fill="rgb(0, 0, 0)" style="transform:matrix(0.017,0,0,-0.017,0,0);"></path></g><g><g><g><g style="transform:matrix(1,0,0,1,150.140625,56.478125);"><path d="M16 23L16 -3C203 -3 203 0 239 0C275 0 275 -3 468 -3L468 82C353 77 307 81 122 77L304 270C401 373 431 428 431 503C431 618 353 689 226 689C154 689 105 669 56 619L39 483L68 483L81 529C97 587 133 612 200 612C286 612 341 558 341 473C341 398 299 324 186 204Z" stroke="rgb(0, 0, 0)" stroke-width="8" fill="rgb(0, 0, 0)" style="transform:matrix(0.0119,0,0,-0.0119,0,0);"></path></g></g></g></g></g></g><svg x="104.1875" style="overflow:visible;" y="42.578125" height="17" width="51.921875"><polygon points="0.35142118863049093,11.873522286821704 4.7881136950904395,9.50142926356589 9.621439964207795,19.75181685845729 16.363049095607234,0 51.921875,0 51.921875,1.0542635658914747 17.329457364341085,1.0542635658914747 9.180878552971576,24.17326388888889 3.0968992248062013,11.43424580103359 0.6369509043927648,12.356726421188629" style="fill:rgb(0, 0, 0);stroke-width:1px;stroke:none;"></polygon></svg></g></g></g><line style="fill:none;stroke-width:1px;stroke:rgb(0, 0, 0);" x1="104.1875" y1="38.328125" x2="156.109375" y2="38.328125"></line></g><g style="transform:matrix(1,0,0,1,158,42.578125);"><path d="M328 111L304 94C251 56 203 36 167 36C120 36 91 73 91 133C91 158 94 185 99 214C116 218 225 248 250 259C335 296 374 342 374 404C374 451 340 482 290 482C222 496 112 423 75 349C45 299 15 180 15 113C15 35 59 -11 131 -11C188 -11 244 17 336 92ZM113 274C130 343 150 386 179 412C197 428 228 440 252 440C281 440 300 420 300 388C300 344 265 297 213 272C185 258 149 247 104 237Z" stroke="rgb(0, 0, 0)" stroke-width="8" fill="rgb(0, 0, 0)" style="transform:matrix(0.017,0,0,-0.017,0,0);"></path></g><g><g><g><g style="transform:matrix(1,0,0,1,164.390625,24.196875);"><path d="M555 243L555 299L51 299L51 243Z" stroke="rgb(0, 0, 0)" stroke-width="8" fill="rgb(0, 0, 0)" style="transform:matrix(0.0119,0,0,-0.0119,0,0);"></path></g><g><g><g><g style="transform:matrix(1,0,0,1,173.15625,15.196875);"><path d="M146 266C146 526 243 632 301 700L282 726C225 675 60 542 60 266C60 159 85 58 133 -32C168 -99 200 -138 282 -215L301 -194C255 -137 146 -15 146 266Z" stroke="rgb(0, 0, 0)" stroke-width="8" fill="rgb(0, 0, 0)" style="transform:matrix(0.0119,0,0,-0.0119,0,0);"></path></g><g style="transform:matrix(1,0,0,1,176.765625,15.196875);"><path d="M9 1C24 -7 40 -11 52 -11C85 -11 124 18 155 65L231 182L242 113C255 28 278 -11 314 -11C336 -11 368 6 400 35L449 79L440 98C404 68 379 53 363 53C348 53 335 63 325 83C316 102 305 139 300 168L282 269L317 318C364 383 391 406 422 406C438 406 450 398 455 383L469 387L484 472C472 479 463 482 454 482C414 482 374 446 312 354L275 299L269 347C257 446 230 482 171 482C145 482 123 474 114 461L56 378L73 368C103 402 123 416 142 416C175 416 197 375 214 277L225 215L185 153C142 86 108 54 80 54C65 54 54 58 52 63L41 91L21 88C21 53 13 27 9 1Z" stroke="rgb(0, 0, 0)" stroke-width="8" fill="rgb(0, 0, 0)" style="transform:matrix(0.0119,0,0,-0.0119,0,0);"></path></g><g style="transform:matrix(1,0,0,1,184.765625,15.196875);"><path d="M555 243L555 299L51 299L51 243Z" stroke="rgb(0, 0, 0)" stroke-width="8" fill="rgb(0, 0, 0)" style="transform:matrix(0.0119,0,0,-0.0119,0,0);"></path></g><g style="transform:matrix(1,0,0,1,193.765625,15.196875);"><path d="M409 -15C458 -15 530 43 565 74L565 81C562 86 558 90 553 92C531 76 472 25 461 77C461 151 506 393 533 463L533 473C511 465 488 459 465 456L455 445C453 381 421 203 395 146C372 97 311 42 254 42C199 42 184 90 185 137C188 248 238 356 241 467C213 462 187 457 161 453C179 227 9 -91 53 -286C76 -285 109 -281 131 -273L131 -261C81 -173 121 -38 138 36L138 35C204 -77 344 37 395 104L395 101C387 65 354 -15 409 -15Z" stroke="rgb(0, 0, 0)" stroke-width="8" fill="rgb(0, 0, 0)" style="transform:matrix(0.0119,0,0,-0.0119,0,0);"></path></g><g style="transform:matrix(1,0,0,1,201.484375,15.196875);"><path d="M51 726L32 700C87 636 187 526 187 266C187 -10 83 -131 32 -194L51 -215C104 -165 273 -23 273 265C273 542 108 675 51 726Z" stroke="rgb(0, 0, 0)" stroke-width="8" fill="rgb(0, 0, 0)" style="transform:matrix(0.0119,0,0,-0.0119,0,0);"></path></g><g><g><g><g style="transform:matrix(1,0,0,1,205.4375,10.33);"><path d="M16 23L16 -3C203 -3 203 0 239 0C275 0 275 -3 468 -3L468 82C353 77 307 81 122 77L304 270C401 373 431 428 431 503C431 618 353 689 226 689C154 689 105 669 56 619L39 483L68 483L81 529C97 587 133 612 200 612C286 612 341 558 341 473C341 398 299 324 186 204Z" stroke="rgb(0, 0, 0)" stroke-width="8" fill="rgb(0, 0, 0)" style="transform:matrix(0.00833,0,0,-0.00833,0,0);"></path></g></g></g></g></g></g><g><g><g style="transform:matrix(1,0,0,1,182.765625,34.49375);"><path d="M16 23L16 -3C203 -3 203 0 239 0C275 0 275 -3 468 -3L468 82C353 77 307 81 122 77L304 270C401 373 431 428 431 503C431 618 353 689 226 689C154 689 105 669 56 619L39 483L68 483L81 529C97 587 133 612 200 612C286 612 341 558 341 473C341 398 299 324 186 204ZM670 -15C830 -15 930 100 933 257C935 343 909 361 844 404L844 407C897 407 956 403 1010 411C1017 431 1020 451 1023 474C984 453 863 467 812 457C649 424 527 329 527 153C527 48 558 -15 670 -15ZM866 267C866 168 828 13 702 13C610 13 602 112 603 182C604 292 642 412 773 412C858 412 866 328 866 267Z" stroke="rgb(0, 0, 0)" stroke-width="8" fill="rgb(0, 0, 0)" style="transform:matrix(0.0119,0,0,-0.0119,0,0);"></path></g><g><g><g><g style="transform:matrix(1,0,0,1,195.546875,29.626875);"><path d="M16 23L16 -3C203 -3 203 0 239 0C275 0 275 -3 468 -3L468 82C353 77 307 81 122 77L304 270C401 373 431 428 431 503C431 618 353 689 226 689C154 689 105 669 56 619L39 483L68 483L81 529C97 587 133 612 200 612C286 612 341 558 341 473C341 398 299 324 186 204Z" stroke="rgb(0, 0, 0)" stroke-width="8" fill="rgb(0, 0, 0)" style="transform:matrix(0.00833,0,0,-0.00833,0,0);"></path></g></g></g></g></g></g><line style="fill:none;stroke-width:1px;stroke:rgb(0, 0, 0);" x1="172.765625" y1="21.328125" x2="210.015625" y2="21.328125"></line></g></g></g></g></g></g></svg>