<svg xmlns="http://www.w3.org/2000/svg" width="125.546875" height="45" style="width:125.546875px;height:45px;font-family:Asana-Math, Asana;background:transparent;"><g><g><g style="transform:matrix(1,0,0,1,2,27);"><path d="M368 365C371 403 376 435 384 476C373 481 369 482 364 482C333 482 302 458 266 407C227 351 188 291 172 256L204 408C208 425 210 438 210 450C210 470 202 482 187 482C166 482 128 461 54 408L26 388L33 368L65 389C93 407 104 412 113 412C123 412 130 403 130 390C130 332 87 126 47 -2L57 -9C72 -4 88 -1 111 4L124 6L150 126C168 209 191 262 235 319C269 363 296 384 318 384C333 384 343 379 354 365ZM716 111L692 94C639 56 591 36 555 36C508 36 479 73 479 133C479 158 482 185 487 214C504 218 613 248 638 259C723 296 762 342 762 404C762 451 728 482 678 482C610 496 500 423 463 349C433 299 403 180 403 113C403 35 447 -11 519 -11C576 -11 632 17 724 92ZM501 274C518 343 538 386 567 412C585 428 616 440 640 440C669 440 688 420 688 388C688 344 653 297 601 272C573 258 537 247 492 237ZM1118 330L1141 330C1149 395 1156 432 1165 458C1141 473 1106 482 1069 482C1024 483 951 463 894 400C840 352 801 241 801 136C801 40 843 -11 923 -11C977 -11 1025 9 1080 54L1130 95L1122 115L1107 105C1035 57 997 40 962 40C906 40 877 80 877 159C877 267 912 371 961 409C982 425 1006 433 1037 433C1082 433 1118 414 1118 390ZM1453 204L1424 77C1420 60 1418 42 1418 26C1418 4 1427 -9 1442 -9C1465 -9 1506 17 1588 85L1581 106C1557 86 1528 59 1506 59C1497 59 1491 68 1491 82C1491 87 1491 90 1492 93L1584 472L1574 481L1541 463C1500 478 1483 482 1456 482C1428 482 1408 477 1381 464C1319 433 1286 403 1261 354C1217 265 1186 145 1186 67C1186 23 1201 -11 1220 -11C1257 -11 1337 41 1453 204ZM1501 414C1479 305 1460 253 1426 201C1369 117 1308 59 1276 59C1264 59 1258 72 1258 99C1258 163 1286 280 1321 360C1345 415 1368 433 1416 433C1439 433 1457 429 1501 414ZM1876 722L1864 733C1812 707 1776 698 1704 691L1700 670L1748 670C1772 670 1782 663 1782 648C1782 645 1782 640 1779 622C1768 567 1695 182 1680 132C1667 82 1661 52 1661 31C1661 6 1672 -9 1691 -9C1717 -9 1753 12 1851 85L1841 103L1815 86C1786 67 1764 56 1754 56C1747 56 1741 66 1741 76C1741 82 1742 89 1745 104ZM2153 722L2141 733C2089 707 2053 698 1981 691L1977 670L2025 670C2049 670 2059 663 2059 648C2059 645 2059 640 2056 622C2045 567 1972 182 1957 132C1944 82 1938 52 1938 31C1938 6 1949 -9 1968 -9C1994 -9 2030 12 2128 85L2118 103L2092 86C2063 67 2041 56 2031 56C2024 56 2018 66 2018 76C2018 82 2019 89 2022 104Z" stroke="rgb(0, 0, 0)" stroke-width="8" fill="rgb(0, 0, 0)" style="transform:matrix(0.017,0,0,-0.017,0,0);"></path></g><g style="transform:matrix(1,0,0,1,48,27);"><path d="M604 347L604 406L65 406L65 347ZM604 134L604 193L65 193L65 134Z" stroke="rgb(0, 0, 0)" stroke-width="8" fill="rgb(0, 0, 0)" style="transform:matrix(0.017,0,0,-0.017,0,0);"></path></g><g style="transform:matrix(1,0,0,1,65,27);"><path d="" stroke="rgb(0, 0, 0)" stroke-width="8" fill="rgb(0, 0, 0)" style="transform:matrix(0.017,0,0,-0.017,0,0);"></path></g><g><g><g><g style="transform:matrix(1,0,0,1,88.515625,15);"><path d="M125 390L69 107C68 99 56 61 56 31C56 6 67 -9 86 -9C121 -9 156 11 234 74L265 99L255 117L210 86C181 66 161 56 150 56C141 56 136 64 136 76C136 102 150 183 179 328L192 390L299 390L310 440C272 436 238 434 200 434C216 528 227 577 245 631L234 646C214 634 187 622 156 610L131 440C87 419 61 408 43 403L41 390ZM508 -11C564 -11 679 62 722 125C763 186 797 296 797 371C797 438 774 482 738 482C696 482 643 456 591 409C550 374 530 348 494 289L518 408C521 425 523 440 523 452C523 471 515 482 501 482C480 482 442 461 368 408L340 388L347 368L379 389C407 407 418 412 427 412C437 412 444 403 444 389C444 381 442 361 440 351L382 8C372 -52 353 -143 333 -233L325 -270L332 -276C353 -269 373 -264 405 -259L447 3C468 -4 490 -11 508 -11ZM475 165C497 293 604 424 687 424C713 424 725 402 725 356C725 275 685 156 632 80C612 51 580 36 539 36C508 36 483 43 457 59Z" stroke="rgb(0, 0, 0)" stroke-width="8" fill="rgb(0, 0, 0)" style="transform:matrix(0.017,0,0,-0.017,0,0);"></path></g></g></g><g><g><g style="transform:matrix(1,0,0,1,70.515625,40);"><path d="M125 390L69 107C68 99 56 61 56 31C56 6 67 -9 86 -9C121 -9 156 11 234 74L265 99L255 117L210 86C181 66 161 56 150 56C141 56 136 64 136 76C136 102 150 183 179 328L192 390L299 390L310 440C272 436 238 434 200 434C216 528 227 577 245 631L234 646C214 634 187 622 156 610L131 440C87 419 61 408 43 403L41 390ZM508 -11C564 -11 679 62 722 125C763 186 797 296 797 371C797 438 774 482 738 482C696 482 643 456 591 409C550 374 530 348 494 289L518 408C521 425 523 440 523 452C523 471 515 482 501 482C480 482 442 461 368 408L340 388L347 368L379 389C407 407 418 412 427 412C437 412 444 403 444 389C444 381 442 361 440 351L382 8C372 -52 353 -143 333 -233L325 -270L332 -276C353 -269 373 -264 405 -259L447 3C468 -4 490 -11 508 -11ZM475 165C497 293 604 424 687 424C713 424 725 402 725 356C725 275 685 156 632 80C612 51 580 36 539 36C508 36 483 43 457 59Z" stroke="rgb(0, 0, 0)" stroke-width="8" fill="rgb(0, 0, 0)" style="transform:matrix(0.017,0,0,-0.017,0,0);"></path></g><g style="transform:matrix(1,0,0,1,88.515625,40);"><path d="M604 241L604 300L364 300L364 538L305 538L305 300L65 300L65 241L305 241L305 0L364 0L364 241Z" stroke="rgb(0, 0, 0)" stroke-width="8" fill="rgb(0, 0, 0)" style="transform:matrix(0.017,0,0,-0.017,0,0);"></path></g><g style="transform:matrix(1,0,0,1,102.515625,40);"><path d="M345 437L329 437L350 549C366 635 394 673 440 673C470 673 497 658 512 634L522 638C527 654 537 685 545 705L550 720C534 727 503 733 480 733C469 733 453 730 445 726C421 715 339 654 316 630C294 608 282 578 271 521L256 442C215 422 195 414 170 405L165 383L246 383L237 327C207 132 170 -54 148 -123C130 -182 100 -213 64 -213C41 -213 30 -206 12 -184L-2 -188C-6 -211 -20 -259 -25 -268C-16 -273 -1 -276 10 -276C51 -276 105 -245 144 -198C215 -114 235 -18 319 383L423 383C427 402 434 425 440 439L436 446C407 439 408 437 345 437ZM574 388L581 368L613 389C650 412 653 414 660 414C671 414 678 404 678 389C678 338 637 145 596 2L603 -9C628 -2 651 4 673 8C692 134 713 199 759 268C813 352 888 414 933 414C944 414 950 405 950 390C950 372 947 351 939 319L887 107C878 70 874 47 874 31C874 6 885 -9 904 -9C930 -9 966 12 1064 85L1054 103L1028 86C999 67 977 56 967 56C960 56 954 65 954 76C954 81 955 92 956 96L1022 372C1029 401 1033 429 1033 446C1033 469 1022 482 1002 482C960 482 891 444 832 389C794 354 766 320 714 247L752 408C756 426 758 438 758 449C758 470 750 482 735 482C714 482 675 460 602 408Z" stroke="rgb(0, 0, 0)" stroke-width="8" fill="rgb(0, 0, 0)" style="transform:matrix(0.017,0,0,-0.017,0,0);"></path></g></g></g><line style="fill:none;stroke-width:1px;stroke:rgb(0, 0, 0);" x1="70.515625" y1="22.75" x2="121.59375" y2="22.75"></line></g></g></g></svg>