<svg xmlns="http://www.w3.org/2000/svg" width="154.015625" height="47.375" style="width:154.015625px;height:47.375px;font-family:Asana-Math, Asana;background:transparent;"><g><g><g><svg x="2.84375" style="overflow:visible;" y="3.6875" height="40" width="8.5"><path d=" M 9.03 1.70 q 0.00 -0.09 -0.12 -0.09 q -0.17 0.00 -0.51 0.17 q -2.26 1.21 -3.26 3.85 t -1.00 7.27 h 1.62 v -1.02 q 0.00 -1.24 0.03 -2.11 t 0.19 -2.13 t 0.43 -2.18 t 0.83 -1.82 t 1.32 -1.49 q 0.48 -0.34 0.48 -0.46 z   M 4.13 12.72 v 1.50 h 1.62 v -1.50 z  M 5.75 14.22 h -1.62 v 0.34 q 0.00 1.24 -0.34 2.27 t -0.80 1.60 t -0.97 0.96 t -0.81 0.53 t -0.35 0.14 v 0.03 q 0.05 0.00 0.35 0.14 t 0.81 0.54 t 0.97 0.99 t 0.80 1.62 t 0.34 2.27 v 0.34 h 1.62 v -0.34 q 0.00 -0.68 -0.14 -1.38 t -0.50 -1.50 t -1.08 -1.51 t -1.74 -1.15 q 1.02 -0.43 1.74 -1.13 t 1.08 -1.51 t 0.50 -1.51 t 0.14 -1.39 v -0.34 z  M 4.13 25.78 v 1.50 h 1.62 v -1.50 z" style="fill:rgb(0, 0, 0);stroke-width:1px;stroke:none;"></path><path d=" M 9.03 38.30 q 0.00 0.09 -0.12 0.09 q -0.17 0.00 -0.51 -0.17 q -2.26 -1.21 -3.26 -3.85 t -1.00 -7.27 h 1.62 v 1.02 q 0.00 1.24 0.03 2.11 t 0.19 2.13 t 0.43 2.18 t 0.83 1.82 t 1.32 1.49 q 0.48 0.34 0.48 0.46 z" style="fill:rgb(0, 0, 0);stroke-width:1px;stroke:none;"></path></svg></g><g style="transform:matrix(1,0,0,1,12,30.1875);"><path d="M342 330L365 330C373 395 380 432 389 458C365 473 330 482 293 482C248 483 175 463 118 400C64 352 25 241 25 136C25 40 67 -11 147 -11C201 -11 249 9 304 54L354 95L346 115L331 105C259 57 221 40 186 40C130 40 101 80 101 159C101 267 136 371 185 409C206 425 230 433 261 433C306 433 342 414 342 390Z" stroke="rgb(0, 0, 0)" stroke-width="8" fill="rgb(0, 0, 0)" style="transform:matrix(0.017,0,0,-0.017,0,0);"></path></g><g><g><g><g style="transform:matrix(1,0,0,1,19.078125,23.103125);"><path d="M146 266C146 526 243 632 301 700L282 726C225 675 60 542 60 266C60 159 85 58 133 -32C168 -99 200 -138 282 -215L301 -194C255 -137 146 -15 146 266Z" stroke="rgb(0, 0, 0)" stroke-width="8" fill="rgb(0, 0, 0)" style="transform:matrix(0.0119,0,0,-0.0119,0,0);"></path></g><g style="transform:matrix(1,0,0,1,23.078125,23.103125);"><path d="M418 -3L418 27L366 30C311 33 301 44 301 96L301 700L60 598L67 548L217 614L217 96C217 44 206 33 152 30L96 27L96 -3C250 0 250 0 261 0C292 0 402 -3 418 -3Z" stroke="rgb(0, 0, 0)" stroke-width="8" fill="rgb(0, 0, 0)" style="transform:matrix(0.0119,0,0,-0.0119,0,0);"></path></g><g style="transform:matrix(1,0,0,1,28.96875,23.103125);"><path d="M51 726L32 700C87 636 187 526 187 266C187 -10 83 -131 32 -194L51 -215C104 -165 273 -23 273 265C273 542 108 675 51 726Z" stroke="rgb(0, 0, 0)" stroke-width="8" fill="rgb(0, 0, 0)" style="transform:matrix(0.0119,0,0,-0.0119,0,0);"></path></g></g></g></g><g style="transform:matrix(1,0,0,1,33,30.1875);"><path d="M204 123C177 114 159 108 106 93C99 17 74 -48 16 -144L30 -155L71 -136C152 -31 190 32 218 109Z" stroke="rgb(0, 0, 0)" stroke-width="8" fill="rgb(0, 0, 0)" style="transform:matrix(0.017,0,0,-0.017,0,0);"></path></g><g style="transform:matrix(1,0,0,1,40,30.1875);"><path d="M591 330L614 330C622 395 629 432 638 458C614 473 579 482 542 482C497 483 424 463 367 400C313 352 274 241 274 136C274 40 316 -11 396 -11C450 -11 498 9 553 54L603 95L595 115L580 105C508 57 470 40 435 40C379 40 350 80 350 159C350 267 385 371 434 409C455 425 479 433 510 433C555 433 591 414 591 390Z" stroke="rgb(0, 0, 0)" stroke-width="8" fill="rgb(0, 0, 0)" style="transform:matrix(0.017,0,0,-0.017,0,0);"></path></g><g><g><g><g style="transform:matrix(1,0,0,1,51.28125,23.103125);"><path d="M146 266C146 526 243 632 301 700L282 726C225 675 60 542 60 266C60 159 85 58 133 -32C168 -99 200 -138 282 -215L301 -194C255 -137 146 -15 146 266Z" stroke="rgb(0, 0, 0)" stroke-width="8" fill="rgb(0, 0, 0)" style="transform:matrix(0.0119,0,0,-0.0119,0,0);"></path></g><g style="transform:matrix(1,0,0,1,55.28125,23.103125);"><path d="M16 23L16 -3C203 -3 203 0 239 0C275 0 275 -3 468 -3L468 82C353 77 307 81 122 77L304 270C401 373 431 428 431 503C431 618 353 689 226 689C154 689 105 669 56 619L39 483L68 483L81 529C97 587 133 612 200 612C286 612 341 558 341 473C341 398 299 324 186 204Z" stroke="rgb(0, 0, 0)" stroke-width="8" fill="rgb(0, 0, 0)" style="transform:matrix(0.0119,0,0,-0.0119,0,0);"></path></g><g style="transform:matrix(1,0,0,1,61.171875,23.103125);"><path d="M51 726L32 700C87 636 187 526 187 266C187 -10 83 -131 32 -194L51 -215C104 -165 273 -23 273 265C273 542 108 675 51 726Z" stroke="rgb(0, 0, 0)" stroke-width="8" fill="rgb(0, 0, 0)" style="transform:matrix(0.0119,0,0,-0.0119,0,0);"></path></g></g></g></g><g style="transform:matrix(1,0,0,1,65,30.1875);"><path d="M204 123C177 114 159 108 106 93C99 17 74 -48 16 -144L30 -155L71 -136C152 -31 190 32 218 109Z" stroke="rgb(0, 0, 0)" stroke-width="8" fill="rgb(0, 0, 0)" style="transform:matrix(0.017,0,0,-0.017,0,0);"></path></g><g style="transform:matrix(1,0,0,1,72,30.1875);"><path d="" stroke="rgb(0, 0, 0)" stroke-width="8" fill="rgb(0, 0, 0)" style="transform:matrix(0.017,0,0,-0.017,0,0);"></path></g><g style="transform:matrix(1,0,0,1,80,30.1875);"><path d="M499 116C469 116 442 88 442 58C442 28 469 0 498 0C530 0 558 27 558 58C558 88 530 116 499 116ZM166 116C136 116 109 88 109 58C109 28 136 0 165 0C197 0 225 27 225 58C225 88 197 116 166 116ZM832 116C802 116 775 88 775 58C775 28 802 0 831 0C863 0 891 27 891 58C891 88 863 116 832 116Z" stroke="rgb(0, 0, 0)" stroke-width="8" fill="rgb(0, 0, 0)" style="transform:matrix(0.017,0,0,-0.017,0,0);"></path></g><g style="transform:matrix(1,0,0,1,100,30.1875);"><path d="M204 123C177 114 159 108 106 93C99 17 74 -48 16 -144L30 -155L71 -136C152 -31 190 32 218 109Z" stroke="rgb(0, 0, 0)" stroke-width="8" fill="rgb(0, 0, 0)" style="transform:matrix(0.017,0,0,-0.017,0,0);"></path></g><g style="transform:matrix(1,0,0,1,107,30.1875);"><path d="M591 330L614 330C622 395 629 432 638 458C614 473 579 482 542 482C497 483 424 463 367 400C313 352 274 241 274 136C274 40 316 -11 396 -11C450 -11 498 9 553 54L603 95L595 115L580 105C508 57 470 40 435 40C379 40 350 80 350 159C350 267 385 371 434 409C455 425 479 433 510 433C555 433 591 414 591 390Z" stroke="rgb(0, 0, 0)" stroke-width="8" fill="rgb(0, 0, 0)" style="transform:matrix(0.017,0,0,-0.017,0,0);"></path></g><g><g><g><g style="transform:matrix(1,0,0,1,117.921875,23.103125);"><path d="M146 266C146 526 243 632 301 700L282 726C225 675 60 542 60 266C60 159 85 58 133 -32C168 -99 200 -138 282 -215L301 -194C255 -137 146 -15 146 266Z" stroke="rgb(0, 0, 0)" stroke-width="8" fill="rgb(0, 0, 0)" style="transform:matrix(0.0119,0,0,-0.0119,0,0);"></path></g><g style="transform:matrix(1,0,0,1,121.921875,23.103125);"><path d="M371 664L374 692L350 692L260 689C244 689 226 689 183 690L119 692L116 664L163 662C187 661 198 653 198 635C198 621 195 592 189 559L116 125C99 33 98 32 58 28L17 25L13 -3L55 -2C103 -1 126 0 145 0L242 -3L268 -3L271 25L222 28C195 30 186 37 186 57C186 63 187 74 188 78L231 340C381 169 404 140 509 -3L578 0C614 -1 620 -2 646 -3L646 27L626 27C603 27 583 39 562 65L316 367L608 640C624 655 645 665 662 665L683 665L683 692L660 691C639 690 623 689 615 689C605 689 589 690 568 691L548 692L548 663C548 655 538 642 510 614C466 569 297 403 233 353L278 613C285 651 292 658 329 661Z" stroke="rgb(0, 0, 0)" stroke-width="8" fill="rgb(0, 0, 0)" style="transform:matrix(0.0119,0,0,-0.0119,0,0);"></path></g><g style="transform:matrix(1,0,0,1,129.796875,23.103125);"><path d="M51 726L32 700C87 636 187 526 187 266C187 -10 83 -131 32 -194L51 -215C104 -165 273 -23 273 265C273 542 108 675 51 726Z" stroke="rgb(0, 0, 0)" stroke-width="8" fill="rgb(0, 0, 0)" style="transform:matrix(0.0119,0,0,-0.0119,0,0);"></path></g></g></g></g><g><g><g></g></g></g><g><svg x="140.546875" style="overflow:visible;" y="3.6875" height="40" width="8.5"><path d=" M -0.53 1.70 q 0.00 -0.09 0.12 -0.09 q 0.17 0.00 0.51 0.17 q 2.26 1.21 3.26 3.85 t 1.00 7.27 h -1.62 v -1.02 q 0.00 -1.24 -0.03 -2.11 t -0.19 -2.13 t -0.43 -2.18 t -0.83 -1.82 t -1.32 -1.49 q -0.48 -0.34 -0.48 -0.46 z   M 4.37 12.72 v 1.50 h -1.62 v -1.50 z  M 2.75 14.22 h 1.62 v 0.34 q 0.00 1.24 0.34 2.27 t 0.80 1.60 t 0.97 0.96 t 0.81 0.53 t 0.35 0.14 v 0.03 q -0.05 0.00 -0.35 0.14 t -0.81 0.54 t -0.97 0.99 t -0.80 1.62 t -0.34 2.27 v 0.34 h -1.62 v -0.34 q 0.00 -0.68 0.14 -1.38 t 0.50 -1.50 t 1.08 -1.51 t 1.74 -1.15 q -1.02 -0.43 -1.74 -1.13 t -1.08 -1.51 t -0.50 -1.51 t -0.14 -1.39 v -0.34 z  M 4.37 25.78 v 1.50 h -1.62 v -1.50 z" style="fill:rgb(0, 0, 0);stroke-width:1px;stroke:none;"></path><path d=" M -0.53 38.30 q 0.00 0.09 0.12 0.09 q 0.17 0.00 0.51 -0.17 q 2.26 -1.21 3.26 -3.85 t 1.00 -7.27 h -1.62 v 1.02 q 0.00 1.24 -0.03 2.11 t -0.19 2.13 t -0.43 2.18 t -0.83 1.82 t -1.32 1.49 q -0.48 0.34 -0.48 0.46 z" style="fill:rgb(0, 0, 0);stroke-width:1px;stroke:none;"></path></svg></g></g></g></svg>