<svg xmlns="http://www.w3.org/2000/svg" width="149.890625" height="33.375" style="width:149.890625px;height:33.375px;font-family:Asana-Math, Asana;background:transparent;"><g><g><g><svg x="2.84375" style="overflow:visible;" y="3.6875" height="26" width="8.5"><path d=" M 8.21 1.70 q 0.00 -0.06 -0.11 -0.06 q -0.15 0.00 -0.46 0.11 q -2.06 0.81 -2.97 2.59 t -0.91 4.89 h 1.47 v -0.69 q 0.00 -0.83 0.03 -1.42 t 0.17 -1.44 t 0.39 -1.46 t 0.76 -1.22 t 1.20 -1.00 q 0.43 -0.23 0.43 -0.31 z   M 3.76 9.11 v 0.00 h 1.47 v 0.00 z  M 5.22 9.11 h -1.47 v 0.23 q 0.00 0.83 -0.31 1.53 t -0.73 1.08 t -0.88 0.65 t -0.73 0.35 t -0.32 0.09 v 0.02 q 0.05 0.00 0.32 0.10 t 0.73 0.37 t 0.88 0.66 t 0.73 1.09 t 0.31 1.53 v 0.23 h 1.47 v -0.23 q 0.00 -0.46 -0.13 -0.93 t -0.46 -1.01 t -0.98 -1.02 t -1.58 -0.77 q 0.93 -0.29 1.58 -0.76 t 0.98 -1.02 t 0.46 -1.02 t 0.13 -0.93 v -0.23 z  M 3.76 16.89 v 0.00 h 1.47 v 0.00 z" style="fill:rgb(0, 0, 0);stroke-width:1px;stroke:none;"></path><path d=" M 8.21 24.30 q 0.00 0.06 -0.11 0.06 q -0.15 0.00 -0.46 -0.11 q -2.06 -0.81 -2.97 -2.59 t -0.91 -4.89 h 1.47 v 0.69 q 0.00 0.83 0.03 1.42 t 0.17 1.44 t 0.39 1.46 t 0.76 1.22 t 1.20 1.00 q 0.43 0.23 0.43 0.31 z" style="fill:rgb(0, 0, 0);stroke-width:1px;stroke:none;"></path></svg></g><g style="transform:matrix(1,0,0,1,12,23.1875);"><path d="M9 1C24 -7 40 -11 52 -11C85 -11 124 18 155 65L231 182L242 113C255 28 278 -11 314 -11C336 -11 368 6 400 35L449 79L440 98C404 68 379 53 363 53C348 53 335 63 325 83C316 102 305 139 300 168L282 269L317 318C364 383 391 406 422 406C438 406 450 398 455 383L469 387L484 472C472 479 463 482 454 482C414 482 374 446 312 354L275 299L269 347C257 446 230 482 171 482C145 482 123 474 114 461L56 378L73 368C103 402 123 416 142 416C175 416 197 375 214 277L225 215L185 153C142 86 108 54 80 54C65 54 54 58 52 63L41 91L21 88C21 53 13 27 9 1Z" stroke="rgb(0, 0, 0)" stroke-width="8" fill="rgb(0, 0, 0)" style="transform:matrix(0.017,0,0,-0.017,0,0);"></path></g><g><g><g><g style="transform:matrix(1,0,0,1,20.65625,16.103125);"><path d="M146 266C146 526 243 632 301 700L282 726C225 675 60 542 60 266C60 159 85 58 133 -32C168 -99 200 -138 282 -215L301 -194C255 -137 146 -15 146 266Z" stroke="rgb(0, 0, 0)" stroke-width="8" fill="rgb(0, 0, 0)" style="transform:matrix(0.0119,0,0,-0.0119,0,0);"></path></g><g style="transform:matrix(1,0,0,1,24.65625,16.103125);"><path d="M418 -3L418 27L366 30C311 33 301 44 301 96L301 700L60 598L67 548L217 614L217 96C217 44 206 33 152 30L96 27L96 -3C250 0 250 0 261 0C292 0 402 -3 418 -3Z" stroke="rgb(0, 0, 0)" stroke-width="8" fill="rgb(0, 0, 0)" style="transform:matrix(0.0119,0,0,-0.0119,0,0);"></path></g><g style="transform:matrix(1,0,0,1,30.546875,16.103125);"><path d="M51 726L32 700C87 636 187 526 187 266C187 -10 83 -131 32 -194L51 -215C104 -165 273 -23 273 265C273 542 108 675 51 726Z" stroke="rgb(0, 0, 0)" stroke-width="8" fill="rgb(0, 0, 0)" style="transform:matrix(0.0119,0,0,-0.0119,0,0);"></path></g></g></g></g><g style="transform:matrix(1,0,0,1,35,23.1875);"><path d="M204 123C177 114 159 108 106 93C99 17 74 -48 16 -144L30 -155L71 -136C152 -31 190 32 218 109Z" stroke="rgb(0, 0, 0)" stroke-width="8" fill="rgb(0, 0, 0)" style="transform:matrix(0.017,0,0,-0.017,0,0);"></path></g><g style="transform:matrix(1,0,0,1,42,23.1875);"><path d="M258 1C273 -7 289 -11 301 -11C334 -11 373 18 404 65L480 182L491 113C504 28 527 -11 563 -11C585 -11 617 6 649 35L698 79L689 98C653 68 628 53 612 53C597 53 584 63 574 83C565 102 554 139 549 168L531 269L566 318C613 383 640 406 671 406C687 406 699 398 704 383L718 387L733 472C721 479 712 482 703 482C663 482 623 446 561 354L524 299L518 347C506 446 479 482 420 482C394 482 372 474 363 461L305 378L322 368C352 402 372 416 391 416C424 416 446 375 463 277L474 215L434 153C391 86 357 54 329 54C314 54 303 58 301 63L290 91L270 88C270 53 262 27 258 1Z" stroke="rgb(0, 0, 0)" stroke-width="8" fill="rgb(0, 0, 0)" style="transform:matrix(0.017,0,0,-0.017,0,0);"></path></g><g><g><g><g style="transform:matrix(1,0,0,1,54.4375,16.103125);"><path d="M146 266C146 526 243 632 301 700L282 726C225 675 60 542 60 266C60 159 85 58 133 -32C168 -99 200 -138 282 -215L301 -194C255 -137 146 -15 146 266Z" stroke="rgb(0, 0, 0)" stroke-width="8" fill="rgb(0, 0, 0)" style="transform:matrix(0.0119,0,0,-0.0119,0,0);"></path></g><g style="transform:matrix(1,0,0,1,58.4375,16.103125);"><path d="M16 23L16 -3C203 -3 203 0 239 0C275 0 275 -3 468 -3L468 82C353 77 307 81 122 77L304 270C401 373 431 428 431 503C431 618 353 689 226 689C154 689 105 669 56 619L39 483L68 483L81 529C97 587 133 612 200 612C286 612 341 558 341 473C341 398 299 324 186 204Z" stroke="rgb(0, 0, 0)" stroke-width="8" fill="rgb(0, 0, 0)" style="transform:matrix(0.0119,0,0,-0.0119,0,0);"></path></g><g style="transform:matrix(1,0,0,1,64.328125,16.103125);"><path d="M51 726L32 700C87 636 187 526 187 266C187 -10 83 -131 32 -194L51 -215C104 -165 273 -23 273 265C273 542 108 675 51 726Z" stroke="rgb(0, 0, 0)" stroke-width="8" fill="rgb(0, 0, 0)" style="transform:matrix(0.0119,0,0,-0.0119,0,0);"></path></g></g></g></g><g style="transform:matrix(1,0,0,1,68,23.1875);"><path d="M204 123C177 114 159 108 106 93C99 17 74 -48 16 -144L30 -155L71 -136C152 -31 190 32 218 109Z" stroke="rgb(0, 0, 0)" stroke-width="8" fill="rgb(0, 0, 0)" style="transform:matrix(0.017,0,0,-0.017,0,0);"></path></g><g style="transform:matrix(1,0,0,1,79,23.1875);"><path d="M499 116C469 116 442 88 442 58C442 28 469 0 498 0C530 0 558 27 558 58C558 88 530 116 499 116ZM166 116C136 116 109 88 109 58C109 28 136 0 165 0C197 0 225 27 225 58C225 88 197 116 166 116ZM832 116C802 116 775 88 775 58C775 28 802 0 831 0C863 0 891 27 891 58C891 88 863 116 832 116Z" stroke="rgb(0, 0, 0)" stroke-width="8" fill="rgb(0, 0, 0)" style="transform:matrix(0.017,0,0,-0.017,0,0);"></path></g><g style="transform:matrix(1,0,0,1,99,23.1875);"><path d="M204 123C177 114 159 108 106 93C99 17 74 -48 16 -144L30 -155L71 -136C152 -31 190 32 218 109Z" stroke="rgb(0, 0, 0)" stroke-width="8" fill="rgb(0, 0, 0)" style="transform:matrix(0.017,0,0,-0.017,0,0);"></path></g><g style="transform:matrix(1,0,0,1,106,23.1875);"><path d="M258 1C273 -7 289 -11 301 -11C334 -11 373 18 404 65L480 182L491 113C504 28 527 -11 563 -11C585 -11 617 6 649 35L698 79L689 98C653 68 628 53 612 53C597 53 584 63 574 83C565 102 554 139 549 168L531 269L566 318C613 383 640 406 671 406C687 406 699 398 704 383L718 387L733 472C721 479 712 482 703 482C663 482 623 446 561 354L524 299L518 347C506 446 479 482 420 482C394 482 372 474 363 461L305 378L322 368C352 402 372 416 391 416C424 416 446 375 463 277L474 215L434 153C391 86 357 54 329 54C314 54 303 58 301 63L290 91L270 88C270 53 262 27 258 1Z" stroke="rgb(0, 0, 0)" stroke-width="8" fill="rgb(0, 0, 0)" style="transform:matrix(0.017,0,0,-0.017,0,0);"></path></g><g><g><g><g style="transform:matrix(1,0,0,1,118.4375,16.103125);"><path d="M146 266C146 526 243 632 301 700L282 726C225 675 60 542 60 266C60 159 85 58 133 -32C168 -99 200 -138 282 -215L301 -194C255 -137 146 -15 146 266Z" stroke="rgb(0, 0, 0)" stroke-width="8" fill="rgb(0, 0, 0)" style="transform:matrix(0.0119,0,0,-0.0119,0,0);"></path></g><g style="transform:matrix(1,0,0,1,122.4375,16.103125);"><path d="M730 103L704 86C675 67 653 56 643 56C636 56 630 65 630 76C630 86 632 95 637 116L712 413C716 430 719 446 719 454C719 471 709 482 693 482C664 482 626 464 565 421C502 376 467 341 418 272L448 409C452 429 455 444 455 451C455 470 445 482 429 482C399 482 353 460 298 418C254 384 234 363 169 275L202 408C206 424 208 439 208 451C208 470 199 482 185 482C164 482 126 461 52 408L24 388L31 368C68 391 103 414 110 414C121 414 128 404 128 389C128 338 87 145 46 2L49 -9L117 6L139 108C163 219 190 278 245 338C287 384 332 414 360 414C367 414 371 406 371 393C371 358 349 244 308 69L292 2L297 -9L366 6L387 113C403 194 437 269 481 318C536 379 586 414 618 414C626 414 631 405 631 389C631 365 628 351 606 264C566 105 550 84 550 31C550 6 561 -9 580 -9C606 -9 642 12 740 85Z" stroke="rgb(0, 0, 0)" stroke-width="8" fill="rgb(0, 0, 0)" style="transform:matrix(0.0119,0,0,-0.0119,0,0);"></path></g><g style="transform:matrix(1,0,0,1,131.625,16.103125);"><path d="M51 726L32 700C87 636 187 526 187 266C187 -10 83 -131 32 -194L51 -215C104 -165 273 -23 273 265C273 542 108 675 51 726Z" stroke="rgb(0, 0, 0)" stroke-width="8" fill="rgb(0, 0, 0)" style="transform:matrix(0.0119,0,0,-0.0119,0,0);"></path></g></g></g></g><g><svg x="136.4375" style="overflow:visible;" y="3.6875" height="26" width="8.5"><path d=" M 0.29 1.70 q 0.00 -0.06 0.11 -0.06 q 0.15 0.00 0.46 0.11 q 2.06 0.81 2.97 2.59 t 0.91 4.89 h -1.47 v -0.69 q 0.00 -0.83 -0.03 -1.42 t -0.17 -1.44 t -0.39 -1.46 t -0.76 -1.22 t -1.20 -1.00 q -0.43 -0.23 -0.43 -0.31 z   M 4.74 9.11 v 0.00 h -1.47 v 0.00 z  M 3.28 9.11 h 1.47 v 0.23 q 0.00 0.83 0.31 1.53 t 0.73 1.08 t 0.88 0.65 t 0.73 0.35 t 0.32 0.09 v 0.02 q -0.05 0.00 -0.32 0.10 t -0.73 0.37 t -0.88 0.66 t -0.73 1.09 t -0.31 1.53 v 0.23 h -1.47 v -0.23 q 0.00 -0.46 0.13 -0.93 t 0.46 -1.01 t 0.98 -1.02 t 1.58 -0.77 q -0.93 -0.29 -1.58 -0.76 t -0.98 -1.02 t -0.46 -1.02 t -0.13 -0.93 v -0.23 z  M 4.74 16.89 v 0.00 h -1.47 v 0.00 z" style="fill:rgb(0, 0, 0);stroke-width:1px;stroke:none;"></path><path d=" M 0.29 24.30 q 0.00 0.06 0.11 0.06 q 0.15 0.00 0.46 -0.11 q 2.06 -0.81 2.97 -2.59 t 0.91 -4.89 h -1.47 v 0.69 q 0.00 0.83 -0.03 1.42 t -0.17 1.44 t -0.39 1.46 t -0.76 1.22 t -1.20 1.00 q -0.43 0.23 -0.43 0.31 z" style="fill:rgb(0, 0, 0);stroke-width:1px;stroke:none;"></path></svg></g></g></g></svg>