<svg xmlns="http://www.w3.org/2000/svg" width="175.625" height="31.46875" style="width:175.625px;height:31.46875px;font-family:Asana-Math, Asana;background:transparent;"><g><g><g style="transform:matrix(1,0,0,1,2,20.984375);"><path d="M271 204L242 77C238 60 236 42 236 26C236 4 245 -9 260 -9C283 -9 324 17 406 85L399 106C375 86 346 59 324 59C315 59 309 68 309 82C309 87 309 90 310 93L402 472L392 481L359 463C318 478 301 482 274 482C246 482 226 477 199 464C137 433 104 403 79 354C35 265 4 145 4 67C4 23 19 -11 38 -11C75 -11 155 41 271 204ZM319 414C297 305 278 253 244 201C187 117 126 59 94 59C82 59 76 72 76 99C76 163 104 280 139 360C163 415 186 433 234 433C257 433 275 429 319 414Z" stroke="rgb(0, 0, 0)" stroke-width="8" fill="rgb(0, 0, 0)" style="transform:matrix(0.017,0,0,-0.017,0,0);"></path></g><g><g><g><g style="transform:matrix(1,0,0,1,9.515625,13.9);"><path d="M146 266C146 526 243 632 301 700L282 726C225 675 60 542 60 266C60 159 85 58 133 -32C168 -99 200 -138 282 -215L301 -194C255 -137 146 -15 146 266Z" stroke="rgb(0, 0, 0)" stroke-width="8" fill="rgb(0, 0, 0)" style="transform:matrix(0.0119,0,0,-0.0119,0,0);"></path></g><g style="transform:matrix(1,0,0,1,13.515625,13.9);"><path d="M16 23L16 -3C203 -3 203 0 239 0C275 0 275 -3 468 -3L468 82C353 77 307 81 122 77L304 270C401 373 431 428 431 503C431 618 353 689 226 689C154 689 105 669 56 619L39 483L68 483L81 529C97 587 133 612 200 612C286 612 341 558 341 473C341 398 299 324 186 204Z" stroke="rgb(0, 0, 0)" stroke-width="8" fill="rgb(0, 0, 0)" style="transform:matrix(0.0119,0,0,-0.0119,0,0);"></path></g><g style="transform:matrix(1,0,0,1,19.40625,13.9);"><path d="M51 726L32 700C87 636 187 526 187 266C187 -10 83 -131 32 -194L51 -215C104 -165 273 -23 273 265C273 542 108 675 51 726Z" stroke="rgb(0, 0, 0)" stroke-width="8" fill="rgb(0, 0, 0)" style="transform:matrix(0.0119,0,0,-0.0119,0,0);"></path></g></g></g><g><g><g style="transform:matrix(1,0,0,1,9.515625,26.36875);"><path d="M263 689C108 689 29 566 29 324C29 207 50 106 85 57C120 8 176 -20 238 -20C389 -20 465 110 465 366C465 585 400 689 263 689ZM245 654C342 654 381 556 381 316C381 103 343 15 251 15C154 15 113 116 113 360C113 571 150 654 245 654Z" stroke="rgb(0, 0, 0)" stroke-width="8" fill="rgb(0, 0, 0)" style="transform:matrix(0.0119,0,0,-0.0119,0,0);"></path></g></g></g></g><g style="transform:matrix(1,0,0,1,28,20.984375);"><path d="M604 347L604 406L65 406L65 347ZM604 134L604 193L65 193L65 134Z" stroke="rgb(0, 0, 0)" stroke-width="8" fill="rgb(0, 0, 0)" style="transform:matrix(0.017,0,0,-0.017,0,0);"></path></g><g style="transform:matrix(1,0,0,1,45,20.984375);"><path d="M418 -3L418 27L366 30C311 33 301 44 301 96L301 700L60 598L67 548L217 614L217 96C217 44 206 33 152 30L96 27L96 -3C250 0 250 0 261 0C292 0 402 -3 418 -3Z" stroke="rgb(0, 0, 0)" stroke-width="8" fill="rgb(0, 0, 0)" style="transform:matrix(0.017,0,0,-0.017,0,0);"></path></g><g style="transform:matrix(1,0,0,1,53,20.984375);"><path d="M204 123C177 114 159 108 106 93C99 17 74 -48 16 -144L30 -155L71 -136C152 -31 190 32 218 109Z" stroke="rgb(0, 0, 0)" stroke-width="8" fill="rgb(0, 0, 0)" style="transform:matrix(0.017,0,0,-0.017,0,0);"></path></g><g style="transform:matrix(1,0,0,1,60,20.984375);"><path d="M280 148C275 97 269 62 258 16C296 -2 330 -11 365 -11C414 -11 460 7 511 47C562 87 583 124 583 174C583 228 551 257 477 271L434 279C374 290 355 307 355 348C355 401 400 442 457 442C498 442 536 424 552 397L552 342L575 342C579 377 583 404 594 455C555 474 527 482 494 482C442 482 381 452 333 404C307 377 296 352 296 316C296 260 327 228 393 215L456 203C500 195 516 177 516 138C516 73 470 29 399 29C364 29 333 40 305 64L305 148ZM654 152C654 46 699 -11 782 -11C837 -11 897 15 942 57C1004 116 1048 230 1048 331C1048 425 998 482 915 482C811 482 654 382 654 152ZM878 444C939 444 972 399 972 315C972 219 941 113 897 60C879 39 853 27 822 27C764 27 730 72 730 151C730 264 769 387 818 427C831 438 854 444 878 444ZM1454 390L1398 107C1397 99 1385 61 1385 31C1385 6 1396 -9 1415 -9C1450 -9 1485 11 1563 74L1594 99L1584 117L1539 86C1510 66 1490 56 1479 56C1470 56 1465 64 1465 76C1465 102 1479 183 1508 328L1521 390L1628 390L1639 440C1601 436 1567 434 1529 434C1545 528 1556 577 1574 631L1563 646C1543 634 1516 622 1485 610L1460 440C1416 419 1390 408 1372 403L1370 390ZM1897 722L1885 733C1840 711 1799 697 1725 691L1721 670L1769 670C1787 670 1803 667 1803 647C1803 641 1803 632 1801 622L1759 388C1739 272 1697 80 1671 2L1678 -9L1747 7C1755 64 1769 164 1809 236C1854 317 1957 414 1999 414C2010 414 2021 407 2021 393C2021 375 2016 342 2006 303L1955 107C1949 85 1942 55 1942 31C1942 6 1952 -9 1973 -9C2005 -9 2073 41 2132 85L2122 103L2096 86C2073 71 2047 56 2035 56C2028 56 2022 65 2022 76C2022 88 2025 101 2029 116L2093 372C2099 398 2104 423 2104 447C2104 464 2098 482 2072 482C2037 482 1960 437 1892 374C1859 343 1833 308 1805 273L1801 275ZM2431 204L2402 77C2398 60 2396 42 2396 26C2396 4 2405 -9 2420 -9C2443 -9 2484 17 2566 85L2559 106C2535 86 2506 59 2484 59C2475 59 2469 68 2469 82C2469 87 2469 90 2470 93L2562 472L2552 481L2519 463C2478 478 2461 482 2434 482C2406 482 2386 477 2359 464C2297 433 2264 403 2239 354C2195 265 2164 145 2164 67C2164 23 2179 -11 2198 -11C2235 -11 2315 41 2431 204ZM2479 414C2457 305 2438 253 2404 201C2347 117 2286 59 2254 59C2242 59 2236 72 2236 99C2236 163 2264 280 2299 360C2323 415 2346 433 2394 433C2417 433 2435 429 2479 414ZM2728 390L2672 107C2671 99 2659 61 2659 31C2659 6 2670 -9 2689 -9C2724 -9 2759 11 2837 74L2868 99L2858 117L2813 86C2784 66 2764 56 2753 56C2744 56 2739 64 2739 76C2739 102 2753 183 2782 328L2795 390L2902 390L2913 440C2875 436 2841 434 2803 434C2819 528 2830 577 2848 631L2837 646C2817 634 2790 622 2759 610L2734 440C2690 419 2664 408 2646 403L2644 390ZM3455 204L3426 77C3422 60 3420 42 3420 26C3420 4 3429 -9 3444 -9C3467 -9 3508 17 3590 85L3583 106C3559 86 3530 59 3508 59C3499 59 3493 68 3493 82C3493 87 3493 90 3494 93L3586 472L3576 481L3543 463C3502 478 3485 482 3458 482C3430 482 3410 477 3383 464C3321 433 3288 403 3263 354C3219 265 3188 145 3188 67C3188 23 3203 -11 3222 -11C3259 -11 3339 41 3455 204ZM3503 414C3481 305 3462 253 3428 201C3371 117 3310 59 3278 59C3266 59 3260 72 3260 99C3260 163 3288 280 3323 360C3347 415 3370 433 3418 433C3441 433 3459 429 3503 414Z" stroke="rgb(0, 0, 0)" stroke-width="8" fill="rgb(0, 0, 0)" style="transform:matrix(0.017,0,0,-0.017,0,0);"></path></g><g><g><g><g style="transform:matrix(1,0,0,1,122.0625,13.9);"><path d="M146 266C146 526 243 632 301 700L282 726C225 675 60 542 60 266C60 159 85 58 133 -32C168 -99 200 -138 282 -215L301 -194C255 -137 146 -15 146 266Z" stroke="rgb(0, 0, 0)" stroke-width="8" fill="rgb(0, 0, 0)" style="transform:matrix(0.0119,0,0,-0.0119,0,0);"></path></g><g style="transform:matrix(1,0,0,1,126.0625,13.9);"><path d="M16 23L16 -3C203 -3 203 0 239 0C275 0 275 -3 468 -3L468 82C353 77 307 81 122 77L304 270C401 373 431 428 431 503C431 618 353 689 226 689C154 689 105 669 56 619L39 483L68 483L81 529C97 587 133 612 200 612C286 612 341 558 341 473C341 398 299 324 186 204Z" stroke="rgb(0, 0, 0)" stroke-width="8" fill="rgb(0, 0, 0)" style="transform:matrix(0.0119,0,0,-0.0119,0,0);"></path></g><g style="transform:matrix(1,0,0,1,131.953125,13.9);"><path d="M51 726L32 700C87 636 187 526 187 266C187 -10 83 -131 32 -194L51 -215C104 -165 273 -23 273 265C273 542 108 675 51 726Z" stroke="rgb(0, 0, 0)" stroke-width="8" fill="rgb(0, 0, 0)" style="transform:matrix(0.0119,0,0,-0.0119,0,0);"></path></g></g></g></g><g style="transform:matrix(1,0,0,1,141,20.984375);"><path d="M509 8L509 61L309 61C215 61 122 139 109 244L492 244L492 297L109 297C121 397 204 480 309 480L509 480L509 533L314 533C167 533 55 411 55 271C55 131 167 8 314 8Z" stroke="rgb(0, 0, 0)" stroke-width="8" fill="rgb(0, 0, 0)" style="transform:matrix(0.017,0,0,-0.017,0,0);"></path></g><g style="transform:matrix(1,0,0,1,155,20.984375);"><path d="M105 664L161 662C185 661 196 653 196 635C196 621 192 589 187 559L112 125C96 34 94 32 54 28L13 25L9 -3L51 -2C98 0 117 0 141 0L238 -3L264 -3L267 25L218 28C191 30 182 38 182 58C182 67 183 76 186 93L287 648C316 654 336 656 363 656C450 656 496 617 496 543C496 448 418 378 314 378L270 378L267 367C401 172 432 124 507 -3L592 0C593 0 607 -1 626 -3L639 -3L639 24C599 29 588 37 559 79L375 354C430 364 459 376 495 402C553 444 584 499 584 560C584 646 520 693 409 691L108 691Z" stroke="rgb(0, 0, 0)" stroke-width="8" fill="rgb(0, 0, 0)" style="transform:matrix(0.017,0,0,-0.017,0,0);"></path></g><g><g><g><g style="transform:matrix(1,0,0,1,166.796875,13.9);"><path d="M280 181L280 106C280 46 269 32 220 30L158 27L158 -3C291 0 291 0 315 0C339 0 339 0 472 -3L472 27L424 30C375 33 364 46 364 106L364 181C423 181 444 180 472 177L472 248L364 245L365 697L285 667L2 204L2 181ZM280 245L65 245L280 597Z" stroke="rgb(0, 0, 0)" stroke-width="8" fill="rgb(0, 0, 0)" style="transform:matrix(0.0119,0,0,-0.0119,0,0);"></path></g></g></g></g></g></g></svg>