<svg xmlns="http://www.w3.org/2000/svg" width="160.09375" height="30.46875" style="width:160.09375px;height:30.46875px;font-family:Asana-Math, Asana;background:transparent;"><g><g><g style="transform:matrix(1,0,0,1,2,20.984375);"><path d="M-33 6L-28 -4C79 0 185 0 292 0C393 0 494 -1 594 -4L602 6C560 116 534 238 504 354C475 466 442 580 424 697L399 697C336 587 53 127 -33 6ZM482 37L50 37C148 215 249 389 356 564L363 564C408 391 449 215 482 37Z" stroke="rgb(0, 0, 0)" stroke-width="8" fill="rgb(0, 0, 0)" style="transform:matrix(0.017,0,0,-0.017,0,0);"></path></g><g><g><g><g style="transform:matrix(1,0,0,1,13.6875,13.9);"><path d="M146 266C146 526 243 632 301 700L282 726C225 675 60 542 60 266C60 159 85 58 133 -32C168 -99 200 -138 282 -215L301 -194C255 -137 146 -15 146 266Z" stroke="rgb(0, 0, 0)" stroke-width="8" fill="rgb(0, 0, 0)" style="transform:matrix(0.0119,0,0,-0.0119,0,0);"></path></g><g style="transform:matrix(1,0,0,1,17.6875,13.9);"><path d="M251 722L239 733C187 707 151 698 79 691L75 670L123 670C147 670 157 663 157 648C157 645 157 640 154 622C143 567 70 182 55 132C42 82 36 52 36 31C36 6 47 -9 66 -9C92 -9 128 12 226 85L216 103L190 86C161 67 139 56 129 56C122 56 116 66 116 76C116 82 117 89 120 104Z" stroke="rgb(0, 0, 0)" stroke-width="8" fill="rgb(0, 0, 0)" style="transform:matrix(0.0119,0,0,-0.0119,0,0);"></path></g><g style="transform:matrix(1,0,0,1,20.921875,13.9);"><path d="M51 726L32 700C87 636 187 526 187 266C187 -10 83 -131 32 -194L51 -215C104 -165 273 -23 273 265C273 542 108 675 51 726Z" stroke="rgb(0, 0, 0)" stroke-width="8" fill="rgb(0, 0, 0)" style="transform:matrix(0.0119,0,0,-0.0119,0,0);"></path></g></g></g><g><g><g style="transform:matrix(1,0,0,1,13.6875,26.36875);"><path d="M34 388L41 368L73 389C110 412 113 414 120 414C130 414 138 404 138 391C138 384 134 361 130 347L64 107C56 76 51 49 51 30C51 6 62 -9 81 -9C107 -9 143 12 241 85L231 103L205 86C176 67 153 56 144 56C137 56 131 66 131 76C131 86 133 95 138 116L215 420C219 437 221 448 221 456C221 473 212 482 196 482C174 482 137 461 62 408ZM228 712C199 712 170 679 170 645C170 620 185 604 209 604C240 604 264 633 264 671C264 695 249 712 228 712ZM471 351L371 -144C360 -196 342 -231 324 -231C310 -231 292 -225 271 -212L263 -269C273 -274 286 -276 301 -276C341 -276 381 -233 417 -152C437 -107 451 -57 479 70L555 420C559 438 561 451 561 457C561 473 552 482 536 482C514 482 477 461 402 408L374 388L381 368L413 389C450 412 453 414 460 414C470 414 478 404 478 391C478 382 471 356 471 351ZM562 712C533 712 504 679 504 645C504 620 519 604 543 604C574 604 598 633 598 671C598 695 583 712 562 712Z" stroke="rgb(0, 0, 0)" stroke-width="8" fill="rgb(0, 0, 0)" style="transform:matrix(0.0119,0,0,-0.0119,0,0);"></path></g></g></g></g><g style="transform:matrix(1,0,0,1,30,20.984375);"><path d="M604 347L604 406L65 406L65 347ZM604 134L604 193L65 193L65 134Z" stroke="rgb(0, 0, 0)" stroke-width="8" fill="rgb(0, 0, 0)" style="transform:matrix(0.017,0,0,-0.017,0,0);"></path></g><g style="transform:matrix(1,0,0,1,46,20.984375);"><path d="M263 689C108 689 29 566 29 324C29 207 50 106 85 57C120 8 176 -20 238 -20C389 -20 465 110 465 366C465 585 400 689 263 689ZM245 654C342 654 381 556 381 316C381 103 343 15 251 15C154 15 113 116 113 360C113 571 150 654 245 654Z" stroke="rgb(0, 0, 0)" stroke-width="8" fill="rgb(0, 0, 0)" style="transform:matrix(0.017,0,0,-0.017,0,0);"></path></g><g style="transform:matrix(1,0,0,1,58.9375,20.984375);"><path d="M146 266C146 526 243 632 301 700L282 726C225 675 60 542 60 266C60 159 85 58 133 -32C168 -99 200 -138 282 -215L301 -194C255 -137 146 -15 146 266Z" stroke="rgb(0, 0, 0)" stroke-width="8" fill="rgb(0, 0, 0)" style="transform:matrix(0.017,0,0,-0.017,0,0);"></path></g><g style="transform:matrix(1,0,0,1,65,20.984375);"><path d="M345 437L329 437L350 549C366 635 394 673 440 673C470 673 497 658 512 634L522 638C527 654 537 685 545 705L550 720C534 727 503 733 480 733C469 733 453 730 445 726C421 715 339 654 316 630C294 608 282 578 271 521L256 442C215 422 195 414 170 405L165 383L246 383L237 327C207 132 170 -54 148 -123C130 -182 100 -213 64 -213C41 -213 30 -206 12 -184L-2 -188C-6 -211 -20 -259 -25 -268C-16 -273 -1 -276 10 -276C51 -276 105 -245 144 -198C215 -114 235 -18 319 383L423 383C427 402 434 425 440 439L436 446C407 439 408 437 345 437ZM567 152C567 46 612 -11 695 -11C750 -11 810 15 855 57C917 116 961 230 961 331C961 425 911 482 828 482C724 482 567 382 567 152ZM791 444C852 444 885 399 885 315C885 219 854 113 810 60C792 39 766 27 735 27C677 27 643 72 643 151C643 264 682 387 731 427C744 438 767 444 791 444ZM1361 365C1364 403 1369 435 1377 476C1366 481 1362 482 1357 482C1326 482 1295 458 1259 407C1220 351 1181 291 1165 256L1197 408C1201 425 1203 438 1203 450C1203 470 1195 482 1180 482C1159 482 1121 461 1047 408L1019 388L1026 368L1058 389C1086 407 1097 412 1106 412C1116 412 1123 403 1123 390C1123 332 1080 126 1040 -2L1050 -9C1065 -4 1081 -1 1104 4L1117 6L1143 126C1161 209 1184 262 1228 319C1262 363 1289 384 1311 384C1326 384 1336 379 1347 365ZM1901 204L1872 77C1868 60 1866 42 1866 26C1866 4 1875 -9 1890 -9C1913 -9 1954 17 2036 85L2029 106C2005 86 1976 59 1954 59C1945 59 1939 68 1939 82C1939 87 1939 90 1940 93L2032 472L2022 481L1989 463C1948 478 1931 482 1904 482C1876 482 1856 477 1829 464C1767 433 1734 403 1709 354C1665 265 1634 145 1634 67C1634 23 1649 -11 1668 -11C1705 -11 1785 41 1901 204ZM1949 414C1927 305 1908 253 1874 201C1817 117 1756 59 1724 59C1712 59 1706 72 1706 99C1706 163 1734 280 1769 360C1793 415 1816 433 1864 433C1887 433 1905 429 1949 414ZM2324 722L2312 733C2260 707 2224 698 2152 691L2148 670L2196 670C2220 670 2230 663 2230 648C2230 645 2230 640 2227 622C2216 567 2143 182 2128 132C2115 82 2109 52 2109 31C2109 6 2120 -9 2139 -9C2165 -9 2201 12 2299 85L2289 103L2263 86C2234 67 2212 56 2202 56C2195 56 2189 66 2189 76C2189 82 2190 89 2193 104ZM2601 722L2589 733C2537 707 2501 698 2429 691L2425 670L2473 670C2497 670 2507 663 2507 648C2507 645 2507 640 2504 622C2493 567 2420 182 2405 132C2392 82 2386 52 2386 31C2386 6 2397 -9 2416 -9C2442 -9 2478 12 2576 85L2566 103L2540 86C2511 67 2489 56 2479 56C2472 56 2466 66 2466 76C2466 82 2467 89 2470 104ZM3127 722L3115 733C3063 707 3027 698 2955 691L2951 670L2999 670C3023 670 3033 663 3033 648C3033 645 3033 640 3030 622C3019 567 2946 182 2931 132C2918 82 2912 52 2912 31C2912 6 2923 -9 2942 -9C2968 -9 3004 12 3102 85L3092 103L3066 86C3037 67 3015 56 3005 56C2998 56 2992 66 2992 76C2992 82 2993 89 2996 104Z" stroke="rgb(0, 0, 0)" stroke-width="8" fill="rgb(0, 0, 0)" style="transform:matrix(0.017,0,0,-0.017,0,0);"></path></g><g style="transform:matrix(1,0,0,1,118,20.984375);"><path d="M204 123C177 114 159 108 106 93C99 17 74 -48 16 -144L30 -155L71 -136C152 -31 190 32 218 109Z" stroke="rgb(0, 0, 0)" stroke-width="8" fill="rgb(0, 0, 0)" style="transform:matrix(0.017,0,0,-0.017,0,0);"></path></g><g style="transform:matrix(1,0,0,1,125,20.984375);"><path d="M283 388L290 368L322 389C359 412 362 414 369 414C379 414 387 404 387 391C387 384 383 361 379 347L313 107C305 76 300 49 300 30C300 6 311 -9 330 -9C356 -9 392 12 490 85L480 103L454 86C425 67 402 56 393 56C386 56 380 66 380 76C380 86 382 95 387 116L464 420C468 437 470 448 470 456C470 473 461 482 445 482C423 482 386 461 311 408ZM477 712C448 712 419 679 419 645C419 620 434 604 458 604C489 604 513 633 513 671C513 695 498 712 477 712Z" stroke="rgb(0, 0, 0)" stroke-width="8" fill="rgb(0, 0, 0)" style="transform:matrix(0.017,0,0,-0.017,0,0);"></path></g><g style="transform:matrix(1,0,0,1,134,20.984375);"><path d="M204 123C177 114 159 108 106 93C99 17 74 -48 16 -144L30 -155L71 -136C152 -31 190 32 218 109Z" stroke="rgb(0, 0, 0)" stroke-width="8" fill="rgb(0, 0, 0)" style="transform:matrix(0.017,0,0,-0.017,0,0);"></path></g><g style="transform:matrix(1,0,0,1,142,20.984375);"><path d="M443 351L343 -144C332 -196 314 -231 296 -231C282 -231 264 -225 243 -212L235 -269C245 -274 258 -276 273 -276C313 -276 353 -233 389 -152C409 -107 423 -57 451 70L527 420C531 438 533 451 533 457C533 473 524 482 508 482C486 482 449 461 374 408L346 388L353 368L385 389C422 412 425 414 432 414C442 414 450 404 450 391C450 382 443 356 443 351ZM534 712C505 712 476 679 476 645C476 620 491 604 515 604C546 604 570 633 570 671C570 695 555 712 534 712Z" stroke="rgb(0, 0, 0)" stroke-width="8" fill="rgb(0, 0, 0)" style="transform:matrix(0.017,0,0,-0.017,0,0);"></path></g><g style="transform:matrix(1,0,0,1,151.34375,20.984375);"><path d="M51 726L32 700C87 636 187 526 187 266C187 -10 83 -131 32 -194L51 -215C104 -165 273 -23 273 265C273 542 108 675 51 726Z" stroke="rgb(0, 0, 0)" stroke-width="8" fill="rgb(0, 0, 0)" style="transform:matrix(0.017,0,0,-0.017,0,0);"></path></g></g></g></svg>