<svg xmlns="http://www.w3.org/2000/svg" width="165.765625" height="89" style="width:165.765625px;height:89px;font-family:Asana-Math, Asana;background:transparent;"><g><g><g style="transform:matrix(1,0,0,1,2,49.96875);"><path d="M236 722L224 733C179 711 138 697 64 691L60 670L108 670C126 670 142 667 142 647C142 641 142 632 140 622L98 388C78 272 36 80 10 2L17 -9L86 7C94 64 108 164 148 236C193 317 296 414 338 414C349 414 360 407 360 393C360 375 355 342 345 303L294 107C288 85 281 55 281 31C281 6 291 -9 312 -9C344 -9 412 41 471 85L461 103L435 86C412 71 386 56 374 56C367 56 361 65 361 76C361 88 364 101 368 116L432 372C438 398 443 423 443 447C443 464 437 482 411 482C376 482 299 437 231 374C198 343 172 308 144 273L140 275Z" stroke="rgb(0, 0, 0)" stroke-width="8" fill="rgb(0, 0, 0)" style="transform:matrix(0.017,0,0,-0.017,0,0);"></path></g><g><g><g><g style="transform:matrix(1,0,0,1,10.46875,55.353125);"><path d="M478 327C534 327 529 289 530 243L549 243C561 325 574 402 588 484L569 484L569 480C552 436 547 400 491 400L325 400C267 400 274 438 274 484L254 484C243 402 231 325 216 243L235 243L235 246C251 291 257 327 312 327ZM748 425C748 603 644 706 464 706C227 706 53 523 53 272C53 83 147 -18 323 -18C595 -18 748 207 748 425ZM660 409C660 221 571 24 360 24C216 24 141 110 141 277C141 425 199 664 433 664C549 664 660 610 660 409Z" stroke="rgb(0, 0, 0)" stroke-width="8" fill="rgb(0, 0, 0)" style="transform:matrix(0.0119,0,0,-0.0119,0,0);"></path></g></g></g></g><g style="transform:matrix(1,0,0,1,19.71875,49.96875);"><path d="M146 266C146 526 243 632 301 700L282 726C225 675 60 542 60 266C60 159 85 58 133 -32C168 -99 200 -138 282 -215L301 -194C255 -137 146 -15 146 266Z" stroke="rgb(0, 0, 0)" stroke-width="8" fill="rgb(0, 0, 0)" style="transform:matrix(0.017,0,0,-0.017,0,0);"></path></g><g style="transform:matrix(1,0,0,1,25,49.96875);"><path d="M9 1C24 -7 40 -11 52 -11C85 -11 124 18 155 65L231 182L242 113C255 28 278 -11 314 -11C336 -11 368 6 400 35L449 79L440 98C404 68 379 53 363 53C348 53 335 63 325 83C316 102 305 139 300 168L282 269L317 318C364 383 391 406 422 406C438 406 450 398 455 383L469 387L484 472C472 479 463 482 454 482C414 482 374 446 312 354L275 299L269 347C257 446 230 482 171 482C145 482 123 474 114 461L56 378L73 368C103 402 123 416 142 416C175 416 197 375 214 277L225 215L185 153C142 86 108 54 80 54C65 54 54 58 52 63L41 91L21 88C21 53 13 27 9 1Z" stroke="rgb(0, 0, 0)" stroke-width="8" fill="rgb(0, 0, 0)" style="transform:matrix(0.017,0,0,-0.017,0,0);"></path></g><g style="transform:matrix(1,0,0,1,33.84375,49.96875);"><path d="M51 726L32 700C87 636 187 526 187 266C187 -10 83 -131 32 -194L51 -215C104 -165 273 -23 273 265C273 542 108 675 51 726Z" stroke="rgb(0, 0, 0)" stroke-width="8" fill="rgb(0, 0, 0)" style="transform:matrix(0.017,0,0,-0.017,0,0);"></path></g><g style="transform:matrix(1,0,0,1,44,49.96875);"><path d="M604 347L604 406L65 406L65 347ZM604 134L604 193L65 193L65 134Z" stroke="rgb(0, 0, 0)" stroke-width="8" fill="rgb(0, 0, 0)" style="transform:matrix(0.017,0,0,-0.017,0,0);"></path></g><g><g><g><g style="transform:matrix(1,0,0,1,71.1875,20);"><path d="M263 689C108 689 29 566 29 324C29 207 50 106 85 57C120 8 176 -20 238 -20C389 -20 465 110 465 366C465 585 400 689 263 689ZM245 654C342 654 381 556 381 316C381 103 343 15 251 15C154 15 113 116 113 360C113 571 150 654 245 654Z" stroke="rgb(0, 0, 0)" stroke-width="8" fill="rgb(0, 0, 0)" style="transform:matrix(0.017,0,0,-0.017,0,0);"></path></g></g></g><g><g><g style="transform:matrix(1,0,0,1,71.1875,41);"><path d="M418 -3L418 27L366 30C311 33 301 44 301 96L301 700L60 598L67 548L217 614L217 96C217 44 206 33 152 30L96 27L96 -3C250 0 250 0 261 0C292 0 402 -3 418 -3Z" stroke="rgb(0, 0, 0)" stroke-width="8" fill="rgb(0, 0, 0)" style="transform:matrix(0.017,0,0,-0.017,0,0);"></path></g></g></g><g><g><g style="transform:matrix(1,0,0,1,71.1875,62);"><path d="M263 689C108 689 29 566 29 324C29 207 50 106 85 57C120 8 176 -20 238 -20C389 -20 465 110 465 366C465 585 400 689 263 689ZM245 654C342 654 381 556 381 316C381 103 343 15 251 15C154 15 113 116 113 360C113 571 150 654 245 654Z" stroke="rgb(0, 0, 0)" stroke-width="8" fill="rgb(0, 0, 0)" style="transform:matrix(0.017,0,0,-0.017,0,0);"></path></g></g></g><g><g><g style="transform:matrix(1,0,0,1,71.1875,83);"><path d="M263 689C108 689 29 566 29 324C29 207 50 106 85 57C120 8 176 -20 238 -20C389 -20 465 110 465 366C465 585 400 689 263 689ZM245 654C342 654 381 556 381 316C381 103 343 15 251 15C154 15 113 116 113 360C113 571 150 654 245 654Z" stroke="rgb(0, 0, 0)" stroke-width="8" fill="rgb(0, 0, 0)" style="transform:matrix(0.017,0,0,-0.017,0,0);"></path></g></g></g><svg x="60.84375" style="overflow:visible;" y="2" height="85" width="7.640625"><path d=" M 5.98 1.70 l -0.10 -0.10 q -1.09 0.03 -2.16 0.03 q -1.02 0.00 -2.14 -0.03 l -0.15 0.22 q 0.15 0.58 0.15 3.15 v 0.85 h 1.43 v -0.85 q 0.00 -1.31 0.07 -2.14 q 0.05 -0.60 1.19 -0.60 h 1.65 l 0.07 -0.09 v -0.44 z  M 1.58 5.63 v 73.75 h 1.43 v -73.75 z " style="fill:rgb(0, 0, 0);stroke-width:1px;stroke:none;"></path><path d=" M 5.98 83.30 l -0.10 0.10 q -1.09 -0.03 -2.16 -0.03 q -1.02 0.00 -2.14 0.03 l -0.15 -0.22 q 0.15 -0.58 0.15 -3.15 v -0.85 h 1.43 v 0.85 q 0.00 1.31 0.07 2.14 q 0.05 0.60 1.19 0.60 h 1.65 l 0.07 0.09 v 0.44 z" style="fill:rgb(0, 0, 0);stroke-width:1px;stroke:none;"></path></svg><svg x="82.703125" style="overflow:visible;" y="2" height="85" width="7.640625"><path d=" M 1.57 1.70 l 0.10 -0.10 q 1.09 0.03 2.16 0.03 q 1.02 0.00 2.14 -0.03 l 0.15 0.22 q -0.15 0.58 -0.15 3.15 v 0.85 h -1.43 v -0.85 q 0.00 -1.31 -0.07 -2.14 q -0.05 -0.60 -1.19 -0.60 h -1.65 l -0.07 -0.09 v -0.44 z  M 5.97 5.63 v 73.75 h -1.43 v -73.75 z" style="fill:rgb(0, 0, 0);stroke-width:1px;stroke:none;"></path><path d=" M 1.57 83.30 l 0.10 0.10 q 1.09 -0.03 2.16 -0.03 q 1.02 0.00 2.14 0.03 l 0.15 -0.22 q -0.15 -0.58 -0.15 -3.15 v -0.85 h -1.43 v 0.85 q 0.00 1.31 -0.07 2.14 q -0.05 0.60 -1.19 0.60 h -1.65 l -0.07 0.09 v 0.44 z" style="fill:rgb(0, 0, 0);stroke-width:1px;stroke:none;"></path></svg></g><g style="transform:matrix(1,0,0,1,90,49.96875);"><path d="M204 123C177 114 159 108 106 93C99 17 74 -48 16 -144L30 -155L71 -136C152 -31 190 32 218 109Z" stroke="rgb(0, 0, 0)" stroke-width="8" fill="rgb(0, 0, 0)" style="transform:matrix(0.017,0,0,-0.017,0,0);"></path></g><g style="transform:matrix(1,0,0,1,98,49.96875);"><path d="M594 437L578 437L599 549C615 635 643 673 689 673C719 673 746 658 761 634L771 638C776 654 786 685 794 705L799 720C783 727 752 733 729 733C718 733 702 730 694 726C670 715 588 654 565 630C543 608 531 578 520 521L505 442C464 422 444 414 419 405L414 383L495 383L486 327C456 132 419 -54 397 -123C379 -182 349 -213 313 -213C290 -213 279 -206 261 -184L247 -188C243 -211 229 -259 224 -268C233 -273 248 -276 259 -276C300 -276 354 -245 393 -198C464 -114 484 -18 568 383L672 383C676 402 683 425 689 439L685 446C656 439 657 437 594 437ZM816 152C816 46 861 -11 944 -11C999 -11 1059 15 1104 57C1166 116 1210 230 1210 331C1210 425 1160 482 1077 482C973 482 816 382 816 152ZM1040 444C1101 444 1134 399 1134 315C1134 219 1103 113 1059 60C1041 39 1015 27 984 27C926 27 892 72 892 151C892 264 931 387 980 427C993 438 1016 444 1040 444ZM1610 365C1613 403 1618 435 1626 476C1615 481 1611 482 1606 482C1575 482 1544 458 1508 407C1469 351 1430 291 1414 256L1446 408C1450 425 1452 438 1452 450C1452 470 1444 482 1429 482C1408 482 1370 461 1296 408L1268 388L1275 368L1307 389C1335 407 1346 412 1355 412C1365 412 1372 403 1372 390C1372 332 1329 126 1289 -2L1299 -9C1314 -4 1330 -1 1353 4L1366 6L1392 126C1410 209 1433 262 1477 319C1511 363 1538 384 1560 384C1575 384 1585 379 1596 365ZM1984 469L2016 665C2017 667 2017 669 2017 671C2017 689 1995 709 1974 709C1953 709 1931 689 1931 670L1931 665L1964 469ZM2165 469L2197 665C2198 667 2198 669 2198 670C2198 689 2176 709 2155 709C2133 709 2112 690 2112 670L2112 665L2145 469ZM2591 330L2614 330C2622 395 2629 432 2638 458C2614 473 2579 482 2542 482C2497 483 2424 463 2367 400C2313 352 2274 241 2274 136C2274 40 2316 -11 2396 -11C2450 -11 2498 9 2553 54L2603 95L2595 115L2580 105C2508 57 2470 40 2435 40C2379 40 2350 80 2350 159C2350 267 2385 371 2434 409C2455 425 2479 433 2510 433C2555 433 2591 414 2591 390ZM2926 204L2897 77C2893 60 2891 42 2891 26C2891 4 2900 -9 2915 -9C2938 -9 2979 17 3061 85L3054 106C3030 86 3001 59 2979 59C2970 59 2964 68 2964 82C2964 87 2964 90 2965 93L3057 472L3047 481L3014 463C2973 478 2956 482 2929 482C2901 482 2881 477 2854 464C2792 433 2759 403 2734 354C2690 265 2659 145 2659 67C2659 23 2674 -11 2693 -11C2730 -11 2810 41 2926 204ZM2974 414C2952 305 2933 253 2899 201C2842 117 2781 59 2749 59C2737 59 2731 72 2731 99C2731 163 2759 280 2794 360C2818 415 2841 433 2889 433C2912 433 2930 429 2974 414ZM3466 365C3469 403 3474 435 3482 476C3471 481 3467 482 3462 482C3431 482 3400 458 3364 407C3325 351 3286 291 3270 256L3302 408C3306 425 3308 438 3308 450C3308 470 3300 482 3285 482C3264 482 3226 461 3152 408L3124 388L3131 368L3163 389C3191 407 3202 412 3211 412C3221 412 3228 403 3228 390C3228 332 3185 126 3145 -2L3155 -9C3170 -4 3186 -1 3209 4L3222 6L3248 126C3266 209 3289 262 3333 319C3367 363 3394 384 3416 384C3431 384 3441 379 3452 365ZM3591 469L3623 665C3624 667 3624 669 3624 671C3624 689 3602 709 3581 709C3560 709 3538 689 3538 670L3538 665L3571 469ZM3772 469L3804 665C3805 667 3805 669 3805 670C3805 689 3783 709 3762 709C3740 709 3719 690 3719 670L3719 665L3752 469Z" stroke="rgb(0, 0, 0)" stroke-width="8" fill="rgb(0, 0, 0)" style="transform:matrix(0.017,0,0,-0.017,0,0);"></path></g></g></g></svg>