<svg xmlns="http://www.w3.org/2000/svg" width="142.703125" height="29.46875" style="width:142.703125px;height:29.46875px;font-family:Asana-Math, Asana;background:transparent;"><g><g><g style="transform:matrix(1,0,0,1,2,19.984375);"><path d="M146 266C146 526 243 632 301 700L282 726C225 675 60 542 60 266C60 159 85 58 133 -32C168 -99 200 -138 282 -215L301 -194C255 -137 146 -15 146 266Z" stroke="rgb(0, 0, 0)" stroke-width="8" fill="rgb(0, 0, 0)" style="transform:matrix(0.017,0,0,-0.017,0,0);"></path></g><g style="transform:matrix(1,0,0,1,8,19.984375);"><path d="M236 722L224 733C179 711 138 697 64 691L60 670L108 670C126 670 142 667 142 647C142 641 142 632 140 622L98 388C78 272 36 80 10 2L17 -9L86 7C94 64 108 164 148 236C193 317 296 414 338 414C349 414 360 407 360 393C360 375 355 342 345 303L294 107C288 85 281 55 281 31C281 6 291 -9 312 -9C344 -9 412 41 471 85L461 103L435 86C412 71 386 56 374 56C367 56 361 65 361 76C361 88 364 101 368 116L432 372C438 398 443 423 443 447C443 464 437 482 411 482C376 482 299 437 231 374C198 343 172 308 144 273L140 275Z" stroke="rgb(0, 0, 0)" stroke-width="8" fill="rgb(0, 0, 0)" style="transform:matrix(0.017,0,0,-0.017,0,0);"></path></g><g><g><g><g style="transform:matrix(1,0,0,1,16.125,25.36875);"><path d="M478 327C534 327 529 289 530 243L549 243C561 325 574 402 588 484L569 484L569 480C552 436 547 400 491 400L325 400C267 400 274 438 274 484L254 484C243 402 231 325 216 243L235 243L235 246C251 291 257 327 312 327ZM748 425C748 603 644 706 464 706C227 706 53 523 53 272C53 83 147 -18 323 -18C595 -18 748 207 748 425ZM660 409C660 221 571 24 360 24C216 24 141 110 141 277C141 425 199 664 433 664C549 664 660 610 660 409Z" stroke="rgb(0, 0, 0)" stroke-width="8" fill="rgb(0, 0, 0)" style="transform:matrix(0.0119,0,0,-0.0119,0,0);"></path></g></g></g></g><g style="transform:matrix(1,0,0,1,25.375,19.984375);"><path d="M146 266C146 526 243 632 301 700L282 726C225 675 60 542 60 266C60 159 85 58 133 -32C168 -99 200 -138 282 -215L301 -194C255 -137 146 -15 146 266Z" stroke="rgb(0, 0, 0)" stroke-width="8" fill="rgb(0, 0, 0)" style="transform:matrix(0.017,0,0,-0.017,0,0);"></path></g><g style="transform:matrix(1,0,0,1,31,19.984375);"><path d="M9 1C24 -7 40 -11 52 -11C85 -11 124 18 155 65L231 182L242 113C255 28 278 -11 314 -11C336 -11 368 6 400 35L449 79L440 98C404 68 379 53 363 53C348 53 335 63 325 83C316 102 305 139 300 168L282 269L317 318C364 383 391 406 422 406C438 406 450 398 455 383L469 387L484 472C472 479 463 482 454 482C414 482 374 446 312 354L275 299L269 347C257 446 230 482 171 482C145 482 123 474 114 461L56 378L73 368C103 402 123 416 142 416C175 416 197 375 214 277L225 215L185 153C142 86 108 54 80 54C65 54 54 58 52 63L41 91L21 88C21 53 13 27 9 1Z" stroke="rgb(0, 0, 0)" stroke-width="8" fill="rgb(0, 0, 0)" style="transform:matrix(0.017,0,0,-0.017,0,0);"></path></g><g style="transform:matrix(1,0,0,1,39.5,19.984375);"><path d="M51 726L32 700C87 636 187 526 187 266C187 -10 83 -131 32 -194L51 -215C104 -165 273 -23 273 265C273 542 108 675 51 726Z" stroke="rgb(0, 0, 0)" stroke-width="8" fill="rgb(0, 0, 0)" style="transform:matrix(0.017,0,0,-0.017,0,0);"></path></g><g style="transform:matrix(1,0,0,1,45.15625,19.984375);"><path d="M51 726L32 700C87 636 187 526 187 266C187 -10 83 -131 32 -194L51 -215C104 -165 273 -23 273 265C273 542 108 675 51 726Z" stroke="rgb(0, 0, 0)" stroke-width="8" fill="rgb(0, 0, 0)" style="transform:matrix(0.017,0,0,-0.017,0,0);"></path></g><g><g><g><g style="transform:matrix(1,0,0,1,50.8125,25.36875);"><path d="M34 388L41 368L73 389C110 412 113 414 120 414C130 414 138 404 138 391C138 384 134 361 130 347L64 107C56 76 51 49 51 30C51 6 62 -9 81 -9C107 -9 143 12 241 85L231 103L205 86C176 67 153 56 144 56C137 56 131 66 131 76C131 86 133 95 138 116L215 420C219 437 221 448 221 456C221 473 212 482 196 482C174 482 137 461 62 408ZM228 712C199 712 170 679 170 645C170 620 185 604 209 604C240 604 264 633 264 671C264 695 249 712 228 712Z" stroke="rgb(0, 0, 0)" stroke-width="8" fill="rgb(0, 0, 0)" style="transform:matrix(0.0119,0,0,-0.0119,0,0);"></path></g></g></g></g><g style="transform:matrix(1,0,0,1,59,19.984375);"><path d="M604 347L604 406L65 406L65 347ZM604 134L604 193L65 193L65 134Z" stroke="rgb(0, 0, 0)" stroke-width="8" fill="rgb(0, 0, 0)" style="transform:matrix(0.017,0,0,-0.017,0,0);"></path></g><g style="transform:matrix(1,0,0,1,75,19.984375);"><path d="M34 388L41 368L73 389C110 412 113 414 120 414C130 414 138 404 138 391C138 384 134 361 130 347L64 107C56 76 51 49 51 30C51 6 62 -9 81 -9C107 -9 143 12 241 85L231 103L205 86C176 67 153 56 144 56C137 56 131 66 131 76C131 86 133 95 138 116L215 420C219 437 221 448 221 456C221 473 212 482 196 482C174 482 137 461 62 408ZM228 712C199 712 170 679 170 645C170 620 185 604 209 604C240 604 264 633 264 671C264 695 249 712 228 712Z" stroke="rgb(0, 0, 0)" stroke-width="8" fill="rgb(0, 0, 0)" style="transform:matrix(0.017,0,0,-0.017,0,0);"></path></g><g><g><g><g style="transform:matrix(1,0,0,1,80.15625,13.9);"><path d="M125 390L69 107C68 99 56 61 56 31C56 6 67 -9 86 -9C121 -9 156 11 234 74L265 99L255 117L210 86C181 66 161 56 150 56C141 56 136 64 136 76C136 102 150 183 179 328L192 390L299 390L310 440C272 436 238 434 200 434C216 528 227 577 245 631L234 646C214 634 187 622 156 610L131 440C87 419 61 408 43 403L41 390ZM568 722L556 733C511 711 470 697 396 691L392 670L440 670C458 670 474 667 474 647C474 641 474 632 472 622L430 388C410 272 368 80 342 2L349 -9L418 7C426 64 440 164 480 236C525 317 628 414 670 414C681 414 692 407 692 393C692 375 687 342 677 303L626 107C620 85 613 55 613 31C613 6 623 -9 644 -9C676 -9 744 41 803 85L793 103L767 86C744 71 718 56 706 56C699 56 693 65 693 76C693 88 696 101 700 116L764 372C770 398 775 423 775 447C775 464 769 482 743 482C708 482 631 437 563 374C530 343 504 308 476 273L472 275Z" stroke="rgb(0, 0, 0)" stroke-width="8" fill="rgb(0, 0, 0)" style="transform:matrix(0.0119,0,0,-0.0119,0,0);"></path></g></g></g></g><g style="transform:matrix(1,0,0,1,90,19.984375);"><path d="M266 152C266 46 311 -11 394 -11C449 -11 509 15 554 57C616 116 660 230 660 331C660 425 610 482 527 482C423 482 266 382 266 152ZM490 444C551 444 584 399 584 315C584 219 553 113 509 60C491 39 465 27 434 27C376 27 342 72 342 151C342 264 381 387 430 427C443 438 466 444 490 444ZM1184 473L1177 482L1109 465L1099 414C1084 336 1059 268 1028 221C969 130 891 59 851 59C843 59 838 68 838 85C838 99 840 112 845 137L902 408C905 424 907 438 907 451C907 470 898 482 884 482C864 482 826 461 752 408L724 388L731 368L763 389C791 407 802 412 811 412C820 412 828 403 828 392C828 388 827 378 826 374L763 77C761 68 759 44 759 30C759 7 774 -11 794 -11C857 -11 978 101 1062 239L1025 97C1018 73 1014 46 1014 31C1014 6 1025 -9 1044 -9C1070 -9 1106 12 1204 85L1194 103L1168 86C1144 70 1118 59 1107 59C1099 59 1094 66 1094 76C1094 112 1169 416 1184 473ZM1372 390L1316 107C1315 99 1303 61 1303 31C1303 6 1314 -9 1333 -9C1368 -9 1403 11 1481 74L1512 99L1502 117L1457 86C1428 66 1408 56 1397 56C1388 56 1383 64 1383 76C1383 102 1397 183 1426 328L1439 390L1546 390L1557 440C1519 436 1485 434 1447 434C1463 528 1474 577 1492 631L1481 646C1461 634 1434 622 1403 610L1378 440C1334 419 1308 408 1290 403L1288 390ZM1755 -11C1811 -11 1926 62 1969 125C2010 186 2044 296 2044 371C2044 438 2021 482 1985 482C1943 482 1890 456 1838 409C1797 374 1777 348 1741 289L1765 408C1768 425 1770 440 1770 452C1770 471 1762 482 1748 482C1727 482 1689 461 1615 408L1587 388L1594 368L1626 389C1654 407 1665 412 1674 412C1684 412 1691 403 1691 389C1691 381 1689 361 1687 351L1629 8C1619 -52 1600 -143 1580 -233L1572 -270L1579 -276C1600 -269 1620 -264 1652 -259L1694 3C1715 -4 1737 -11 1755 -11ZM1722 165C1744 293 1851 424 1934 424C1960 424 1972 402 1972 356C1972 275 1932 156 1879 80C1859 51 1827 36 1786 36C1755 36 1730 43 1704 59ZM2570 473L2563 482L2495 465L2485 414C2470 336 2445 268 2414 221C2355 130 2277 59 2237 59C2229 59 2224 68 2224 85C2224 99 2226 112 2231 137L2288 408C2291 424 2293 438 2293 451C2293 470 2284 482 2270 482C2250 482 2212 461 2138 408L2110 388L2117 368L2149 389C2177 407 2188 412 2197 412C2206 412 2214 403 2214 392C2214 388 2213 378 2212 374L2149 77C2147 68 2145 44 2145 30C2145 7 2160 -11 2180 -11C2243 -11 2364 101 2448 239L2411 97C2404 73 2400 46 2400 31C2400 6 2411 -9 2430 -9C2456 -9 2492 12 2590 85L2580 103L2554 86C2530 70 2504 59 2493 59C2485 59 2480 66 2480 76C2480 112 2555 416 2570 473ZM2758 390L2702 107C2701 99 2689 61 2689 31C2689 6 2700 -9 2719 -9C2754 -9 2789 11 2867 74L2898 99L2888 117L2843 86C2814 66 2794 56 2783 56C2774 56 2769 64 2769 76C2769 102 2783 183 2812 328L2825 390L2932 390L2943 440C2905 436 2871 434 2833 434C2849 528 2860 577 2878 631L2867 646C2847 634 2820 622 2789 610L2764 440C2720 419 2694 408 2676 403L2674 390Z" stroke="rgb(0, 0, 0)" stroke-width="8" fill="rgb(0, 0, 0)" style="transform:matrix(0.017,0,0,-0.017,0,0);"></path></g></g></g></svg>