<svg xmlns="http://www.w3.org/2000/svg" width="371.96875" height="49.984375" style="width:371.96875px;height:49.984375px;font-family:Asana-Math, Asana;background:transparent;"><g><g><g style="transform:matrix(1,0,0,1,2,31);"><path d="M275 482C208 482 55 419 55 259C55 182 100 136 177 136C185 136 196 136 207 137L166 99C150 84 139 66 139 52C139 42 146 31 160 19C91 -4 -37 -48 -37 -159C-37 -230 33 -276 142 -276C271 -276 384 -204 384 -121C384 -85 363 -49 320 -14L260 35C226 62 213 81 213 100C213 114 228 128 240 146C338 170 409 253 409 342C409 357 406 376 405 380C422 378 430 378 439 378C456 378 466 379 489 382L498 427L495 433C467 426 447 424 393 424C393 425 369 482 275 482ZM176 1L253 -58C299 -94 318 -121 318 -154C318 -206 249 -248 166 -248C84 -248 27 -206 27 -145C27 -43 137 -11 176 1ZM250 448C308 448 337 412 337 341C337 238 289 168 219 168C158 168 126 209 126 288C126 383 177 448 250 448ZM603 470C660 543 698 610 732 696L719 709C683 697 673 694 622 679C616 599 592 533 544 456L559 446Z" stroke="rgb(0, 0, 0)" stroke-width="8" fill="rgb(0, 0, 0)" style="transform:matrix(0.017,0,0,-0.017,0,0);"></path></g><g style="transform:matrix(1,0,0,1,15.1875,31);"><path d="M146 266C146 526 243 632 301 700L282 726C225 675 60 542 60 266C60 159 85 58 133 -32C168 -99 200 -138 282 -215L301 -194C255 -137 146 -15 146 266Z" stroke="rgb(0, 0, 0)" stroke-width="8" fill="rgb(0, 0, 0)" style="transform:matrix(0.017,0,0,-0.017,0,0);"></path></g><g style="transform:matrix(1,0,0,1,21,31);"><path d="M322 -11C334 -11 343 -9 372 -1C383 61 391 95 402 142L380 142L358 82C352 64 340 57 319 57C307 57 291 59 270 64L252 68C219 75 185 80 166 80C134 80 107 74 71 59L410 441L416 473L407 482L384 459C374 449 364 445 350 445C316 445 264 453 216 466L198 471C170 478 150 482 136 482C119 482 99 479 75 472L43 350L64 350L94 408C111 412 120 413 133 413C174 413 206 398 259 398C295 398 319 404 352 421L-1 21L8 -6C37 17 64 26 99 26C162 26 253 -11 322 -11Z" stroke="rgb(0, 0, 0)" stroke-width="8" fill="rgb(0, 0, 0)" style="transform:matrix(0.017,0,0,-0.017,0,0);"></path></g><g style="transform:matrix(1,0,0,1,28.359375,31);"><path d="M51 726L32 700C87 636 187 526 187 266C187 -10 83 -131 32 -194L51 -215C104 -165 273 -23 273 265C273 542 108 675 51 726Z" stroke="rgb(0, 0, 0)" stroke-width="8" fill="rgb(0, 0, 0)" style="transform:matrix(0.017,0,0,-0.017,0,0);"></path></g><g style="transform:matrix(1,0,0,1,39,31);"><path d="M604 347L604 406L65 406L65 347ZM604 134L604 193L65 193L65 134Z" stroke="rgb(0, 0, 0)" stroke-width="8" fill="rgb(0, 0, 0)" style="transform:matrix(0.017,0,0,-0.017,0,0);"></path></g><g><g><g><g style="transform:matrix(1,0,0,1,61.046875,19);"><path d="M91 666C135 691 168 702 202 704C303 709 366 618 375 455C377 426 375 403 373 353C306 400 270 414 219 411C170 408 130 388 96 347C54 299 33 235 36 173C42 65 129 -16 233 -11C302 -7 359 29 398 92C440 162 466 297 460 413C450 613 327 758 175 750C136 748 102 738 48 715ZM369 318C359 206 351 163 328 111C305 57 263 21 219 19C165 16 128 67 124 152C118 266 180 364 261 368C299 371 331 354 369 318Z" stroke="rgb(0, 0, 0)" stroke-width="8" fill="rgb(0, 0, 0)" style="transform:matrix(0.017,0,0,-0.017,0,0);"></path></g></g></g><g><g><g style="transform:matrix(1,0,0,1,57.046875,44);"><path d="M91 666C135 691 168 702 202 704C303 709 366 618 375 455C377 426 375 403 373 353C306 400 270 414 219 411C170 408 130 388 96 347C54 299 33 235 36 173C42 65 129 -16 233 -11C302 -7 359 29 398 92C440 162 466 297 460 413C450 613 327 758 175 750C136 748 102 738 48 715ZM369 318C359 206 351 163 328 111C305 57 263 21 219 19C165 16 128 67 124 152C118 266 180 364 261 368C299 371 331 354 369 318ZM816 -11C828 -11 837 -9 866 -1C877 61 885 95 896 142L874 142L852 82C846 64 834 57 813 57C801 57 785 59 764 64L746 68C713 75 679 80 660 80C628 80 601 74 565 59L904 441L910 473L901 482L878 459C868 449 858 445 844 445C810 445 758 453 710 466L692 471C664 478 644 482 630 482C613 482 593 479 569 472L537 350L558 350L588 408C605 412 614 413 627 413C668 413 700 398 753 398C789 398 813 404 846 421L493 21L502 -6C531 17 558 26 593 26C656 26 747 -11 816 -11Z" stroke="rgb(0, 0, 0)" stroke-width="8" fill="rgb(0, 0, 0)" style="transform:matrix(0.017,0,0,-0.017,0,0);"></path></g></g></g><line style="fill:none;stroke-width:1px;stroke:rgb(0, 0, 0);" x1="57.046875" y1="26.75" x2="72.984375" y2="26.75"></line></g><g style="transform:matrix(1,0,0,1,75,31);"><path d="M275 482C208 482 55 419 55 259C55 182 100 136 177 136C185 136 196 136 207 137L166 99C150 84 139 66 139 52C139 42 146 31 160 19C91 -4 -37 -48 -37 -159C-37 -230 33 -276 142 -276C271 -276 384 -204 384 -121C384 -85 363 -49 320 -14L260 35C226 62 213 81 213 100C213 114 228 128 240 146C338 170 409 253 409 342C409 357 406 376 405 380C422 378 430 378 439 378C456 378 466 379 489 382L498 427L495 433C467 426 447 424 393 424C393 425 369 482 275 482ZM176 1L253 -58C299 -94 318 -121 318 -154C318 -206 249 -248 166 -248C84 -248 27 -206 27 -145C27 -43 137 -11 176 1ZM250 448C308 448 337 412 337 341C337 238 289 168 219 168C158 168 126 209 126 288C126 383 177 448 250 448Z" stroke="rgb(0, 0, 0)" stroke-width="8" fill="rgb(0, 0, 0)" style="transform:matrix(0.017,0,0,-0.017,0,0);"></path></g><g style="transform:matrix(1,0,0,1,83.140625,31);"><path d="M146 266C146 526 243 632 301 700L282 726C225 675 60 542 60 266C60 159 85 58 133 -32C168 -99 200 -138 282 -215L301 -194C255 -137 146 -15 146 266Z" stroke="rgb(0, 0, 0)" stroke-width="8" fill="rgb(0, 0, 0)" style="transform:matrix(0.017,0,0,-0.017,0,0);"></path></g><g style="transform:matrix(1,0,0,1,89,31);"><path d="M322 -11C334 -11 343 -9 372 -1C383 61 391 95 402 142L380 142L358 82C352 64 340 57 319 57C307 57 291 59 270 64L252 68C219 75 185 80 166 80C134 80 107 74 71 59L410 441L416 473L407 482L384 459C374 449 364 445 350 445C316 445 264 453 216 466L198 471C170 478 150 482 136 482C119 482 99 479 75 472L43 350L64 350L94 408C111 412 120 413 133 413C174 413 206 398 259 398C295 398 319 404 352 421L-1 21L8 -6C37 17 64 26 99 26C162 26 253 -11 322 -11Z" stroke="rgb(0, 0, 0)" stroke-width="8" fill="rgb(0, 0, 0)" style="transform:matrix(0.017,0,0,-0.017,0,0);"></path></g><g style="transform:matrix(1,0,0,1,96.3125,31);"><path d="M51 726L32 700C87 636 187 526 187 266C187 -10 83 -131 32 -194L51 -215C104 -165 273 -23 273 265C273 542 108 675 51 726Z" stroke="rgb(0, 0, 0)" stroke-width="8" fill="rgb(0, 0, 0)" style="transform:matrix(0.017,0,0,-0.017,0,0);"></path></g><g style="transform:matrix(1,0,0,1,107,31);"><path d="M604 347L604 406L65 406L65 347ZM604 134L604 193L65 193L65 134Z" stroke="rgb(0, 0, 0)" stroke-width="8" fill="rgb(0, 0, 0)" style="transform:matrix(0.017,0,0,-0.017,0,0);"></path></g><g style="transform:matrix(1,0,0,1,123,31);"><path d="M275 482C208 482 55 419 55 259C55 182 100 136 177 136C185 136 196 136 207 137L166 99C150 84 139 66 139 52C139 42 146 31 160 19C91 -4 -37 -48 -37 -159C-37 -230 33 -276 142 -276C271 -276 384 -204 384 -121C384 -85 363 -49 320 -14L260 35C226 62 213 81 213 100C213 114 228 128 240 146C338 170 409 253 409 342C409 357 406 376 405 380C422 378 430 378 439 378C456 378 466 379 489 382L498 427L495 433C467 426 447 424 393 424C393 425 369 482 275 482ZM176 1L253 -58C299 -94 318 -121 318 -154C318 -206 249 -248 166 -248C84 -248 27 -206 27 -145C27 -43 137 -11 176 1ZM250 448C308 448 337 412 337 341C337 238 289 168 219 168C158 168 126 209 126 288C126 383 177 448 250 448Z" stroke="rgb(0, 0, 0)" stroke-width="8" fill="rgb(0, 0, 0)" style="transform:matrix(0.017,0,0,-0.017,0,0);"></path></g><g style="transform:matrix(1,0,0,1,131.78125,31);"><path d="M146 266C146 526 243 632 301 700L282 726C225 675 60 542 60 266C60 159 85 58 133 -32C168 -99 200 -138 282 -215L301 -194C255 -137 146 -15 146 266Z" stroke="rgb(0, 0, 0)" stroke-width="8" fill="rgb(0, 0, 0)" style="transform:matrix(0.017,0,0,-0.017,0,0);"></path></g><g style="transform:matrix(1,0,0,1,137,31);"><path d="M322 -11C334 -11 343 -9 372 -1C383 61 391 95 402 142L380 142L358 82C352 64 340 57 319 57C307 57 291 59 270 64L252 68C219 75 185 80 166 80C134 80 107 74 71 59L410 441L416 473L407 482L384 459C374 449 364 445 350 445C316 445 264 453 216 466L198 471C170 478 150 482 136 482C119 482 99 479 75 472L43 350L64 350L94 408C111 412 120 413 133 413C174 413 206 398 259 398C295 398 319 404 352 421L-1 21L8 -6C37 17 64 26 99 26C162 26 253 -11 322 -11Z" stroke="rgb(0, 0, 0)" stroke-width="8" fill="rgb(0, 0, 0)" style="transform:matrix(0.017,0,0,-0.017,0,0);"></path></g><g style="transform:matrix(1,0,0,1,144.953125,31);"><path d="M51 726L32 700C87 636 187 526 187 266C187 -10 83 -131 32 -194L51 -215C104 -165 273 -23 273 265C273 542 108 675 51 726Z" stroke="rgb(0, 0, 0)" stroke-width="8" fill="rgb(0, 0, 0)" style="transform:matrix(0.017,0,0,-0.017,0,0);"></path></g><g style="transform:matrix(1,0,0,1,150.609375,31);"><path d="M146 266C146 526 243 632 301 700L282 726C225 675 60 542 60 266C60 159 85 58 133 -32C168 -99 200 -138 282 -215L301 -194C255 -137 146 -15 146 266Z" stroke="rgb(0, 0, 0)" stroke-width="8" fill="rgb(0, 0, 0)" style="transform:matrix(0.017,0,0,-0.017,0,0);"></path></g><g style="transform:matrix(1,0,0,1,156,31);"><path d="M418 -3L418 27L366 30C311 33 301 44 301 96L301 700L60 598L67 548L217 614L217 96C217 44 206 33 152 30L96 27L96 -3C250 0 250 0 261 0C292 0 402 -3 418 -3Z" stroke="rgb(0, 0, 0)" stroke-width="8" fill="rgb(0, 0, 0)" style="transform:matrix(0.017,0,0,-0.017,0,0);"></path></g><g style="transform:matrix(1,0,0,1,168,31);"><path d="M555 243L555 299L51 299L51 243Z" stroke="rgb(0, 0, 0)" stroke-width="8" fill="rgb(0, 0, 0)" style="transform:matrix(0.017,0,0,-0.017,0,0);"></path></g><g style="transform:matrix(1,0,0,1,181,31);"><path d="M275 482C208 482 55 419 55 259C55 182 100 136 177 136C185 136 196 136 207 137L166 99C150 84 139 66 139 52C139 42 146 31 160 19C91 -4 -37 -48 -37 -159C-37 -230 33 -276 142 -276C271 -276 384 -204 384 -121C384 -85 363 -49 320 -14L260 35C226 62 213 81 213 100C213 114 228 128 240 146C338 170 409 253 409 342C409 357 406 376 405 380C422 378 430 378 439 378C456 378 466 379 489 382L498 427L495 433C467 426 447 424 393 424C393 425 369 482 275 482ZM176 1L253 -58C299 -94 318 -121 318 -154C318 -206 249 -248 166 -248C84 -248 27 -206 27 -145C27 -43 137 -11 176 1ZM250 448C308 448 337 412 337 341C337 238 289 168 219 168C158 168 126 209 126 288C126 383 177 448 250 448Z" stroke="rgb(0, 0, 0)" stroke-width="8" fill="rgb(0, 0, 0)" style="transform:matrix(0.017,0,0,-0.017,0,0);"></path></g><g style="transform:matrix(1,0,0,1,189.484375,31);"><path d="M146 266C146 526 243 632 301 700L282 726C225 675 60 542 60 266C60 159 85 58 133 -32C168 -99 200 -138 282 -215L301 -194C255 -137 146 -15 146 266Z" stroke="rgb(0, 0, 0)" stroke-width="8" fill="rgb(0, 0, 0)" style="transform:matrix(0.017,0,0,-0.017,0,0);"></path></g><g style="transform:matrix(1,0,0,1,195,31);"><path d="M322 -11C334 -11 343 -9 372 -1C383 61 391 95 402 142L380 142L358 82C352 64 340 57 319 57C307 57 291 59 270 64L252 68C219 75 185 80 166 80C134 80 107 74 71 59L410 441L416 473L407 482L384 459C374 449 364 445 350 445C316 445 264 453 216 466L198 471C170 478 150 482 136 482C119 482 99 479 75 472L43 350L64 350L94 408C111 412 120 413 133 413C174 413 206 398 259 398C295 398 319 404 352 421L-1 21L8 -6C37 17 64 26 99 26C162 26 253 -11 322 -11Z" stroke="rgb(0, 0, 0)" stroke-width="8" fill="rgb(0, 0, 0)" style="transform:matrix(0.017,0,0,-0.017,0,0);"></path></g><g style="transform:matrix(1,0,0,1,202.65625,31);"><path d="M51 726L32 700C87 636 187 526 187 266C187 -10 83 -131 32 -194L51 -215C104 -165 273 -23 273 265C273 542 108 675 51 726Z" stroke="rgb(0, 0, 0)" stroke-width="8" fill="rgb(0, 0, 0)" style="transform:matrix(0.017,0,0,-0.017,0,0);"></path></g><g style="transform:matrix(1,0,0,1,208.3125,31);"><path d="M51 726L32 700C87 636 187 526 187 266C187 -10 83 -131 32 -194L51 -215C104 -165 273 -23 273 265C273 542 108 675 51 726Z" stroke="rgb(0, 0, 0)" stroke-width="8" fill="rgb(0, 0, 0)" style="transform:matrix(0.017,0,0,-0.017,0,0);"></path></g><g style="transform:matrix(1,0,0,1,214,31);"><path d="M204 123C177 114 159 108 106 93C99 17 74 -48 16 -144L30 -155L71 -136C152 -31 190 32 218 109Z" stroke="rgb(0, 0, 0)" stroke-width="8" fill="rgb(0, 0, 0)" style="transform:matrix(0.017,0,0,-0.017,0,0);"></path></g><g style="transform:matrix(1,0,0,1,221,31);"><path d="M416 420C437 420 450 421 475 424C420 350 321 266 321 126C321 44 356 -11 409 -11C473 -11 525 44 599 187C590 143 587 118 587 95C587 32 616 -11 661 -11C795 -11 948 238 948 384C948 441 922 482 886 482C873 482 861 478 853 470L803 423L814 404C823 410 832 413 841 413C868 413 884 390 884 350C884 205 787 39 702 39C673 39 652 79 652 134C652 181 661 247 673 290L725 474L718 482L644 460L615 311C603 249 589 209 560 155C520 80 482 39 452 39C417 39 394 78 394 136C394 255 435 352 534 464L524 482C504 473 491 470 463 470C435 470 393 472 364 475L352 476C346 477 341 477 340 477C328 477 319 475 308 470C294 443 283 407 270 352L292 352L309 394C316 411 336 422 360 422C394 422 377 420 416 420ZM1206 722L1194 733C1149 711 1108 697 1034 691L1030 670L1078 670C1096 670 1112 667 1112 647C1112 641 1112 632 1110 622L1068 388C1048 272 1006 80 980 2L987 -9L1056 7C1064 64 1078 164 1118 236C1163 317 1266 414 1308 414C1319 414 1330 407 1330 393C1330 375 1325 342 1315 303L1264 107C1258 85 1251 55 1251 31C1251 6 1261 -9 1282 -9C1314 -9 1382 41 1441 85L1431 103L1405 86C1382 71 1356 56 1344 56C1337 56 1331 65 1331 76C1331 88 1334 101 1338 116L1402 372C1408 398 1413 423 1413 447C1413 464 1407 482 1381 482C1346 482 1269 437 1201 374C1168 343 1142 308 1114 273L1110 275ZM1797 111L1773 94C1720 56 1672 36 1636 36C1589 36 1560 73 1560 133C1560 158 1563 185 1568 214C1585 218 1694 248 1719 259C1804 296 1843 342 1843 404C1843 451 1809 482 1759 482C1691 496 1581 423 1544 349C1514 299 1484 180 1484 113C1484 35 1528 -11 1600 -11C1657 -11 1713 17 1805 92ZM1582 274C1599 343 1619 386 1648 412C1666 428 1697 440 1721 440C1750 440 1769 420 1769 388C1769 344 1734 297 1682 272C1654 258 1618 247 1573 237ZM2225 365C2228 403 2233 435 2241 476C2230 481 2226 482 2221 482C2190 482 2159 458 2123 407C2084 351 2045 291 2029 256L2061 408C2065 425 2067 438 2067 450C2067 470 2059 482 2044 482C2023 482 1985 461 1911 408L1883 388L1890 368L1922 389C1950 407 1961 412 1970 412C1980 412 1987 403 1987 390C1987 332 1944 126 1904 -2L1914 -9C1929 -4 1945 -1 1968 4L1981 6L2007 126C2025 209 2048 262 2092 319C2126 363 2153 384 2175 384C2190 384 2200 379 2211 365ZM2573 111L2549 94C2496 56 2448 36 2412 36C2365 36 2336 73 2336 133C2336 158 2339 185 2344 214C2361 218 2470 248 2495 259C2580 296 2619 342 2619 404C2619 451 2585 482 2535 482C2467 496 2357 423 2320 349C2290 299 2260 180 2260 113C2260 35 2304 -11 2376 -11C2433 -11 2489 17 2581 92ZM2358 274C2375 343 2395 386 2424 412C2442 428 2473 440 2497 440C2526 440 2545 420 2545 388C2545 344 2510 297 2458 272C2430 258 2394 247 2349 237ZM3157 482C3090 482 2937 419 2937 259C2937 182 2982 136 3059 136C3067 136 3078 136 3089 137L3048 99C3032 84 3021 66 3021 52C3021 42 3028 31 3042 19C2973 -4 2845 -48 2845 -159C2845 -230 2915 -276 3024 -276C3153 -276 3266 -204 3266 -121C3266 -85 3245 -49 3202 -14L3142 35C3108 62 3095 81 3095 100C3095 114 3110 128 3122 146C3220 170 3291 253 3291 342C3291 357 3288 376 3287 380C3304 378 3312 378 3321 378C3338 378 3348 379 3371 382L3380 427L3377 433C3349 426 3329 424 3275 424C3275 425 3251 482 3157 482ZM3058 1L3135 -58C3181 -94 3200 -121 3200 -154C3200 -206 3131 -248 3048 -248C2966 -248 2909 -206 2909 -145C2909 -43 3019 -11 3058 1ZM3132 448C3190 448 3219 412 3219 341C3219 238 3171 168 3101 168C3040 168 3008 209 3008 288C3008 383 3059 448 3132 448Z" stroke="rgb(0, 0, 0)" stroke-width="8" fill="rgb(0, 0, 0)" style="transform:matrix(0.017,0,0,-0.017,0,0);"></path></g><g style="transform:matrix(1,0,0,1,278.65625,31);"><path d="M146 266C146 526 243 632 301 700L282 726C225 675 60 542 60 266C60 159 85 58 133 -32C168 -99 200 -138 282 -215L301 -194C255 -137 146 -15 146 266Z" stroke="rgb(0, 0, 0)" stroke-width="8" fill="rgb(0, 0, 0)" style="transform:matrix(0.017,0,0,-0.017,0,0);"></path></g><g style="transform:matrix(1,0,0,1,284,31);"><path d="M322 -11C334 -11 343 -9 372 -1C383 61 391 95 402 142L380 142L358 82C352 64 340 57 319 57C307 57 291 59 270 64L252 68C219 75 185 80 166 80C134 80 107 74 71 59L410 441L416 473L407 482L384 459C374 449 364 445 350 445C316 445 264 453 216 466L198 471C170 478 150 482 136 482C119 482 99 479 75 472L43 350L64 350L94 408C111 412 120 413 133 413C174 413 206 398 259 398C295 398 319 404 352 421L-1 21L8 -6C37 17 64 26 99 26C162 26 253 -11 322 -11Z" stroke="rgb(0, 0, 0)" stroke-width="8" fill="rgb(0, 0, 0)" style="transform:matrix(0.017,0,0,-0.017,0,0);"></path></g><g style="transform:matrix(1,0,0,1,291.828125,31);"><path d="M51 726L32 700C87 636 187 526 187 266C187 -10 83 -131 32 -194L51 -215C104 -165 273 -23 273 265C273 542 108 675 51 726Z" stroke="rgb(0, 0, 0)" stroke-width="8" fill="rgb(0, 0, 0)" style="transform:matrix(0.017,0,0,-0.017,0,0);"></path></g><g style="transform:matrix(1,0,0,1,302,31);"><path d="M604 347L604 406L65 406L65 347ZM604 134L604 193L65 193L65 134Z" stroke="rgb(0, 0, 0)" stroke-width="8" fill="rgb(0, 0, 0)" style="transform:matrix(0.017,0,0,-0.017,0,0);"></path></g><g><g><g><g style="transform:matrix(1,0,0,1,339.515625,19);"><path d="M418 -3L418 27L366 30C311 33 301 44 301 96L301 700L60 598L67 548L217 614L217 96C217 44 206 33 152 30L96 27L96 -3C250 0 250 0 261 0C292 0 402 -3 418 -3Z" stroke="rgb(0, 0, 0)" stroke-width="8" fill="rgb(0, 0, 0)" style="transform:matrix(0.017,0,0,-0.017,0,0);"></path></g></g></g><g><g><g style="transform:matrix(1,0,0,1,320.515625,44.984375);"><path d="M418 -3L418 27L366 30C311 33 301 44 301 96L301 700L60 598L67 548L217 614L217 96C217 44 206 33 152 30L96 27L96 -3C250 0 250 0 261 0C292 0 402 -3 418 -3Z" stroke="rgb(0, 0, 0)" stroke-width="8" fill="rgb(0, 0, 0)" style="transform:matrix(0.017,0,0,-0.017,0,0);"></path></g><g style="transform:matrix(1,0,0,1,332.515625,44.984375);"><path d="M604 241L604 300L364 300L364 538L305 538L305 300L65 300L65 241L305 241L305 0L364 0L364 241Z" stroke="rgb(0, 0, 0)" stroke-width="8" fill="rgb(0, 0, 0)" style="transform:matrix(0.017,0,0,-0.017,0,0);"></path></g><g style="transform:matrix(1,0,0,1,346.515625,44.984375);"><path d="M328 111L304 94C251 56 203 36 167 36C120 36 91 73 91 133C91 158 94 185 99 214C116 218 225 248 250 259C335 296 374 342 374 404C374 451 340 482 290 482C222 496 112 423 75 349C45 299 15 180 15 113C15 35 59 -11 131 -11C188 -11 244 17 336 92ZM113 274C130 343 150 386 179 412C197 428 228 440 252 440C281 440 300 420 300 388C300 344 265 297 213 272C185 258 149 247 104 237Z" stroke="rgb(0, 0, 0)" stroke-width="8" fill="rgb(0, 0, 0)" style="transform:matrix(0.017,0,0,-0.017,0,0);"></path></g><g><g><g><g style="transform:matrix(1,0,0,1,353.328125,38.9);"><path d="M555 243L555 299L51 299L51 243ZM927 -11C939 -11 948 -9 977 -1C988 61 996 95 1007 142L985 142L963 82C957 64 945 57 924 57C912 57 896 59 875 64L857 68C824 75 790 80 771 80C739 80 712 74 676 59L1015 441L1021 473L1012 482L989 459C979 449 969 445 955 445C921 445 869 453 821 466L803 471C775 478 755 482 741 482C724 482 704 479 680 472L648 350L669 350L699 408C716 412 725 413 738 413C779 413 811 398 864 398C900 398 924 404 957 421L604 21L613 -6C642 17 669 26 704 26C767 26 858 -11 927 -11Z" stroke="rgb(0, 0, 0)" stroke-width="8" fill="rgb(0, 0, 0)" style="transform:matrix(0.0119,0,0,-0.0119,0,0);"></path></g></g></g></g></g></g><line style="fill:none;stroke-width:1px;stroke:rgb(0, 0, 0);" x1="320.515625" y1="26.75" x2="366.234375" y2="26.75"></line></g></g></g></svg>